%TF.GenerationSoftware,KiCad,Pcbnew,(5.1.6)-1*%
%TF.CreationDate,2020-08-21T17:01:07+02:00*%
%TF.ProjectId,front_panel,66726f6e-745f-4706-916e-656c2e6b6963,rev?*%
%TF.SameCoordinates,Original*%
%TF.FileFunction,Soldermask,Top*%
%TF.FilePolarity,Negative*%
%FSLAX46Y46*%
G04 Gerber Fmt 4.6, Leading zero omitted, Abs format (unit mm)*
G04 Created by KiCad (PCBNEW (5.1.6)-1) date 2020-08-21 17:01:07*
%MOMM*%
%LPD*%
G01*
G04 APERTURE LIST*
%ADD10C,0.150000*%
%ADD11C,0.600000*%
%ADD12C,0.200000*%
%ADD13C,4.000000*%
%ADD14C,8.100000*%
G04 APERTURE END LIST*
D10*
X135476190Y-110857142D02*
X135428571Y-110904761D01*
X135285714Y-110952380D01*
X135190476Y-110952380D01*
X135047619Y-110904761D01*
X134952380Y-110809523D01*
X134904761Y-110714285D01*
X134857142Y-110523809D01*
X134857142Y-110380952D01*
X134904761Y-110190476D01*
X134952380Y-110095238D01*
X135047619Y-110000000D01*
X135190476Y-109952380D01*
X135285714Y-109952380D01*
X135428571Y-110000000D01*
X135476190Y-110047619D01*
X135904761Y-109952380D02*
X135904761Y-110761904D01*
X135952380Y-110857142D01*
X136000000Y-110904761D01*
X136095238Y-110952380D01*
X136285714Y-110952380D01*
X136380952Y-110904761D01*
X136428571Y-110857142D01*
X136476190Y-110761904D01*
X136476190Y-109952380D01*
X136809523Y-109952380D02*
X137380952Y-109952380D01*
X137095238Y-110952380D02*
X137095238Y-109952380D01*
X137904761Y-109952380D02*
X138095238Y-109952380D01*
X138190476Y-110000000D01*
X138285714Y-110095238D01*
X138333333Y-110285714D01*
X138333333Y-110619047D01*
X138285714Y-110809523D01*
X138190476Y-110904761D01*
X138095238Y-110952380D01*
X137904761Y-110952380D01*
X137809523Y-110904761D01*
X137714285Y-110809523D01*
X137666666Y-110619047D01*
X137666666Y-110285714D01*
X137714285Y-110095238D01*
X137809523Y-110000000D01*
X137904761Y-109952380D01*
X138761904Y-109952380D02*
X138761904Y-110761904D01*
X138809523Y-110857142D01*
X138857142Y-110904761D01*
X138952380Y-110952380D01*
X139142857Y-110952380D01*
X139238095Y-110904761D01*
X139285714Y-110857142D01*
X139333333Y-110761904D01*
X139333333Y-109952380D01*
X139666666Y-109952380D02*
X140238095Y-109952380D01*
X139952380Y-110952380D02*
X139952380Y-109952380D01*
D11*
X131714285Y-125157142D02*
X131714285Y-122157142D01*
X133142857Y-125157142D02*
X133142857Y-122157142D01*
X134857142Y-125157142D01*
X134857142Y-122157142D01*
X136285714Y-125157142D02*
X136285714Y-122157142D01*
X137428571Y-122157142D01*
X137714285Y-122300000D01*
X137857142Y-122442857D01*
X138000000Y-122728571D01*
X138000000Y-123157142D01*
X137857142Y-123442857D01*
X137714285Y-123585714D01*
X137428571Y-123728571D01*
X136285714Y-123728571D01*
X139285714Y-122157142D02*
X139285714Y-124585714D01*
X139428571Y-124871428D01*
X139571428Y-125014285D01*
X139857142Y-125157142D01*
X140428571Y-125157142D01*
X140714285Y-125014285D01*
X140857142Y-124871428D01*
X141000000Y-124585714D01*
X141000000Y-122157142D01*
X142000000Y-122157142D02*
X143714285Y-122157142D01*
X142857142Y-125157142D02*
X142857142Y-122157142D01*
D12*
X125214285Y-127452380D02*
X125309523Y-127452380D01*
X125404761Y-127500000D01*
X125452380Y-127547619D01*
X125500000Y-127642857D01*
X125547619Y-127833333D01*
X125547619Y-128071428D01*
X125500000Y-128261904D01*
X125452380Y-128357142D01*
X125404761Y-128404761D01*
X125309523Y-128452380D01*
X125214285Y-128452380D01*
X125119047Y-128404761D01*
X125071428Y-128357142D01*
X125023809Y-128261904D01*
X124976190Y-128071428D01*
X124976190Y-127833333D01*
X125023809Y-127642857D01*
X125071428Y-127547619D01*
X125119047Y-127500000D01*
X125214285Y-127452380D01*
X125976190Y-128357142D02*
X126023809Y-128404761D01*
X125976190Y-128452380D01*
X125928571Y-128404761D01*
X125976190Y-128357142D01*
X125976190Y-128452380D01*
X126976190Y-128452380D02*
X126404761Y-128452380D01*
X126690476Y-128452380D02*
X126690476Y-127452380D01*
X126595238Y-127595238D01*
X126500000Y-127690476D01*
X126404761Y-127738095D01*
X128166666Y-128071428D02*
X128928571Y-128071428D01*
X130690476Y-128452380D02*
X130119047Y-128452380D01*
X130404761Y-128452380D02*
X130404761Y-127452380D01*
X130309523Y-127595238D01*
X130214285Y-127690476D01*
X130119047Y-127738095D01*
X131309523Y-127452380D02*
X131404761Y-127452380D01*
X131500000Y-127500000D01*
X131547619Y-127547619D01*
X131595238Y-127642857D01*
X131642857Y-127833333D01*
X131642857Y-128071428D01*
X131595238Y-128261904D01*
X131547619Y-128357142D01*
X131500000Y-128404761D01*
X131404761Y-128452380D01*
X131309523Y-128452380D01*
X131214285Y-128404761D01*
X131166666Y-128357142D01*
X131119047Y-128261904D01*
X131071428Y-128071428D01*
X131071428Y-127833333D01*
X131119047Y-127642857D01*
X131166666Y-127547619D01*
X131214285Y-127500000D01*
X131309523Y-127452380D01*
X132833333Y-128452380D02*
X132833333Y-127452380D01*
X132833333Y-127928571D02*
X133404761Y-127928571D01*
X133404761Y-128452380D02*
X133404761Y-127452380D01*
X133785714Y-127785714D02*
X134309523Y-127785714D01*
X133785714Y-128452380D01*
X134309523Y-128452380D01*
X135928571Y-128452380D02*
X135452380Y-128452380D01*
X135452380Y-127452380D01*
X136404761Y-128452380D02*
X136309523Y-128404761D01*
X136261904Y-128357142D01*
X136214285Y-128261904D01*
X136214285Y-127976190D01*
X136261904Y-127880952D01*
X136309523Y-127833333D01*
X136404761Y-127785714D01*
X136547619Y-127785714D01*
X136642857Y-127833333D01*
X136690476Y-127880952D01*
X136738095Y-127976190D01*
X136738095Y-128261904D01*
X136690476Y-128357142D01*
X136642857Y-128404761D01*
X136547619Y-128452380D01*
X136404761Y-128452380D01*
X137071428Y-127785714D02*
X137261904Y-128452380D01*
X137452380Y-127976190D01*
X137642857Y-128452380D01*
X137833333Y-127785714D01*
X138976190Y-128452380D02*
X138976190Y-127452380D01*
X139547619Y-128452380D01*
X139547619Y-127452380D01*
X140166666Y-128452380D02*
X140071428Y-128404761D01*
X140023809Y-128357142D01*
X139976190Y-128261904D01*
X139976190Y-127976190D01*
X140023809Y-127880952D01*
X140071428Y-127833333D01*
X140166666Y-127785714D01*
X140309523Y-127785714D01*
X140404761Y-127833333D01*
X140452380Y-127880952D01*
X140500000Y-127976190D01*
X140500000Y-128261904D01*
X140452380Y-128357142D01*
X140404761Y-128404761D01*
X140309523Y-128452380D01*
X140166666Y-128452380D01*
X140928571Y-128452380D02*
X140928571Y-127785714D01*
X140928571Y-127452380D02*
X140880952Y-127500000D01*
X140928571Y-127547619D01*
X140976190Y-127500000D01*
X140928571Y-127452380D01*
X140928571Y-127547619D01*
X141357142Y-128404761D02*
X141452380Y-128452380D01*
X141642857Y-128452380D01*
X141738095Y-128404761D01*
X141785714Y-128309523D01*
X141785714Y-128261904D01*
X141738095Y-128166666D01*
X141642857Y-128119047D01*
X141500000Y-128119047D01*
X141404761Y-128071428D01*
X141357142Y-127976190D01*
X141357142Y-127928571D01*
X141404761Y-127833333D01*
X141500000Y-127785714D01*
X141642857Y-127785714D01*
X141738095Y-127833333D01*
X142595238Y-128404761D02*
X142500000Y-128452380D01*
X142309523Y-128452380D01*
X142214285Y-128404761D01*
X142166666Y-128309523D01*
X142166666Y-127928571D01*
X142214285Y-127833333D01*
X142309523Y-127785714D01*
X142500000Y-127785714D01*
X142595238Y-127833333D01*
X142642857Y-127928571D01*
X142642857Y-128023809D01*
X142166666Y-128119047D01*
X143785714Y-128166666D02*
X144261904Y-128166666D01*
X143690476Y-128452380D02*
X144023809Y-127452380D01*
X144357142Y-128452380D01*
X144690476Y-128452380D02*
X144690476Y-127785714D01*
X144690476Y-127880952D02*
X144738095Y-127833333D01*
X144833333Y-127785714D01*
X144976190Y-127785714D01*
X145071428Y-127833333D01*
X145119047Y-127928571D01*
X145119047Y-128452380D01*
X145119047Y-127928571D02*
X145166666Y-127833333D01*
X145261904Y-127785714D01*
X145404761Y-127785714D01*
X145500000Y-127833333D01*
X145547619Y-127928571D01*
X145547619Y-128452380D01*
X146023809Y-127785714D02*
X146023809Y-128785714D01*
X146023809Y-127833333D02*
X146119047Y-127785714D01*
X146309523Y-127785714D01*
X146404761Y-127833333D01*
X146452380Y-127880952D01*
X146500000Y-127976190D01*
X146500000Y-128261904D01*
X146452380Y-128357142D01*
X146404761Y-128404761D01*
X146309523Y-128452380D01*
X146119047Y-128452380D01*
X146023809Y-128404761D01*
X147071428Y-128452380D02*
X146976190Y-128404761D01*
X146928571Y-128309523D01*
X146928571Y-127452380D01*
X147452380Y-128452380D02*
X147452380Y-127785714D01*
X147452380Y-127452380D02*
X147404761Y-127500000D01*
X147452380Y-127547619D01*
X147500000Y-127500000D01*
X147452380Y-127452380D01*
X147452380Y-127547619D01*
X147785714Y-127785714D02*
X148166666Y-127785714D01*
X147928571Y-128452380D02*
X147928571Y-127595238D01*
X147976190Y-127500000D01*
X148071428Y-127452380D01*
X148166666Y-127452380D01*
X148500000Y-128452380D02*
X148500000Y-127785714D01*
X148500000Y-127452380D02*
X148452380Y-127500000D01*
X148500000Y-127547619D01*
X148547619Y-127500000D01*
X148500000Y-127452380D01*
X148500000Y-127547619D01*
X149357142Y-128404761D02*
X149261904Y-128452380D01*
X149071428Y-128452380D01*
X148976190Y-128404761D01*
X148928571Y-128309523D01*
X148928571Y-127928571D01*
X148976190Y-127833333D01*
X149071428Y-127785714D01*
X149261904Y-127785714D01*
X149357142Y-127833333D01*
X149404761Y-127928571D01*
X149404761Y-128023809D01*
X148928571Y-128119047D01*
X149833333Y-128452380D02*
X149833333Y-127785714D01*
X149833333Y-127976190D02*
X149880952Y-127880952D01*
X149928571Y-127833333D01*
X150023809Y-127785714D01*
X150119047Y-127785714D01*
D13*
X144500000Y-110350000D02*
G75*
G03*
X144500000Y-110350000I-7000000J0D01*
G01*
D14*
X174000000Y-115000000D03*
X101000000Y-115000000D03*
M02*
