M48
; DRILL file {KiCad (5.1.6)-1} date 08/21/20 15:32:49
; FORMAT={-:-/ absolute / inch / decimal}
; #@! TF.CreationDate,2020-08-21T15:32:49+02:00
; #@! TF.GenerationSoftware,Kicad,Pcbnew,(5.1.6)-1
FMAT,2
INCH
T1C0.0157
T2C0.0197
T3C0.0350
T4C0.0472
T5C0.0630
T6C0.0709
T7C0.0791
%
G90
G05
T1
X4.4092Y-3.0521
X4.4092Y-3.1899
X4.4092Y-3.3277
X4.4092Y-3.4261
X4.4092Y-3.5639
X4.4092Y-3.6623
X4.4092Y-3.8001
X4.4092Y-3.8985
X4.4092Y-4.056
X4.4092Y-4.1938
X4.4682Y-3.3277
X4.4747Y-3.5876
X4.4978Y-3.7017
X4.5076Y-3.2194
X4.5773Y-3.3875
X4.5864Y-3.0422
X4.5864Y-4.1938
X4.5962Y-3.5048
X4.6218Y-3.6162
X4.6848Y-3.9281
X4.7045Y-3.0915
X4.7142Y-3.6107
X4.7143Y-3.0422
X4.7143Y-3.1604
X4.7143Y-3.4852
X4.7241Y-4.1938
X4.7438Y-3.3769
X4.7734Y-3.7706
X4.794Y-3.1604
X4.8127Y-3.4556
X4.8226Y-3.0422
X4.8226Y-3.623
X4.8226Y-4.1938
X4.8423Y-3.8985
X4.8718Y-3.4261
X4.8847Y-3.0824
X4.92Y-3.3976
X4.921Y-3.1111
X4.9407Y-3.5245
X4.9505Y-3.0422
X4.9604Y-4.1938
X5.0293Y-3.5639
X5.0408Y-4.1033
X5.0686Y-3.7115
X5.1178Y-4.1938
X5.1277Y-3.0521
X5.1277Y-3.1997
X5.1277Y-3.3277
X5.1277Y-3.4359
X5.1277Y-3.5639
X5.1277Y-3.6722
X5.1277Y-3.8001
X5.1277Y-3.9084
X5.1277Y-4.0363
T2
X3.8189Y-2.4606
X3.8189Y-5.4134
X3.8583Y-2.4606
X3.8583Y-5.4134
X3.8976Y-2.4606
X3.8976Y-5.4134
X3.937Y-2.4606
X3.937Y-5.4134
X3.9764Y-2.4606
X3.9764Y-5.4134
X4.0157Y-2.4606
X4.0157Y-5.4134
X4.0551Y-2.4606
X4.0551Y-5.4134
X4.0945Y-2.4606
X4.0945Y-5.4134
X4.1339Y-2.4606
X4.1339Y-5.4134
X4.1732Y-2.4606
X4.1732Y-5.4134
X4.2126Y-2.4606
X4.2126Y-5.4134
X4.252Y-2.4606
X4.252Y-5.4134
X4.2913Y-2.4606
X4.2913Y-5.4134
X4.3307Y-2.4606
X4.3307Y-5.4134
X4.3701Y-2.4606
X4.3701Y-5.4134
X4.4094Y-2.4606
X4.4094Y-5.4134
X4.4488Y-2.4606
X4.4488Y-5.4134
X4.4882Y-2.4606
X4.4882Y-5.4134
X4.5276Y-2.4606
X4.5276Y-5.4134
X4.5669Y-2.4606
X4.5669Y-5.4134
X4.6063Y-2.4606
X4.6063Y-5.4134
X4.6457Y-2.4606
X4.6457Y-5.4134
X4.685Y-2.4606
X4.685Y-5.4134
X4.7244Y-2.4606
X4.7244Y-5.4134
X4.7638Y-2.4606
X4.7638Y-5.4134
X4.8031Y-2.4606
X4.8031Y-5.4134
X4.8425Y-2.4606
X4.8425Y-5.4134
X4.8819Y-2.4606
X4.8819Y-5.4134
X4.9213Y-2.4606
X4.9213Y-5.4134
X4.9606Y-2.4606
X4.9606Y-5.4134
X5.0Y-2.4606
X5.0Y-5.4134
X5.0394Y-2.4606
X5.0394Y-5.4134
X5.0787Y-2.4606
X5.0787Y-5.4134
X5.1181Y-2.4606
X5.1181Y-5.4134
X5.1575Y-2.4606
X5.1575Y-5.4134
X5.1969Y-2.4606
X5.1969Y-5.4134
X5.2362Y-2.4606
X5.2362Y-5.4134
X5.2756Y-2.4606
X5.2756Y-5.4134
X5.315Y-2.4606
X5.315Y-5.4134
X5.3543Y-2.4606
X5.3543Y-5.4134
X5.3937Y-2.4606
X5.3937Y-5.4134
X5.4331Y-2.4606
X5.4331Y-5.4134
X5.4724Y-2.4606
X5.4724Y-5.4134
X5.5118Y-2.4606
X5.5118Y-5.4134
X5.5512Y-2.4606
X5.5512Y-5.4134
X5.5906Y-2.4606
X5.5906Y-5.4134
X5.6299Y-2.4606
X5.6299Y-5.4134
X5.6693Y-2.4606
X5.6693Y-5.4134
X5.7087Y-2.4606
X5.7087Y-5.4134
X5.748Y-2.4606
X5.748Y-5.4134
X5.7874Y-2.4606
X5.7874Y-5.4134
X5.8268Y-2.4606
X5.8268Y-5.4134
X5.8661Y-2.4606
X5.8661Y-5.4134
X5.9055Y-2.4606
X5.9055Y-5.4134
X5.9449Y-2.4606
X5.9449Y-5.4134
X5.9843Y-2.4606
X5.9843Y-5.4134
X6.0236Y-2.4606
X6.0236Y-5.4134
X6.063Y-2.4606
X6.063Y-5.4134
X6.1024Y-2.4606
X6.1024Y-5.4134
X6.1417Y-2.4606
X6.1417Y-5.4134
X6.1811Y-2.4606
X6.1811Y-5.4134
X6.2205Y-2.4606
X6.2205Y-5.4134
X6.2598Y-2.4606
X6.2598Y-5.4134
X6.2992Y-2.4606
X6.2992Y-5.4134
X6.3386Y-2.4606
X6.3386Y-5.4134
X6.378Y-2.4606
X6.378Y-5.4134
X6.4173Y-2.4606
X6.4173Y-5.4134
X6.4567Y-2.4606
X6.4567Y-5.4134
X6.4961Y-2.4606
X6.4961Y-5.4134
X6.5354Y-2.4606
X6.5354Y-5.4134
X6.5748Y-2.4606
X6.5748Y-5.4134
X6.6142Y-2.4606
X6.6142Y-5.4134
X6.6535Y-2.4606
X6.6535Y-5.4134
X6.6929Y-2.4606
X6.6929Y-5.4134
X6.7323Y-2.4606
X6.7323Y-5.4134
X6.7717Y-2.4606
X6.7717Y-5.4134
X6.811Y-2.4606
X6.811Y-5.4134
X6.8504Y-2.4606
X6.8504Y-5.4134
X6.8898Y-2.4606
X6.8898Y-5.4134
X6.9291Y-2.4606
X6.9291Y-5.4134
X6.9685Y-2.4606
X6.9685Y-5.4134
X7.0079Y-2.4606
X7.0079Y-5.4134
X7.0472Y-2.4606
X7.0472Y-5.4134
X7.0866Y-2.4606
X7.0866Y-5.4134
X7.126Y-2.4606
X7.126Y-5.4134
X7.1654Y-2.4606
X7.1654Y-5.4134
X7.2047Y-2.4606
X7.2047Y-5.4134
X7.2441Y-2.4606
X7.2441Y-5.4134
X7.2835Y-2.4606
X7.2835Y-5.4134
X7.3228Y-2.4606
X7.3228Y-5.4134
X7.3622Y-2.4606
X7.3622Y-5.4134
X7.4016Y-2.4606
X7.4016Y-5.4134
X7.4409Y-2.4606
X7.4409Y-5.4134
X7.4803Y-2.4606
X7.4803Y-5.4134
X7.5197Y-2.4606
X7.5197Y-5.4134
X7.5591Y-2.4606
X7.5591Y-5.4134
X7.5984Y-2.4606
X7.5984Y-5.4134
T3
X4.252Y-3.937
X4.252Y-4.037
X7.1654Y-3.837
X7.1654Y-3.937
T4
X4.1634Y-2.8543
X6.1319Y-2.8543
X4.1634Y-2.7067
X4.1634Y-3.002
T5
X6.7791Y-2.7805
X6.7791Y-2.9675
X6.9291Y-2.7805
X6.9291Y-2.9675
X7.0791Y-2.7805
X7.0791Y-2.9675
X7.5791Y-2.774
X7.5791Y-2.974
T6
X5.815Y-5.187
X5.998Y-5.0689
X6.1811Y-5.187
X6.315Y-5.187
X6.498Y-5.0689
X6.6811Y-5.187
X4.7343Y-5.187
X4.9173Y-5.0689
X5.1004Y-5.187
X5.2343Y-5.187
X5.4173Y-5.0689
X5.6004Y-5.187
T7
X4.052Y-3.737
X4.052Y-4.137
X7.3654Y-3.737
X7.3654Y-4.137
T0
M30
