%TF.GenerationSoftware,KiCad,Pcbnew,(5.1.6)-1*%
%TF.CreationDate,2020-08-21T15:32:42+02:00*%
%TF.ProjectId,mu_lna,6d755f6c-6e61-42e6-9b69-6361645f7063,rev?*%
%TF.SameCoordinates,Original*%
%TF.FileFunction,Copper,L1,Top*%
%TF.FilePolarity,Positive*%
%FSLAX46Y46*%
G04 Gerber Fmt 4.6, Leading zero omitted, Abs format (unit mm)*
G04 Created by KiCad (PCBNEW (5.1.6)-1) date 2020-08-21 15:32:42*
%MOMM*%
%LPD*%
G01*
G04 APERTURE LIST*
%TA.AperFunction,NonConductor*%
%ADD10C,0.300000*%
%TD*%
%TA.AperFunction,ComponentPad*%
%ADD11C,3.000000*%
%TD*%
%TA.AperFunction,ComponentPad*%
%ADD12C,2.400000*%
%TD*%
%TA.AperFunction,ComponentPad*%
%ADD13R,2.400000X2.400000*%
%TD*%
%TA.AperFunction,ComponentPad*%
%ADD14O,2.500000X1.600000*%
%TD*%
%TA.AperFunction,ComponentPad*%
%ADD15O,7.000000X3.500000*%
%TD*%
%TA.AperFunction,ViaPad*%
%ADD16C,1.000000*%
%TD*%
%TA.AperFunction,ViaPad*%
%ADD17C,0.800000*%
%TD*%
%TA.AperFunction,ViaPad*%
%ADD18C,2.500000*%
%TD*%
%TA.AperFunction,Conductor*%
%ADD19C,0.250000*%
%TD*%
%TA.AperFunction,Conductor*%
%ADD20C,0.254000*%
%TD*%
G04 APERTURE END LIST*
D10*
X166428571Y-66678571D02*
X166428571Y-65678571D01*
X166428571Y-65964285D02*
X166500000Y-65821428D01*
X166571428Y-65750000D01*
X166714285Y-65678571D01*
X166857142Y-65678571D01*
X167928571Y-66607142D02*
X167785714Y-66678571D01*
X167500000Y-66678571D01*
X167357142Y-66607142D01*
X167285714Y-66464285D01*
X167285714Y-65892857D01*
X167357142Y-65750000D01*
X167500000Y-65678571D01*
X167785714Y-65678571D01*
X167928571Y-65750000D01*
X168000000Y-65892857D01*
X168000000Y-66035714D01*
X167285714Y-66178571D01*
X168642857Y-65678571D02*
X168642857Y-67178571D01*
X168642857Y-65750000D02*
X168785714Y-65678571D01*
X169071428Y-65678571D01*
X169214285Y-65750000D01*
X169285714Y-65821428D01*
X169357142Y-65964285D01*
X169357142Y-66392857D01*
X169285714Y-66535714D01*
X169214285Y-66607142D01*
X169071428Y-66678571D01*
X168785714Y-66678571D01*
X168642857Y-66607142D01*
X169928571Y-66607142D02*
X170071428Y-66678571D01*
X170357142Y-66678571D01*
X170500000Y-66607142D01*
X170571428Y-66464285D01*
X170571428Y-66392857D01*
X170500000Y-66250000D01*
X170357142Y-66178571D01*
X170142857Y-66178571D01*
X170000000Y-66107142D01*
X169928571Y-65964285D01*
X169928571Y-65892857D01*
X170000000Y-65750000D01*
X170142857Y-65678571D01*
X170357142Y-65678571D01*
X170500000Y-65750000D01*
X173071428Y-66678571D02*
X172357142Y-66678571D01*
X172357142Y-65178571D01*
X173571428Y-66678571D02*
X173571428Y-65178571D01*
X174428571Y-66678571D01*
X174428571Y-65178571D01*
X175071428Y-66250000D02*
X175785714Y-66250000D01*
X174928571Y-66678571D02*
X175428571Y-65178571D01*
X175928571Y-66678571D01*
X176285714Y-65178571D02*
X177214285Y-65178571D01*
X176714285Y-65750000D01*
X176928571Y-65750000D01*
X177071428Y-65821428D01*
X177142857Y-65892857D01*
X177214285Y-66035714D01*
X177214285Y-66392857D01*
X177142857Y-66535714D01*
X177071428Y-66607142D01*
X176928571Y-66678571D01*
X176500000Y-66678571D01*
X176357142Y-66607142D01*
X176285714Y-66535714D01*
X178928571Y-66250000D02*
X179642857Y-66250000D01*
X178785714Y-66678571D02*
X179285714Y-65178571D01*
X179785714Y-66678571D01*
X180928571Y-65678571D02*
X180928571Y-66678571D01*
X180285714Y-65678571D02*
X180285714Y-66464285D01*
X180357142Y-66607142D01*
X180500000Y-66678571D01*
X180714285Y-66678571D01*
X180857142Y-66607142D01*
X180928571Y-66535714D01*
X182285714Y-65678571D02*
X182285714Y-66892857D01*
X182214285Y-67035714D01*
X182142857Y-67107142D01*
X182000000Y-67178571D01*
X181785714Y-67178571D01*
X181642857Y-67107142D01*
X182285714Y-66607142D02*
X182142857Y-66678571D01*
X181857142Y-66678571D01*
X181714285Y-66607142D01*
X181642857Y-66535714D01*
X181571428Y-66392857D01*
X181571428Y-65964285D01*
X181642857Y-65821428D01*
X181714285Y-65750000D01*
X181857142Y-65678571D01*
X182142857Y-65678571D01*
X182285714Y-65750000D01*
X183642857Y-65678571D02*
X183642857Y-66678571D01*
X183000000Y-65678571D02*
X183000000Y-66464285D01*
X183071428Y-66607142D01*
X183214285Y-66678571D01*
X183428571Y-66678571D01*
X183571428Y-66607142D01*
X183642857Y-66535714D01*
X184285714Y-66607142D02*
X184428571Y-66678571D01*
X184714285Y-66678571D01*
X184857142Y-66607142D01*
X184928571Y-66464285D01*
X184928571Y-66392857D01*
X184857142Y-66250000D01*
X184714285Y-66178571D01*
X184500000Y-66178571D01*
X184357142Y-66107142D01*
X184285714Y-65964285D01*
X184285714Y-65892857D01*
X184357142Y-65750000D01*
X184500000Y-65678571D01*
X184714285Y-65678571D01*
X184857142Y-65750000D01*
X185357142Y-65678571D02*
X185928571Y-65678571D01*
X185571428Y-65178571D02*
X185571428Y-66464285D01*
X185642857Y-66607142D01*
X185785714Y-66678571D01*
X185928571Y-66678571D01*
X187500000Y-65321428D02*
X187571428Y-65250000D01*
X187714285Y-65178571D01*
X188071428Y-65178571D01*
X188214285Y-65250000D01*
X188285714Y-65321428D01*
X188357142Y-65464285D01*
X188357142Y-65607142D01*
X188285714Y-65821428D01*
X187428571Y-66678571D01*
X188357142Y-66678571D01*
X189285714Y-65178571D02*
X189428571Y-65178571D01*
X189571428Y-65250000D01*
X189642857Y-65321428D01*
X189714285Y-65464285D01*
X189785714Y-65750000D01*
X189785714Y-66107142D01*
X189714285Y-66392857D01*
X189642857Y-66535714D01*
X189571428Y-66607142D01*
X189428571Y-66678571D01*
X189285714Y-66678571D01*
X189142857Y-66607142D01*
X189071428Y-66535714D01*
X189000000Y-66392857D01*
X188928571Y-66107142D01*
X188928571Y-65750000D01*
X189000000Y-65464285D01*
X189071428Y-65321428D01*
X189142857Y-65250000D01*
X189285714Y-65178571D01*
X190357142Y-65321428D02*
X190428571Y-65250000D01*
X190571428Y-65178571D01*
X190928571Y-65178571D01*
X191071428Y-65250000D01*
X191142857Y-65321428D01*
X191214285Y-65464285D01*
X191214285Y-65607142D01*
X191142857Y-65821428D01*
X190285714Y-66678571D01*
X191214285Y-66678571D01*
X192142857Y-65178571D02*
X192285714Y-65178571D01*
X192428571Y-65250000D01*
X192500000Y-65321428D01*
X192571428Y-65464285D01*
X192642857Y-65750000D01*
X192642857Y-66107142D01*
X192571428Y-66392857D01*
X192500000Y-66535714D01*
X192428571Y-66607142D01*
X192285714Y-66678571D01*
X192142857Y-66678571D01*
X192000000Y-66607142D01*
X191928571Y-66535714D01*
X191857142Y-66392857D01*
X191785714Y-66107142D01*
X191785714Y-65750000D01*
X191857142Y-65464285D01*
X191928571Y-65321428D01*
X192000000Y-65250000D01*
X192142857Y-65178571D01*
D11*
%TO.P,SW1,7*%
%TO.N,GND*%
X192510000Y-75540000D03*
%TO.P,SW1,8*%
X192510000Y-70460000D03*
%TO.P,SW1,2*%
%TO.N,Net-(BT1-Pad1)*%
X179810000Y-75375000D03*
%TO.P,SW1,4*%
%TO.N,Net-(BT2-Pad2)*%
X179810000Y-70625000D03*
%TO.P,SW1,1*%
%TO.N,+12V*%
X176000000Y-75375000D03*
%TO.P,SW1,3*%
%TO.N,-12V*%
X176000000Y-70625000D03*
%TO.P,SW1,5*%
%TO.N,N/C*%
X172190000Y-75375000D03*
%TO.P,SW1,6*%
X172190000Y-70625000D03*
%TD*%
%TO.P,BT2,1*%
%TO.N,GND*%
X147700000Y-131750000D03*
X157000000Y-131750000D03*
%TO.P,BT2,2*%
%TO.N,Net-(BT2-Pad2)*%
X160400000Y-131750000D03*
X169700000Y-131750000D03*
%TO.P,BT2,1*%
%TO.N,GND*%
X152350000Y-128750000D03*
%TO.P,BT2,2*%
%TO.N,Net-(BT2-Pad2)*%
X165050000Y-128750000D03*
%TD*%
%TO.P,BT1,1*%
%TO.N,Net-(BT1-Pad1)*%
X120250000Y-131750000D03*
X129550000Y-131750000D03*
%TO.P,BT1,2*%
%TO.N,GND*%
X132950000Y-131750000D03*
X142250000Y-131750000D03*
%TO.P,BT1,1*%
%TO.N,Net-(BT1-Pad1)*%
X124900000Y-128750000D03*
%TO.P,BT1,2*%
%TO.N,GND*%
X137600000Y-128750000D03*
%TD*%
D12*
%TO.P,C12,2*%
%TO.N,Net-(C12-Pad2)*%
X105750000Y-68750000D03*
D13*
%TO.P,C12,1*%
%TO.N,Net-(C12-Pad1)*%
X105750000Y-76250000D03*
%TD*%
D14*
%TO.P,J3,2*%
%TO.N,GND*%
X108000000Y-102540000D03*
%TO.P,J3,1*%
%TO.N,Net-(C12-Pad1)*%
X108000000Y-100000000D03*
D15*
%TO.P,J3,2*%
%TO.N,GND*%
X102920000Y-94920000D03*
X102920000Y-105080000D03*
%TD*%
D14*
%TO.P,J4,2*%
%TO.N,GND*%
X182000000Y-97460000D03*
%TO.P,J4,1*%
%TO.N,Net-(C18-Pad2)*%
X182000000Y-100000000D03*
D15*
%TO.P,J4,2*%
%TO.N,GND*%
X187080000Y-105080000D03*
X187080000Y-94920000D03*
%TD*%
D16*
%TO.N,GND*%
X97000000Y-137500000D03*
D17*
X116493379Y-77272950D03*
X119743379Y-77272950D03*
X122493379Y-77272950D03*
X125743379Y-77272950D03*
X130243379Y-77522950D03*
X130243379Y-81272950D03*
X130243379Y-84522950D03*
X130243379Y-87272950D03*
X130243379Y-90522950D03*
X130243379Y-93272950D03*
X130243379Y-96522950D03*
X130243379Y-99272950D03*
X130243379Y-102522950D03*
X129993379Y-106522950D03*
X125993379Y-106522950D03*
X122493379Y-106522950D03*
X119993379Y-106522950D03*
X116493379Y-106522950D03*
X111993379Y-106522950D03*
X111993379Y-103022950D03*
X111993379Y-99022950D03*
X111993379Y-96522950D03*
X111993379Y-93022950D03*
X111993379Y-90522950D03*
X111993379Y-87022950D03*
X111993379Y-84522950D03*
X111993379Y-81022950D03*
X111993379Y-77522950D03*
X119743379Y-80272950D03*
X121768389Y-80272950D03*
X116743379Y-89022950D03*
X123743379Y-87022950D03*
X125493379Y-89522950D03*
X119741640Y-91710722D03*
X118993379Y-99772950D03*
D16*
X97000000Y-62500000D03*
X98000000Y-62500000D03*
X99000000Y-62500000D03*
X100000000Y-62500000D03*
X101000000Y-62500000D03*
X102000000Y-62500000D03*
X103000000Y-62500000D03*
X104000000Y-62500000D03*
X105000000Y-62500000D03*
X106000000Y-62500000D03*
X107000000Y-62500000D03*
X108000000Y-62500000D03*
X109000000Y-62500000D03*
X110000000Y-62500000D03*
X111000000Y-62500000D03*
X112000000Y-62500000D03*
X113000000Y-62500000D03*
X114000000Y-62500000D03*
X115000000Y-62500000D03*
X116000000Y-62500000D03*
X117000000Y-62500000D03*
X118000000Y-62500000D03*
X119000000Y-62500000D03*
X120000000Y-62500000D03*
X121000000Y-62500000D03*
X122000000Y-62500000D03*
X123000000Y-62500000D03*
X124000000Y-62500000D03*
X125000000Y-62500000D03*
X126000000Y-62500000D03*
X127000000Y-62500000D03*
X128000000Y-62500000D03*
X129000000Y-62500000D03*
X130000000Y-62500000D03*
X131000000Y-62500000D03*
X132000000Y-62500000D03*
X133000000Y-62500000D03*
X134000000Y-62500000D03*
X135000000Y-62500000D03*
X136000000Y-62500000D03*
X137000000Y-62500000D03*
X138000000Y-62500000D03*
X139000000Y-62500000D03*
X140000000Y-62500000D03*
X141000000Y-62500000D03*
X142000000Y-62500000D03*
X143000000Y-62500000D03*
X144000000Y-62500000D03*
X145000000Y-62500000D03*
X146000000Y-62500000D03*
X147000000Y-62500000D03*
X148000000Y-62500000D03*
X149000000Y-62500000D03*
X150000000Y-62500000D03*
X151000000Y-62500000D03*
X152000000Y-62500000D03*
X153000000Y-62500000D03*
X154000000Y-62500000D03*
X155000000Y-62500000D03*
X156000000Y-62500000D03*
X157000000Y-62500000D03*
X158000000Y-62500000D03*
X159000000Y-62500000D03*
X160000000Y-62500000D03*
X161000000Y-62500000D03*
X162000000Y-62500000D03*
X163000000Y-62500000D03*
X164000000Y-62500000D03*
X165000000Y-62500000D03*
X166000000Y-62500000D03*
X167000000Y-62500000D03*
X168000000Y-62500000D03*
X169000000Y-62500000D03*
X170000000Y-62500000D03*
X171000000Y-62500000D03*
X172000000Y-62500000D03*
X173000000Y-62500000D03*
X174000000Y-62500000D03*
X175000000Y-62500000D03*
X176000000Y-62500000D03*
X177000000Y-62500000D03*
X178000000Y-62500000D03*
X179000000Y-62500000D03*
X180000000Y-62500000D03*
X181000000Y-62500000D03*
X182000000Y-62500000D03*
X183000000Y-62500000D03*
X184000000Y-62500000D03*
X185000000Y-62500000D03*
X186000000Y-62500000D03*
X187000000Y-62500000D03*
X188000000Y-62500000D03*
X189000000Y-62500000D03*
X190000000Y-62500000D03*
X191000000Y-62500000D03*
X192000000Y-62500000D03*
X193000000Y-62500000D03*
X98000000Y-137500000D03*
X99000000Y-137500000D03*
X100000000Y-137500000D03*
X101000000Y-137500000D03*
X102000000Y-137500000D03*
X103000000Y-137500000D03*
X104000000Y-137500000D03*
X105000000Y-137500000D03*
X106000000Y-137500000D03*
X107000000Y-137500000D03*
X108000000Y-137500000D03*
X109000000Y-137500000D03*
X110000000Y-137500000D03*
X111000000Y-137500000D03*
X112000000Y-137500000D03*
X113000000Y-137500000D03*
X114000000Y-137500000D03*
X115000000Y-137500000D03*
X116000000Y-137500000D03*
X117000000Y-137500000D03*
X118000000Y-137500000D03*
X119000000Y-137500000D03*
X120000000Y-137500000D03*
X121000000Y-137500000D03*
X122000000Y-137500000D03*
X123000000Y-137500000D03*
X124000000Y-137500000D03*
X125000000Y-137500000D03*
X126000000Y-137500000D03*
X127000000Y-137500000D03*
X128000000Y-137500000D03*
X129000000Y-137500000D03*
X130000000Y-137500000D03*
X131000000Y-137500000D03*
X132000000Y-137500000D03*
X133000000Y-137500000D03*
X134000000Y-137500000D03*
X135000000Y-137500000D03*
X136000000Y-137500000D03*
X137000000Y-137500000D03*
X138000000Y-137500000D03*
X139000000Y-137500000D03*
X140000000Y-137500000D03*
X141000000Y-137500000D03*
X142000000Y-137500000D03*
X143000000Y-137500000D03*
X144000000Y-137500000D03*
X145000000Y-137500000D03*
X146000000Y-137500000D03*
X147000000Y-137500000D03*
X148000000Y-137500000D03*
X149000000Y-137500000D03*
X150000000Y-137500000D03*
X151000000Y-137500000D03*
X152000000Y-137500000D03*
X153000000Y-137500000D03*
X154000000Y-137500000D03*
X155000000Y-137500000D03*
X156000000Y-137500000D03*
X157000000Y-137500000D03*
X158000000Y-137500000D03*
X159000000Y-137500000D03*
X160000000Y-137500000D03*
X161000000Y-137500000D03*
X162000000Y-137500000D03*
X163000000Y-137500000D03*
X164000000Y-137500000D03*
X165000000Y-137500000D03*
X166000000Y-137500000D03*
X167000000Y-137500000D03*
X168000000Y-137500000D03*
X169000000Y-137500000D03*
X170000000Y-137500000D03*
X171000000Y-137500000D03*
X172000000Y-137500000D03*
X173000000Y-137500000D03*
X174000000Y-137500000D03*
X175000000Y-137500000D03*
X176000000Y-137500000D03*
X177000000Y-137500000D03*
X178000000Y-137500000D03*
X179000000Y-137500000D03*
X180000000Y-137500000D03*
X181000000Y-137500000D03*
X182000000Y-137500000D03*
X183000000Y-137500000D03*
X184000000Y-137500000D03*
X185000000Y-137500000D03*
X186000000Y-137500000D03*
X187000000Y-137500000D03*
X188000000Y-137500000D03*
X189000000Y-137500000D03*
X190000000Y-137500000D03*
X191000000Y-137500000D03*
X192000000Y-137500000D03*
X193000000Y-137500000D03*
D17*
%TO.N,+12V*%
X128743379Y-94272950D03*
X116263379Y-86042950D03*
X124968380Y-86297949D03*
X128037309Y-104223901D03*
%TO.N,-12V*%
X124070731Y-78292752D03*
X119493379Y-78522950D03*
X127743379Y-90522950D03*
X122993379Y-99022950D03*
%TO.N,Net-(R1-Pad1)*%
X122493379Y-92022950D03*
X121243379Y-95772950D03*
%TO.N,Net-(R7-Pad1)*%
X120493379Y-85772950D03*
X117393369Y-91850636D03*
%TO.N,Net-(C9-Pad2)*%
X113493379Y-84522950D03*
X114493379Y-81772950D03*
D18*
%TO.N,Net-(C12-Pad2)*%
X155750000Y-72500000D03*
%TO.N,Net-(C12-Pad1)*%
X105750000Y-72500000D03*
D17*
%TO.N,Net-(C14-Pad2)*%
X124993379Y-79022950D03*
X122243379Y-87772950D03*
%TO.N,Net-(C19-Pad1)*%
X113657462Y-91125640D03*
X114243379Y-94022950D03*
X119743379Y-88522950D03*
%TD*%
D19*
%TO.N,+12V*%
X128743379Y-94272950D02*
X128743379Y-89758790D01*
X128743379Y-89758790D02*
X125388870Y-86404281D01*
X117258380Y-85047949D02*
X116263379Y-86042950D01*
X121218380Y-87820953D02*
X121218380Y-85424949D01*
X121895378Y-88497951D02*
X121218380Y-87820953D01*
X122968380Y-88120951D02*
X122591380Y-88497951D01*
X122968380Y-86724947D02*
X122968380Y-88120951D01*
X123395378Y-86297949D02*
X122968380Y-86724947D01*
X120841380Y-85047949D02*
X117258380Y-85047949D01*
X121218380Y-85424949D02*
X120841380Y-85047949D01*
X122591380Y-88497951D02*
X121895378Y-88497951D01*
X125388870Y-86404281D02*
X125282538Y-86297949D01*
X125282538Y-86297949D02*
X124968380Y-86297949D01*
X124968380Y-86297949D02*
X123395378Y-86297949D01*
X128743379Y-103517831D02*
X128743379Y-94272950D01*
X128037309Y-104223901D02*
X128743379Y-103517831D01*
%TO.N,-12V*%
X124070731Y-78292752D02*
X119723577Y-78292752D01*
X119723577Y-78292752D02*
X119493379Y-78522950D01*
X127743379Y-94272950D02*
X127743379Y-90522950D01*
X122993379Y-99022950D02*
X127743379Y-94272950D01*
%TO.N,Net-(R1-Pad1)*%
X122493379Y-92022950D02*
X121243379Y-93272950D01*
X121243379Y-93272950D02*
X121243379Y-95772950D01*
%TO.N,Net-(R7-Pad1)*%
X120493379Y-85772950D02*
X120493379Y-89522950D01*
X120493379Y-89522950D02*
X117993379Y-92022950D01*
X117993379Y-92022950D02*
X117565683Y-92022950D01*
X117565683Y-92022950D02*
X117393369Y-91850636D01*
%TO.N,Net-(C9-Pad2)*%
X113493379Y-84522950D02*
X113493379Y-82772950D01*
X113493379Y-82772950D02*
X114493379Y-81772950D01*
%TO.N,Net-(C14-Pad2)*%
X124993379Y-79022950D02*
X122243379Y-81772950D01*
X122243379Y-81772950D02*
X122243379Y-87772950D01*
%TO.N,Net-(C19-Pad1)*%
X119743379Y-88772950D02*
X117390689Y-91125640D01*
X117390689Y-91125640D02*
X113657462Y-91125640D01*
X113657462Y-93437033D02*
X113657462Y-91125640D01*
X114243379Y-94022950D02*
X113657462Y-93437033D01*
%TD*%
D20*
%TO.N,GND*%
G36*
X194340001Y-69346594D02*
G01*
X194317214Y-69303962D01*
X194001653Y-69147952D01*
X192689605Y-70460000D01*
X194001653Y-71772048D01*
X194317214Y-71616038D01*
X194340001Y-71571280D01*
X194340001Y-74426594D01*
X194317214Y-74383962D01*
X194001653Y-74227952D01*
X192689605Y-75540000D01*
X194001653Y-76852048D01*
X194317214Y-76696038D01*
X194340001Y-76651280D01*
X194340000Y-138230000D01*
X95660000Y-138230000D01*
X95660000Y-131539721D01*
X118115000Y-131539721D01*
X118115000Y-131960279D01*
X118197047Y-132372756D01*
X118357988Y-132761302D01*
X118591637Y-133110983D01*
X118889017Y-133408363D01*
X119238698Y-133642012D01*
X119627244Y-133802953D01*
X120039721Y-133885000D01*
X120460279Y-133885000D01*
X120872756Y-133802953D01*
X121261302Y-133642012D01*
X121610983Y-133408363D01*
X121908363Y-133110983D01*
X122142012Y-132761302D01*
X122302953Y-132372756D01*
X122385000Y-131960279D01*
X122385000Y-131539721D01*
X127415000Y-131539721D01*
X127415000Y-131960279D01*
X127497047Y-132372756D01*
X127657988Y-132761302D01*
X127891637Y-133110983D01*
X128189017Y-133408363D01*
X128538698Y-133642012D01*
X128927244Y-133802953D01*
X129339721Y-133885000D01*
X129760279Y-133885000D01*
X130172756Y-133802953D01*
X130561302Y-133642012D01*
X130910983Y-133408363D01*
X131077693Y-133241653D01*
X131637952Y-133241653D01*
X131793962Y-133557214D01*
X132168745Y-133748020D01*
X132573551Y-133862044D01*
X132992824Y-133894902D01*
X133410451Y-133845334D01*
X133810383Y-133715243D01*
X134106038Y-133557214D01*
X134262048Y-133241653D01*
X140937952Y-133241653D01*
X141093962Y-133557214D01*
X141468745Y-133748020D01*
X141873551Y-133862044D01*
X142292824Y-133894902D01*
X142710451Y-133845334D01*
X143110383Y-133715243D01*
X143406038Y-133557214D01*
X143562048Y-133241653D01*
X146387952Y-133241653D01*
X146543962Y-133557214D01*
X146918745Y-133748020D01*
X147323551Y-133862044D01*
X147742824Y-133894902D01*
X148160451Y-133845334D01*
X148560383Y-133715243D01*
X148856038Y-133557214D01*
X149012048Y-133241653D01*
X155687952Y-133241653D01*
X155843962Y-133557214D01*
X156218745Y-133748020D01*
X156623551Y-133862044D01*
X157042824Y-133894902D01*
X157460451Y-133845334D01*
X157860383Y-133715243D01*
X158156038Y-133557214D01*
X158312048Y-133241653D01*
X157000000Y-131929605D01*
X155687952Y-133241653D01*
X149012048Y-133241653D01*
X147700000Y-131929605D01*
X146387952Y-133241653D01*
X143562048Y-133241653D01*
X142250000Y-131929605D01*
X140937952Y-133241653D01*
X134262048Y-133241653D01*
X132950000Y-131929605D01*
X131637952Y-133241653D01*
X131077693Y-133241653D01*
X131208363Y-133110983D01*
X131295015Y-132981299D01*
X131458347Y-133062048D01*
X132770395Y-131750000D01*
X133129605Y-131750000D01*
X134441653Y-133062048D01*
X134757214Y-132906038D01*
X134948020Y-132531255D01*
X135062044Y-132126449D01*
X135088189Y-131792824D01*
X140105098Y-131792824D01*
X140154666Y-132210451D01*
X140284757Y-132610383D01*
X140442786Y-132906038D01*
X140758347Y-133062048D01*
X142070395Y-131750000D01*
X142429605Y-131750000D01*
X143741653Y-133062048D01*
X144057214Y-132906038D01*
X144248020Y-132531255D01*
X144362044Y-132126449D01*
X144388189Y-131792824D01*
X145555098Y-131792824D01*
X145604666Y-132210451D01*
X145734757Y-132610383D01*
X145892786Y-132906038D01*
X146208347Y-133062048D01*
X147520395Y-131750000D01*
X147879605Y-131750000D01*
X149191653Y-133062048D01*
X149507214Y-132906038D01*
X149698020Y-132531255D01*
X149812044Y-132126449D01*
X149838189Y-131792824D01*
X154855098Y-131792824D01*
X154904666Y-132210451D01*
X155034757Y-132610383D01*
X155192786Y-132906038D01*
X155508347Y-133062048D01*
X156820395Y-131750000D01*
X157179605Y-131750000D01*
X158491653Y-133062048D01*
X158654985Y-132981299D01*
X158741637Y-133110983D01*
X159039017Y-133408363D01*
X159388698Y-133642012D01*
X159777244Y-133802953D01*
X160189721Y-133885000D01*
X160610279Y-133885000D01*
X161022756Y-133802953D01*
X161411302Y-133642012D01*
X161760983Y-133408363D01*
X162058363Y-133110983D01*
X162292012Y-132761302D01*
X162452953Y-132372756D01*
X162535000Y-131960279D01*
X162535000Y-131539721D01*
X167565000Y-131539721D01*
X167565000Y-131960279D01*
X167647047Y-132372756D01*
X167807988Y-132761302D01*
X168041637Y-133110983D01*
X168339017Y-133408363D01*
X168688698Y-133642012D01*
X169077244Y-133802953D01*
X169489721Y-133885000D01*
X169910279Y-133885000D01*
X170322756Y-133802953D01*
X170711302Y-133642012D01*
X171060983Y-133408363D01*
X171358363Y-133110983D01*
X171592012Y-132761302D01*
X171752953Y-132372756D01*
X171835000Y-131960279D01*
X171835000Y-131539721D01*
X171752953Y-131127244D01*
X171592012Y-130738698D01*
X171358363Y-130389017D01*
X171060983Y-130091637D01*
X170711302Y-129857988D01*
X170322756Y-129697047D01*
X169910279Y-129615000D01*
X169489721Y-129615000D01*
X169077244Y-129697047D01*
X168688698Y-129857988D01*
X168339017Y-130091637D01*
X168041637Y-130389017D01*
X167807988Y-130738698D01*
X167647047Y-131127244D01*
X167565000Y-131539721D01*
X162535000Y-131539721D01*
X162452953Y-131127244D01*
X162292012Y-130738698D01*
X162058363Y-130389017D01*
X161760983Y-130091637D01*
X161411302Y-129857988D01*
X161022756Y-129697047D01*
X160610279Y-129615000D01*
X160189721Y-129615000D01*
X159777244Y-129697047D01*
X159388698Y-129857988D01*
X159039017Y-130091637D01*
X158741637Y-130389017D01*
X158654985Y-130518701D01*
X158491653Y-130437952D01*
X157179605Y-131750000D01*
X156820395Y-131750000D01*
X155508347Y-130437952D01*
X155192786Y-130593962D01*
X155001980Y-130968745D01*
X154887956Y-131373551D01*
X154855098Y-131792824D01*
X149838189Y-131792824D01*
X149844902Y-131707176D01*
X149795334Y-131289549D01*
X149665243Y-130889617D01*
X149507214Y-130593962D01*
X149191653Y-130437952D01*
X147879605Y-131750000D01*
X147520395Y-131750000D01*
X146208347Y-130437952D01*
X145892786Y-130593962D01*
X145701980Y-130968745D01*
X145587956Y-131373551D01*
X145555098Y-131792824D01*
X144388189Y-131792824D01*
X144394902Y-131707176D01*
X144345334Y-131289549D01*
X144215243Y-130889617D01*
X144057214Y-130593962D01*
X143741653Y-130437952D01*
X142429605Y-131750000D01*
X142070395Y-131750000D01*
X140758347Y-130437952D01*
X140442786Y-130593962D01*
X140251980Y-130968745D01*
X140137956Y-131373551D01*
X140105098Y-131792824D01*
X135088189Y-131792824D01*
X135094902Y-131707176D01*
X135045334Y-131289549D01*
X134915243Y-130889617D01*
X134757214Y-130593962D01*
X134441653Y-130437952D01*
X133129605Y-131750000D01*
X132770395Y-131750000D01*
X131458347Y-130437952D01*
X131295015Y-130518701D01*
X131208363Y-130389017D01*
X131077693Y-130258347D01*
X131637952Y-130258347D01*
X132950000Y-131570395D01*
X134262048Y-130258347D01*
X134253795Y-130241653D01*
X136287952Y-130241653D01*
X136443962Y-130557214D01*
X136818745Y-130748020D01*
X137223551Y-130862044D01*
X137642824Y-130894902D01*
X138060451Y-130845334D01*
X138460383Y-130715243D01*
X138756038Y-130557214D01*
X138903794Y-130258347D01*
X140937952Y-130258347D01*
X142250000Y-131570395D01*
X143562048Y-130258347D01*
X146387952Y-130258347D01*
X147700000Y-131570395D01*
X149012048Y-130258347D01*
X149003795Y-130241653D01*
X151037952Y-130241653D01*
X151193962Y-130557214D01*
X151568745Y-130748020D01*
X151973551Y-130862044D01*
X152392824Y-130894902D01*
X152810451Y-130845334D01*
X153210383Y-130715243D01*
X153506038Y-130557214D01*
X153653794Y-130258347D01*
X155687952Y-130258347D01*
X157000000Y-131570395D01*
X158312048Y-130258347D01*
X158156038Y-129942786D01*
X157781255Y-129751980D01*
X157376449Y-129637956D01*
X156957176Y-129605098D01*
X156539549Y-129654666D01*
X156139617Y-129784757D01*
X155843962Y-129942786D01*
X155687952Y-130258347D01*
X153653794Y-130258347D01*
X153662048Y-130241653D01*
X152350000Y-128929605D01*
X151037952Y-130241653D01*
X149003795Y-130241653D01*
X148856038Y-129942786D01*
X148481255Y-129751980D01*
X148076449Y-129637956D01*
X147657176Y-129605098D01*
X147239549Y-129654666D01*
X146839617Y-129784757D01*
X146543962Y-129942786D01*
X146387952Y-130258347D01*
X143562048Y-130258347D01*
X143406038Y-129942786D01*
X143031255Y-129751980D01*
X142626449Y-129637956D01*
X142207176Y-129605098D01*
X141789549Y-129654666D01*
X141389617Y-129784757D01*
X141093962Y-129942786D01*
X140937952Y-130258347D01*
X138903794Y-130258347D01*
X138912048Y-130241653D01*
X137600000Y-128929605D01*
X136287952Y-130241653D01*
X134253795Y-130241653D01*
X134106038Y-129942786D01*
X133731255Y-129751980D01*
X133326449Y-129637956D01*
X132907176Y-129605098D01*
X132489549Y-129654666D01*
X132089617Y-129784757D01*
X131793962Y-129942786D01*
X131637952Y-130258347D01*
X131077693Y-130258347D01*
X130910983Y-130091637D01*
X130561302Y-129857988D01*
X130172756Y-129697047D01*
X129760279Y-129615000D01*
X129339721Y-129615000D01*
X128927244Y-129697047D01*
X128538698Y-129857988D01*
X128189017Y-130091637D01*
X127891637Y-130389017D01*
X127657988Y-130738698D01*
X127497047Y-131127244D01*
X127415000Y-131539721D01*
X122385000Y-131539721D01*
X122302953Y-131127244D01*
X122142012Y-130738698D01*
X121908363Y-130389017D01*
X121610983Y-130091637D01*
X121261302Y-129857988D01*
X120872756Y-129697047D01*
X120460279Y-129615000D01*
X120039721Y-129615000D01*
X119627244Y-129697047D01*
X119238698Y-129857988D01*
X118889017Y-130091637D01*
X118591637Y-130389017D01*
X118357988Y-130738698D01*
X118197047Y-131127244D01*
X118115000Y-131539721D01*
X95660000Y-131539721D01*
X95660000Y-128539721D01*
X122765000Y-128539721D01*
X122765000Y-128960279D01*
X122847047Y-129372756D01*
X123007988Y-129761302D01*
X123241637Y-130110983D01*
X123539017Y-130408363D01*
X123888698Y-130642012D01*
X124277244Y-130802953D01*
X124689721Y-130885000D01*
X125110279Y-130885000D01*
X125522756Y-130802953D01*
X125911302Y-130642012D01*
X126260983Y-130408363D01*
X126558363Y-130110983D01*
X126792012Y-129761302D01*
X126952953Y-129372756D01*
X127035000Y-128960279D01*
X127035000Y-128792824D01*
X135455098Y-128792824D01*
X135504666Y-129210451D01*
X135634757Y-129610383D01*
X135792786Y-129906038D01*
X136108347Y-130062048D01*
X137420395Y-128750000D01*
X137779605Y-128750000D01*
X139091653Y-130062048D01*
X139407214Y-129906038D01*
X139598020Y-129531255D01*
X139712044Y-129126449D01*
X139738189Y-128792824D01*
X150205098Y-128792824D01*
X150254666Y-129210451D01*
X150384757Y-129610383D01*
X150542786Y-129906038D01*
X150858347Y-130062048D01*
X152170395Y-128750000D01*
X152529605Y-128750000D01*
X153841653Y-130062048D01*
X154157214Y-129906038D01*
X154348020Y-129531255D01*
X154462044Y-129126449D01*
X154494902Y-128707176D01*
X154475027Y-128539721D01*
X162915000Y-128539721D01*
X162915000Y-128960279D01*
X162997047Y-129372756D01*
X163157988Y-129761302D01*
X163391637Y-130110983D01*
X163689017Y-130408363D01*
X164038698Y-130642012D01*
X164427244Y-130802953D01*
X164839721Y-130885000D01*
X165260279Y-130885000D01*
X165672756Y-130802953D01*
X166061302Y-130642012D01*
X166410983Y-130408363D01*
X166708363Y-130110983D01*
X166942012Y-129761302D01*
X167102953Y-129372756D01*
X167185000Y-128960279D01*
X167185000Y-128539721D01*
X167102953Y-128127244D01*
X166942012Y-127738698D01*
X166708363Y-127389017D01*
X166410983Y-127091637D01*
X166061302Y-126857988D01*
X165672756Y-126697047D01*
X165260279Y-126615000D01*
X164839721Y-126615000D01*
X164427244Y-126697047D01*
X164038698Y-126857988D01*
X163689017Y-127091637D01*
X163391637Y-127389017D01*
X163157988Y-127738698D01*
X162997047Y-128127244D01*
X162915000Y-128539721D01*
X154475027Y-128539721D01*
X154445334Y-128289549D01*
X154315243Y-127889617D01*
X154157214Y-127593962D01*
X153841653Y-127437952D01*
X152529605Y-128750000D01*
X152170395Y-128750000D01*
X150858347Y-127437952D01*
X150542786Y-127593962D01*
X150351980Y-127968745D01*
X150237956Y-128373551D01*
X150205098Y-128792824D01*
X139738189Y-128792824D01*
X139744902Y-128707176D01*
X139695334Y-128289549D01*
X139565243Y-127889617D01*
X139407214Y-127593962D01*
X139091653Y-127437952D01*
X137779605Y-128750000D01*
X137420395Y-128750000D01*
X136108347Y-127437952D01*
X135792786Y-127593962D01*
X135601980Y-127968745D01*
X135487956Y-128373551D01*
X135455098Y-128792824D01*
X127035000Y-128792824D01*
X127035000Y-128539721D01*
X126952953Y-128127244D01*
X126792012Y-127738698D01*
X126558363Y-127389017D01*
X126427693Y-127258347D01*
X136287952Y-127258347D01*
X137600000Y-128570395D01*
X138912048Y-127258347D01*
X151037952Y-127258347D01*
X152350000Y-128570395D01*
X153662048Y-127258347D01*
X153506038Y-126942786D01*
X153131255Y-126751980D01*
X152726449Y-126637956D01*
X152307176Y-126605098D01*
X151889549Y-126654666D01*
X151489617Y-126784757D01*
X151193962Y-126942786D01*
X151037952Y-127258347D01*
X138912048Y-127258347D01*
X138756038Y-126942786D01*
X138381255Y-126751980D01*
X137976449Y-126637956D01*
X137557176Y-126605098D01*
X137139549Y-126654666D01*
X136739617Y-126784757D01*
X136443962Y-126942786D01*
X136287952Y-127258347D01*
X126427693Y-127258347D01*
X126260983Y-127091637D01*
X125911302Y-126857988D01*
X125522756Y-126697047D01*
X125110279Y-126615000D01*
X124689721Y-126615000D01*
X124277244Y-126697047D01*
X123888698Y-126857988D01*
X123539017Y-127091637D01*
X123241637Y-127389017D01*
X123007988Y-127738698D01*
X122847047Y-128127244D01*
X122765000Y-128539721D01*
X95660000Y-128539721D01*
X95660000Y-105578003D01*
X98837573Y-105578003D01*
X98917947Y-105875368D01*
X99116388Y-106299439D01*
X99393748Y-106676648D01*
X99739369Y-106992498D01*
X100139968Y-107234852D01*
X100580150Y-107394396D01*
X101043000Y-107465000D01*
X102793000Y-107465000D01*
X102793000Y-105207000D01*
X103047000Y-105207000D01*
X103047000Y-107465000D01*
X104797000Y-107465000D01*
X105259850Y-107394396D01*
X105700032Y-107234852D01*
X106100631Y-106992498D01*
X106446252Y-106676648D01*
X106723612Y-106299439D01*
X106922053Y-105875368D01*
X107002427Y-105578003D01*
X182997573Y-105578003D01*
X183077947Y-105875368D01*
X183276388Y-106299439D01*
X183553748Y-106676648D01*
X183899369Y-106992498D01*
X184299968Y-107234852D01*
X184740150Y-107394396D01*
X185203000Y-107465000D01*
X186953000Y-107465000D01*
X186953000Y-105207000D01*
X187207000Y-105207000D01*
X187207000Y-107465000D01*
X188957000Y-107465000D01*
X189419850Y-107394396D01*
X189860032Y-107234852D01*
X190260631Y-106992498D01*
X190606252Y-106676648D01*
X190883612Y-106299439D01*
X191082053Y-105875368D01*
X191162427Y-105578003D01*
X191052625Y-105207000D01*
X187207000Y-105207000D01*
X186953000Y-105207000D01*
X183107375Y-105207000D01*
X182997573Y-105578003D01*
X107002427Y-105578003D01*
X106892625Y-105207000D01*
X103047000Y-105207000D01*
X102793000Y-105207000D01*
X98947375Y-105207000D01*
X98837573Y-105578003D01*
X95660000Y-105578003D01*
X95660000Y-104581997D01*
X98837573Y-104581997D01*
X98947375Y-104953000D01*
X102793000Y-104953000D01*
X102793000Y-102695000D01*
X103047000Y-102695000D01*
X103047000Y-104953000D01*
X106892625Y-104953000D01*
X107002427Y-104581997D01*
X106922053Y-104284632D01*
X106723612Y-103860561D01*
X106446252Y-103483352D01*
X106100631Y-103167502D01*
X105700032Y-102925148D01*
X105600408Y-102889039D01*
X106158096Y-102889039D01*
X106175633Y-102971818D01*
X106286285Y-103231646D01*
X106445500Y-103464895D01*
X106647161Y-103662601D01*
X106883517Y-103817166D01*
X107145486Y-103922650D01*
X107423000Y-103975000D01*
X107873000Y-103975000D01*
X107873000Y-102667000D01*
X108127000Y-102667000D01*
X108127000Y-103975000D01*
X108577000Y-103975000D01*
X108854514Y-103922650D01*
X109116483Y-103817166D01*
X109352839Y-103662601D01*
X109554500Y-103464895D01*
X109713715Y-103231646D01*
X109824367Y-102971818D01*
X109841904Y-102889039D01*
X109719915Y-102667000D01*
X108127000Y-102667000D01*
X107873000Y-102667000D01*
X106280085Y-102667000D01*
X106158096Y-102889039D01*
X105600408Y-102889039D01*
X105259850Y-102765604D01*
X104797000Y-102695000D01*
X103047000Y-102695000D01*
X102793000Y-102695000D01*
X101043000Y-102695000D01*
X100580150Y-102765604D01*
X100139968Y-102925148D01*
X99739369Y-103167502D01*
X99393748Y-103483352D01*
X99116388Y-103860561D01*
X98917947Y-104284632D01*
X98837573Y-104581997D01*
X95660000Y-104581997D01*
X95660000Y-100000000D01*
X106108057Y-100000000D01*
X106135764Y-100281309D01*
X106217818Y-100551808D01*
X106351068Y-100801101D01*
X106530392Y-101019608D01*
X106748899Y-101198932D01*
X106876741Y-101267265D01*
X106647161Y-101417399D01*
X106445500Y-101615105D01*
X106286285Y-101848354D01*
X106175633Y-102108182D01*
X106158096Y-102190961D01*
X106280085Y-102413000D01*
X107873000Y-102413000D01*
X107873000Y-102393000D01*
X108127000Y-102393000D01*
X108127000Y-102413000D01*
X109719915Y-102413000D01*
X109841904Y-102190961D01*
X109824367Y-102108182D01*
X109713715Y-101848354D01*
X109554500Y-101615105D01*
X109352839Y-101417399D01*
X109123259Y-101267265D01*
X109251101Y-101198932D01*
X109469608Y-101019608D01*
X109648932Y-100801101D01*
X109782182Y-100551808D01*
X109864236Y-100281309D01*
X109891943Y-100000000D01*
X109864236Y-99718691D01*
X109782182Y-99448192D01*
X109648932Y-99198899D01*
X109469608Y-98980392D01*
X109251101Y-98801068D01*
X109001808Y-98667818D01*
X108731309Y-98585764D01*
X108520492Y-98565000D01*
X107479508Y-98565000D01*
X107268691Y-98585764D01*
X106998192Y-98667818D01*
X106748899Y-98801068D01*
X106530392Y-98980392D01*
X106351068Y-99198899D01*
X106217818Y-99448192D01*
X106135764Y-99718691D01*
X106108057Y-100000000D01*
X95660000Y-100000000D01*
X95660000Y-95418003D01*
X98837573Y-95418003D01*
X98917947Y-95715368D01*
X99116388Y-96139439D01*
X99393748Y-96516648D01*
X99739369Y-96832498D01*
X100139968Y-97074852D01*
X100580150Y-97234396D01*
X101043000Y-97305000D01*
X102793000Y-97305000D01*
X102793000Y-95047000D01*
X103047000Y-95047000D01*
X103047000Y-97305000D01*
X104797000Y-97305000D01*
X105259850Y-97234396D01*
X105700032Y-97074852D01*
X106100631Y-96832498D01*
X106446252Y-96516648D01*
X106723612Y-96139439D01*
X106922053Y-95715368D01*
X106934042Y-95671011D01*
X120208379Y-95671011D01*
X120208379Y-95874889D01*
X120248153Y-96074848D01*
X120326174Y-96263206D01*
X120439442Y-96432724D01*
X120583605Y-96576887D01*
X120753123Y-96690155D01*
X120941481Y-96768176D01*
X121141440Y-96807950D01*
X121345318Y-96807950D01*
X121545277Y-96768176D01*
X121733635Y-96690155D01*
X121903153Y-96576887D01*
X122047316Y-96432724D01*
X122160584Y-96263206D01*
X122238605Y-96074848D01*
X122278379Y-95874889D01*
X122278379Y-95671011D01*
X122238605Y-95471052D01*
X122160584Y-95282694D01*
X122047316Y-95113176D01*
X122003379Y-95069239D01*
X122003379Y-93587751D01*
X122533181Y-93057950D01*
X122595318Y-93057950D01*
X122795277Y-93018176D01*
X122983635Y-92940155D01*
X123153153Y-92826887D01*
X123297316Y-92682724D01*
X123410584Y-92513206D01*
X123488605Y-92324848D01*
X123528379Y-92124889D01*
X123528379Y-91921011D01*
X123488605Y-91721052D01*
X123410584Y-91532694D01*
X123297316Y-91363176D01*
X123153153Y-91219013D01*
X122983635Y-91105745D01*
X122795277Y-91027724D01*
X122595318Y-90987950D01*
X122391440Y-90987950D01*
X122191481Y-91027724D01*
X122003123Y-91105745D01*
X121833605Y-91219013D01*
X121689442Y-91363176D01*
X121576174Y-91532694D01*
X121498153Y-91721052D01*
X121458379Y-91921011D01*
X121458379Y-91983148D01*
X120732382Y-92709146D01*
X120703378Y-92732949D01*
X120671369Y-92771953D01*
X120608405Y-92848674D01*
X120582557Y-92897032D01*
X120537833Y-92980704D01*
X120494376Y-93123965D01*
X120483379Y-93235618D01*
X120483379Y-93235628D01*
X120479703Y-93272950D01*
X120483379Y-93310273D01*
X120483380Y-95069238D01*
X120439442Y-95113176D01*
X120326174Y-95282694D01*
X120248153Y-95471052D01*
X120208379Y-95671011D01*
X106934042Y-95671011D01*
X107002427Y-95418003D01*
X106892625Y-95047000D01*
X103047000Y-95047000D01*
X102793000Y-95047000D01*
X98947375Y-95047000D01*
X98837573Y-95418003D01*
X95660000Y-95418003D01*
X95660000Y-94421997D01*
X98837573Y-94421997D01*
X98947375Y-94793000D01*
X102793000Y-94793000D01*
X102793000Y-92535000D01*
X103047000Y-92535000D01*
X103047000Y-94793000D01*
X106892625Y-94793000D01*
X107002427Y-94421997D01*
X106922053Y-94124632D01*
X106723612Y-93700561D01*
X106446252Y-93323352D01*
X106100631Y-93007502D01*
X105700032Y-92765148D01*
X105259850Y-92605604D01*
X104797000Y-92535000D01*
X103047000Y-92535000D01*
X102793000Y-92535000D01*
X101043000Y-92535000D01*
X100580150Y-92605604D01*
X100139968Y-92765148D01*
X99739369Y-93007502D01*
X99393748Y-93323352D01*
X99116388Y-93700561D01*
X98917947Y-94124632D01*
X98837573Y-94421997D01*
X95660000Y-94421997D01*
X95660000Y-91023701D01*
X112622462Y-91023701D01*
X112622462Y-91227579D01*
X112662236Y-91427538D01*
X112740257Y-91615896D01*
X112853525Y-91785414D01*
X112897463Y-91829352D01*
X112897462Y-93399710D01*
X112893786Y-93437033D01*
X112897462Y-93474355D01*
X112897462Y-93474365D01*
X112908459Y-93586018D01*
X112942193Y-93697226D01*
X112951916Y-93729279D01*
X113022488Y-93861309D01*
X113032874Y-93873964D01*
X113117461Y-93977034D01*
X113146464Y-94000836D01*
X113208379Y-94062751D01*
X113208379Y-94124889D01*
X113248153Y-94324848D01*
X113326174Y-94513206D01*
X113439442Y-94682724D01*
X113583605Y-94826887D01*
X113753123Y-94940155D01*
X113941481Y-95018176D01*
X114141440Y-95057950D01*
X114345318Y-95057950D01*
X114545277Y-95018176D01*
X114733635Y-94940155D01*
X114903153Y-94826887D01*
X115047316Y-94682724D01*
X115160584Y-94513206D01*
X115238605Y-94324848D01*
X115278379Y-94124889D01*
X115278379Y-93921011D01*
X115238605Y-93721052D01*
X115160584Y-93532694D01*
X115047316Y-93363176D01*
X114903153Y-93219013D01*
X114733635Y-93105745D01*
X114545277Y-93027724D01*
X114417462Y-93002300D01*
X114417462Y-91885640D01*
X116358369Y-91885640D01*
X116358369Y-91952575D01*
X116398143Y-92152534D01*
X116476164Y-92340892D01*
X116589432Y-92510410D01*
X116733595Y-92654573D01*
X116903113Y-92767841D01*
X117091471Y-92845862D01*
X117291430Y-92885636D01*
X117495308Y-92885636D01*
X117695267Y-92845862D01*
X117847149Y-92782950D01*
X117956057Y-92782950D01*
X117993379Y-92786626D01*
X118030701Y-92782950D01*
X118030712Y-92782950D01*
X118142365Y-92771953D01*
X118285626Y-92728496D01*
X118417655Y-92657924D01*
X118533380Y-92562951D01*
X118557183Y-92533947D01*
X121004382Y-90086749D01*
X121033380Y-90062951D01*
X121099036Y-89982949D01*
X121128353Y-89947227D01*
X121198925Y-89815197D01*
X121215889Y-89759273D01*
X121242382Y-89671936D01*
X121253379Y-89560283D01*
X121253379Y-89560273D01*
X121257055Y-89522950D01*
X121253379Y-89485627D01*
X121253379Y-88930754D01*
X121331579Y-89008953D01*
X121355377Y-89037952D01*
X121471102Y-89132925D01*
X121603131Y-89203497D01*
X121746392Y-89246954D01*
X121858045Y-89257951D01*
X121858053Y-89257951D01*
X121895378Y-89261627D01*
X121932703Y-89257951D01*
X122554058Y-89257951D01*
X122591380Y-89261627D01*
X122628702Y-89257951D01*
X122628713Y-89257951D01*
X122740366Y-89246954D01*
X122883627Y-89203497D01*
X123015656Y-89132925D01*
X123131381Y-89037952D01*
X123155184Y-89008948D01*
X123479377Y-88684755D01*
X123508381Y-88660952D01*
X123603354Y-88545227D01*
X123673926Y-88413198D01*
X123717383Y-88269937D01*
X123728380Y-88158284D01*
X123732057Y-88120951D01*
X123728380Y-88083618D01*
X123728380Y-87057949D01*
X124264669Y-87057949D01*
X124308606Y-87101886D01*
X124478124Y-87215154D01*
X124666482Y-87293175D01*
X124866441Y-87332949D01*
X125070319Y-87332949D01*
X125214131Y-87304343D01*
X127438674Y-89528887D01*
X127253123Y-89605745D01*
X127083605Y-89719013D01*
X126939442Y-89863176D01*
X126826174Y-90032694D01*
X126748153Y-90221052D01*
X126708379Y-90421011D01*
X126708379Y-90624889D01*
X126748153Y-90824848D01*
X126826174Y-91013206D01*
X126939442Y-91182724D01*
X126983380Y-91226662D01*
X126983379Y-93958147D01*
X122953578Y-97987950D01*
X122891440Y-97987950D01*
X122691481Y-98027724D01*
X122503123Y-98105745D01*
X122333605Y-98219013D01*
X122189442Y-98363176D01*
X122076174Y-98532694D01*
X121998153Y-98721052D01*
X121958379Y-98921011D01*
X121958379Y-99124889D01*
X121998153Y-99324848D01*
X122076174Y-99513206D01*
X122189442Y-99682724D01*
X122333605Y-99826887D01*
X122503123Y-99940155D01*
X122691481Y-100018176D01*
X122891440Y-100057950D01*
X123095318Y-100057950D01*
X123295277Y-100018176D01*
X123483635Y-99940155D01*
X123653153Y-99826887D01*
X123797316Y-99682724D01*
X123910584Y-99513206D01*
X123988605Y-99324848D01*
X124028379Y-99124889D01*
X124028379Y-99062751D01*
X127983380Y-95107752D01*
X127983379Y-103188901D01*
X127935370Y-103188901D01*
X127735411Y-103228675D01*
X127547053Y-103306696D01*
X127377535Y-103419964D01*
X127233372Y-103564127D01*
X127120104Y-103733645D01*
X127042083Y-103922003D01*
X127002309Y-104121962D01*
X127002309Y-104325840D01*
X127042083Y-104525799D01*
X127120104Y-104714157D01*
X127233372Y-104883675D01*
X127377535Y-105027838D01*
X127547053Y-105141106D01*
X127735411Y-105219127D01*
X127935370Y-105258901D01*
X128139248Y-105258901D01*
X128339207Y-105219127D01*
X128527565Y-105141106D01*
X128697083Y-105027838D01*
X128841246Y-104883675D01*
X128954514Y-104714157D01*
X129009256Y-104581997D01*
X182997573Y-104581997D01*
X183107375Y-104953000D01*
X186953000Y-104953000D01*
X186953000Y-102695000D01*
X187207000Y-102695000D01*
X187207000Y-104953000D01*
X191052625Y-104953000D01*
X191162427Y-104581997D01*
X191082053Y-104284632D01*
X190883612Y-103860561D01*
X190606252Y-103483352D01*
X190260631Y-103167502D01*
X189860032Y-102925148D01*
X189419850Y-102765604D01*
X188957000Y-102695000D01*
X187207000Y-102695000D01*
X186953000Y-102695000D01*
X185203000Y-102695000D01*
X184740150Y-102765604D01*
X184299968Y-102925148D01*
X183899369Y-103167502D01*
X183553748Y-103483352D01*
X183276388Y-103860561D01*
X183077947Y-104284632D01*
X182997573Y-104581997D01*
X129009256Y-104581997D01*
X129032535Y-104525799D01*
X129072309Y-104325840D01*
X129072309Y-104263703D01*
X129254383Y-104081629D01*
X129283380Y-104057832D01*
X129378353Y-103942107D01*
X129448925Y-103810078D01*
X129492382Y-103666817D01*
X129503379Y-103555164D01*
X129503379Y-103555156D01*
X129507055Y-103517831D01*
X129503379Y-103480506D01*
X129503379Y-100000000D01*
X180108057Y-100000000D01*
X180135764Y-100281309D01*
X180217818Y-100551808D01*
X180351068Y-100801101D01*
X180530392Y-101019608D01*
X180748899Y-101198932D01*
X180998192Y-101332182D01*
X181268691Y-101414236D01*
X181479508Y-101435000D01*
X182520492Y-101435000D01*
X182731309Y-101414236D01*
X183001808Y-101332182D01*
X183251101Y-101198932D01*
X183469608Y-101019608D01*
X183648932Y-100801101D01*
X183782182Y-100551808D01*
X183864236Y-100281309D01*
X183891943Y-100000000D01*
X183864236Y-99718691D01*
X183782182Y-99448192D01*
X183648932Y-99198899D01*
X183469608Y-98980392D01*
X183251101Y-98801068D01*
X183123259Y-98732735D01*
X183352839Y-98582601D01*
X183554500Y-98384895D01*
X183713715Y-98151646D01*
X183824367Y-97891818D01*
X183841904Y-97809039D01*
X183719915Y-97587000D01*
X182127000Y-97587000D01*
X182127000Y-97607000D01*
X181873000Y-97607000D01*
X181873000Y-97587000D01*
X180280085Y-97587000D01*
X180158096Y-97809039D01*
X180175633Y-97891818D01*
X180286285Y-98151646D01*
X180445500Y-98384895D01*
X180647161Y-98582601D01*
X180876741Y-98732735D01*
X180748899Y-98801068D01*
X180530392Y-98980392D01*
X180351068Y-99198899D01*
X180217818Y-99448192D01*
X180135764Y-99718691D01*
X180108057Y-100000000D01*
X129503379Y-100000000D01*
X129503379Y-97110961D01*
X180158096Y-97110961D01*
X180280085Y-97333000D01*
X181873000Y-97333000D01*
X181873000Y-96025000D01*
X182127000Y-96025000D01*
X182127000Y-97333000D01*
X183719915Y-97333000D01*
X183841904Y-97110961D01*
X183824367Y-97028182D01*
X183713715Y-96768354D01*
X183554500Y-96535105D01*
X183352839Y-96337399D01*
X183116483Y-96182834D01*
X182854514Y-96077350D01*
X182577000Y-96025000D01*
X182127000Y-96025000D01*
X181873000Y-96025000D01*
X181423000Y-96025000D01*
X181145486Y-96077350D01*
X180883517Y-96182834D01*
X180647161Y-96337399D01*
X180445500Y-96535105D01*
X180286285Y-96768354D01*
X180175633Y-97028182D01*
X180158096Y-97110961D01*
X129503379Y-97110961D01*
X129503379Y-95418003D01*
X182997573Y-95418003D01*
X183077947Y-95715368D01*
X183276388Y-96139439D01*
X183553748Y-96516648D01*
X183899369Y-96832498D01*
X184299968Y-97074852D01*
X184740150Y-97234396D01*
X185203000Y-97305000D01*
X186953000Y-97305000D01*
X186953000Y-95047000D01*
X187207000Y-95047000D01*
X187207000Y-97305000D01*
X188957000Y-97305000D01*
X189419850Y-97234396D01*
X189860032Y-97074852D01*
X190260631Y-96832498D01*
X190606252Y-96516648D01*
X190883612Y-96139439D01*
X191082053Y-95715368D01*
X191162427Y-95418003D01*
X191052625Y-95047000D01*
X187207000Y-95047000D01*
X186953000Y-95047000D01*
X183107375Y-95047000D01*
X182997573Y-95418003D01*
X129503379Y-95418003D01*
X129503379Y-94976661D01*
X129547316Y-94932724D01*
X129660584Y-94763206D01*
X129738605Y-94574848D01*
X129769008Y-94421997D01*
X182997573Y-94421997D01*
X183107375Y-94793000D01*
X186953000Y-94793000D01*
X186953000Y-92535000D01*
X187207000Y-92535000D01*
X187207000Y-94793000D01*
X191052625Y-94793000D01*
X191162427Y-94421997D01*
X191082053Y-94124632D01*
X190883612Y-93700561D01*
X190606252Y-93323352D01*
X190260631Y-93007502D01*
X189860032Y-92765148D01*
X189419850Y-92605604D01*
X188957000Y-92535000D01*
X187207000Y-92535000D01*
X186953000Y-92535000D01*
X185203000Y-92535000D01*
X184740150Y-92605604D01*
X184299968Y-92765148D01*
X183899369Y-93007502D01*
X183553748Y-93323352D01*
X183276388Y-93700561D01*
X183077947Y-94124632D01*
X182997573Y-94421997D01*
X129769008Y-94421997D01*
X129778379Y-94374889D01*
X129778379Y-94171011D01*
X129738605Y-93971052D01*
X129660584Y-93782694D01*
X129547316Y-93613176D01*
X129503379Y-93569239D01*
X129503379Y-89796112D01*
X129507055Y-89758789D01*
X129503379Y-89721466D01*
X129503379Y-89721457D01*
X129492382Y-89609804D01*
X129448925Y-89466543D01*
X129399440Y-89373964D01*
X129378353Y-89334513D01*
X129307178Y-89247787D01*
X129283380Y-89218789D01*
X129254382Y-89194991D01*
X125899872Y-85840482D01*
X125898668Y-85839278D01*
X125885585Y-85807693D01*
X125772317Y-85638175D01*
X125628154Y-85494012D01*
X125458636Y-85380744D01*
X125270278Y-85302723D01*
X125070319Y-85262949D01*
X124866441Y-85262949D01*
X124666482Y-85302723D01*
X124478124Y-85380744D01*
X124308606Y-85494012D01*
X124264669Y-85537949D01*
X123432700Y-85537949D01*
X123395377Y-85534273D01*
X123358054Y-85537949D01*
X123358045Y-85537949D01*
X123246392Y-85548946D01*
X123103131Y-85592403D01*
X123003379Y-85645722D01*
X123003379Y-82087751D01*
X125033181Y-80057950D01*
X125095318Y-80057950D01*
X125295277Y-80018176D01*
X125483635Y-79940155D01*
X125653153Y-79826887D01*
X125797316Y-79682724D01*
X125910584Y-79513206D01*
X125988605Y-79324848D01*
X126028379Y-79124889D01*
X126028379Y-78921011D01*
X125988605Y-78721052D01*
X125910584Y-78532694D01*
X125797316Y-78363176D01*
X125653153Y-78219013D01*
X125483635Y-78105745D01*
X125295277Y-78027724D01*
X125095318Y-77987950D01*
X125064754Y-77987950D01*
X124987936Y-77802496D01*
X124874668Y-77632978D01*
X124730505Y-77488815D01*
X124560987Y-77375547D01*
X124372629Y-77297526D01*
X124172670Y-77257752D01*
X123968792Y-77257752D01*
X123768833Y-77297526D01*
X123580475Y-77375547D01*
X123410957Y-77488815D01*
X123367020Y-77532752D01*
X119807416Y-77532752D01*
X119795277Y-77527724D01*
X119595318Y-77487950D01*
X119391440Y-77487950D01*
X119191481Y-77527724D01*
X119003123Y-77605745D01*
X118833605Y-77719013D01*
X118689442Y-77863176D01*
X118576174Y-78032694D01*
X118498153Y-78221052D01*
X118458379Y-78421011D01*
X118458379Y-78624889D01*
X118498153Y-78824848D01*
X118576174Y-79013206D01*
X118689442Y-79182724D01*
X118833605Y-79326887D01*
X119003123Y-79440155D01*
X119191481Y-79518176D01*
X119391440Y-79557950D01*
X119595318Y-79557950D01*
X119795277Y-79518176D01*
X119983635Y-79440155D01*
X120153153Y-79326887D01*
X120297316Y-79182724D01*
X120384160Y-79052752D01*
X123367020Y-79052752D01*
X123410957Y-79096689D01*
X123580475Y-79209957D01*
X123687315Y-79254212D01*
X121732382Y-81209146D01*
X121703378Y-81232949D01*
X121662554Y-81282694D01*
X121608405Y-81348674D01*
X121542992Y-81471052D01*
X121537833Y-81480704D01*
X121494376Y-81623965D01*
X121483379Y-81735618D01*
X121483379Y-81735628D01*
X121479703Y-81772950D01*
X121483379Y-81810273D01*
X121483379Y-84615147D01*
X121405184Y-84536952D01*
X121381381Y-84507948D01*
X121265656Y-84412975D01*
X121133627Y-84342403D01*
X120990366Y-84298946D01*
X120878713Y-84287949D01*
X120878702Y-84287949D01*
X120841380Y-84284273D01*
X120804058Y-84287949D01*
X117295703Y-84287949D01*
X117258380Y-84284273D01*
X117221057Y-84287949D01*
X117221047Y-84287949D01*
X117109394Y-84298946D01*
X116966133Y-84342403D01*
X116834103Y-84412975D01*
X116750463Y-84481617D01*
X116718379Y-84507948D01*
X116694581Y-84536946D01*
X116223577Y-85007950D01*
X116161440Y-85007950D01*
X115961481Y-85047724D01*
X115773123Y-85125745D01*
X115603605Y-85239013D01*
X115459442Y-85383176D01*
X115346174Y-85552694D01*
X115268153Y-85741052D01*
X115228379Y-85941011D01*
X115228379Y-86144889D01*
X115268153Y-86344848D01*
X115346174Y-86533206D01*
X115459442Y-86702724D01*
X115603605Y-86846887D01*
X115773123Y-86960155D01*
X115961481Y-87038176D01*
X116161440Y-87077950D01*
X116365318Y-87077950D01*
X116565277Y-87038176D01*
X116753635Y-86960155D01*
X116923153Y-86846887D01*
X117067316Y-86702724D01*
X117180584Y-86533206D01*
X117258605Y-86344848D01*
X117298379Y-86144889D01*
X117298379Y-86082752D01*
X117573182Y-85807949D01*
X119458379Y-85807949D01*
X119458379Y-85874889D01*
X119498153Y-86074848D01*
X119576174Y-86263206D01*
X119689442Y-86432724D01*
X119733379Y-86476661D01*
X119733379Y-87487950D01*
X119641440Y-87487950D01*
X119441481Y-87527724D01*
X119253123Y-87605745D01*
X119083605Y-87719013D01*
X118939442Y-87863176D01*
X118826174Y-88032694D01*
X118748153Y-88221052D01*
X118708379Y-88421011D01*
X118708379Y-88624889D01*
X118726340Y-88715187D01*
X117075888Y-90365640D01*
X114361173Y-90365640D01*
X114317236Y-90321703D01*
X114147718Y-90208435D01*
X113959360Y-90130414D01*
X113759401Y-90090640D01*
X113555523Y-90090640D01*
X113355564Y-90130414D01*
X113167206Y-90208435D01*
X112997688Y-90321703D01*
X112853525Y-90465866D01*
X112740257Y-90635384D01*
X112662236Y-90823742D01*
X112622462Y-91023701D01*
X95660000Y-91023701D01*
X95660000Y-84421011D01*
X112458379Y-84421011D01*
X112458379Y-84624889D01*
X112498153Y-84824848D01*
X112576174Y-85013206D01*
X112689442Y-85182724D01*
X112833605Y-85326887D01*
X113003123Y-85440155D01*
X113191481Y-85518176D01*
X113391440Y-85557950D01*
X113595318Y-85557950D01*
X113795277Y-85518176D01*
X113983635Y-85440155D01*
X114153153Y-85326887D01*
X114297316Y-85182724D01*
X114410584Y-85013206D01*
X114488605Y-84824848D01*
X114528379Y-84624889D01*
X114528379Y-84421011D01*
X114488605Y-84221052D01*
X114410584Y-84032694D01*
X114297316Y-83863176D01*
X114253379Y-83819239D01*
X114253379Y-83087751D01*
X114533181Y-82807950D01*
X114595318Y-82807950D01*
X114795277Y-82768176D01*
X114983635Y-82690155D01*
X115153153Y-82576887D01*
X115297316Y-82432724D01*
X115410584Y-82263206D01*
X115488605Y-82074848D01*
X115528379Y-81874889D01*
X115528379Y-81671011D01*
X115488605Y-81471052D01*
X115410584Y-81282694D01*
X115297316Y-81113176D01*
X115153153Y-80969013D01*
X114983635Y-80855745D01*
X114795277Y-80777724D01*
X114595318Y-80737950D01*
X114391440Y-80737950D01*
X114191481Y-80777724D01*
X114003123Y-80855745D01*
X113833605Y-80969013D01*
X113689442Y-81113176D01*
X113576174Y-81282694D01*
X113498153Y-81471052D01*
X113458379Y-81671011D01*
X113458379Y-81733148D01*
X112982377Y-82209151D01*
X112953379Y-82232949D01*
X112929581Y-82261947D01*
X112929580Y-82261948D01*
X112858405Y-82348674D01*
X112787833Y-82480704D01*
X112744377Y-82623965D01*
X112729703Y-82772950D01*
X112733380Y-82810282D01*
X112733379Y-83819239D01*
X112689442Y-83863176D01*
X112576174Y-84032694D01*
X112498153Y-84221052D01*
X112458379Y-84421011D01*
X95660000Y-84421011D01*
X95660000Y-75050000D01*
X103911928Y-75050000D01*
X103911928Y-77450000D01*
X103924188Y-77574482D01*
X103960498Y-77694180D01*
X104019463Y-77804494D01*
X104098815Y-77901185D01*
X104195506Y-77980537D01*
X104305820Y-78039502D01*
X104425518Y-78075812D01*
X104550000Y-78088072D01*
X106950000Y-78088072D01*
X107074482Y-78075812D01*
X107194180Y-78039502D01*
X107304494Y-77980537D01*
X107401185Y-77901185D01*
X107480537Y-77804494D01*
X107539502Y-77694180D01*
X107575812Y-77574482D01*
X107588072Y-77450000D01*
X107588072Y-75164721D01*
X170055000Y-75164721D01*
X170055000Y-75585279D01*
X170137047Y-75997756D01*
X170297988Y-76386302D01*
X170531637Y-76735983D01*
X170829017Y-77033363D01*
X171178698Y-77267012D01*
X171567244Y-77427953D01*
X171979721Y-77510000D01*
X172400279Y-77510000D01*
X172812756Y-77427953D01*
X173201302Y-77267012D01*
X173550983Y-77033363D01*
X173848363Y-76735983D01*
X174082012Y-76386302D01*
X174095000Y-76354946D01*
X174107988Y-76386302D01*
X174341637Y-76735983D01*
X174639017Y-77033363D01*
X174988698Y-77267012D01*
X175377244Y-77427953D01*
X175789721Y-77510000D01*
X176210279Y-77510000D01*
X176622756Y-77427953D01*
X177011302Y-77267012D01*
X177360983Y-77033363D01*
X177658363Y-76735983D01*
X177892012Y-76386302D01*
X177905000Y-76354946D01*
X177917988Y-76386302D01*
X178151637Y-76735983D01*
X178449017Y-77033363D01*
X178798698Y-77267012D01*
X179187244Y-77427953D01*
X179599721Y-77510000D01*
X180020279Y-77510000D01*
X180432756Y-77427953D01*
X180821302Y-77267012D01*
X181170983Y-77033363D01*
X181172693Y-77031653D01*
X191197952Y-77031653D01*
X191353962Y-77347214D01*
X191728745Y-77538020D01*
X192133551Y-77652044D01*
X192552824Y-77684902D01*
X192970451Y-77635334D01*
X193370383Y-77505243D01*
X193666038Y-77347214D01*
X193822048Y-77031653D01*
X192510000Y-75719605D01*
X191197952Y-77031653D01*
X181172693Y-77031653D01*
X181468363Y-76735983D01*
X181702012Y-76386302D01*
X181862953Y-75997756D01*
X181945000Y-75585279D01*
X181945000Y-75582824D01*
X190365098Y-75582824D01*
X190414666Y-76000451D01*
X190544757Y-76400383D01*
X190702786Y-76696038D01*
X191018347Y-76852048D01*
X192330395Y-75540000D01*
X191018347Y-74227952D01*
X190702786Y-74383962D01*
X190511980Y-74758745D01*
X190397956Y-75163551D01*
X190365098Y-75582824D01*
X181945000Y-75582824D01*
X181945000Y-75164721D01*
X181862953Y-74752244D01*
X181702012Y-74363698D01*
X181491302Y-74048347D01*
X191197952Y-74048347D01*
X192510000Y-75360395D01*
X193822048Y-74048347D01*
X193666038Y-73732786D01*
X193291255Y-73541980D01*
X192886449Y-73427956D01*
X192467176Y-73395098D01*
X192049549Y-73444666D01*
X191649617Y-73574757D01*
X191353962Y-73732786D01*
X191197952Y-74048347D01*
X181491302Y-74048347D01*
X181468363Y-74014017D01*
X181170983Y-73716637D01*
X180821302Y-73482988D01*
X180432756Y-73322047D01*
X180020279Y-73240000D01*
X179599721Y-73240000D01*
X179187244Y-73322047D01*
X178798698Y-73482988D01*
X178449017Y-73716637D01*
X178151637Y-74014017D01*
X177917988Y-74363698D01*
X177905000Y-74395054D01*
X177892012Y-74363698D01*
X177658363Y-74014017D01*
X177360983Y-73716637D01*
X177011302Y-73482988D01*
X176622756Y-73322047D01*
X176210279Y-73240000D01*
X175789721Y-73240000D01*
X175377244Y-73322047D01*
X174988698Y-73482988D01*
X174639017Y-73716637D01*
X174341637Y-74014017D01*
X174107988Y-74363698D01*
X174095000Y-74395054D01*
X174082012Y-74363698D01*
X173848363Y-74014017D01*
X173550983Y-73716637D01*
X173201302Y-73482988D01*
X172812756Y-73322047D01*
X172400279Y-73240000D01*
X171979721Y-73240000D01*
X171567244Y-73322047D01*
X171178698Y-73482988D01*
X170829017Y-73716637D01*
X170531637Y-74014017D01*
X170297988Y-74363698D01*
X170137047Y-74752244D01*
X170055000Y-75164721D01*
X107588072Y-75164721D01*
X107588072Y-75050000D01*
X107575812Y-74925518D01*
X107539502Y-74805820D01*
X107480537Y-74695506D01*
X107401185Y-74598815D01*
X107304494Y-74519463D01*
X107194180Y-74460498D01*
X107074482Y-74424188D01*
X106950000Y-74411928D01*
X104550000Y-74411928D01*
X104425518Y-74424188D01*
X104305820Y-74460498D01*
X104195506Y-74519463D01*
X104098815Y-74598815D01*
X104019463Y-74695506D01*
X103960498Y-74805820D01*
X103924188Y-74925518D01*
X103911928Y-75050000D01*
X95660000Y-75050000D01*
X95660000Y-72314344D01*
X103865000Y-72314344D01*
X103865000Y-72685656D01*
X103937439Y-73049834D01*
X104079534Y-73392882D01*
X104285825Y-73701618D01*
X104548382Y-73964175D01*
X104857118Y-74170466D01*
X105200166Y-74312561D01*
X105564344Y-74385000D01*
X105935656Y-74385000D01*
X106299834Y-74312561D01*
X106642882Y-74170466D01*
X106951618Y-73964175D01*
X107214175Y-73701618D01*
X107420466Y-73392882D01*
X107562561Y-73049834D01*
X107635000Y-72685656D01*
X107635000Y-72314344D01*
X153865000Y-72314344D01*
X153865000Y-72685656D01*
X153937439Y-73049834D01*
X154079534Y-73392882D01*
X154285825Y-73701618D01*
X154548382Y-73964175D01*
X154857118Y-74170466D01*
X155200166Y-74312561D01*
X155564344Y-74385000D01*
X155935656Y-74385000D01*
X156299834Y-74312561D01*
X156642882Y-74170466D01*
X156951618Y-73964175D01*
X157214175Y-73701618D01*
X157420466Y-73392882D01*
X157562561Y-73049834D01*
X157635000Y-72685656D01*
X157635000Y-72314344D01*
X157562561Y-71950166D01*
X157420466Y-71607118D01*
X157214175Y-71298382D01*
X156951618Y-71035825D01*
X156642882Y-70829534D01*
X156299834Y-70687439D01*
X155935656Y-70615000D01*
X155564344Y-70615000D01*
X155200166Y-70687439D01*
X154857118Y-70829534D01*
X154548382Y-71035825D01*
X154285825Y-71298382D01*
X154079534Y-71607118D01*
X153937439Y-71950166D01*
X153865000Y-72314344D01*
X107635000Y-72314344D01*
X107562561Y-71950166D01*
X107420466Y-71607118D01*
X107214175Y-71298382D01*
X106951618Y-71035825D01*
X106642882Y-70829534D01*
X106299834Y-70687439D01*
X105935656Y-70615000D01*
X105564344Y-70615000D01*
X105200166Y-70687439D01*
X104857118Y-70829534D01*
X104548382Y-71035825D01*
X104285825Y-71298382D01*
X104079534Y-71607118D01*
X103937439Y-71950166D01*
X103865000Y-72314344D01*
X95660000Y-72314344D01*
X95660000Y-68569268D01*
X103915000Y-68569268D01*
X103915000Y-68930732D01*
X103985518Y-69285250D01*
X104123844Y-69619199D01*
X104324662Y-69919744D01*
X104580256Y-70175338D01*
X104880801Y-70376156D01*
X105214750Y-70514482D01*
X105569268Y-70585000D01*
X105930732Y-70585000D01*
X106285250Y-70514482D01*
X106526094Y-70414721D01*
X170055000Y-70414721D01*
X170055000Y-70835279D01*
X170137047Y-71247756D01*
X170297988Y-71636302D01*
X170531637Y-71985983D01*
X170829017Y-72283363D01*
X171178698Y-72517012D01*
X171567244Y-72677953D01*
X171979721Y-72760000D01*
X172400279Y-72760000D01*
X172812756Y-72677953D01*
X173201302Y-72517012D01*
X173550983Y-72283363D01*
X173848363Y-71985983D01*
X174082012Y-71636302D01*
X174095000Y-71604946D01*
X174107988Y-71636302D01*
X174341637Y-71985983D01*
X174639017Y-72283363D01*
X174988698Y-72517012D01*
X175377244Y-72677953D01*
X175789721Y-72760000D01*
X176210279Y-72760000D01*
X176622756Y-72677953D01*
X177011302Y-72517012D01*
X177360983Y-72283363D01*
X177658363Y-71985983D01*
X177892012Y-71636302D01*
X177905000Y-71604946D01*
X177917988Y-71636302D01*
X178151637Y-71985983D01*
X178449017Y-72283363D01*
X178798698Y-72517012D01*
X179187244Y-72677953D01*
X179599721Y-72760000D01*
X180020279Y-72760000D01*
X180432756Y-72677953D01*
X180821302Y-72517012D01*
X181170983Y-72283363D01*
X181468363Y-71985983D01*
X181491301Y-71951653D01*
X191197952Y-71951653D01*
X191353962Y-72267214D01*
X191728745Y-72458020D01*
X192133551Y-72572044D01*
X192552824Y-72604902D01*
X192970451Y-72555334D01*
X193370383Y-72425243D01*
X193666038Y-72267214D01*
X193822048Y-71951653D01*
X192510000Y-70639605D01*
X191197952Y-71951653D01*
X181491301Y-71951653D01*
X181702012Y-71636302D01*
X181862953Y-71247756D01*
X181945000Y-70835279D01*
X181945000Y-70502824D01*
X190365098Y-70502824D01*
X190414666Y-70920451D01*
X190544757Y-71320383D01*
X190702786Y-71616038D01*
X191018347Y-71772048D01*
X192330395Y-70460000D01*
X191018347Y-69147952D01*
X190702786Y-69303962D01*
X190511980Y-69678745D01*
X190397956Y-70083551D01*
X190365098Y-70502824D01*
X181945000Y-70502824D01*
X181945000Y-70414721D01*
X181862953Y-70002244D01*
X181702012Y-69613698D01*
X181468363Y-69264017D01*
X181172693Y-68968347D01*
X191197952Y-68968347D01*
X192510000Y-70280395D01*
X193822048Y-68968347D01*
X193666038Y-68652786D01*
X193291255Y-68461980D01*
X192886449Y-68347956D01*
X192467176Y-68315098D01*
X192049549Y-68364666D01*
X191649617Y-68494757D01*
X191353962Y-68652786D01*
X191197952Y-68968347D01*
X181172693Y-68968347D01*
X181170983Y-68966637D01*
X180821302Y-68732988D01*
X180432756Y-68572047D01*
X180020279Y-68490000D01*
X179599721Y-68490000D01*
X179187244Y-68572047D01*
X178798698Y-68732988D01*
X178449017Y-68966637D01*
X178151637Y-69264017D01*
X177917988Y-69613698D01*
X177905000Y-69645054D01*
X177892012Y-69613698D01*
X177658363Y-69264017D01*
X177360983Y-68966637D01*
X177011302Y-68732988D01*
X176622756Y-68572047D01*
X176210279Y-68490000D01*
X175789721Y-68490000D01*
X175377244Y-68572047D01*
X174988698Y-68732988D01*
X174639017Y-68966637D01*
X174341637Y-69264017D01*
X174107988Y-69613698D01*
X174095000Y-69645054D01*
X174082012Y-69613698D01*
X173848363Y-69264017D01*
X173550983Y-68966637D01*
X173201302Y-68732988D01*
X172812756Y-68572047D01*
X172400279Y-68490000D01*
X171979721Y-68490000D01*
X171567244Y-68572047D01*
X171178698Y-68732988D01*
X170829017Y-68966637D01*
X170531637Y-69264017D01*
X170297988Y-69613698D01*
X170137047Y-70002244D01*
X170055000Y-70414721D01*
X106526094Y-70414721D01*
X106619199Y-70376156D01*
X106919744Y-70175338D01*
X107175338Y-69919744D01*
X107376156Y-69619199D01*
X107514482Y-69285250D01*
X107585000Y-68930732D01*
X107585000Y-68569268D01*
X107514482Y-68214750D01*
X107376156Y-67880801D01*
X107175338Y-67580256D01*
X106919744Y-67324662D01*
X106619199Y-67123844D01*
X106285250Y-66985518D01*
X105930732Y-66915000D01*
X105569268Y-66915000D01*
X105214750Y-66985518D01*
X104880801Y-67123844D01*
X104580256Y-67324662D01*
X104324662Y-67580256D01*
X104123844Y-67880801D01*
X103985518Y-68214750D01*
X103915000Y-68569268D01*
X95660000Y-68569268D01*
X95660000Y-64210000D01*
X165286429Y-64210000D01*
X165286429Y-68030000D01*
X193713572Y-68030000D01*
X193713572Y-64210000D01*
X165286429Y-64210000D01*
X95660000Y-64210000D01*
X95660000Y-61770000D01*
X194340001Y-61770000D01*
X194340001Y-69346594D01*
G37*
X194340001Y-69346594D02*
X194317214Y-69303962D01*
X194001653Y-69147952D01*
X192689605Y-70460000D01*
X194001653Y-71772048D01*
X194317214Y-71616038D01*
X194340001Y-71571280D01*
X194340001Y-74426594D01*
X194317214Y-74383962D01*
X194001653Y-74227952D01*
X192689605Y-75540000D01*
X194001653Y-76852048D01*
X194317214Y-76696038D01*
X194340001Y-76651280D01*
X194340000Y-138230000D01*
X95660000Y-138230000D01*
X95660000Y-131539721D01*
X118115000Y-131539721D01*
X118115000Y-131960279D01*
X118197047Y-132372756D01*
X118357988Y-132761302D01*
X118591637Y-133110983D01*
X118889017Y-133408363D01*
X119238698Y-133642012D01*
X119627244Y-133802953D01*
X120039721Y-133885000D01*
X120460279Y-133885000D01*
X120872756Y-133802953D01*
X121261302Y-133642012D01*
X121610983Y-133408363D01*
X121908363Y-133110983D01*
X122142012Y-132761302D01*
X122302953Y-132372756D01*
X122385000Y-131960279D01*
X122385000Y-131539721D01*
X127415000Y-131539721D01*
X127415000Y-131960279D01*
X127497047Y-132372756D01*
X127657988Y-132761302D01*
X127891637Y-133110983D01*
X128189017Y-133408363D01*
X128538698Y-133642012D01*
X128927244Y-133802953D01*
X129339721Y-133885000D01*
X129760279Y-133885000D01*
X130172756Y-133802953D01*
X130561302Y-133642012D01*
X130910983Y-133408363D01*
X131077693Y-133241653D01*
X131637952Y-133241653D01*
X131793962Y-133557214D01*
X132168745Y-133748020D01*
X132573551Y-133862044D01*
X132992824Y-133894902D01*
X133410451Y-133845334D01*
X133810383Y-133715243D01*
X134106038Y-133557214D01*
X134262048Y-133241653D01*
X140937952Y-133241653D01*
X141093962Y-133557214D01*
X141468745Y-133748020D01*
X141873551Y-133862044D01*
X142292824Y-133894902D01*
X142710451Y-133845334D01*
X143110383Y-133715243D01*
X143406038Y-133557214D01*
X143562048Y-133241653D01*
X146387952Y-133241653D01*
X146543962Y-133557214D01*
X146918745Y-133748020D01*
X147323551Y-133862044D01*
X147742824Y-133894902D01*
X148160451Y-133845334D01*
X148560383Y-133715243D01*
X148856038Y-133557214D01*
X149012048Y-133241653D01*
X155687952Y-133241653D01*
X155843962Y-133557214D01*
X156218745Y-133748020D01*
X156623551Y-133862044D01*
X157042824Y-133894902D01*
X157460451Y-133845334D01*
X157860383Y-133715243D01*
X158156038Y-133557214D01*
X158312048Y-133241653D01*
X157000000Y-131929605D01*
X155687952Y-133241653D01*
X149012048Y-133241653D01*
X147700000Y-131929605D01*
X146387952Y-133241653D01*
X143562048Y-133241653D01*
X142250000Y-131929605D01*
X140937952Y-133241653D01*
X134262048Y-133241653D01*
X132950000Y-131929605D01*
X131637952Y-133241653D01*
X131077693Y-133241653D01*
X131208363Y-133110983D01*
X131295015Y-132981299D01*
X131458347Y-133062048D01*
X132770395Y-131750000D01*
X133129605Y-131750000D01*
X134441653Y-133062048D01*
X134757214Y-132906038D01*
X134948020Y-132531255D01*
X135062044Y-132126449D01*
X135088189Y-131792824D01*
X140105098Y-131792824D01*
X140154666Y-132210451D01*
X140284757Y-132610383D01*
X140442786Y-132906038D01*
X140758347Y-133062048D01*
X142070395Y-131750000D01*
X142429605Y-131750000D01*
X143741653Y-133062048D01*
X144057214Y-132906038D01*
X144248020Y-132531255D01*
X144362044Y-132126449D01*
X144388189Y-131792824D01*
X145555098Y-131792824D01*
X145604666Y-132210451D01*
X145734757Y-132610383D01*
X145892786Y-132906038D01*
X146208347Y-133062048D01*
X147520395Y-131750000D01*
X147879605Y-131750000D01*
X149191653Y-133062048D01*
X149507214Y-132906038D01*
X149698020Y-132531255D01*
X149812044Y-132126449D01*
X149838189Y-131792824D01*
X154855098Y-131792824D01*
X154904666Y-132210451D01*
X155034757Y-132610383D01*
X155192786Y-132906038D01*
X155508347Y-133062048D01*
X156820395Y-131750000D01*
X157179605Y-131750000D01*
X158491653Y-133062048D01*
X158654985Y-132981299D01*
X158741637Y-133110983D01*
X159039017Y-133408363D01*
X159388698Y-133642012D01*
X159777244Y-133802953D01*
X160189721Y-133885000D01*
X160610279Y-133885000D01*
X161022756Y-133802953D01*
X161411302Y-133642012D01*
X161760983Y-133408363D01*
X162058363Y-133110983D01*
X162292012Y-132761302D01*
X162452953Y-132372756D01*
X162535000Y-131960279D01*
X162535000Y-131539721D01*
X167565000Y-131539721D01*
X167565000Y-131960279D01*
X167647047Y-132372756D01*
X167807988Y-132761302D01*
X168041637Y-133110983D01*
X168339017Y-133408363D01*
X168688698Y-133642012D01*
X169077244Y-133802953D01*
X169489721Y-133885000D01*
X169910279Y-133885000D01*
X170322756Y-133802953D01*
X170711302Y-133642012D01*
X171060983Y-133408363D01*
X171358363Y-133110983D01*
X171592012Y-132761302D01*
X171752953Y-132372756D01*
X171835000Y-131960279D01*
X171835000Y-131539721D01*
X171752953Y-131127244D01*
X171592012Y-130738698D01*
X171358363Y-130389017D01*
X171060983Y-130091637D01*
X170711302Y-129857988D01*
X170322756Y-129697047D01*
X169910279Y-129615000D01*
X169489721Y-129615000D01*
X169077244Y-129697047D01*
X168688698Y-129857988D01*
X168339017Y-130091637D01*
X168041637Y-130389017D01*
X167807988Y-130738698D01*
X167647047Y-131127244D01*
X167565000Y-131539721D01*
X162535000Y-131539721D01*
X162452953Y-131127244D01*
X162292012Y-130738698D01*
X162058363Y-130389017D01*
X161760983Y-130091637D01*
X161411302Y-129857988D01*
X161022756Y-129697047D01*
X160610279Y-129615000D01*
X160189721Y-129615000D01*
X159777244Y-129697047D01*
X159388698Y-129857988D01*
X159039017Y-130091637D01*
X158741637Y-130389017D01*
X158654985Y-130518701D01*
X158491653Y-130437952D01*
X157179605Y-131750000D01*
X156820395Y-131750000D01*
X155508347Y-130437952D01*
X155192786Y-130593962D01*
X155001980Y-130968745D01*
X154887956Y-131373551D01*
X154855098Y-131792824D01*
X149838189Y-131792824D01*
X149844902Y-131707176D01*
X149795334Y-131289549D01*
X149665243Y-130889617D01*
X149507214Y-130593962D01*
X149191653Y-130437952D01*
X147879605Y-131750000D01*
X147520395Y-131750000D01*
X146208347Y-130437952D01*
X145892786Y-130593962D01*
X145701980Y-130968745D01*
X145587956Y-131373551D01*
X145555098Y-131792824D01*
X144388189Y-131792824D01*
X144394902Y-131707176D01*
X144345334Y-131289549D01*
X144215243Y-130889617D01*
X144057214Y-130593962D01*
X143741653Y-130437952D01*
X142429605Y-131750000D01*
X142070395Y-131750000D01*
X140758347Y-130437952D01*
X140442786Y-130593962D01*
X140251980Y-130968745D01*
X140137956Y-131373551D01*
X140105098Y-131792824D01*
X135088189Y-131792824D01*
X135094902Y-131707176D01*
X135045334Y-131289549D01*
X134915243Y-130889617D01*
X134757214Y-130593962D01*
X134441653Y-130437952D01*
X133129605Y-131750000D01*
X132770395Y-131750000D01*
X131458347Y-130437952D01*
X131295015Y-130518701D01*
X131208363Y-130389017D01*
X131077693Y-130258347D01*
X131637952Y-130258347D01*
X132950000Y-131570395D01*
X134262048Y-130258347D01*
X134253795Y-130241653D01*
X136287952Y-130241653D01*
X136443962Y-130557214D01*
X136818745Y-130748020D01*
X137223551Y-130862044D01*
X137642824Y-130894902D01*
X138060451Y-130845334D01*
X138460383Y-130715243D01*
X138756038Y-130557214D01*
X138903794Y-130258347D01*
X140937952Y-130258347D01*
X142250000Y-131570395D01*
X143562048Y-130258347D01*
X146387952Y-130258347D01*
X147700000Y-131570395D01*
X149012048Y-130258347D01*
X149003795Y-130241653D01*
X151037952Y-130241653D01*
X151193962Y-130557214D01*
X151568745Y-130748020D01*
X151973551Y-130862044D01*
X152392824Y-130894902D01*
X152810451Y-130845334D01*
X153210383Y-130715243D01*
X153506038Y-130557214D01*
X153653794Y-130258347D01*
X155687952Y-130258347D01*
X157000000Y-131570395D01*
X158312048Y-130258347D01*
X158156038Y-129942786D01*
X157781255Y-129751980D01*
X157376449Y-129637956D01*
X156957176Y-129605098D01*
X156539549Y-129654666D01*
X156139617Y-129784757D01*
X155843962Y-129942786D01*
X155687952Y-130258347D01*
X153653794Y-130258347D01*
X153662048Y-130241653D01*
X152350000Y-128929605D01*
X151037952Y-130241653D01*
X149003795Y-130241653D01*
X148856038Y-129942786D01*
X148481255Y-129751980D01*
X148076449Y-129637956D01*
X147657176Y-129605098D01*
X147239549Y-129654666D01*
X146839617Y-129784757D01*
X146543962Y-129942786D01*
X146387952Y-130258347D01*
X143562048Y-130258347D01*
X143406038Y-129942786D01*
X143031255Y-129751980D01*
X142626449Y-129637956D01*
X142207176Y-129605098D01*
X141789549Y-129654666D01*
X141389617Y-129784757D01*
X141093962Y-129942786D01*
X140937952Y-130258347D01*
X138903794Y-130258347D01*
X138912048Y-130241653D01*
X137600000Y-128929605D01*
X136287952Y-130241653D01*
X134253795Y-130241653D01*
X134106038Y-129942786D01*
X133731255Y-129751980D01*
X133326449Y-129637956D01*
X132907176Y-129605098D01*
X132489549Y-129654666D01*
X132089617Y-129784757D01*
X131793962Y-129942786D01*
X131637952Y-130258347D01*
X131077693Y-130258347D01*
X130910983Y-130091637D01*
X130561302Y-129857988D01*
X130172756Y-129697047D01*
X129760279Y-129615000D01*
X129339721Y-129615000D01*
X128927244Y-129697047D01*
X128538698Y-129857988D01*
X128189017Y-130091637D01*
X127891637Y-130389017D01*
X127657988Y-130738698D01*
X127497047Y-131127244D01*
X127415000Y-131539721D01*
X122385000Y-131539721D01*
X122302953Y-131127244D01*
X122142012Y-130738698D01*
X121908363Y-130389017D01*
X121610983Y-130091637D01*
X121261302Y-129857988D01*
X120872756Y-129697047D01*
X120460279Y-129615000D01*
X120039721Y-129615000D01*
X119627244Y-129697047D01*
X119238698Y-129857988D01*
X118889017Y-130091637D01*
X118591637Y-130389017D01*
X118357988Y-130738698D01*
X118197047Y-131127244D01*
X118115000Y-131539721D01*
X95660000Y-131539721D01*
X95660000Y-128539721D01*
X122765000Y-128539721D01*
X122765000Y-128960279D01*
X122847047Y-129372756D01*
X123007988Y-129761302D01*
X123241637Y-130110983D01*
X123539017Y-130408363D01*
X123888698Y-130642012D01*
X124277244Y-130802953D01*
X124689721Y-130885000D01*
X125110279Y-130885000D01*
X125522756Y-130802953D01*
X125911302Y-130642012D01*
X126260983Y-130408363D01*
X126558363Y-130110983D01*
X126792012Y-129761302D01*
X126952953Y-129372756D01*
X127035000Y-128960279D01*
X127035000Y-128792824D01*
X135455098Y-128792824D01*
X135504666Y-129210451D01*
X135634757Y-129610383D01*
X135792786Y-129906038D01*
X136108347Y-130062048D01*
X137420395Y-128750000D01*
X137779605Y-128750000D01*
X139091653Y-130062048D01*
X139407214Y-129906038D01*
X139598020Y-129531255D01*
X139712044Y-129126449D01*
X139738189Y-128792824D01*
X150205098Y-128792824D01*
X150254666Y-129210451D01*
X150384757Y-129610383D01*
X150542786Y-129906038D01*
X150858347Y-130062048D01*
X152170395Y-128750000D01*
X152529605Y-128750000D01*
X153841653Y-130062048D01*
X154157214Y-129906038D01*
X154348020Y-129531255D01*
X154462044Y-129126449D01*
X154494902Y-128707176D01*
X154475027Y-128539721D01*
X162915000Y-128539721D01*
X162915000Y-128960279D01*
X162997047Y-129372756D01*
X163157988Y-129761302D01*
X163391637Y-130110983D01*
X163689017Y-130408363D01*
X164038698Y-130642012D01*
X164427244Y-130802953D01*
X164839721Y-130885000D01*
X165260279Y-130885000D01*
X165672756Y-130802953D01*
X166061302Y-130642012D01*
X166410983Y-130408363D01*
X166708363Y-130110983D01*
X166942012Y-129761302D01*
X167102953Y-129372756D01*
X167185000Y-128960279D01*
X167185000Y-128539721D01*
X167102953Y-128127244D01*
X166942012Y-127738698D01*
X166708363Y-127389017D01*
X166410983Y-127091637D01*
X166061302Y-126857988D01*
X165672756Y-126697047D01*
X165260279Y-126615000D01*
X164839721Y-126615000D01*
X164427244Y-126697047D01*
X164038698Y-126857988D01*
X163689017Y-127091637D01*
X163391637Y-127389017D01*
X163157988Y-127738698D01*
X162997047Y-128127244D01*
X162915000Y-128539721D01*
X154475027Y-128539721D01*
X154445334Y-128289549D01*
X154315243Y-127889617D01*
X154157214Y-127593962D01*
X153841653Y-127437952D01*
X152529605Y-128750000D01*
X152170395Y-128750000D01*
X150858347Y-127437952D01*
X150542786Y-127593962D01*
X150351980Y-127968745D01*
X150237956Y-128373551D01*
X150205098Y-128792824D01*
X139738189Y-128792824D01*
X139744902Y-128707176D01*
X139695334Y-128289549D01*
X139565243Y-127889617D01*
X139407214Y-127593962D01*
X139091653Y-127437952D01*
X137779605Y-128750000D01*
X137420395Y-128750000D01*
X136108347Y-127437952D01*
X135792786Y-127593962D01*
X135601980Y-127968745D01*
X135487956Y-128373551D01*
X135455098Y-128792824D01*
X127035000Y-128792824D01*
X127035000Y-128539721D01*
X126952953Y-128127244D01*
X126792012Y-127738698D01*
X126558363Y-127389017D01*
X126427693Y-127258347D01*
X136287952Y-127258347D01*
X137600000Y-128570395D01*
X138912048Y-127258347D01*
X151037952Y-127258347D01*
X152350000Y-128570395D01*
X153662048Y-127258347D01*
X153506038Y-126942786D01*
X153131255Y-126751980D01*
X152726449Y-126637956D01*
X152307176Y-126605098D01*
X151889549Y-126654666D01*
X151489617Y-126784757D01*
X151193962Y-126942786D01*
X151037952Y-127258347D01*
X138912048Y-127258347D01*
X138756038Y-126942786D01*
X138381255Y-126751980D01*
X137976449Y-126637956D01*
X137557176Y-126605098D01*
X137139549Y-126654666D01*
X136739617Y-126784757D01*
X136443962Y-126942786D01*
X136287952Y-127258347D01*
X126427693Y-127258347D01*
X126260983Y-127091637D01*
X125911302Y-126857988D01*
X125522756Y-126697047D01*
X125110279Y-126615000D01*
X124689721Y-126615000D01*
X124277244Y-126697047D01*
X123888698Y-126857988D01*
X123539017Y-127091637D01*
X123241637Y-127389017D01*
X123007988Y-127738698D01*
X122847047Y-128127244D01*
X122765000Y-128539721D01*
X95660000Y-128539721D01*
X95660000Y-105578003D01*
X98837573Y-105578003D01*
X98917947Y-105875368D01*
X99116388Y-106299439D01*
X99393748Y-106676648D01*
X99739369Y-106992498D01*
X100139968Y-107234852D01*
X100580150Y-107394396D01*
X101043000Y-107465000D01*
X102793000Y-107465000D01*
X102793000Y-105207000D01*
X103047000Y-105207000D01*
X103047000Y-107465000D01*
X104797000Y-107465000D01*
X105259850Y-107394396D01*
X105700032Y-107234852D01*
X106100631Y-106992498D01*
X106446252Y-106676648D01*
X106723612Y-106299439D01*
X106922053Y-105875368D01*
X107002427Y-105578003D01*
X182997573Y-105578003D01*
X183077947Y-105875368D01*
X183276388Y-106299439D01*
X183553748Y-106676648D01*
X183899369Y-106992498D01*
X184299968Y-107234852D01*
X184740150Y-107394396D01*
X185203000Y-107465000D01*
X186953000Y-107465000D01*
X186953000Y-105207000D01*
X187207000Y-105207000D01*
X187207000Y-107465000D01*
X188957000Y-107465000D01*
X189419850Y-107394396D01*
X189860032Y-107234852D01*
X190260631Y-106992498D01*
X190606252Y-106676648D01*
X190883612Y-106299439D01*
X191082053Y-105875368D01*
X191162427Y-105578003D01*
X191052625Y-105207000D01*
X187207000Y-105207000D01*
X186953000Y-105207000D01*
X183107375Y-105207000D01*
X182997573Y-105578003D01*
X107002427Y-105578003D01*
X106892625Y-105207000D01*
X103047000Y-105207000D01*
X102793000Y-105207000D01*
X98947375Y-105207000D01*
X98837573Y-105578003D01*
X95660000Y-105578003D01*
X95660000Y-104581997D01*
X98837573Y-104581997D01*
X98947375Y-104953000D01*
X102793000Y-104953000D01*
X102793000Y-102695000D01*
X103047000Y-102695000D01*
X103047000Y-104953000D01*
X106892625Y-104953000D01*
X107002427Y-104581997D01*
X106922053Y-104284632D01*
X106723612Y-103860561D01*
X106446252Y-103483352D01*
X106100631Y-103167502D01*
X105700032Y-102925148D01*
X105600408Y-102889039D01*
X106158096Y-102889039D01*
X106175633Y-102971818D01*
X106286285Y-103231646D01*
X106445500Y-103464895D01*
X106647161Y-103662601D01*
X106883517Y-103817166D01*
X107145486Y-103922650D01*
X107423000Y-103975000D01*
X107873000Y-103975000D01*
X107873000Y-102667000D01*
X108127000Y-102667000D01*
X108127000Y-103975000D01*
X108577000Y-103975000D01*
X108854514Y-103922650D01*
X109116483Y-103817166D01*
X109352839Y-103662601D01*
X109554500Y-103464895D01*
X109713715Y-103231646D01*
X109824367Y-102971818D01*
X109841904Y-102889039D01*
X109719915Y-102667000D01*
X108127000Y-102667000D01*
X107873000Y-102667000D01*
X106280085Y-102667000D01*
X106158096Y-102889039D01*
X105600408Y-102889039D01*
X105259850Y-102765604D01*
X104797000Y-102695000D01*
X103047000Y-102695000D01*
X102793000Y-102695000D01*
X101043000Y-102695000D01*
X100580150Y-102765604D01*
X100139968Y-102925148D01*
X99739369Y-103167502D01*
X99393748Y-103483352D01*
X99116388Y-103860561D01*
X98917947Y-104284632D01*
X98837573Y-104581997D01*
X95660000Y-104581997D01*
X95660000Y-100000000D01*
X106108057Y-100000000D01*
X106135764Y-100281309D01*
X106217818Y-100551808D01*
X106351068Y-100801101D01*
X106530392Y-101019608D01*
X106748899Y-101198932D01*
X106876741Y-101267265D01*
X106647161Y-101417399D01*
X106445500Y-101615105D01*
X106286285Y-101848354D01*
X106175633Y-102108182D01*
X106158096Y-102190961D01*
X106280085Y-102413000D01*
X107873000Y-102413000D01*
X107873000Y-102393000D01*
X108127000Y-102393000D01*
X108127000Y-102413000D01*
X109719915Y-102413000D01*
X109841904Y-102190961D01*
X109824367Y-102108182D01*
X109713715Y-101848354D01*
X109554500Y-101615105D01*
X109352839Y-101417399D01*
X109123259Y-101267265D01*
X109251101Y-101198932D01*
X109469608Y-101019608D01*
X109648932Y-100801101D01*
X109782182Y-100551808D01*
X109864236Y-100281309D01*
X109891943Y-100000000D01*
X109864236Y-99718691D01*
X109782182Y-99448192D01*
X109648932Y-99198899D01*
X109469608Y-98980392D01*
X109251101Y-98801068D01*
X109001808Y-98667818D01*
X108731309Y-98585764D01*
X108520492Y-98565000D01*
X107479508Y-98565000D01*
X107268691Y-98585764D01*
X106998192Y-98667818D01*
X106748899Y-98801068D01*
X106530392Y-98980392D01*
X106351068Y-99198899D01*
X106217818Y-99448192D01*
X106135764Y-99718691D01*
X106108057Y-100000000D01*
X95660000Y-100000000D01*
X95660000Y-95418003D01*
X98837573Y-95418003D01*
X98917947Y-95715368D01*
X99116388Y-96139439D01*
X99393748Y-96516648D01*
X99739369Y-96832498D01*
X100139968Y-97074852D01*
X100580150Y-97234396D01*
X101043000Y-97305000D01*
X102793000Y-97305000D01*
X102793000Y-95047000D01*
X103047000Y-95047000D01*
X103047000Y-97305000D01*
X104797000Y-97305000D01*
X105259850Y-97234396D01*
X105700032Y-97074852D01*
X106100631Y-96832498D01*
X106446252Y-96516648D01*
X106723612Y-96139439D01*
X106922053Y-95715368D01*
X106934042Y-95671011D01*
X120208379Y-95671011D01*
X120208379Y-95874889D01*
X120248153Y-96074848D01*
X120326174Y-96263206D01*
X120439442Y-96432724D01*
X120583605Y-96576887D01*
X120753123Y-96690155D01*
X120941481Y-96768176D01*
X121141440Y-96807950D01*
X121345318Y-96807950D01*
X121545277Y-96768176D01*
X121733635Y-96690155D01*
X121903153Y-96576887D01*
X122047316Y-96432724D01*
X122160584Y-96263206D01*
X122238605Y-96074848D01*
X122278379Y-95874889D01*
X122278379Y-95671011D01*
X122238605Y-95471052D01*
X122160584Y-95282694D01*
X122047316Y-95113176D01*
X122003379Y-95069239D01*
X122003379Y-93587751D01*
X122533181Y-93057950D01*
X122595318Y-93057950D01*
X122795277Y-93018176D01*
X122983635Y-92940155D01*
X123153153Y-92826887D01*
X123297316Y-92682724D01*
X123410584Y-92513206D01*
X123488605Y-92324848D01*
X123528379Y-92124889D01*
X123528379Y-91921011D01*
X123488605Y-91721052D01*
X123410584Y-91532694D01*
X123297316Y-91363176D01*
X123153153Y-91219013D01*
X122983635Y-91105745D01*
X122795277Y-91027724D01*
X122595318Y-90987950D01*
X122391440Y-90987950D01*
X122191481Y-91027724D01*
X122003123Y-91105745D01*
X121833605Y-91219013D01*
X121689442Y-91363176D01*
X121576174Y-91532694D01*
X121498153Y-91721052D01*
X121458379Y-91921011D01*
X121458379Y-91983148D01*
X120732382Y-92709146D01*
X120703378Y-92732949D01*
X120671369Y-92771953D01*
X120608405Y-92848674D01*
X120582557Y-92897032D01*
X120537833Y-92980704D01*
X120494376Y-93123965D01*
X120483379Y-93235618D01*
X120483379Y-93235628D01*
X120479703Y-93272950D01*
X120483379Y-93310273D01*
X120483380Y-95069238D01*
X120439442Y-95113176D01*
X120326174Y-95282694D01*
X120248153Y-95471052D01*
X120208379Y-95671011D01*
X106934042Y-95671011D01*
X107002427Y-95418003D01*
X106892625Y-95047000D01*
X103047000Y-95047000D01*
X102793000Y-95047000D01*
X98947375Y-95047000D01*
X98837573Y-95418003D01*
X95660000Y-95418003D01*
X95660000Y-94421997D01*
X98837573Y-94421997D01*
X98947375Y-94793000D01*
X102793000Y-94793000D01*
X102793000Y-92535000D01*
X103047000Y-92535000D01*
X103047000Y-94793000D01*
X106892625Y-94793000D01*
X107002427Y-94421997D01*
X106922053Y-94124632D01*
X106723612Y-93700561D01*
X106446252Y-93323352D01*
X106100631Y-93007502D01*
X105700032Y-92765148D01*
X105259850Y-92605604D01*
X104797000Y-92535000D01*
X103047000Y-92535000D01*
X102793000Y-92535000D01*
X101043000Y-92535000D01*
X100580150Y-92605604D01*
X100139968Y-92765148D01*
X99739369Y-93007502D01*
X99393748Y-93323352D01*
X99116388Y-93700561D01*
X98917947Y-94124632D01*
X98837573Y-94421997D01*
X95660000Y-94421997D01*
X95660000Y-91023701D01*
X112622462Y-91023701D01*
X112622462Y-91227579D01*
X112662236Y-91427538D01*
X112740257Y-91615896D01*
X112853525Y-91785414D01*
X112897463Y-91829352D01*
X112897462Y-93399710D01*
X112893786Y-93437033D01*
X112897462Y-93474355D01*
X112897462Y-93474365D01*
X112908459Y-93586018D01*
X112942193Y-93697226D01*
X112951916Y-93729279D01*
X113022488Y-93861309D01*
X113032874Y-93873964D01*
X113117461Y-93977034D01*
X113146464Y-94000836D01*
X113208379Y-94062751D01*
X113208379Y-94124889D01*
X113248153Y-94324848D01*
X113326174Y-94513206D01*
X113439442Y-94682724D01*
X113583605Y-94826887D01*
X113753123Y-94940155D01*
X113941481Y-95018176D01*
X114141440Y-95057950D01*
X114345318Y-95057950D01*
X114545277Y-95018176D01*
X114733635Y-94940155D01*
X114903153Y-94826887D01*
X115047316Y-94682724D01*
X115160584Y-94513206D01*
X115238605Y-94324848D01*
X115278379Y-94124889D01*
X115278379Y-93921011D01*
X115238605Y-93721052D01*
X115160584Y-93532694D01*
X115047316Y-93363176D01*
X114903153Y-93219013D01*
X114733635Y-93105745D01*
X114545277Y-93027724D01*
X114417462Y-93002300D01*
X114417462Y-91885640D01*
X116358369Y-91885640D01*
X116358369Y-91952575D01*
X116398143Y-92152534D01*
X116476164Y-92340892D01*
X116589432Y-92510410D01*
X116733595Y-92654573D01*
X116903113Y-92767841D01*
X117091471Y-92845862D01*
X117291430Y-92885636D01*
X117495308Y-92885636D01*
X117695267Y-92845862D01*
X117847149Y-92782950D01*
X117956057Y-92782950D01*
X117993379Y-92786626D01*
X118030701Y-92782950D01*
X118030712Y-92782950D01*
X118142365Y-92771953D01*
X118285626Y-92728496D01*
X118417655Y-92657924D01*
X118533380Y-92562951D01*
X118557183Y-92533947D01*
X121004382Y-90086749D01*
X121033380Y-90062951D01*
X121099036Y-89982949D01*
X121128353Y-89947227D01*
X121198925Y-89815197D01*
X121215889Y-89759273D01*
X121242382Y-89671936D01*
X121253379Y-89560283D01*
X121253379Y-89560273D01*
X121257055Y-89522950D01*
X121253379Y-89485627D01*
X121253379Y-88930754D01*
X121331579Y-89008953D01*
X121355377Y-89037952D01*
X121471102Y-89132925D01*
X121603131Y-89203497D01*
X121746392Y-89246954D01*
X121858045Y-89257951D01*
X121858053Y-89257951D01*
X121895378Y-89261627D01*
X121932703Y-89257951D01*
X122554058Y-89257951D01*
X122591380Y-89261627D01*
X122628702Y-89257951D01*
X122628713Y-89257951D01*
X122740366Y-89246954D01*
X122883627Y-89203497D01*
X123015656Y-89132925D01*
X123131381Y-89037952D01*
X123155184Y-89008948D01*
X123479377Y-88684755D01*
X123508381Y-88660952D01*
X123603354Y-88545227D01*
X123673926Y-88413198D01*
X123717383Y-88269937D01*
X123728380Y-88158284D01*
X123732057Y-88120951D01*
X123728380Y-88083618D01*
X123728380Y-87057949D01*
X124264669Y-87057949D01*
X124308606Y-87101886D01*
X124478124Y-87215154D01*
X124666482Y-87293175D01*
X124866441Y-87332949D01*
X125070319Y-87332949D01*
X125214131Y-87304343D01*
X127438674Y-89528887D01*
X127253123Y-89605745D01*
X127083605Y-89719013D01*
X126939442Y-89863176D01*
X126826174Y-90032694D01*
X126748153Y-90221052D01*
X126708379Y-90421011D01*
X126708379Y-90624889D01*
X126748153Y-90824848D01*
X126826174Y-91013206D01*
X126939442Y-91182724D01*
X126983380Y-91226662D01*
X126983379Y-93958147D01*
X122953578Y-97987950D01*
X122891440Y-97987950D01*
X122691481Y-98027724D01*
X122503123Y-98105745D01*
X122333605Y-98219013D01*
X122189442Y-98363176D01*
X122076174Y-98532694D01*
X121998153Y-98721052D01*
X121958379Y-98921011D01*
X121958379Y-99124889D01*
X121998153Y-99324848D01*
X122076174Y-99513206D01*
X122189442Y-99682724D01*
X122333605Y-99826887D01*
X122503123Y-99940155D01*
X122691481Y-100018176D01*
X122891440Y-100057950D01*
X123095318Y-100057950D01*
X123295277Y-100018176D01*
X123483635Y-99940155D01*
X123653153Y-99826887D01*
X123797316Y-99682724D01*
X123910584Y-99513206D01*
X123988605Y-99324848D01*
X124028379Y-99124889D01*
X124028379Y-99062751D01*
X127983380Y-95107752D01*
X127983379Y-103188901D01*
X127935370Y-103188901D01*
X127735411Y-103228675D01*
X127547053Y-103306696D01*
X127377535Y-103419964D01*
X127233372Y-103564127D01*
X127120104Y-103733645D01*
X127042083Y-103922003D01*
X127002309Y-104121962D01*
X127002309Y-104325840D01*
X127042083Y-104525799D01*
X127120104Y-104714157D01*
X127233372Y-104883675D01*
X127377535Y-105027838D01*
X127547053Y-105141106D01*
X127735411Y-105219127D01*
X127935370Y-105258901D01*
X128139248Y-105258901D01*
X128339207Y-105219127D01*
X128527565Y-105141106D01*
X128697083Y-105027838D01*
X128841246Y-104883675D01*
X128954514Y-104714157D01*
X129009256Y-104581997D01*
X182997573Y-104581997D01*
X183107375Y-104953000D01*
X186953000Y-104953000D01*
X186953000Y-102695000D01*
X187207000Y-102695000D01*
X187207000Y-104953000D01*
X191052625Y-104953000D01*
X191162427Y-104581997D01*
X191082053Y-104284632D01*
X190883612Y-103860561D01*
X190606252Y-103483352D01*
X190260631Y-103167502D01*
X189860032Y-102925148D01*
X189419850Y-102765604D01*
X188957000Y-102695000D01*
X187207000Y-102695000D01*
X186953000Y-102695000D01*
X185203000Y-102695000D01*
X184740150Y-102765604D01*
X184299968Y-102925148D01*
X183899369Y-103167502D01*
X183553748Y-103483352D01*
X183276388Y-103860561D01*
X183077947Y-104284632D01*
X182997573Y-104581997D01*
X129009256Y-104581997D01*
X129032535Y-104525799D01*
X129072309Y-104325840D01*
X129072309Y-104263703D01*
X129254383Y-104081629D01*
X129283380Y-104057832D01*
X129378353Y-103942107D01*
X129448925Y-103810078D01*
X129492382Y-103666817D01*
X129503379Y-103555164D01*
X129503379Y-103555156D01*
X129507055Y-103517831D01*
X129503379Y-103480506D01*
X129503379Y-100000000D01*
X180108057Y-100000000D01*
X180135764Y-100281309D01*
X180217818Y-100551808D01*
X180351068Y-100801101D01*
X180530392Y-101019608D01*
X180748899Y-101198932D01*
X180998192Y-101332182D01*
X181268691Y-101414236D01*
X181479508Y-101435000D01*
X182520492Y-101435000D01*
X182731309Y-101414236D01*
X183001808Y-101332182D01*
X183251101Y-101198932D01*
X183469608Y-101019608D01*
X183648932Y-100801101D01*
X183782182Y-100551808D01*
X183864236Y-100281309D01*
X183891943Y-100000000D01*
X183864236Y-99718691D01*
X183782182Y-99448192D01*
X183648932Y-99198899D01*
X183469608Y-98980392D01*
X183251101Y-98801068D01*
X183123259Y-98732735D01*
X183352839Y-98582601D01*
X183554500Y-98384895D01*
X183713715Y-98151646D01*
X183824367Y-97891818D01*
X183841904Y-97809039D01*
X183719915Y-97587000D01*
X182127000Y-97587000D01*
X182127000Y-97607000D01*
X181873000Y-97607000D01*
X181873000Y-97587000D01*
X180280085Y-97587000D01*
X180158096Y-97809039D01*
X180175633Y-97891818D01*
X180286285Y-98151646D01*
X180445500Y-98384895D01*
X180647161Y-98582601D01*
X180876741Y-98732735D01*
X180748899Y-98801068D01*
X180530392Y-98980392D01*
X180351068Y-99198899D01*
X180217818Y-99448192D01*
X180135764Y-99718691D01*
X180108057Y-100000000D01*
X129503379Y-100000000D01*
X129503379Y-97110961D01*
X180158096Y-97110961D01*
X180280085Y-97333000D01*
X181873000Y-97333000D01*
X181873000Y-96025000D01*
X182127000Y-96025000D01*
X182127000Y-97333000D01*
X183719915Y-97333000D01*
X183841904Y-97110961D01*
X183824367Y-97028182D01*
X183713715Y-96768354D01*
X183554500Y-96535105D01*
X183352839Y-96337399D01*
X183116483Y-96182834D01*
X182854514Y-96077350D01*
X182577000Y-96025000D01*
X182127000Y-96025000D01*
X181873000Y-96025000D01*
X181423000Y-96025000D01*
X181145486Y-96077350D01*
X180883517Y-96182834D01*
X180647161Y-96337399D01*
X180445500Y-96535105D01*
X180286285Y-96768354D01*
X180175633Y-97028182D01*
X180158096Y-97110961D01*
X129503379Y-97110961D01*
X129503379Y-95418003D01*
X182997573Y-95418003D01*
X183077947Y-95715368D01*
X183276388Y-96139439D01*
X183553748Y-96516648D01*
X183899369Y-96832498D01*
X184299968Y-97074852D01*
X184740150Y-97234396D01*
X185203000Y-97305000D01*
X186953000Y-97305000D01*
X186953000Y-95047000D01*
X187207000Y-95047000D01*
X187207000Y-97305000D01*
X188957000Y-97305000D01*
X189419850Y-97234396D01*
X189860032Y-97074852D01*
X190260631Y-96832498D01*
X190606252Y-96516648D01*
X190883612Y-96139439D01*
X191082053Y-95715368D01*
X191162427Y-95418003D01*
X191052625Y-95047000D01*
X187207000Y-95047000D01*
X186953000Y-95047000D01*
X183107375Y-95047000D01*
X182997573Y-95418003D01*
X129503379Y-95418003D01*
X129503379Y-94976661D01*
X129547316Y-94932724D01*
X129660584Y-94763206D01*
X129738605Y-94574848D01*
X129769008Y-94421997D01*
X182997573Y-94421997D01*
X183107375Y-94793000D01*
X186953000Y-94793000D01*
X186953000Y-92535000D01*
X187207000Y-92535000D01*
X187207000Y-94793000D01*
X191052625Y-94793000D01*
X191162427Y-94421997D01*
X191082053Y-94124632D01*
X190883612Y-93700561D01*
X190606252Y-93323352D01*
X190260631Y-93007502D01*
X189860032Y-92765148D01*
X189419850Y-92605604D01*
X188957000Y-92535000D01*
X187207000Y-92535000D01*
X186953000Y-92535000D01*
X185203000Y-92535000D01*
X184740150Y-92605604D01*
X184299968Y-92765148D01*
X183899369Y-93007502D01*
X183553748Y-93323352D01*
X183276388Y-93700561D01*
X183077947Y-94124632D01*
X182997573Y-94421997D01*
X129769008Y-94421997D01*
X129778379Y-94374889D01*
X129778379Y-94171011D01*
X129738605Y-93971052D01*
X129660584Y-93782694D01*
X129547316Y-93613176D01*
X129503379Y-93569239D01*
X129503379Y-89796112D01*
X129507055Y-89758789D01*
X129503379Y-89721466D01*
X129503379Y-89721457D01*
X129492382Y-89609804D01*
X129448925Y-89466543D01*
X129399440Y-89373964D01*
X129378353Y-89334513D01*
X129307178Y-89247787D01*
X129283380Y-89218789D01*
X129254382Y-89194991D01*
X125899872Y-85840482D01*
X125898668Y-85839278D01*
X125885585Y-85807693D01*
X125772317Y-85638175D01*
X125628154Y-85494012D01*
X125458636Y-85380744D01*
X125270278Y-85302723D01*
X125070319Y-85262949D01*
X124866441Y-85262949D01*
X124666482Y-85302723D01*
X124478124Y-85380744D01*
X124308606Y-85494012D01*
X124264669Y-85537949D01*
X123432700Y-85537949D01*
X123395377Y-85534273D01*
X123358054Y-85537949D01*
X123358045Y-85537949D01*
X123246392Y-85548946D01*
X123103131Y-85592403D01*
X123003379Y-85645722D01*
X123003379Y-82087751D01*
X125033181Y-80057950D01*
X125095318Y-80057950D01*
X125295277Y-80018176D01*
X125483635Y-79940155D01*
X125653153Y-79826887D01*
X125797316Y-79682724D01*
X125910584Y-79513206D01*
X125988605Y-79324848D01*
X126028379Y-79124889D01*
X126028379Y-78921011D01*
X125988605Y-78721052D01*
X125910584Y-78532694D01*
X125797316Y-78363176D01*
X125653153Y-78219013D01*
X125483635Y-78105745D01*
X125295277Y-78027724D01*
X125095318Y-77987950D01*
X125064754Y-77987950D01*
X124987936Y-77802496D01*
X124874668Y-77632978D01*
X124730505Y-77488815D01*
X124560987Y-77375547D01*
X124372629Y-77297526D01*
X124172670Y-77257752D01*
X123968792Y-77257752D01*
X123768833Y-77297526D01*
X123580475Y-77375547D01*
X123410957Y-77488815D01*
X123367020Y-77532752D01*
X119807416Y-77532752D01*
X119795277Y-77527724D01*
X119595318Y-77487950D01*
X119391440Y-77487950D01*
X119191481Y-77527724D01*
X119003123Y-77605745D01*
X118833605Y-77719013D01*
X118689442Y-77863176D01*
X118576174Y-78032694D01*
X118498153Y-78221052D01*
X118458379Y-78421011D01*
X118458379Y-78624889D01*
X118498153Y-78824848D01*
X118576174Y-79013206D01*
X118689442Y-79182724D01*
X118833605Y-79326887D01*
X119003123Y-79440155D01*
X119191481Y-79518176D01*
X119391440Y-79557950D01*
X119595318Y-79557950D01*
X119795277Y-79518176D01*
X119983635Y-79440155D01*
X120153153Y-79326887D01*
X120297316Y-79182724D01*
X120384160Y-79052752D01*
X123367020Y-79052752D01*
X123410957Y-79096689D01*
X123580475Y-79209957D01*
X123687315Y-79254212D01*
X121732382Y-81209146D01*
X121703378Y-81232949D01*
X121662554Y-81282694D01*
X121608405Y-81348674D01*
X121542992Y-81471052D01*
X121537833Y-81480704D01*
X121494376Y-81623965D01*
X121483379Y-81735618D01*
X121483379Y-81735628D01*
X121479703Y-81772950D01*
X121483379Y-81810273D01*
X121483379Y-84615147D01*
X121405184Y-84536952D01*
X121381381Y-84507948D01*
X121265656Y-84412975D01*
X121133627Y-84342403D01*
X120990366Y-84298946D01*
X120878713Y-84287949D01*
X120878702Y-84287949D01*
X120841380Y-84284273D01*
X120804058Y-84287949D01*
X117295703Y-84287949D01*
X117258380Y-84284273D01*
X117221057Y-84287949D01*
X117221047Y-84287949D01*
X117109394Y-84298946D01*
X116966133Y-84342403D01*
X116834103Y-84412975D01*
X116750463Y-84481617D01*
X116718379Y-84507948D01*
X116694581Y-84536946D01*
X116223577Y-85007950D01*
X116161440Y-85007950D01*
X115961481Y-85047724D01*
X115773123Y-85125745D01*
X115603605Y-85239013D01*
X115459442Y-85383176D01*
X115346174Y-85552694D01*
X115268153Y-85741052D01*
X115228379Y-85941011D01*
X115228379Y-86144889D01*
X115268153Y-86344848D01*
X115346174Y-86533206D01*
X115459442Y-86702724D01*
X115603605Y-86846887D01*
X115773123Y-86960155D01*
X115961481Y-87038176D01*
X116161440Y-87077950D01*
X116365318Y-87077950D01*
X116565277Y-87038176D01*
X116753635Y-86960155D01*
X116923153Y-86846887D01*
X117067316Y-86702724D01*
X117180584Y-86533206D01*
X117258605Y-86344848D01*
X117298379Y-86144889D01*
X117298379Y-86082752D01*
X117573182Y-85807949D01*
X119458379Y-85807949D01*
X119458379Y-85874889D01*
X119498153Y-86074848D01*
X119576174Y-86263206D01*
X119689442Y-86432724D01*
X119733379Y-86476661D01*
X119733379Y-87487950D01*
X119641440Y-87487950D01*
X119441481Y-87527724D01*
X119253123Y-87605745D01*
X119083605Y-87719013D01*
X118939442Y-87863176D01*
X118826174Y-88032694D01*
X118748153Y-88221052D01*
X118708379Y-88421011D01*
X118708379Y-88624889D01*
X118726340Y-88715187D01*
X117075888Y-90365640D01*
X114361173Y-90365640D01*
X114317236Y-90321703D01*
X114147718Y-90208435D01*
X113959360Y-90130414D01*
X113759401Y-90090640D01*
X113555523Y-90090640D01*
X113355564Y-90130414D01*
X113167206Y-90208435D01*
X112997688Y-90321703D01*
X112853525Y-90465866D01*
X112740257Y-90635384D01*
X112662236Y-90823742D01*
X112622462Y-91023701D01*
X95660000Y-91023701D01*
X95660000Y-84421011D01*
X112458379Y-84421011D01*
X112458379Y-84624889D01*
X112498153Y-84824848D01*
X112576174Y-85013206D01*
X112689442Y-85182724D01*
X112833605Y-85326887D01*
X113003123Y-85440155D01*
X113191481Y-85518176D01*
X113391440Y-85557950D01*
X113595318Y-85557950D01*
X113795277Y-85518176D01*
X113983635Y-85440155D01*
X114153153Y-85326887D01*
X114297316Y-85182724D01*
X114410584Y-85013206D01*
X114488605Y-84824848D01*
X114528379Y-84624889D01*
X114528379Y-84421011D01*
X114488605Y-84221052D01*
X114410584Y-84032694D01*
X114297316Y-83863176D01*
X114253379Y-83819239D01*
X114253379Y-83087751D01*
X114533181Y-82807950D01*
X114595318Y-82807950D01*
X114795277Y-82768176D01*
X114983635Y-82690155D01*
X115153153Y-82576887D01*
X115297316Y-82432724D01*
X115410584Y-82263206D01*
X115488605Y-82074848D01*
X115528379Y-81874889D01*
X115528379Y-81671011D01*
X115488605Y-81471052D01*
X115410584Y-81282694D01*
X115297316Y-81113176D01*
X115153153Y-80969013D01*
X114983635Y-80855745D01*
X114795277Y-80777724D01*
X114595318Y-80737950D01*
X114391440Y-80737950D01*
X114191481Y-80777724D01*
X114003123Y-80855745D01*
X113833605Y-80969013D01*
X113689442Y-81113176D01*
X113576174Y-81282694D01*
X113498153Y-81471052D01*
X113458379Y-81671011D01*
X113458379Y-81733148D01*
X112982377Y-82209151D01*
X112953379Y-82232949D01*
X112929581Y-82261947D01*
X112929580Y-82261948D01*
X112858405Y-82348674D01*
X112787833Y-82480704D01*
X112744377Y-82623965D01*
X112729703Y-82772950D01*
X112733380Y-82810282D01*
X112733379Y-83819239D01*
X112689442Y-83863176D01*
X112576174Y-84032694D01*
X112498153Y-84221052D01*
X112458379Y-84421011D01*
X95660000Y-84421011D01*
X95660000Y-75050000D01*
X103911928Y-75050000D01*
X103911928Y-77450000D01*
X103924188Y-77574482D01*
X103960498Y-77694180D01*
X104019463Y-77804494D01*
X104098815Y-77901185D01*
X104195506Y-77980537D01*
X104305820Y-78039502D01*
X104425518Y-78075812D01*
X104550000Y-78088072D01*
X106950000Y-78088072D01*
X107074482Y-78075812D01*
X107194180Y-78039502D01*
X107304494Y-77980537D01*
X107401185Y-77901185D01*
X107480537Y-77804494D01*
X107539502Y-77694180D01*
X107575812Y-77574482D01*
X107588072Y-77450000D01*
X107588072Y-75164721D01*
X170055000Y-75164721D01*
X170055000Y-75585279D01*
X170137047Y-75997756D01*
X170297988Y-76386302D01*
X170531637Y-76735983D01*
X170829017Y-77033363D01*
X171178698Y-77267012D01*
X171567244Y-77427953D01*
X171979721Y-77510000D01*
X172400279Y-77510000D01*
X172812756Y-77427953D01*
X173201302Y-77267012D01*
X173550983Y-77033363D01*
X173848363Y-76735983D01*
X174082012Y-76386302D01*
X174095000Y-76354946D01*
X174107988Y-76386302D01*
X174341637Y-76735983D01*
X174639017Y-77033363D01*
X174988698Y-77267012D01*
X175377244Y-77427953D01*
X175789721Y-77510000D01*
X176210279Y-77510000D01*
X176622756Y-77427953D01*
X177011302Y-77267012D01*
X177360983Y-77033363D01*
X177658363Y-76735983D01*
X177892012Y-76386302D01*
X177905000Y-76354946D01*
X177917988Y-76386302D01*
X178151637Y-76735983D01*
X178449017Y-77033363D01*
X178798698Y-77267012D01*
X179187244Y-77427953D01*
X179599721Y-77510000D01*
X180020279Y-77510000D01*
X180432756Y-77427953D01*
X180821302Y-77267012D01*
X181170983Y-77033363D01*
X181172693Y-77031653D01*
X191197952Y-77031653D01*
X191353962Y-77347214D01*
X191728745Y-77538020D01*
X192133551Y-77652044D01*
X192552824Y-77684902D01*
X192970451Y-77635334D01*
X193370383Y-77505243D01*
X193666038Y-77347214D01*
X193822048Y-77031653D01*
X192510000Y-75719605D01*
X191197952Y-77031653D01*
X181172693Y-77031653D01*
X181468363Y-76735983D01*
X181702012Y-76386302D01*
X181862953Y-75997756D01*
X181945000Y-75585279D01*
X181945000Y-75582824D01*
X190365098Y-75582824D01*
X190414666Y-76000451D01*
X190544757Y-76400383D01*
X190702786Y-76696038D01*
X191018347Y-76852048D01*
X192330395Y-75540000D01*
X191018347Y-74227952D01*
X190702786Y-74383962D01*
X190511980Y-74758745D01*
X190397956Y-75163551D01*
X190365098Y-75582824D01*
X181945000Y-75582824D01*
X181945000Y-75164721D01*
X181862953Y-74752244D01*
X181702012Y-74363698D01*
X181491302Y-74048347D01*
X191197952Y-74048347D01*
X192510000Y-75360395D01*
X193822048Y-74048347D01*
X193666038Y-73732786D01*
X193291255Y-73541980D01*
X192886449Y-73427956D01*
X192467176Y-73395098D01*
X192049549Y-73444666D01*
X191649617Y-73574757D01*
X191353962Y-73732786D01*
X191197952Y-74048347D01*
X181491302Y-74048347D01*
X181468363Y-74014017D01*
X181170983Y-73716637D01*
X180821302Y-73482988D01*
X180432756Y-73322047D01*
X180020279Y-73240000D01*
X179599721Y-73240000D01*
X179187244Y-73322047D01*
X178798698Y-73482988D01*
X178449017Y-73716637D01*
X178151637Y-74014017D01*
X177917988Y-74363698D01*
X177905000Y-74395054D01*
X177892012Y-74363698D01*
X177658363Y-74014017D01*
X177360983Y-73716637D01*
X177011302Y-73482988D01*
X176622756Y-73322047D01*
X176210279Y-73240000D01*
X175789721Y-73240000D01*
X175377244Y-73322047D01*
X174988698Y-73482988D01*
X174639017Y-73716637D01*
X174341637Y-74014017D01*
X174107988Y-74363698D01*
X174095000Y-74395054D01*
X174082012Y-74363698D01*
X173848363Y-74014017D01*
X173550983Y-73716637D01*
X173201302Y-73482988D01*
X172812756Y-73322047D01*
X172400279Y-73240000D01*
X171979721Y-73240000D01*
X171567244Y-73322047D01*
X171178698Y-73482988D01*
X170829017Y-73716637D01*
X170531637Y-74014017D01*
X170297988Y-74363698D01*
X170137047Y-74752244D01*
X170055000Y-75164721D01*
X107588072Y-75164721D01*
X107588072Y-75050000D01*
X107575812Y-74925518D01*
X107539502Y-74805820D01*
X107480537Y-74695506D01*
X107401185Y-74598815D01*
X107304494Y-74519463D01*
X107194180Y-74460498D01*
X107074482Y-74424188D01*
X106950000Y-74411928D01*
X104550000Y-74411928D01*
X104425518Y-74424188D01*
X104305820Y-74460498D01*
X104195506Y-74519463D01*
X104098815Y-74598815D01*
X104019463Y-74695506D01*
X103960498Y-74805820D01*
X103924188Y-74925518D01*
X103911928Y-75050000D01*
X95660000Y-75050000D01*
X95660000Y-72314344D01*
X103865000Y-72314344D01*
X103865000Y-72685656D01*
X103937439Y-73049834D01*
X104079534Y-73392882D01*
X104285825Y-73701618D01*
X104548382Y-73964175D01*
X104857118Y-74170466D01*
X105200166Y-74312561D01*
X105564344Y-74385000D01*
X105935656Y-74385000D01*
X106299834Y-74312561D01*
X106642882Y-74170466D01*
X106951618Y-73964175D01*
X107214175Y-73701618D01*
X107420466Y-73392882D01*
X107562561Y-73049834D01*
X107635000Y-72685656D01*
X107635000Y-72314344D01*
X153865000Y-72314344D01*
X153865000Y-72685656D01*
X153937439Y-73049834D01*
X154079534Y-73392882D01*
X154285825Y-73701618D01*
X154548382Y-73964175D01*
X154857118Y-74170466D01*
X155200166Y-74312561D01*
X155564344Y-74385000D01*
X155935656Y-74385000D01*
X156299834Y-74312561D01*
X156642882Y-74170466D01*
X156951618Y-73964175D01*
X157214175Y-73701618D01*
X157420466Y-73392882D01*
X157562561Y-73049834D01*
X157635000Y-72685656D01*
X157635000Y-72314344D01*
X157562561Y-71950166D01*
X157420466Y-71607118D01*
X157214175Y-71298382D01*
X156951618Y-71035825D01*
X156642882Y-70829534D01*
X156299834Y-70687439D01*
X155935656Y-70615000D01*
X155564344Y-70615000D01*
X155200166Y-70687439D01*
X154857118Y-70829534D01*
X154548382Y-71035825D01*
X154285825Y-71298382D01*
X154079534Y-71607118D01*
X153937439Y-71950166D01*
X153865000Y-72314344D01*
X107635000Y-72314344D01*
X107562561Y-71950166D01*
X107420466Y-71607118D01*
X107214175Y-71298382D01*
X106951618Y-71035825D01*
X106642882Y-70829534D01*
X106299834Y-70687439D01*
X105935656Y-70615000D01*
X105564344Y-70615000D01*
X105200166Y-70687439D01*
X104857118Y-70829534D01*
X104548382Y-71035825D01*
X104285825Y-71298382D01*
X104079534Y-71607118D01*
X103937439Y-71950166D01*
X103865000Y-72314344D01*
X95660000Y-72314344D01*
X95660000Y-68569268D01*
X103915000Y-68569268D01*
X103915000Y-68930732D01*
X103985518Y-69285250D01*
X104123844Y-69619199D01*
X104324662Y-69919744D01*
X104580256Y-70175338D01*
X104880801Y-70376156D01*
X105214750Y-70514482D01*
X105569268Y-70585000D01*
X105930732Y-70585000D01*
X106285250Y-70514482D01*
X106526094Y-70414721D01*
X170055000Y-70414721D01*
X170055000Y-70835279D01*
X170137047Y-71247756D01*
X170297988Y-71636302D01*
X170531637Y-71985983D01*
X170829017Y-72283363D01*
X171178698Y-72517012D01*
X171567244Y-72677953D01*
X171979721Y-72760000D01*
X172400279Y-72760000D01*
X172812756Y-72677953D01*
X173201302Y-72517012D01*
X173550983Y-72283363D01*
X173848363Y-71985983D01*
X174082012Y-71636302D01*
X174095000Y-71604946D01*
X174107988Y-71636302D01*
X174341637Y-71985983D01*
X174639017Y-72283363D01*
X174988698Y-72517012D01*
X175377244Y-72677953D01*
X175789721Y-72760000D01*
X176210279Y-72760000D01*
X176622756Y-72677953D01*
X177011302Y-72517012D01*
X177360983Y-72283363D01*
X177658363Y-71985983D01*
X177892012Y-71636302D01*
X177905000Y-71604946D01*
X177917988Y-71636302D01*
X178151637Y-71985983D01*
X178449017Y-72283363D01*
X178798698Y-72517012D01*
X179187244Y-72677953D01*
X179599721Y-72760000D01*
X180020279Y-72760000D01*
X180432756Y-72677953D01*
X180821302Y-72517012D01*
X181170983Y-72283363D01*
X181468363Y-71985983D01*
X181491301Y-71951653D01*
X191197952Y-71951653D01*
X191353962Y-72267214D01*
X191728745Y-72458020D01*
X192133551Y-72572044D01*
X192552824Y-72604902D01*
X192970451Y-72555334D01*
X193370383Y-72425243D01*
X193666038Y-72267214D01*
X193822048Y-71951653D01*
X192510000Y-70639605D01*
X191197952Y-71951653D01*
X181491301Y-71951653D01*
X181702012Y-71636302D01*
X181862953Y-71247756D01*
X181945000Y-70835279D01*
X181945000Y-70502824D01*
X190365098Y-70502824D01*
X190414666Y-70920451D01*
X190544757Y-71320383D01*
X190702786Y-71616038D01*
X191018347Y-71772048D01*
X192330395Y-70460000D01*
X191018347Y-69147952D01*
X190702786Y-69303962D01*
X190511980Y-69678745D01*
X190397956Y-70083551D01*
X190365098Y-70502824D01*
X181945000Y-70502824D01*
X181945000Y-70414721D01*
X181862953Y-70002244D01*
X181702012Y-69613698D01*
X181468363Y-69264017D01*
X181172693Y-68968347D01*
X191197952Y-68968347D01*
X192510000Y-70280395D01*
X193822048Y-68968347D01*
X193666038Y-68652786D01*
X193291255Y-68461980D01*
X192886449Y-68347956D01*
X192467176Y-68315098D01*
X192049549Y-68364666D01*
X191649617Y-68494757D01*
X191353962Y-68652786D01*
X191197952Y-68968347D01*
X181172693Y-68968347D01*
X181170983Y-68966637D01*
X180821302Y-68732988D01*
X180432756Y-68572047D01*
X180020279Y-68490000D01*
X179599721Y-68490000D01*
X179187244Y-68572047D01*
X178798698Y-68732988D01*
X178449017Y-68966637D01*
X178151637Y-69264017D01*
X177917988Y-69613698D01*
X177905000Y-69645054D01*
X177892012Y-69613698D01*
X177658363Y-69264017D01*
X177360983Y-68966637D01*
X177011302Y-68732988D01*
X176622756Y-68572047D01*
X176210279Y-68490000D01*
X175789721Y-68490000D01*
X175377244Y-68572047D01*
X174988698Y-68732988D01*
X174639017Y-68966637D01*
X174341637Y-69264017D01*
X174107988Y-69613698D01*
X174095000Y-69645054D01*
X174082012Y-69613698D01*
X173848363Y-69264017D01*
X173550983Y-68966637D01*
X173201302Y-68732988D01*
X172812756Y-68572047D01*
X172400279Y-68490000D01*
X171979721Y-68490000D01*
X171567244Y-68572047D01*
X171178698Y-68732988D01*
X170829017Y-68966637D01*
X170531637Y-69264017D01*
X170297988Y-69613698D01*
X170137047Y-70002244D01*
X170055000Y-70414721D01*
X106526094Y-70414721D01*
X106619199Y-70376156D01*
X106919744Y-70175338D01*
X107175338Y-69919744D01*
X107376156Y-69619199D01*
X107514482Y-69285250D01*
X107585000Y-68930732D01*
X107585000Y-68569268D01*
X107514482Y-68214750D01*
X107376156Y-67880801D01*
X107175338Y-67580256D01*
X106919744Y-67324662D01*
X106619199Y-67123844D01*
X106285250Y-66985518D01*
X105930732Y-66915000D01*
X105569268Y-66915000D01*
X105214750Y-66985518D01*
X104880801Y-67123844D01*
X104580256Y-67324662D01*
X104324662Y-67580256D01*
X104123844Y-67880801D01*
X103985518Y-68214750D01*
X103915000Y-68569268D01*
X95660000Y-68569268D01*
X95660000Y-64210000D01*
X165286429Y-64210000D01*
X165286429Y-68030000D01*
X193713572Y-68030000D01*
X193713572Y-64210000D01*
X165286429Y-64210000D01*
X95660000Y-64210000D01*
X95660000Y-61770000D01*
X194340001Y-61770000D01*
X194340001Y-69346594D01*
%TD*%
M02*
