M48
; DRILL file {KiCad (5.1.6)-1} date 07/02/20 12:28:24
; FORMAT={-:-/ absolute / inch / decimal}
; #@! TF.CreationDate,2020-07-02T12:28:24+02:00
; #@! TF.GenerationSoftware,Kicad,Pcbnew,(5.1.6)-1
FMAT,2
INCH
T1C0.0157
T2C0.0350
T3C0.0394
T4C0.0472
T5C0.0791
T6C0.0787
T7C0.1260
%
G90
G05
T1
X3.7795Y-2.9724
X3.7795Y-3.0528
X3.7795Y-3.1331
X3.7795Y-3.2134
X3.7795Y-3.2937
X3.7795Y-3.374
X3.7795Y-3.4543
X3.7795Y-3.5346
X3.7795Y-3.615
X3.7795Y-3.6953
X3.7795Y-3.7756
X3.7795Y-3.8559
X3.7795Y-3.9362
X3.7795Y-4.0165
X3.7795Y-4.0969
X3.7795Y-4.1772
X3.7795Y-4.2575
X3.7795Y-4.3378
X3.7795Y-4.4181
X3.7795Y-4.4984
X3.7795Y-4.5787
X3.7795Y-4.6591
X3.7795Y-4.7394
X3.7795Y-4.8197
X3.7795Y-4.9016
X3.8583Y-2.9724
X3.8583Y-4.9016
X3.937Y-2.9724
X3.937Y-4.9016
X4.0157Y-2.9724
X4.0157Y-4.9016
X4.0945Y-2.9724
X4.0945Y-4.9016
X4.1732Y-2.9724
X4.1732Y-4.9016
X4.252Y-2.9724
X4.252Y-4.9016
X4.3307Y-2.9724
X4.3307Y-4.9016
X4.4094Y-2.9724
X4.4094Y-4.9016
X4.4882Y-2.9724
X4.4882Y-4.9016
X4.5669Y-2.9724
X4.5669Y-4.9016
X4.6457Y-2.9724
X4.6457Y-4.9016
X4.7244Y-2.9724
X4.7244Y-4.9016
X4.8031Y-2.9724
X4.8031Y-4.9016
X4.8819Y-2.9724
X4.8819Y-4.9016
X4.9606Y-2.9724
X4.9606Y-4.9016
X5.0394Y-2.9724
X5.0394Y-4.9016
X5.1181Y-2.9724
X5.1181Y-4.9016
X5.1969Y-2.9724
X5.1969Y-4.9016
X5.2756Y-2.9724
X5.2756Y-4.9016
X5.3543Y-2.9724
X5.3543Y-4.9016
X5.4331Y-2.9724
X5.4331Y-4.9016
X5.5118Y-2.9724
X5.5118Y-4.9016
X5.5906Y-2.9724
X5.5906Y-4.9016
X5.6693Y-2.9724
X5.6693Y-4.9016
X5.748Y-2.9724
X5.748Y-4.9016
X5.8268Y-2.9724
X5.8268Y-4.9016
X5.8957Y-3.3465
X5.8957Y-3.4744
X5.8957Y-3.5827
X5.8957Y-3.7106
X5.9055Y-2.9724
X5.9055Y-3.1693
X5.9055Y-3.8878
X5.9055Y-4.9016
X5.9358Y-3.6448
X5.9449Y-3.4646
X5.9646Y-3.6811
X5.9843Y-2.9724
X5.9843Y-4.9016
X6.0138Y-3.4744
X6.0138Y-3.5541
X6.0433Y-3.1693
X6.0531Y-3.8878
X6.063Y-2.9724
X6.063Y-4.9016
X6.0728Y-3.2677
X6.1417Y-2.9724
X6.1417Y-4.9016
X6.1811Y-3.1693
X6.1811Y-3.2283
X6.1811Y-3.8878
X6.2205Y-2.9724
X6.2205Y-4.9016
X6.2303Y-3.5039
X6.2409Y-3.3374
X6.251Y-3.6801
X6.2795Y-3.1693
X6.2795Y-3.6319
X6.2894Y-3.8878
X6.2992Y-2.9724
X6.2992Y-4.9016
X6.3091Y-3.5728
X6.3386Y-3.4744
X6.3583Y-3.3563
X6.378Y-2.9724
X6.378Y-3.7008
X6.378Y-4.9016
X6.4173Y-3.1693
X6.4173Y-3.7894
X6.4173Y-3.8878
X6.4411Y-3.2348
X6.4567Y-2.9724
X6.4567Y-4.9016
X6.4641Y-3.4743
X6.4696Y-3.3819
X6.4764Y-3.5827
X6.5157Y-3.1693
X6.5256Y-3.8878
X6.5354Y-2.9724
X6.5354Y-4.9016
X6.5551Y-3.2579
X6.565Y-3.8287
X6.6142Y-2.9724
X6.6142Y-4.9016
X6.624Y-3.5335
X6.6535Y-3.1693
X6.6535Y-3.8878
X6.6929Y-2.9724
X6.6929Y-4.9016
X6.752Y-3.1693
X6.752Y-3.6024
X6.7618Y-3.8878
X6.7717Y-2.9724
X6.7717Y-4.9016
X6.7815Y-3.4449
X6.8406Y-3.8976
X6.8504Y-2.9724
X6.8504Y-4.9016
X6.8898Y-3.8878
X6.9094Y-3.1693
X6.9291Y-2.9724
X6.9291Y-4.9016
X6.9488Y-3.8091
X7.0079Y-2.9724
X7.0079Y-4.9016
X7.0472Y-3.1693
X7.0472Y-3.3465
X7.0472Y-3.4843
X7.0472Y-3.5827
X7.0472Y-3.7205
X7.0472Y-3.878
X7.0866Y-2.9724
X7.0866Y-4.9016
X7.1654Y-2.9724
X7.1654Y-4.9016
X7.2441Y-2.9724
X7.2441Y-4.9016
X7.3228Y-2.9724
X7.3228Y-4.9016
X7.4016Y-2.9724
X7.4016Y-4.9016
X7.4803Y-2.9724
X7.4803Y-4.9016
X7.5591Y-2.9724
X7.5591Y-4.9016
X7.6378Y-2.9724
X7.6378Y-3.0528
X7.6378Y-3.1331
X7.6378Y-3.2134
X7.6378Y-3.2937
X7.6378Y-3.374
X7.6378Y-3.4543
X7.6378Y-3.5346
X7.6378Y-3.615
X7.6378Y-3.6953
X7.6378Y-3.7756
X7.6378Y-3.8559
X7.6378Y-3.9362
X7.6378Y-4.0165
X7.6378Y-4.0969
X7.6378Y-4.1772
X7.6378Y-4.2575
X7.6378Y-4.3378
X7.6378Y-4.4181
X7.6378Y-4.4984
X7.6378Y-4.5787
X7.6378Y-4.6591
X7.6378Y-4.7394
X7.6378Y-4.8197
X7.6378Y-4.9016
X4.3504Y-3.5433
X4.4685Y-3.5433
T2
X7.185Y-3.3449
X7.185Y-3.4449
X4.252Y-3.4449
X4.252Y-3.5449
T3
X7.3425Y-4.4276
X7.4425Y-4.4276
X7.3425Y-4.5276
X7.4425Y-4.5276
T4
X4.5669Y-3.4843
X4.5669Y-3.7795
X4.5669Y-3.3465
X5.5512Y-3.3465
X3.8976Y-4.3701
X5.3976Y-4.3701
X5.6299Y-4.3701
X7.1299Y-4.3701
X4.5669Y-3.7795
X5.5512Y-3.7795
X5.7677Y-3.3173
X5.7677Y-3.9173
T5
X7.385Y-3.2449
X7.385Y-3.6449
X4.052Y-3.2449
X4.052Y-3.6449
T6
X3.8976Y-4.05
X5.6299Y-4.05
T7
X4.1734Y-4.3701
X5.1234Y-4.3701
X5.9057Y-4.3701
X6.8557Y-4.3701
T0
M30
