%TF.GenerationSoftware,KiCad,Pcbnew,(5.1.6)-1*%
%TF.CreationDate,2020-08-21T15:32:42+02:00*%
%TF.ProjectId,mu_lna,6d755f6c-6e61-42e6-9b69-6361645f7063,rev?*%
%TF.SameCoordinates,Original*%
%TF.FileFunction,Legend,Top*%
%TF.FilePolarity,Positive*%
%FSLAX46Y46*%
G04 Gerber Fmt 4.6, Leading zero omitted, Abs format (unit mm)*
G04 Created by KiCad (PCBNEW (5.1.6)-1) date 2020-08-21 15:32:42*
%MOMM*%
%LPD*%
G01*
G04 APERTURE LIST*
%ADD10C,0.120000*%
%ADD11C,0.150000*%
G04 APERTURE END LIST*
D10*
%TO.C,SW1*%
X170460000Y-77039999D02*
X194039999Y-77040000D01*
X194039999Y-77040000D02*
X194040000Y-68960001D01*
X194040000Y-68960001D02*
X170460001Y-68960000D01*
X170460001Y-68960000D02*
X170460000Y-77039999D01*
%TO.C,BT2*%
X171800000Y-81350000D02*
X171800000Y-133350000D01*
X145600000Y-81350000D02*
X145600000Y-133350000D01*
X171800000Y-81350000D02*
X145600000Y-81350000D01*
X145600000Y-133350000D02*
X171800000Y-133350000D01*
%TO.C,BT1*%
X144350000Y-81350000D02*
X144350000Y-133350000D01*
X118150000Y-81350000D02*
X118150000Y-133350000D01*
X144350000Y-81350000D02*
X118150000Y-81350000D01*
X118150000Y-133350000D02*
X144350000Y-133350000D01*
%TO.C,C12*%
X113870000Y-72500000D02*
G75*
G03*
X113870000Y-72500000I-8120000J0D01*
G01*
X97669000Y-72500000D02*
X113831000Y-72500000D01*
X97670000Y-72460000D02*
X113830000Y-72460000D01*
X97670000Y-72420000D02*
X113830000Y-72420000D01*
X97670000Y-72380000D02*
X113830000Y-72380000D01*
X97671000Y-72340000D02*
X113829000Y-72340000D01*
X97672000Y-72300000D02*
X113828000Y-72300000D01*
X97673000Y-72260000D02*
X113827000Y-72260000D01*
X97674000Y-72220000D02*
X113826000Y-72220000D01*
X97676000Y-72180000D02*
X113824000Y-72180000D01*
X97677000Y-72140000D02*
X113823000Y-72140000D01*
X97679000Y-72100000D02*
X113821000Y-72100000D01*
X97681000Y-72060000D02*
X113819000Y-72060000D01*
X97684000Y-72020000D02*
X113816000Y-72020000D01*
X97686000Y-71980000D02*
X113814000Y-71980000D01*
X97689000Y-71940000D02*
X113811000Y-71940000D01*
X97692000Y-71900000D02*
X113808000Y-71900000D01*
X97695000Y-71860000D02*
X113805000Y-71860000D01*
X97698000Y-71820000D02*
X113802000Y-71820000D01*
X97701000Y-71779000D02*
X113799000Y-71779000D01*
X97705000Y-71739000D02*
X113795000Y-71739000D01*
X97709000Y-71699000D02*
X113791000Y-71699000D01*
X97713000Y-71659000D02*
X113787000Y-71659000D01*
X97717000Y-71619000D02*
X113783000Y-71619000D01*
X97722000Y-71579000D02*
X113778000Y-71579000D01*
X97726000Y-71539000D02*
X113774000Y-71539000D01*
X97731000Y-71499000D02*
X113769000Y-71499000D01*
X97736000Y-71459000D02*
X113764000Y-71459000D01*
X97742000Y-71419000D02*
X113758000Y-71419000D01*
X97747000Y-71379000D02*
X113753000Y-71379000D01*
X97753000Y-71339000D02*
X113747000Y-71339000D01*
X97759000Y-71299000D02*
X113741000Y-71299000D01*
X97765000Y-71259000D02*
X113735000Y-71259000D01*
X97771000Y-71219000D02*
X113729000Y-71219000D01*
X97778000Y-71179000D02*
X113722000Y-71179000D01*
X97784000Y-71139000D02*
X113716000Y-71139000D01*
X97791000Y-71099000D02*
X113709000Y-71099000D01*
X97798000Y-71059000D02*
X113702000Y-71059000D01*
X97806000Y-71019000D02*
X113694000Y-71019000D01*
X97813000Y-70979000D02*
X113687000Y-70979000D01*
X97821000Y-70939000D02*
X113679000Y-70939000D01*
X97829000Y-70899000D02*
X113671000Y-70899000D01*
X97837000Y-70859000D02*
X113663000Y-70859000D01*
X97845000Y-70819000D02*
X113655000Y-70819000D01*
X97854000Y-70779000D02*
X113646000Y-70779000D01*
X97863000Y-70739000D02*
X113637000Y-70739000D01*
X97872000Y-70699000D02*
X113628000Y-70699000D01*
X97881000Y-70659000D02*
X113619000Y-70659000D01*
X97890000Y-70619000D02*
X113610000Y-70619000D01*
X97900000Y-70579000D02*
X113600000Y-70579000D01*
X97910000Y-70539000D02*
X113590000Y-70539000D01*
X97920000Y-70499000D02*
X113580000Y-70499000D01*
X97930000Y-70459000D02*
X113570000Y-70459000D01*
X97940000Y-70419000D02*
X113560000Y-70419000D01*
X97951000Y-70379000D02*
X113549000Y-70379000D01*
X97962000Y-70339000D02*
X113538000Y-70339000D01*
X97973000Y-70299000D02*
X113527000Y-70299000D01*
X97985000Y-70259000D02*
X113515000Y-70259000D01*
X97996000Y-70219000D02*
X113504000Y-70219000D01*
X98008000Y-70179000D02*
X104310000Y-70179000D01*
X107190000Y-70179000D02*
X113492000Y-70179000D01*
X98020000Y-70139000D02*
X104310000Y-70139000D01*
X107190000Y-70139000D02*
X113480000Y-70139000D01*
X98032000Y-70099000D02*
X104310000Y-70099000D01*
X107190000Y-70099000D02*
X113468000Y-70099000D01*
X98045000Y-70059000D02*
X104310000Y-70059000D01*
X107190000Y-70059000D02*
X113455000Y-70059000D01*
X98057000Y-70019000D02*
X104310000Y-70019000D01*
X107190000Y-70019000D02*
X113443000Y-70019000D01*
X98070000Y-69979000D02*
X104310000Y-69979000D01*
X107190000Y-69979000D02*
X113430000Y-69979000D01*
X98084000Y-69939000D02*
X104310000Y-69939000D01*
X107190000Y-69939000D02*
X113416000Y-69939000D01*
X98097000Y-69899000D02*
X104310000Y-69899000D01*
X107190000Y-69899000D02*
X113403000Y-69899000D01*
X98111000Y-69859000D02*
X104310000Y-69859000D01*
X107190000Y-69859000D02*
X113389000Y-69859000D01*
X98125000Y-69819000D02*
X104310000Y-69819000D01*
X107190000Y-69819000D02*
X113375000Y-69819000D01*
X98139000Y-69779000D02*
X104310000Y-69779000D01*
X107190000Y-69779000D02*
X113361000Y-69779000D01*
X98153000Y-69739000D02*
X104310000Y-69739000D01*
X107190000Y-69739000D02*
X113347000Y-69739000D01*
X98168000Y-69699000D02*
X104310000Y-69699000D01*
X107190000Y-69699000D02*
X113332000Y-69699000D01*
X98182000Y-69659000D02*
X104310000Y-69659000D01*
X107190000Y-69659000D02*
X113318000Y-69659000D01*
X98197000Y-69619000D02*
X104310000Y-69619000D01*
X107190000Y-69619000D02*
X113303000Y-69619000D01*
X98213000Y-69579000D02*
X104310000Y-69579000D01*
X107190000Y-69579000D02*
X113287000Y-69579000D01*
X98228000Y-69539000D02*
X104310000Y-69539000D01*
X107190000Y-69539000D02*
X113272000Y-69539000D01*
X98244000Y-69499000D02*
X104310000Y-69499000D01*
X107190000Y-69499000D02*
X113256000Y-69499000D01*
X98260000Y-69459000D02*
X104310000Y-69459000D01*
X107190000Y-69459000D02*
X113240000Y-69459000D01*
X98276000Y-69419000D02*
X104310000Y-69419000D01*
X107190000Y-69419000D02*
X113224000Y-69419000D01*
X98293000Y-69379000D02*
X104310000Y-69379000D01*
X107190000Y-69379000D02*
X113207000Y-69379000D01*
X98310000Y-69339000D02*
X104310000Y-69339000D01*
X107190000Y-69339000D02*
X113190000Y-69339000D01*
X98327000Y-69299000D02*
X104310000Y-69299000D01*
X107190000Y-69299000D02*
X113173000Y-69299000D01*
X98344000Y-69259000D02*
X104310000Y-69259000D01*
X107190000Y-69259000D02*
X113156000Y-69259000D01*
X98361000Y-69219000D02*
X104310000Y-69219000D01*
X107190000Y-69219000D02*
X113139000Y-69219000D01*
X98379000Y-69179000D02*
X104310000Y-69179000D01*
X107190000Y-69179000D02*
X113121000Y-69179000D01*
X98397000Y-69139000D02*
X104310000Y-69139000D01*
X107190000Y-69139000D02*
X113103000Y-69139000D01*
X98416000Y-69099000D02*
X104310000Y-69099000D01*
X107190000Y-69099000D02*
X113084000Y-69099000D01*
X98434000Y-69059000D02*
X104310000Y-69059000D01*
X107190000Y-69059000D02*
X113066000Y-69059000D01*
X98453000Y-69019000D02*
X104310000Y-69019000D01*
X107190000Y-69019000D02*
X113047000Y-69019000D01*
X98472000Y-68979000D02*
X104310000Y-68979000D01*
X107190000Y-68979000D02*
X113028000Y-68979000D01*
X98492000Y-68939000D02*
X104310000Y-68939000D01*
X107190000Y-68939000D02*
X113008000Y-68939000D01*
X98511000Y-68899000D02*
X104310000Y-68899000D01*
X107190000Y-68899000D02*
X112989000Y-68899000D01*
X98531000Y-68859000D02*
X104310000Y-68859000D01*
X107190000Y-68859000D02*
X112969000Y-68859000D01*
X98551000Y-68819000D02*
X104310000Y-68819000D01*
X107190000Y-68819000D02*
X112949000Y-68819000D01*
X98572000Y-68779000D02*
X104310000Y-68779000D01*
X107190000Y-68779000D02*
X112928000Y-68779000D01*
X98593000Y-68739000D02*
X104310000Y-68739000D01*
X107190000Y-68739000D02*
X112907000Y-68739000D01*
X98614000Y-68699000D02*
X104310000Y-68699000D01*
X107190000Y-68699000D02*
X112886000Y-68699000D01*
X98635000Y-68659000D02*
X104310000Y-68659000D01*
X107190000Y-68659000D02*
X112865000Y-68659000D01*
X98656000Y-68619000D02*
X104310000Y-68619000D01*
X107190000Y-68619000D02*
X112844000Y-68619000D01*
X98678000Y-68579000D02*
X104310000Y-68579000D01*
X107190000Y-68579000D02*
X112822000Y-68579000D01*
X98701000Y-68539000D02*
X104310000Y-68539000D01*
X107190000Y-68539000D02*
X112799000Y-68539000D01*
X98723000Y-68499000D02*
X104310000Y-68499000D01*
X107190000Y-68499000D02*
X112777000Y-68499000D01*
X98746000Y-68459000D02*
X104310000Y-68459000D01*
X107190000Y-68459000D02*
X112754000Y-68459000D01*
X98769000Y-68419000D02*
X104310000Y-68419000D01*
X107190000Y-68419000D02*
X112731000Y-68419000D01*
X98792000Y-68379000D02*
X104310000Y-68379000D01*
X107190000Y-68379000D02*
X112708000Y-68379000D01*
X98816000Y-68339000D02*
X104310000Y-68339000D01*
X107190000Y-68339000D02*
X112684000Y-68339000D01*
X98840000Y-68299000D02*
X104310000Y-68299000D01*
X107190000Y-68299000D02*
X112660000Y-68299000D01*
X98864000Y-68259000D02*
X104310000Y-68259000D01*
X107190000Y-68259000D02*
X112636000Y-68259000D01*
X98889000Y-68219000D02*
X104310000Y-68219000D01*
X107190000Y-68219000D02*
X112611000Y-68219000D01*
X98914000Y-68179000D02*
X104310000Y-68179000D01*
X107190000Y-68179000D02*
X112586000Y-68179000D01*
X98939000Y-68139000D02*
X104310000Y-68139000D01*
X107190000Y-68139000D02*
X112561000Y-68139000D01*
X98965000Y-68099000D02*
X104310000Y-68099000D01*
X107190000Y-68099000D02*
X112535000Y-68099000D01*
X98991000Y-68059000D02*
X104310000Y-68059000D01*
X107190000Y-68059000D02*
X112509000Y-68059000D01*
X99017000Y-68019000D02*
X104310000Y-68019000D01*
X107190000Y-68019000D02*
X112483000Y-68019000D01*
X99044000Y-67979000D02*
X104310000Y-67979000D01*
X107190000Y-67979000D02*
X112456000Y-67979000D01*
X99071000Y-67939000D02*
X104310000Y-67939000D01*
X107190000Y-67939000D02*
X112429000Y-67939000D01*
X99098000Y-67899000D02*
X104310000Y-67899000D01*
X107190000Y-67899000D02*
X112402000Y-67899000D01*
X99126000Y-67859000D02*
X104310000Y-67859000D01*
X107190000Y-67859000D02*
X112374000Y-67859000D01*
X99154000Y-67819000D02*
X104310000Y-67819000D01*
X107190000Y-67819000D02*
X112346000Y-67819000D01*
X99182000Y-67779000D02*
X104310000Y-67779000D01*
X107190000Y-67779000D02*
X112318000Y-67779000D01*
X99211000Y-67739000D02*
X104310000Y-67739000D01*
X107190000Y-67739000D02*
X112289000Y-67739000D01*
X99240000Y-67699000D02*
X104310000Y-67699000D01*
X107190000Y-67699000D02*
X112260000Y-67699000D01*
X99270000Y-67659000D02*
X104310000Y-67659000D01*
X107190000Y-67659000D02*
X112230000Y-67659000D01*
X99300000Y-67619000D02*
X104310000Y-67619000D01*
X107190000Y-67619000D02*
X112200000Y-67619000D01*
X99330000Y-67579000D02*
X104310000Y-67579000D01*
X107190000Y-67579000D02*
X112170000Y-67579000D01*
X99360000Y-67539000D02*
X104310000Y-67539000D01*
X107190000Y-67539000D02*
X112140000Y-67539000D01*
X99392000Y-67499000D02*
X104310000Y-67499000D01*
X107190000Y-67499000D02*
X112108000Y-67499000D01*
X99423000Y-67459000D02*
X104310000Y-67459000D01*
X107190000Y-67459000D02*
X112077000Y-67459000D01*
X99455000Y-67419000D02*
X104310000Y-67419000D01*
X107190000Y-67419000D02*
X112045000Y-67419000D01*
X99487000Y-67379000D02*
X104310000Y-67379000D01*
X107190000Y-67379000D02*
X112013000Y-67379000D01*
X99520000Y-67339000D02*
X104310000Y-67339000D01*
X107190000Y-67339000D02*
X111980000Y-67339000D01*
X99553000Y-67299000D02*
X111947000Y-67299000D01*
X99587000Y-67259000D02*
X111913000Y-67259000D01*
X99621000Y-67219000D02*
X111879000Y-67219000D01*
X99655000Y-67179000D02*
X111845000Y-67179000D01*
X99690000Y-67139000D02*
X111810000Y-67139000D01*
X99725000Y-67099000D02*
X111775000Y-67099000D01*
X99761000Y-67059000D02*
X111739000Y-67059000D01*
X99798000Y-67019000D02*
X111702000Y-67019000D01*
X99834000Y-66979000D02*
X111666000Y-66979000D01*
X99872000Y-66939000D02*
X111628000Y-66939000D01*
X99910000Y-66899000D02*
X111590000Y-66899000D01*
X99948000Y-66859000D02*
X111552000Y-66859000D01*
X99987000Y-66819000D02*
X111513000Y-66819000D01*
X100026000Y-66779000D02*
X111474000Y-66779000D01*
X100066000Y-66739000D02*
X111434000Y-66739000D01*
X100107000Y-66699000D02*
X111393000Y-66699000D01*
X100148000Y-66659000D02*
X111352000Y-66659000D01*
X100190000Y-66619000D02*
X111310000Y-66619000D01*
X100232000Y-66579000D02*
X111268000Y-66579000D01*
X100275000Y-66539000D02*
X111225000Y-66539000D01*
X100318000Y-66499000D02*
X111182000Y-66499000D01*
X100362000Y-66459000D02*
X111138000Y-66459000D01*
X100407000Y-66419000D02*
X111093000Y-66419000D01*
X100453000Y-66379000D02*
X111047000Y-66379000D01*
X100499000Y-66339000D02*
X111001000Y-66339000D01*
X100546000Y-66299000D02*
X110954000Y-66299000D01*
X100594000Y-66259000D02*
X110906000Y-66259000D01*
X100642000Y-66219000D02*
X110858000Y-66219000D01*
X100691000Y-66179000D02*
X110809000Y-66179000D01*
X100741000Y-66139000D02*
X110759000Y-66139000D01*
X100792000Y-66099000D02*
X110708000Y-66099000D01*
X100844000Y-66059000D02*
X110656000Y-66059000D01*
X100896000Y-66019000D02*
X110604000Y-66019000D01*
X100950000Y-65979000D02*
X110550000Y-65979000D01*
X101004000Y-65939000D02*
X110496000Y-65939000D01*
X101059000Y-65899000D02*
X110441000Y-65899000D01*
X101116000Y-65859000D02*
X110384000Y-65859000D01*
X101173000Y-65819000D02*
X110327000Y-65819000D01*
X101231000Y-65779000D02*
X110269000Y-65779000D01*
X101291000Y-65739000D02*
X110209000Y-65739000D01*
X101352000Y-65699000D02*
X110148000Y-65699000D01*
X101414000Y-65659000D02*
X110086000Y-65659000D01*
X101477000Y-65619000D02*
X110023000Y-65619000D01*
X101541000Y-65579000D02*
X109959000Y-65579000D01*
X101607000Y-65539000D02*
X109893000Y-65539000D01*
X101674000Y-65499000D02*
X109826000Y-65499000D01*
X101743000Y-65459000D02*
X109757000Y-65459000D01*
X101814000Y-65419000D02*
X109686000Y-65419000D01*
X101886000Y-65379000D02*
X109614000Y-65379000D01*
X101960000Y-65339000D02*
X109540000Y-65339000D01*
X102035000Y-65299000D02*
X109465000Y-65299000D01*
X102113000Y-65259000D02*
X109387000Y-65259000D01*
X102193000Y-65219000D02*
X109307000Y-65219000D01*
X102275000Y-65179000D02*
X109225000Y-65179000D01*
X102360000Y-65139000D02*
X109140000Y-65139000D01*
X102447000Y-65099000D02*
X109053000Y-65099000D01*
X102537000Y-65059000D02*
X108963000Y-65059000D01*
X102630000Y-65019000D02*
X108870000Y-65019000D01*
X102726000Y-64979000D02*
X108774000Y-64979000D01*
X102826000Y-64939000D02*
X108674000Y-64939000D01*
X102930000Y-64899000D02*
X108570000Y-64899000D01*
X103039000Y-64859000D02*
X108461000Y-64859000D01*
X103153000Y-64819000D02*
X108347000Y-64819000D01*
X103272000Y-64779000D02*
X108228000Y-64779000D01*
X103399000Y-64739000D02*
X108101000Y-64739000D01*
X103532000Y-64699000D02*
X107968000Y-64699000D01*
X103676000Y-64659000D02*
X107824000Y-64659000D01*
X103830000Y-64619000D02*
X107670000Y-64619000D01*
X103998000Y-64579000D02*
X107502000Y-64579000D01*
X104186000Y-64539000D02*
X107314000Y-64539000D01*
X104399000Y-64499000D02*
X107101000Y-64499000D01*
X104652000Y-64459000D02*
X106848000Y-64459000D01*
X104985000Y-64419000D02*
X106515000Y-64419000D01*
X101195000Y-81189491D02*
X101195000Y-79589491D01*
X100395000Y-80389491D02*
X101995000Y-80389491D01*
%TO.C,J3*%
X95300000Y-107500000D02*
X95300000Y-92500000D01*
X95300000Y-92500000D02*
X110300000Y-92500000D01*
X110300000Y-92500000D02*
X110300000Y-107500000D01*
X110300000Y-107500000D02*
X95300000Y-107500000D01*
X95500000Y-100000000D02*
X96500000Y-101000000D01*
X95500000Y-100000000D02*
X96500000Y-99000000D01*
%TO.C,J4*%
X194700000Y-92500000D02*
X194700000Y-107500000D01*
X194700000Y-107500000D02*
X179700000Y-107500000D01*
X179700000Y-107500000D02*
X179700000Y-92500000D01*
X179700000Y-92500000D02*
X194700000Y-92500000D01*
X194500000Y-100000000D02*
X193500000Y-99000000D01*
X194500000Y-100000000D02*
X193500000Y-101000000D01*
%TO.C,BT2*%
D11*
X152271428Y-126414404D02*
X152271428Y-125652500D01*
X152652380Y-126033452D02*
X151890476Y-126033452D01*
X165121428Y-126414404D02*
X165121428Y-125652500D01*
%TO.C,BT1*%
X124821428Y-126414404D02*
X124821428Y-125652500D01*
X125202380Y-126033452D02*
X124440476Y-126033452D01*
X137671428Y-126414404D02*
X137671428Y-125652500D01*
%TD*%
M02*
