%TF.GenerationSoftware,KiCad,Pcbnew,(5.1.6)-1*%
%TF.CreationDate,2020-08-21T15:32:43+02:00*%
%TF.ProjectId,mu_lna,6d755f6c-6e61-42e6-9b69-6361645f7063,rev?*%
%TF.SameCoordinates,Original*%
%TF.FileFunction,Soldermask,Bot*%
%TF.FilePolarity,Negative*%
%FSLAX46Y46*%
G04 Gerber Fmt 4.6, Leading zero omitted, Abs format (unit mm)*
G04 Created by KiCad (PCBNEW (5.1.6)-1) date 2020-08-21 15:32:43*
%MOMM*%
%LPD*%
G01*
G04 APERTURE LIST*
%ADD10C,3.100000*%
%ADD11C,2.500000*%
%ADD12R,2.500000X2.500000*%
%ADD13R,1.100000X1.100000*%
%ADD14R,1.100000X4.080000*%
%ADD15R,1.100000X3.900000*%
%ADD16R,4.650000X1.100000*%
%ADD17R,3.900000X1.100000*%
%ADD18O,2.600000X1.700000*%
%ADD19O,7.100000X3.600000*%
%ADD20C,1.100000*%
%ADD21C,0.900000*%
%ADD22C,2.600000*%
G04 APERTURE END LIST*
D10*
%TO.C,SW1*%
X192510000Y-75540000D03*
X192510000Y-70460000D03*
X179810000Y-75375000D03*
X179810000Y-70625000D03*
X176000000Y-75375000D03*
X176000000Y-70625000D03*
X172190000Y-75375000D03*
X172190000Y-70625000D03*
%TD*%
%TO.C,BT2*%
X147700000Y-131750000D03*
X157000000Y-131750000D03*
X160400000Y-131750000D03*
X169700000Y-131750000D03*
X152350000Y-128750000D03*
X165050000Y-128750000D03*
%TD*%
%TO.C,BT1*%
X120250000Y-131750000D03*
X129550000Y-131750000D03*
X132950000Y-131750000D03*
X142250000Y-131750000D03*
X124900000Y-128750000D03*
X137600000Y-128750000D03*
%TD*%
D11*
%TO.C,C12*%
X105750000Y-68750000D03*
D12*
X105750000Y-76250000D03*
%TD*%
%TO.C,C25*%
G36*
G01*
X124193379Y-99491700D02*
X124193379Y-100054200D01*
G75*
G02*
X123949629Y-100297950I-243750J0D01*
G01*
X123462129Y-100297950D01*
G75*
G02*
X123218379Y-100054200I0J243750D01*
G01*
X123218379Y-99491700D01*
G75*
G02*
X123462129Y-99247950I243750J0D01*
G01*
X123949629Y-99247950D01*
G75*
G02*
X124193379Y-99491700I0J-243750D01*
G01*
G37*
G36*
G01*
X125768379Y-99491700D02*
X125768379Y-100054200D01*
G75*
G02*
X125524629Y-100297950I-243750J0D01*
G01*
X125037129Y-100297950D01*
G75*
G02*
X124793379Y-100054200I0J243750D01*
G01*
X124793379Y-99491700D01*
G75*
G02*
X125037129Y-99247950I243750J0D01*
G01*
X125524629Y-99247950D01*
G75*
G02*
X125768379Y-99491700I0J-243750D01*
G01*
G37*
%TD*%
%TO.C,C24*%
G36*
G01*
X127693379Y-104741700D02*
X127693379Y-105304200D01*
G75*
G02*
X127449629Y-105547950I-243750J0D01*
G01*
X126962129Y-105547950D01*
G75*
G02*
X126718379Y-105304200I0J243750D01*
G01*
X126718379Y-104741700D01*
G75*
G02*
X126962129Y-104497950I243750J0D01*
G01*
X127449629Y-104497950D01*
G75*
G02*
X127693379Y-104741700I0J-243750D01*
G01*
G37*
G36*
G01*
X129268379Y-104741700D02*
X129268379Y-105304200D01*
G75*
G02*
X129024629Y-105547950I-243750J0D01*
G01*
X128537129Y-105547950D01*
G75*
G02*
X128293379Y-105304200I0J243750D01*
G01*
X128293379Y-104741700D01*
G75*
G02*
X128537129Y-104497950I243750J0D01*
G01*
X129024629Y-104497950D01*
G75*
G02*
X129268379Y-104741700I0J-243750D01*
G01*
G37*
%TD*%
%TO.C,C23*%
G36*
G01*
X122274629Y-93685450D02*
X121712129Y-93685450D01*
G75*
G02*
X121468379Y-93441700I0J243750D01*
G01*
X121468379Y-92954200D01*
G75*
G02*
X121712129Y-92710450I243750J0D01*
G01*
X122274629Y-92710450D01*
G75*
G02*
X122518379Y-92954200I0J-243750D01*
G01*
X122518379Y-93441700D01*
G75*
G02*
X122274629Y-93685450I-243750J0D01*
G01*
G37*
G36*
G01*
X122274629Y-95260450D02*
X121712129Y-95260450D01*
G75*
G02*
X121468379Y-95016700I0J243750D01*
G01*
X121468379Y-94529200D01*
G75*
G02*
X121712129Y-94285450I243750J0D01*
G01*
X122274629Y-94285450D01*
G75*
G02*
X122518379Y-94529200I0J-243750D01*
G01*
X122518379Y-95016700D01*
G75*
G02*
X122274629Y-95260450I-243750J0D01*
G01*
G37*
%TD*%
%TO.C,U2*%
G36*
G01*
X127380879Y-103397950D02*
X127380879Y-103147950D01*
G75*
G02*
X127505879Y-103022950I125000J0D01*
G01*
X128980879Y-103022950D01*
G75*
G02*
X129105879Y-103147950I0J-125000D01*
G01*
X129105879Y-103397950D01*
G75*
G02*
X128980879Y-103522950I-125000J0D01*
G01*
X127505879Y-103522950D01*
G75*
G02*
X127380879Y-103397950I0J125000D01*
G01*
G37*
G36*
G01*
X127380879Y-102747950D02*
X127380879Y-102497950D01*
G75*
G02*
X127505879Y-102372950I125000J0D01*
G01*
X128980879Y-102372950D01*
G75*
G02*
X129105879Y-102497950I0J-125000D01*
G01*
X129105879Y-102747950D01*
G75*
G02*
X128980879Y-102872950I-125000J0D01*
G01*
X127505879Y-102872950D01*
G75*
G02*
X127380879Y-102747950I0J125000D01*
G01*
G37*
G36*
G01*
X127380879Y-102097950D02*
X127380879Y-101847950D01*
G75*
G02*
X127505879Y-101722950I125000J0D01*
G01*
X128980879Y-101722950D01*
G75*
G02*
X129105879Y-101847950I0J-125000D01*
G01*
X129105879Y-102097950D01*
G75*
G02*
X128980879Y-102222950I-125000J0D01*
G01*
X127505879Y-102222950D01*
G75*
G02*
X127380879Y-102097950I0J125000D01*
G01*
G37*
G36*
G01*
X127380879Y-101447950D02*
X127380879Y-101197950D01*
G75*
G02*
X127505879Y-101072950I125000J0D01*
G01*
X128980879Y-101072950D01*
G75*
G02*
X129105879Y-101197950I0J-125000D01*
G01*
X129105879Y-101447950D01*
G75*
G02*
X128980879Y-101572950I-125000J0D01*
G01*
X127505879Y-101572950D01*
G75*
G02*
X127380879Y-101447950I0J125000D01*
G01*
G37*
G36*
G01*
X123155879Y-101447950D02*
X123155879Y-101197950D01*
G75*
G02*
X123280879Y-101072950I125000J0D01*
G01*
X124755879Y-101072950D01*
G75*
G02*
X124880879Y-101197950I0J-125000D01*
G01*
X124880879Y-101447950D01*
G75*
G02*
X124755879Y-101572950I-125000J0D01*
G01*
X123280879Y-101572950D01*
G75*
G02*
X123155879Y-101447950I0J125000D01*
G01*
G37*
G36*
G01*
X123155879Y-102097950D02*
X123155879Y-101847950D01*
G75*
G02*
X123280879Y-101722950I125000J0D01*
G01*
X124755879Y-101722950D01*
G75*
G02*
X124880879Y-101847950I0J-125000D01*
G01*
X124880879Y-102097950D01*
G75*
G02*
X124755879Y-102222950I-125000J0D01*
G01*
X123280879Y-102222950D01*
G75*
G02*
X123155879Y-102097950I0J125000D01*
G01*
G37*
G36*
G01*
X123155879Y-102747950D02*
X123155879Y-102497950D01*
G75*
G02*
X123280879Y-102372950I125000J0D01*
G01*
X124755879Y-102372950D01*
G75*
G02*
X124880879Y-102497950I0J-125000D01*
G01*
X124880879Y-102747950D01*
G75*
G02*
X124755879Y-102872950I-125000J0D01*
G01*
X123280879Y-102872950D01*
G75*
G02*
X123155879Y-102747950I0J125000D01*
G01*
G37*
G36*
G01*
X123155879Y-103397950D02*
X123155879Y-103147950D01*
G75*
G02*
X123280879Y-103022950I125000J0D01*
G01*
X124755879Y-103022950D01*
G75*
G02*
X124880879Y-103147950I0J-125000D01*
G01*
X124880879Y-103397950D01*
G75*
G02*
X124755879Y-103522950I-125000J0D01*
G01*
X123280879Y-103522950D01*
G75*
G02*
X123155879Y-103397950I0J125000D01*
G01*
G37*
%TD*%
%TO.C,C20*%
G36*
G01*
X175231621Y-95832050D02*
X175231621Y-93622050D01*
G75*
G02*
X175501621Y-93352050I270000J0D01*
G01*
X176311621Y-93352050D01*
G75*
G02*
X176581621Y-93622050I0J-270000D01*
G01*
X176581621Y-95832050D01*
G75*
G02*
X176311621Y-96102050I-270000J0D01*
G01*
X175501621Y-96102050D01*
G75*
G02*
X175231621Y-95832050I0J270000D01*
G01*
G37*
G36*
G01*
X172431621Y-95832050D02*
X172431621Y-93622050D01*
G75*
G02*
X172701621Y-93352050I270000J0D01*
G01*
X173511621Y-93352050D01*
G75*
G02*
X173781621Y-93622050I0J-270000D01*
G01*
X173781621Y-95832050D01*
G75*
G02*
X173511621Y-96102050I-270000J0D01*
G01*
X172701621Y-96102050D01*
G75*
G02*
X172431621Y-95832050I0J270000D01*
G01*
G37*
%TD*%
%TO.C,R18*%
G36*
G01*
X177718750Y-99050000D02*
X178281250Y-99050000D01*
G75*
G02*
X178525000Y-99293750I0J-243750D01*
G01*
X178525000Y-99781250D01*
G75*
G02*
X178281250Y-100025000I-243750J0D01*
G01*
X177718750Y-100025000D01*
G75*
G02*
X177475000Y-99781250I0J243750D01*
G01*
X177475000Y-99293750D01*
G75*
G02*
X177718750Y-99050000I243750J0D01*
G01*
G37*
G36*
G01*
X177718750Y-97475000D02*
X178281250Y-97475000D01*
G75*
G02*
X178525000Y-97718750I0J-243750D01*
G01*
X178525000Y-98206250D01*
G75*
G02*
X178281250Y-98450000I-243750J0D01*
G01*
X177718750Y-98450000D01*
G75*
G02*
X177475000Y-98206250I0J243750D01*
G01*
X177475000Y-97718750D01*
G75*
G02*
X177718750Y-97475000I243750J0D01*
G01*
G37*
%TD*%
%TO.C,R5*%
G36*
G01*
X124655879Y-104741700D02*
X124655879Y-105304200D01*
G75*
G02*
X124412129Y-105547950I-243750J0D01*
G01*
X123924629Y-105547950D01*
G75*
G02*
X123680879Y-105304200I0J243750D01*
G01*
X123680879Y-104741700D01*
G75*
G02*
X123924629Y-104497950I243750J0D01*
G01*
X124412129Y-104497950D01*
G75*
G02*
X124655879Y-104741700I0J-243750D01*
G01*
G37*
G36*
G01*
X126230879Y-104741700D02*
X126230879Y-105304200D01*
G75*
G02*
X125987129Y-105547950I-243750J0D01*
G01*
X125499629Y-105547950D01*
G75*
G02*
X125255879Y-105304200I0J243750D01*
G01*
X125255879Y-104741700D01*
G75*
G02*
X125499629Y-104497950I243750J0D01*
G01*
X125987129Y-104497950D01*
G75*
G02*
X126230879Y-104741700I0J-243750D01*
G01*
G37*
%TD*%
%TO.C,C22*%
G36*
G01*
X175231621Y-99332050D02*
X175231621Y-97122050D01*
G75*
G02*
X175501621Y-96852050I270000J0D01*
G01*
X176311621Y-96852050D01*
G75*
G02*
X176581621Y-97122050I0J-270000D01*
G01*
X176581621Y-99332050D01*
G75*
G02*
X176311621Y-99602050I-270000J0D01*
G01*
X175501621Y-99602050D01*
G75*
G02*
X175231621Y-99332050I0J270000D01*
G01*
G37*
G36*
G01*
X172431621Y-99332050D02*
X172431621Y-97122050D01*
G75*
G02*
X172701621Y-96852050I270000J0D01*
G01*
X173511621Y-96852050D01*
G75*
G02*
X173781621Y-97122050I0J-270000D01*
G01*
X173781621Y-99332050D01*
G75*
G02*
X173511621Y-99602050I-270000J0D01*
G01*
X172701621Y-99602050D01*
G75*
G02*
X172431621Y-99332050I0J270000D01*
G01*
G37*
%TD*%
%TO.C,C21*%
G36*
G01*
X175231621Y-102832050D02*
X175231621Y-100622050D01*
G75*
G02*
X175501621Y-100352050I270000J0D01*
G01*
X176311621Y-100352050D01*
G75*
G02*
X176581621Y-100622050I0J-270000D01*
G01*
X176581621Y-102832050D01*
G75*
G02*
X176311621Y-103102050I-270000J0D01*
G01*
X175501621Y-103102050D01*
G75*
G02*
X175231621Y-102832050I0J270000D01*
G01*
G37*
G36*
G01*
X172431621Y-102832050D02*
X172431621Y-100622050D01*
G75*
G02*
X172701621Y-100352050I270000J0D01*
G01*
X173511621Y-100352050D01*
G75*
G02*
X173781621Y-100622050I0J-270000D01*
G01*
X173781621Y-102832050D01*
G75*
G02*
X173511621Y-103102050I-270000J0D01*
G01*
X172701621Y-103102050D01*
G75*
G02*
X172431621Y-102832050I0J270000D01*
G01*
G37*
%TD*%
%TO.C,C18*%
G36*
G01*
X175231621Y-106332050D02*
X175231621Y-104122050D01*
G75*
G02*
X175501621Y-103852050I270000J0D01*
G01*
X176311621Y-103852050D01*
G75*
G02*
X176581621Y-104122050I0J-270000D01*
G01*
X176581621Y-106332050D01*
G75*
G02*
X176311621Y-106602050I-270000J0D01*
G01*
X175501621Y-106602050D01*
G75*
G02*
X175231621Y-106332050I0J270000D01*
G01*
G37*
G36*
G01*
X172431621Y-106332050D02*
X172431621Y-104122050D01*
G75*
G02*
X172701621Y-103852050I270000J0D01*
G01*
X173511621Y-103852050D01*
G75*
G02*
X173781621Y-104122050I0J-270000D01*
G01*
X173781621Y-106332050D01*
G75*
G02*
X173511621Y-106602050I-270000J0D01*
G01*
X172701621Y-106602050D01*
G75*
G02*
X172431621Y-106332050I0J270000D01*
G01*
G37*
%TD*%
%TO.C,C11*%
G36*
G01*
X127405879Y-99491700D02*
X127405879Y-100054200D01*
G75*
G02*
X127162129Y-100297950I-243750J0D01*
G01*
X126674629Y-100297950D01*
G75*
G02*
X126430879Y-100054200I0J243750D01*
G01*
X126430879Y-99491700D01*
G75*
G02*
X126674629Y-99247950I243750J0D01*
G01*
X127162129Y-99247950D01*
G75*
G02*
X127405879Y-99491700I0J-243750D01*
G01*
G37*
G36*
G01*
X128980879Y-99491700D02*
X128980879Y-100054200D01*
G75*
G02*
X128737129Y-100297950I-243750J0D01*
G01*
X128249629Y-100297950D01*
G75*
G02*
X128005879Y-100054200I0J243750D01*
G01*
X128005879Y-99491700D01*
G75*
G02*
X128249629Y-99247950I243750J0D01*
G01*
X128737129Y-99247950D01*
G75*
G02*
X128980879Y-99491700I0J-243750D01*
G01*
G37*
%TD*%
%TO.C,C8*%
G36*
G01*
X120524629Y-90685450D02*
X119962129Y-90685450D01*
G75*
G02*
X119718379Y-90441700I0J243750D01*
G01*
X119718379Y-89954200D01*
G75*
G02*
X119962129Y-89710450I243750J0D01*
G01*
X120524629Y-89710450D01*
G75*
G02*
X120768379Y-89954200I0J-243750D01*
G01*
X120768379Y-90441700D01*
G75*
G02*
X120524629Y-90685450I-243750J0D01*
G01*
G37*
G36*
G01*
X120524629Y-92260450D02*
X119962129Y-92260450D01*
G75*
G02*
X119718379Y-92016700I0J243750D01*
G01*
X119718379Y-91529200D01*
G75*
G02*
X119962129Y-91285450I243750J0D01*
G01*
X120524629Y-91285450D01*
G75*
G02*
X120768379Y-91529200I0J-243750D01*
G01*
X120768379Y-92016700D01*
G75*
G02*
X120524629Y-92260450I-243750J0D01*
G01*
G37*
%TD*%
%TO.C,C7*%
G36*
G01*
X129274629Y-80010450D02*
X128712129Y-80010450D01*
G75*
G02*
X128468379Y-79766700I0J243750D01*
G01*
X128468379Y-79279200D01*
G75*
G02*
X128712129Y-79035450I243750J0D01*
G01*
X129274629Y-79035450D01*
G75*
G02*
X129518379Y-79279200I0J-243750D01*
G01*
X129518379Y-79766700D01*
G75*
G02*
X129274629Y-80010450I-243750J0D01*
G01*
G37*
G36*
G01*
X129274629Y-81585450D02*
X128712129Y-81585450D01*
G75*
G02*
X128468379Y-81341700I0J243750D01*
G01*
X128468379Y-80854200D01*
G75*
G02*
X128712129Y-80610450I243750J0D01*
G01*
X129274629Y-80610450D01*
G75*
G02*
X129518379Y-80854200I0J-243750D01*
G01*
X129518379Y-81341700D01*
G75*
G02*
X129274629Y-81585450I-243750J0D01*
G01*
G37*
%TD*%
%TO.C,C6*%
G36*
G01*
X129024629Y-91435450D02*
X128462129Y-91435450D01*
G75*
G02*
X128218379Y-91191700I0J243750D01*
G01*
X128218379Y-90704200D01*
G75*
G02*
X128462129Y-90460450I243750J0D01*
G01*
X129024629Y-90460450D01*
G75*
G02*
X129268379Y-90704200I0J-243750D01*
G01*
X129268379Y-91191700D01*
G75*
G02*
X129024629Y-91435450I-243750J0D01*
G01*
G37*
G36*
G01*
X129024629Y-93010450D02*
X128462129Y-93010450D01*
G75*
G02*
X128218379Y-92766700I0J243750D01*
G01*
X128218379Y-92279200D01*
G75*
G02*
X128462129Y-92035450I243750J0D01*
G01*
X129024629Y-92035450D01*
G75*
G02*
X129268379Y-92279200I0J-243750D01*
G01*
X129268379Y-92766700D01*
G75*
G02*
X129024629Y-93010450I-243750J0D01*
G01*
G37*
%TD*%
%TO.C,C5*%
G36*
G01*
X120524629Y-79685450D02*
X119962129Y-79685450D01*
G75*
G02*
X119718379Y-79441700I0J243750D01*
G01*
X119718379Y-78954200D01*
G75*
G02*
X119962129Y-78710450I243750J0D01*
G01*
X120524629Y-78710450D01*
G75*
G02*
X120768379Y-78954200I0J-243750D01*
G01*
X120768379Y-79441700D01*
G75*
G02*
X120524629Y-79685450I-243750J0D01*
G01*
G37*
G36*
G01*
X120524629Y-81260450D02*
X119962129Y-81260450D01*
G75*
G02*
X119718379Y-81016700I0J243750D01*
G01*
X119718379Y-80529200D01*
G75*
G02*
X119962129Y-80285450I243750J0D01*
G01*
X120524629Y-80285450D01*
G75*
G02*
X120768379Y-80529200I0J-243750D01*
G01*
X120768379Y-81016700D01*
G75*
G02*
X120524629Y-81260450I-243750J0D01*
G01*
G37*
%TD*%
%TO.C,C4*%
G36*
G01*
X115962129Y-87860450D02*
X116524629Y-87860450D01*
G75*
G02*
X116768379Y-88104200I0J-243750D01*
G01*
X116768379Y-88591700D01*
G75*
G02*
X116524629Y-88835450I-243750J0D01*
G01*
X115962129Y-88835450D01*
G75*
G02*
X115718379Y-88591700I0J243750D01*
G01*
X115718379Y-88104200D01*
G75*
G02*
X115962129Y-87860450I243750J0D01*
G01*
G37*
G36*
G01*
X115962129Y-86285450D02*
X116524629Y-86285450D01*
G75*
G02*
X116768379Y-86529200I0J-243750D01*
G01*
X116768379Y-87016700D01*
G75*
G02*
X116524629Y-87260450I-243750J0D01*
G01*
X115962129Y-87260450D01*
G75*
G02*
X115718379Y-87016700I0J243750D01*
G01*
X115718379Y-86529200D01*
G75*
G02*
X115962129Y-86285450I243750J0D01*
G01*
G37*
%TD*%
%TO.C,C3*%
G36*
G01*
X113212129Y-97035450D02*
X113774629Y-97035450D01*
G75*
G02*
X114018379Y-97279200I0J-243750D01*
G01*
X114018379Y-97766700D01*
G75*
G02*
X113774629Y-98010450I-243750J0D01*
G01*
X113212129Y-98010450D01*
G75*
G02*
X112968379Y-97766700I0J243750D01*
G01*
X112968379Y-97279200D01*
G75*
G02*
X113212129Y-97035450I243750J0D01*
G01*
G37*
G36*
G01*
X113212129Y-95460450D02*
X113774629Y-95460450D01*
G75*
G02*
X114018379Y-95704200I0J-243750D01*
G01*
X114018379Y-96191700D01*
G75*
G02*
X113774629Y-96435450I-243750J0D01*
G01*
X113212129Y-96435450D01*
G75*
G02*
X112968379Y-96191700I0J243750D01*
G01*
X112968379Y-95704200D01*
G75*
G02*
X113212129Y-95460450I243750J0D01*
G01*
G37*
%TD*%
%TO.C,C2*%
G36*
G01*
X128462129Y-96610450D02*
X129024629Y-96610450D01*
G75*
G02*
X129268379Y-96854200I0J-243750D01*
G01*
X129268379Y-97341700D01*
G75*
G02*
X129024629Y-97585450I-243750J0D01*
G01*
X128462129Y-97585450D01*
G75*
G02*
X128218379Y-97341700I0J243750D01*
G01*
X128218379Y-96854200D01*
G75*
G02*
X128462129Y-96610450I243750J0D01*
G01*
G37*
G36*
G01*
X128462129Y-95035450D02*
X129024629Y-95035450D01*
G75*
G02*
X129268379Y-95279200I0J-243750D01*
G01*
X129268379Y-95766700D01*
G75*
G02*
X129024629Y-96010450I-243750J0D01*
G01*
X128462129Y-96010450D01*
G75*
G02*
X128218379Y-95766700I0J243750D01*
G01*
X128218379Y-95279200D01*
G75*
G02*
X128462129Y-95035450I243750J0D01*
G01*
G37*
%TD*%
%TO.C,C1*%
G36*
G01*
X124962129Y-88360450D02*
X125524629Y-88360450D01*
G75*
G02*
X125768379Y-88604200I0J-243750D01*
G01*
X125768379Y-89091700D01*
G75*
G02*
X125524629Y-89335450I-243750J0D01*
G01*
X124962129Y-89335450D01*
G75*
G02*
X124718379Y-89091700I0J243750D01*
G01*
X124718379Y-88604200D01*
G75*
G02*
X124962129Y-88360450I243750J0D01*
G01*
G37*
G36*
G01*
X124962129Y-86785450D02*
X125524629Y-86785450D01*
G75*
G02*
X125768379Y-87029200I0J-243750D01*
G01*
X125768379Y-87516700D01*
G75*
G02*
X125524629Y-87760450I-243750J0D01*
G01*
X124962129Y-87760450D01*
G75*
G02*
X124718379Y-87516700I0J243750D01*
G01*
X124718379Y-87029200D01*
G75*
G02*
X124962129Y-86785450I243750J0D01*
G01*
G37*
%TD*%
%TO.C,R12*%
G36*
G01*
X122255879Y-105054200D02*
X122255879Y-104491700D01*
G75*
G02*
X122499629Y-104247950I243750J0D01*
G01*
X122987129Y-104247950D01*
G75*
G02*
X123230879Y-104491700I0J-243750D01*
G01*
X123230879Y-105054200D01*
G75*
G02*
X122987129Y-105297950I-243750J0D01*
G01*
X122499629Y-105297950D01*
G75*
G02*
X122255879Y-105054200I0J243750D01*
G01*
G37*
G36*
G01*
X120680879Y-105054200D02*
X120680879Y-104491700D01*
G75*
G02*
X120924629Y-104247950I243750J0D01*
G01*
X121412129Y-104247950D01*
G75*
G02*
X121655879Y-104491700I0J-243750D01*
G01*
X121655879Y-105054200D01*
G75*
G02*
X121412129Y-105297950I-243750J0D01*
G01*
X120924629Y-105297950D01*
G75*
G02*
X120680879Y-105054200I0J243750D01*
G01*
G37*
%TD*%
%TO.C,R10*%
G36*
G01*
X121774629Y-100472950D02*
X121212129Y-100472950D01*
G75*
G02*
X120968379Y-100229200I0J243750D01*
G01*
X120968379Y-99741700D01*
G75*
G02*
X121212129Y-99497950I243750J0D01*
G01*
X121774629Y-99497950D01*
G75*
G02*
X122018379Y-99741700I0J-243750D01*
G01*
X122018379Y-100229200D01*
G75*
G02*
X121774629Y-100472950I-243750J0D01*
G01*
G37*
G36*
G01*
X121774629Y-102047950D02*
X121212129Y-102047950D01*
G75*
G02*
X120968379Y-101804200I0J243750D01*
G01*
X120968379Y-101316700D01*
G75*
G02*
X121212129Y-101072950I243750J0D01*
G01*
X121774629Y-101072950D01*
G75*
G02*
X122018379Y-101316700I0J-243750D01*
G01*
X122018379Y-101804200D01*
G75*
G02*
X121774629Y-102047950I-243750J0D01*
G01*
G37*
%TD*%
%TO.C,R9*%
G36*
G01*
X121774629Y-97222950D02*
X121212129Y-97222950D01*
G75*
G02*
X120968379Y-96979200I0J243750D01*
G01*
X120968379Y-96491700D01*
G75*
G02*
X121212129Y-96247950I243750J0D01*
G01*
X121774629Y-96247950D01*
G75*
G02*
X122018379Y-96491700I0J-243750D01*
G01*
X122018379Y-96979200D01*
G75*
G02*
X121774629Y-97222950I-243750J0D01*
G01*
G37*
G36*
G01*
X121774629Y-98797950D02*
X121212129Y-98797950D01*
G75*
G02*
X120968379Y-98554200I0J243750D01*
G01*
X120968379Y-98066700D01*
G75*
G02*
X121212129Y-97822950I243750J0D01*
G01*
X121774629Y-97822950D01*
G75*
G02*
X122018379Y-98066700I0J-243750D01*
G01*
X122018379Y-98554200D01*
G75*
G02*
X121774629Y-98797950I-243750J0D01*
G01*
G37*
%TD*%
%TO.C,R4*%
G36*
G01*
X118274629Y-99260450D02*
X117712129Y-99260450D01*
G75*
G02*
X117468379Y-99016700I0J243750D01*
G01*
X117468379Y-98529200D01*
G75*
G02*
X117712129Y-98285450I243750J0D01*
G01*
X118274629Y-98285450D01*
G75*
G02*
X118518379Y-98529200I0J-243750D01*
G01*
X118518379Y-99016700D01*
G75*
G02*
X118274629Y-99260450I-243750J0D01*
G01*
G37*
G36*
G01*
X118274629Y-100835450D02*
X117712129Y-100835450D01*
G75*
G02*
X117468379Y-100591700I0J243750D01*
G01*
X117468379Y-100104200D01*
G75*
G02*
X117712129Y-99860450I243750J0D01*
G01*
X118274629Y-99860450D01*
G75*
G02*
X118518379Y-100104200I0J-243750D01*
G01*
X118518379Y-100591700D01*
G75*
G02*
X118274629Y-100835450I-243750J0D01*
G01*
G37*
%TD*%
%TO.C,C19*%
G36*
G01*
X113774629Y-93435450D02*
X113212129Y-93435450D01*
G75*
G02*
X112968379Y-93191700I0J243750D01*
G01*
X112968379Y-92704200D01*
G75*
G02*
X113212129Y-92460450I243750J0D01*
G01*
X113774629Y-92460450D01*
G75*
G02*
X114018379Y-92704200I0J-243750D01*
G01*
X114018379Y-93191700D01*
G75*
G02*
X113774629Y-93435450I-243750J0D01*
G01*
G37*
G36*
G01*
X113774629Y-95010450D02*
X113212129Y-95010450D01*
G75*
G02*
X112968379Y-94766700I0J243750D01*
G01*
X112968379Y-94279200D01*
G75*
G02*
X113212129Y-94035450I243750J0D01*
G01*
X113774629Y-94035450D01*
G75*
G02*
X114018379Y-94279200I0J-243750D01*
G01*
X114018379Y-94766700D01*
G75*
G02*
X113774629Y-95010450I-243750J0D01*
G01*
G37*
%TD*%
%TO.C,C15*%
G36*
G01*
X119043379Y-105304200D02*
X119043379Y-104741700D01*
G75*
G02*
X119287129Y-104497950I243750J0D01*
G01*
X119774629Y-104497950D01*
G75*
G02*
X120018379Y-104741700I0J-243750D01*
G01*
X120018379Y-105304200D01*
G75*
G02*
X119774629Y-105547950I-243750J0D01*
G01*
X119287129Y-105547950D01*
G75*
G02*
X119043379Y-105304200I0J243750D01*
G01*
G37*
G36*
G01*
X117468379Y-105304200D02*
X117468379Y-104741700D01*
G75*
G02*
X117712129Y-104497950I243750J0D01*
G01*
X118199629Y-104497950D01*
G75*
G02*
X118443379Y-104741700I0J-243750D01*
G01*
X118443379Y-105304200D01*
G75*
G02*
X118199629Y-105547950I-243750J0D01*
G01*
X117712129Y-105547950D01*
G75*
G02*
X117468379Y-105304200I0J243750D01*
G01*
G37*
%TD*%
%TO.C,C13*%
G36*
G01*
X120024629Y-99222950D02*
X119462129Y-99222950D01*
G75*
G02*
X119218379Y-98979200I0J243750D01*
G01*
X119218379Y-98491700D01*
G75*
G02*
X119462129Y-98247950I243750J0D01*
G01*
X120024629Y-98247950D01*
G75*
G02*
X120268379Y-98491700I0J-243750D01*
G01*
X120268379Y-98979200D01*
G75*
G02*
X120024629Y-99222950I-243750J0D01*
G01*
G37*
G36*
G01*
X120024629Y-100797950D02*
X119462129Y-100797950D01*
G75*
G02*
X119218379Y-100554200I0J243750D01*
G01*
X119218379Y-100066700D01*
G75*
G02*
X119462129Y-99822950I243750J0D01*
G01*
X120024629Y-99822950D01*
G75*
G02*
X120268379Y-100066700I0J-243750D01*
G01*
X120268379Y-100554200D01*
G75*
G02*
X120024629Y-100797950I-243750J0D01*
G01*
G37*
%TD*%
%TO.C,C14*%
G36*
G01*
X121962129Y-86322950D02*
X122524629Y-86322950D01*
G75*
G02*
X122768379Y-86566700I0J-243750D01*
G01*
X122768379Y-87054200D01*
G75*
G02*
X122524629Y-87297950I-243750J0D01*
G01*
X121962129Y-87297950D01*
G75*
G02*
X121718379Y-87054200I0J243750D01*
G01*
X121718379Y-86566700D01*
G75*
G02*
X121962129Y-86322950I243750J0D01*
G01*
G37*
G36*
G01*
X121962129Y-84747950D02*
X122524629Y-84747950D01*
G75*
G02*
X122768379Y-84991700I0J-243750D01*
G01*
X122768379Y-85479200D01*
G75*
G02*
X122524629Y-85722950I-243750J0D01*
G01*
X121962129Y-85722950D01*
G75*
G02*
X121718379Y-85479200I0J243750D01*
G01*
X121718379Y-84991700D01*
G75*
G02*
X121962129Y-84747950I243750J0D01*
G01*
G37*
%TD*%
%TO.C,C10*%
G36*
G01*
X119462129Y-103035450D02*
X120024629Y-103035450D01*
G75*
G02*
X120268379Y-103279200I0J-243750D01*
G01*
X120268379Y-103766700D01*
G75*
G02*
X120024629Y-104010450I-243750J0D01*
G01*
X119462129Y-104010450D01*
G75*
G02*
X119218379Y-103766700I0J243750D01*
G01*
X119218379Y-103279200D01*
G75*
G02*
X119462129Y-103035450I243750J0D01*
G01*
G37*
G36*
G01*
X119462129Y-101460450D02*
X120024629Y-101460450D01*
G75*
G02*
X120268379Y-101704200I0J-243750D01*
G01*
X120268379Y-102191700D01*
G75*
G02*
X120024629Y-102435450I-243750J0D01*
G01*
X119462129Y-102435450D01*
G75*
G02*
X119218379Y-102191700I0J243750D01*
G01*
X119218379Y-101704200D01*
G75*
G02*
X119462129Y-101460450I243750J0D01*
G01*
G37*
%TD*%
%TO.C,C9*%
G36*
G01*
X113774629Y-82260450D02*
X113212129Y-82260450D01*
G75*
G02*
X112968379Y-82016700I0J243750D01*
G01*
X112968379Y-81529200D01*
G75*
G02*
X113212129Y-81285450I243750J0D01*
G01*
X113774629Y-81285450D01*
G75*
G02*
X114018379Y-81529200I0J-243750D01*
G01*
X114018379Y-82016700D01*
G75*
G02*
X113774629Y-82260450I-243750J0D01*
G01*
G37*
G36*
G01*
X113774629Y-83835450D02*
X113212129Y-83835450D01*
G75*
G02*
X112968379Y-83591700I0J243750D01*
G01*
X112968379Y-83104200D01*
G75*
G02*
X113212129Y-82860450I243750J0D01*
G01*
X113774629Y-82860450D01*
G75*
G02*
X114018379Y-83104200I0J-243750D01*
G01*
X114018379Y-83591700D01*
G75*
G02*
X113774629Y-83835450I-243750J0D01*
G01*
G37*
%TD*%
%TO.C,R11*%
G36*
G01*
X118274629Y-102472950D02*
X117712129Y-102472950D01*
G75*
G02*
X117468379Y-102229200I0J243750D01*
G01*
X117468379Y-101741700D01*
G75*
G02*
X117712129Y-101497950I243750J0D01*
G01*
X118274629Y-101497950D01*
G75*
G02*
X118518379Y-101741700I0J-243750D01*
G01*
X118518379Y-102229200D01*
G75*
G02*
X118274629Y-102472950I-243750J0D01*
G01*
G37*
G36*
G01*
X118274629Y-104047950D02*
X117712129Y-104047950D01*
G75*
G02*
X117468379Y-103804200I0J243750D01*
G01*
X117468379Y-103316700D01*
G75*
G02*
X117712129Y-103072950I243750J0D01*
G01*
X118274629Y-103072950D01*
G75*
G02*
X118518379Y-103316700I0J-243750D01*
G01*
X118518379Y-103804200D01*
G75*
G02*
X118274629Y-104047950I-243750J0D01*
G01*
G37*
%TD*%
%TO.C,R22*%
G36*
G01*
X123462129Y-88360450D02*
X124024629Y-88360450D01*
G75*
G02*
X124268379Y-88604200I0J-243750D01*
G01*
X124268379Y-89091700D01*
G75*
G02*
X124024629Y-89335450I-243750J0D01*
G01*
X123462129Y-89335450D01*
G75*
G02*
X123218379Y-89091700I0J243750D01*
G01*
X123218379Y-88604200D01*
G75*
G02*
X123462129Y-88360450I243750J0D01*
G01*
G37*
G36*
G01*
X123462129Y-86785450D02*
X124024629Y-86785450D01*
G75*
G02*
X124268379Y-87029200I0J-243750D01*
G01*
X124268379Y-87516700D01*
G75*
G02*
X124024629Y-87760450I-243750J0D01*
G01*
X123462129Y-87760450D01*
G75*
G02*
X123218379Y-87516700I0J243750D01*
G01*
X123218379Y-87029200D01*
G75*
G02*
X123462129Y-86785450I243750J0D01*
G01*
G37*
%TD*%
%TO.C,R21*%
G36*
G01*
X120524629Y-93685450D02*
X119962129Y-93685450D01*
G75*
G02*
X119718379Y-93441700I0J243750D01*
G01*
X119718379Y-92954200D01*
G75*
G02*
X119962129Y-92710450I243750J0D01*
G01*
X120524629Y-92710450D01*
G75*
G02*
X120768379Y-92954200I0J-243750D01*
G01*
X120768379Y-93441700D01*
G75*
G02*
X120524629Y-93685450I-243750J0D01*
G01*
G37*
G36*
G01*
X120524629Y-95260450D02*
X119962129Y-95260450D01*
G75*
G02*
X119718379Y-95016700I0J243750D01*
G01*
X119718379Y-94529200D01*
G75*
G02*
X119962129Y-94285450I243750J0D01*
G01*
X120524629Y-94285450D01*
G75*
G02*
X120768379Y-94529200I0J-243750D01*
G01*
X120768379Y-95016700D01*
G75*
G02*
X120524629Y-95260450I-243750J0D01*
G01*
G37*
%TD*%
%TO.C,R20*%
G36*
G01*
X121462129Y-90110450D02*
X122024629Y-90110450D01*
G75*
G02*
X122268379Y-90354200I0J-243750D01*
G01*
X122268379Y-90841700D01*
G75*
G02*
X122024629Y-91085450I-243750J0D01*
G01*
X121462129Y-91085450D01*
G75*
G02*
X121218379Y-90841700I0J243750D01*
G01*
X121218379Y-90354200D01*
G75*
G02*
X121462129Y-90110450I243750J0D01*
G01*
G37*
G36*
G01*
X121462129Y-88535450D02*
X122024629Y-88535450D01*
G75*
G02*
X122268379Y-88779200I0J-243750D01*
G01*
X122268379Y-89266700D01*
G75*
G02*
X122024629Y-89510450I-243750J0D01*
G01*
X121462129Y-89510450D01*
G75*
G02*
X121218379Y-89266700I0J243750D01*
G01*
X121218379Y-88779200D01*
G75*
G02*
X121462129Y-88535450I243750J0D01*
G01*
G37*
%TD*%
%TO.C,R14*%
G36*
G01*
X122524629Y-79685450D02*
X121962129Y-79685450D01*
G75*
G02*
X121718379Y-79441700I0J243750D01*
G01*
X121718379Y-78954200D01*
G75*
G02*
X121962129Y-78710450I243750J0D01*
G01*
X122524629Y-78710450D01*
G75*
G02*
X122768379Y-78954200I0J-243750D01*
G01*
X122768379Y-79441700D01*
G75*
G02*
X122524629Y-79685450I-243750J0D01*
G01*
G37*
G36*
G01*
X122524629Y-81260450D02*
X121962129Y-81260450D01*
G75*
G02*
X121718379Y-81016700I0J243750D01*
G01*
X121718379Y-80529200D01*
G75*
G02*
X121962129Y-80285450I243750J0D01*
G01*
X122524629Y-80285450D01*
G75*
G02*
X122768379Y-80529200I0J-243750D01*
G01*
X122768379Y-81016700D01*
G75*
G02*
X122524629Y-81260450I-243750J0D01*
G01*
G37*
%TD*%
%TO.C,R8*%
G36*
G01*
X122524629Y-82760450D02*
X121962129Y-82760450D01*
G75*
G02*
X121718379Y-82516700I0J243750D01*
G01*
X121718379Y-82029200D01*
G75*
G02*
X121962129Y-81785450I243750J0D01*
G01*
X122524629Y-81785450D01*
G75*
G02*
X122768379Y-82029200I0J-243750D01*
G01*
X122768379Y-82516700D01*
G75*
G02*
X122524629Y-82760450I-243750J0D01*
G01*
G37*
G36*
G01*
X122524629Y-84335450D02*
X121962129Y-84335450D01*
G75*
G02*
X121718379Y-84091700I0J243750D01*
G01*
X121718379Y-83604200D01*
G75*
G02*
X121962129Y-83360450I243750J0D01*
G01*
X122524629Y-83360450D01*
G75*
G02*
X122768379Y-83604200I0J-243750D01*
G01*
X122768379Y-84091700D01*
G75*
G02*
X122524629Y-84335450I-243750J0D01*
G01*
G37*
%TD*%
%TO.C,R6*%
G36*
G01*
X127024629Y-87760450D02*
X126462129Y-87760450D01*
G75*
G02*
X126218379Y-87516700I0J243750D01*
G01*
X126218379Y-87029200D01*
G75*
G02*
X126462129Y-86785450I243750J0D01*
G01*
X127024629Y-86785450D01*
G75*
G02*
X127268379Y-87029200I0J-243750D01*
G01*
X127268379Y-87516700D01*
G75*
G02*
X127024629Y-87760450I-243750J0D01*
G01*
G37*
G36*
G01*
X127024629Y-89335450D02*
X126462129Y-89335450D01*
G75*
G02*
X126218379Y-89091700I0J243750D01*
G01*
X126218379Y-88604200D01*
G75*
G02*
X126462129Y-88360450I243750J0D01*
G01*
X127024629Y-88360450D01*
G75*
G02*
X127268379Y-88604200I0J-243750D01*
G01*
X127268379Y-89091700D01*
G75*
G02*
X127024629Y-89335450I-243750J0D01*
G01*
G37*
%TD*%
%TO.C,R3*%
G36*
G01*
X113774629Y-79260450D02*
X113212129Y-79260450D01*
G75*
G02*
X112968379Y-79016700I0J243750D01*
G01*
X112968379Y-78529200D01*
G75*
G02*
X113212129Y-78285450I243750J0D01*
G01*
X113774629Y-78285450D01*
G75*
G02*
X114018379Y-78529200I0J-243750D01*
G01*
X114018379Y-79016700D01*
G75*
G02*
X113774629Y-79260450I-243750J0D01*
G01*
G37*
G36*
G01*
X113774629Y-80835450D02*
X113212129Y-80835450D01*
G75*
G02*
X112968379Y-80591700I0J243750D01*
G01*
X112968379Y-80104200D01*
G75*
G02*
X113212129Y-79860450I243750J0D01*
G01*
X113774629Y-79860450D01*
G75*
G02*
X114018379Y-80104200I0J-243750D01*
G01*
X114018379Y-80591700D01*
G75*
G02*
X113774629Y-80835450I-243750J0D01*
G01*
G37*
%TD*%
%TO.C,R2*%
G36*
G01*
X113774629Y-86010450D02*
X113212129Y-86010450D01*
G75*
G02*
X112968379Y-85766700I0J243750D01*
G01*
X112968379Y-85279200D01*
G75*
G02*
X113212129Y-85035450I243750J0D01*
G01*
X113774629Y-85035450D01*
G75*
G02*
X114018379Y-85279200I0J-243750D01*
G01*
X114018379Y-85766700D01*
G75*
G02*
X113774629Y-86010450I-243750J0D01*
G01*
G37*
G36*
G01*
X113774629Y-87585450D02*
X113212129Y-87585450D01*
G75*
G02*
X112968379Y-87341700I0J243750D01*
G01*
X112968379Y-86854200D01*
G75*
G02*
X113212129Y-86610450I243750J0D01*
G01*
X113774629Y-86610450D01*
G75*
G02*
X114018379Y-86854200I0J-243750D01*
G01*
X114018379Y-87341700D01*
G75*
G02*
X113774629Y-87585450I-243750J0D01*
G01*
G37*
%TD*%
%TO.C,R1*%
G36*
G01*
X118024629Y-87260450D02*
X117462129Y-87260450D01*
G75*
G02*
X117218379Y-87016700I0J243750D01*
G01*
X117218379Y-86529200D01*
G75*
G02*
X117462129Y-86285450I243750J0D01*
G01*
X118024629Y-86285450D01*
G75*
G02*
X118268379Y-86529200I0J-243750D01*
G01*
X118268379Y-87016700D01*
G75*
G02*
X118024629Y-87260450I-243750J0D01*
G01*
G37*
G36*
G01*
X118024629Y-88835450D02*
X117462129Y-88835450D01*
G75*
G02*
X117218379Y-88591700I0J243750D01*
G01*
X117218379Y-88104200D01*
G75*
G02*
X117462129Y-87860450I243750J0D01*
G01*
X118024629Y-87860450D01*
G75*
G02*
X118268379Y-88104200I0J-243750D01*
G01*
X118268379Y-88591700D01*
G75*
G02*
X118024629Y-88835450I-243750J0D01*
G01*
G37*
%TD*%
%TO.C,R19*%
G36*
G01*
X114462129Y-87785450D02*
X115024629Y-87785450D01*
G75*
G02*
X115268379Y-88029200I0J-243750D01*
G01*
X115268379Y-88516700D01*
G75*
G02*
X115024629Y-88760450I-243750J0D01*
G01*
X114462129Y-88760450D01*
G75*
G02*
X114218379Y-88516700I0J243750D01*
G01*
X114218379Y-88029200D01*
G75*
G02*
X114462129Y-87785450I243750J0D01*
G01*
G37*
G36*
G01*
X114462129Y-86210450D02*
X115024629Y-86210450D01*
G75*
G02*
X115268379Y-86454200I0J-243750D01*
G01*
X115268379Y-86941700D01*
G75*
G02*
X115024629Y-87185450I-243750J0D01*
G01*
X114462129Y-87185450D01*
G75*
G02*
X114218379Y-86941700I0J243750D01*
G01*
X114218379Y-86454200D01*
G75*
G02*
X114462129Y-86210450I243750J0D01*
G01*
G37*
%TD*%
%TO.C,R17*%
G36*
G01*
X113774629Y-90435450D02*
X113212129Y-90435450D01*
G75*
G02*
X112968379Y-90191700I0J243750D01*
G01*
X112968379Y-89704200D01*
G75*
G02*
X113212129Y-89460450I243750J0D01*
G01*
X113774629Y-89460450D01*
G75*
G02*
X114018379Y-89704200I0J-243750D01*
G01*
X114018379Y-90191700D01*
G75*
G02*
X113774629Y-90435450I-243750J0D01*
G01*
G37*
G36*
G01*
X113774629Y-92010450D02*
X113212129Y-92010450D01*
G75*
G02*
X112968379Y-91766700I0J243750D01*
G01*
X112968379Y-91279200D01*
G75*
G02*
X113212129Y-91035450I243750J0D01*
G01*
X113774629Y-91035450D01*
G75*
G02*
X114018379Y-91279200I0J-243750D01*
G01*
X114018379Y-91766700D01*
G75*
G02*
X113774629Y-92010450I-243750J0D01*
G01*
G37*
%TD*%
%TO.C,R16*%
G36*
G01*
X118962129Y-87822950D02*
X119524629Y-87822950D01*
G75*
G02*
X119768379Y-88066700I0J-243750D01*
G01*
X119768379Y-88554200D01*
G75*
G02*
X119524629Y-88797950I-243750J0D01*
G01*
X118962129Y-88797950D01*
G75*
G02*
X118718379Y-88554200I0J243750D01*
G01*
X118718379Y-88066700D01*
G75*
G02*
X118962129Y-87822950I243750J0D01*
G01*
G37*
G36*
G01*
X118962129Y-86247950D02*
X119524629Y-86247950D01*
G75*
G02*
X119768379Y-86491700I0J-243750D01*
G01*
X119768379Y-86979200D01*
G75*
G02*
X119524629Y-87222950I-243750J0D01*
G01*
X118962129Y-87222950D01*
G75*
G02*
X118718379Y-86979200I0J243750D01*
G01*
X118718379Y-86491700D01*
G75*
G02*
X118962129Y-86247950I243750J0D01*
G01*
G37*
%TD*%
%TO.C,U5*%
G36*
G01*
X123278379Y-95497950D02*
X123628379Y-95497950D01*
G75*
G02*
X123803379Y-95672950I0J-175000D01*
G01*
X123803379Y-97372950D01*
G75*
G02*
X123628379Y-97547950I-175000J0D01*
G01*
X123278379Y-97547950D01*
G75*
G02*
X123103379Y-97372950I0J175000D01*
G01*
X123103379Y-95672950D01*
G75*
G02*
X123278379Y-95497950I175000J0D01*
G01*
G37*
G36*
G01*
X124548379Y-95497950D02*
X124898379Y-95497950D01*
G75*
G02*
X125073379Y-95672950I0J-175000D01*
G01*
X125073379Y-97372950D01*
G75*
G02*
X124898379Y-97547950I-175000J0D01*
G01*
X124548379Y-97547950D01*
G75*
G02*
X124373379Y-97372950I0J175000D01*
G01*
X124373379Y-95672950D01*
G75*
G02*
X124548379Y-95497950I175000J0D01*
G01*
G37*
G36*
G01*
X125818379Y-95497950D02*
X126168379Y-95497950D01*
G75*
G02*
X126343379Y-95672950I0J-175000D01*
G01*
X126343379Y-97372950D01*
G75*
G02*
X126168379Y-97547950I-175000J0D01*
G01*
X125818379Y-97547950D01*
G75*
G02*
X125643379Y-97372950I0J175000D01*
G01*
X125643379Y-95672950D01*
G75*
G02*
X125818379Y-95497950I175000J0D01*
G01*
G37*
G36*
G01*
X127088379Y-95497950D02*
X127438379Y-95497950D01*
G75*
G02*
X127613379Y-95672950I0J-175000D01*
G01*
X127613379Y-97372950D01*
G75*
G02*
X127438379Y-97547950I-175000J0D01*
G01*
X127088379Y-97547950D01*
G75*
G02*
X126913379Y-97372950I0J175000D01*
G01*
X126913379Y-95672950D01*
G75*
G02*
X127088379Y-95497950I175000J0D01*
G01*
G37*
G36*
G01*
X127088379Y-90547950D02*
X127438379Y-90547950D01*
G75*
G02*
X127613379Y-90722950I0J-175000D01*
G01*
X127613379Y-92422950D01*
G75*
G02*
X127438379Y-92597950I-175000J0D01*
G01*
X127088379Y-92597950D01*
G75*
G02*
X126913379Y-92422950I0J175000D01*
G01*
X126913379Y-90722950D01*
G75*
G02*
X127088379Y-90547950I175000J0D01*
G01*
G37*
G36*
G01*
X125818379Y-90547950D02*
X126168379Y-90547950D01*
G75*
G02*
X126343379Y-90722950I0J-175000D01*
G01*
X126343379Y-92422950D01*
G75*
G02*
X126168379Y-92597950I-175000J0D01*
G01*
X125818379Y-92597950D01*
G75*
G02*
X125643379Y-92422950I0J175000D01*
G01*
X125643379Y-90722950D01*
G75*
G02*
X125818379Y-90547950I175000J0D01*
G01*
G37*
G36*
G01*
X124548379Y-90547950D02*
X124898379Y-90547950D01*
G75*
G02*
X125073379Y-90722950I0J-175000D01*
G01*
X125073379Y-92422950D01*
G75*
G02*
X124898379Y-92597950I-175000J0D01*
G01*
X124548379Y-92597950D01*
G75*
G02*
X124373379Y-92422950I0J175000D01*
G01*
X124373379Y-90722950D01*
G75*
G02*
X124548379Y-90547950I175000J0D01*
G01*
G37*
G36*
G01*
X123278379Y-90547950D02*
X123628379Y-90547950D01*
G75*
G02*
X123803379Y-90722950I0J-175000D01*
G01*
X123803379Y-92422950D01*
G75*
G02*
X123628379Y-92597950I-175000J0D01*
G01*
X123278379Y-92597950D01*
G75*
G02*
X123103379Y-92422950I0J175000D01*
G01*
X123103379Y-90722950D01*
G75*
G02*
X123278379Y-90547950I175000J0D01*
G01*
G37*
%TD*%
%TO.C,U3*%
G36*
G01*
X123508379Y-84247950D02*
X123858379Y-84247950D01*
G75*
G02*
X124033379Y-84422950I0J-175000D01*
G01*
X124033379Y-86122950D01*
G75*
G02*
X123858379Y-86297950I-175000J0D01*
G01*
X123508379Y-86297950D01*
G75*
G02*
X123333379Y-86122950I0J175000D01*
G01*
X123333379Y-84422950D01*
G75*
G02*
X123508379Y-84247950I175000J0D01*
G01*
G37*
G36*
G01*
X124778379Y-84247950D02*
X125128379Y-84247950D01*
G75*
G02*
X125303379Y-84422950I0J-175000D01*
G01*
X125303379Y-86122950D01*
G75*
G02*
X125128379Y-86297950I-175000J0D01*
G01*
X124778379Y-86297950D01*
G75*
G02*
X124603379Y-86122950I0J175000D01*
G01*
X124603379Y-84422950D01*
G75*
G02*
X124778379Y-84247950I175000J0D01*
G01*
G37*
G36*
G01*
X126048379Y-84247950D02*
X126398379Y-84247950D01*
G75*
G02*
X126573379Y-84422950I0J-175000D01*
G01*
X126573379Y-86122950D01*
G75*
G02*
X126398379Y-86297950I-175000J0D01*
G01*
X126048379Y-86297950D01*
G75*
G02*
X125873379Y-86122950I0J175000D01*
G01*
X125873379Y-84422950D01*
G75*
G02*
X126048379Y-84247950I175000J0D01*
G01*
G37*
G36*
G01*
X127318379Y-84247950D02*
X127668379Y-84247950D01*
G75*
G02*
X127843379Y-84422950I0J-175000D01*
G01*
X127843379Y-86122950D01*
G75*
G02*
X127668379Y-86297950I-175000J0D01*
G01*
X127318379Y-86297950D01*
G75*
G02*
X127143379Y-86122950I0J175000D01*
G01*
X127143379Y-84422950D01*
G75*
G02*
X127318379Y-84247950I175000J0D01*
G01*
G37*
G36*
G01*
X127318379Y-79297950D02*
X127668379Y-79297950D01*
G75*
G02*
X127843379Y-79472950I0J-175000D01*
G01*
X127843379Y-81172950D01*
G75*
G02*
X127668379Y-81347950I-175000J0D01*
G01*
X127318379Y-81347950D01*
G75*
G02*
X127143379Y-81172950I0J175000D01*
G01*
X127143379Y-79472950D01*
G75*
G02*
X127318379Y-79297950I175000J0D01*
G01*
G37*
G36*
G01*
X126048379Y-79297950D02*
X126398379Y-79297950D01*
G75*
G02*
X126573379Y-79472950I0J-175000D01*
G01*
X126573379Y-81172950D01*
G75*
G02*
X126398379Y-81347950I-175000J0D01*
G01*
X126048379Y-81347950D01*
G75*
G02*
X125873379Y-81172950I0J175000D01*
G01*
X125873379Y-79472950D01*
G75*
G02*
X126048379Y-79297950I175000J0D01*
G01*
G37*
G36*
G01*
X124778379Y-79297950D02*
X125128379Y-79297950D01*
G75*
G02*
X125303379Y-79472950I0J-175000D01*
G01*
X125303379Y-81172950D01*
G75*
G02*
X125128379Y-81347950I-175000J0D01*
G01*
X124778379Y-81347950D01*
G75*
G02*
X124603379Y-81172950I0J175000D01*
G01*
X124603379Y-79472950D01*
G75*
G02*
X124778379Y-79297950I175000J0D01*
G01*
G37*
G36*
G01*
X123508379Y-79297950D02*
X123858379Y-79297950D01*
G75*
G02*
X124033379Y-79472950I0J-175000D01*
G01*
X124033379Y-81172950D01*
G75*
G02*
X123858379Y-81347950I-175000J0D01*
G01*
X123508379Y-81347950D01*
G75*
G02*
X123333379Y-81172950I0J175000D01*
G01*
X123333379Y-79472950D01*
G75*
G02*
X123508379Y-79297950I175000J0D01*
G01*
G37*
%TD*%
%TO.C,U1*%
G36*
G01*
X114818379Y-83747950D02*
X115168379Y-83747950D01*
G75*
G02*
X115343379Y-83922950I0J-175000D01*
G01*
X115343379Y-85622950D01*
G75*
G02*
X115168379Y-85797950I-175000J0D01*
G01*
X114818379Y-85797950D01*
G75*
G02*
X114643379Y-85622950I0J175000D01*
G01*
X114643379Y-83922950D01*
G75*
G02*
X114818379Y-83747950I175000J0D01*
G01*
G37*
G36*
G01*
X116088379Y-83747950D02*
X116438379Y-83747950D01*
G75*
G02*
X116613379Y-83922950I0J-175000D01*
G01*
X116613379Y-85622950D01*
G75*
G02*
X116438379Y-85797950I-175000J0D01*
G01*
X116088379Y-85797950D01*
G75*
G02*
X115913379Y-85622950I0J175000D01*
G01*
X115913379Y-83922950D01*
G75*
G02*
X116088379Y-83747950I175000J0D01*
G01*
G37*
G36*
G01*
X117358379Y-83747950D02*
X117708379Y-83747950D01*
G75*
G02*
X117883379Y-83922950I0J-175000D01*
G01*
X117883379Y-85622950D01*
G75*
G02*
X117708379Y-85797950I-175000J0D01*
G01*
X117358379Y-85797950D01*
G75*
G02*
X117183379Y-85622950I0J175000D01*
G01*
X117183379Y-83922950D01*
G75*
G02*
X117358379Y-83747950I175000J0D01*
G01*
G37*
G36*
G01*
X118628379Y-83747950D02*
X118978379Y-83747950D01*
G75*
G02*
X119153379Y-83922950I0J-175000D01*
G01*
X119153379Y-85622950D01*
G75*
G02*
X118978379Y-85797950I-175000J0D01*
G01*
X118628379Y-85797950D01*
G75*
G02*
X118453379Y-85622950I0J175000D01*
G01*
X118453379Y-83922950D01*
G75*
G02*
X118628379Y-83747950I175000J0D01*
G01*
G37*
G36*
G01*
X118628379Y-78797950D02*
X118978379Y-78797950D01*
G75*
G02*
X119153379Y-78972950I0J-175000D01*
G01*
X119153379Y-80672950D01*
G75*
G02*
X118978379Y-80847950I-175000J0D01*
G01*
X118628379Y-80847950D01*
G75*
G02*
X118453379Y-80672950I0J175000D01*
G01*
X118453379Y-78972950D01*
G75*
G02*
X118628379Y-78797950I175000J0D01*
G01*
G37*
G36*
G01*
X117358379Y-78797950D02*
X117708379Y-78797950D01*
G75*
G02*
X117883379Y-78972950I0J-175000D01*
G01*
X117883379Y-80672950D01*
G75*
G02*
X117708379Y-80847950I-175000J0D01*
G01*
X117358379Y-80847950D01*
G75*
G02*
X117183379Y-80672950I0J175000D01*
G01*
X117183379Y-78972950D01*
G75*
G02*
X117358379Y-78797950I175000J0D01*
G01*
G37*
G36*
G01*
X116088379Y-78797950D02*
X116438379Y-78797950D01*
G75*
G02*
X116613379Y-78972950I0J-175000D01*
G01*
X116613379Y-80672950D01*
G75*
G02*
X116438379Y-80847950I-175000J0D01*
G01*
X116088379Y-80847950D01*
G75*
G02*
X115913379Y-80672950I0J175000D01*
G01*
X115913379Y-78972950D01*
G75*
G02*
X116088379Y-78797950I175000J0D01*
G01*
G37*
G36*
G01*
X114818379Y-78797950D02*
X115168379Y-78797950D01*
G75*
G02*
X115343379Y-78972950I0J-175000D01*
G01*
X115343379Y-80672950D01*
G75*
G02*
X115168379Y-80847950I-175000J0D01*
G01*
X114818379Y-80847950D01*
G75*
G02*
X114643379Y-80672950I0J175000D01*
G01*
X114643379Y-78972950D01*
G75*
G02*
X114818379Y-78797950I175000J0D01*
G01*
G37*
%TD*%
D13*
%TO.C,J5*%
X111993379Y-77352950D03*
X111993379Y-106512950D03*
X130293379Y-106512950D03*
X130293379Y-77352950D03*
D14*
X111993379Y-79842950D03*
X130293379Y-79842950D03*
D15*
X111993379Y-85932950D03*
X130293379Y-85932950D03*
X111993379Y-91932950D03*
X130293379Y-91932950D03*
X111993379Y-97932950D03*
X130293379Y-97932950D03*
D14*
X111993379Y-104022950D03*
X130293379Y-104022950D03*
D16*
X114768379Y-77352950D03*
X114768379Y-106512950D03*
D17*
X121143379Y-77352950D03*
X121143379Y-106512950D03*
D16*
X127518379Y-77352950D03*
X127518379Y-106512950D03*
%TD*%
%TO.C,R7*%
G36*
G01*
X120974629Y-83060450D02*
X120012129Y-83060450D01*
G75*
G02*
X119743379Y-82791700I0J268750D01*
G01*
X119743379Y-82254200D01*
G75*
G02*
X120012129Y-81985450I268750J0D01*
G01*
X120974629Y-81985450D01*
G75*
G02*
X121243379Y-82254200I0J-268750D01*
G01*
X121243379Y-82791700D01*
G75*
G02*
X120974629Y-83060450I-268750J0D01*
G01*
G37*
G36*
G01*
X120974629Y-84935450D02*
X120012129Y-84935450D01*
G75*
G02*
X119743379Y-84666700I0J268750D01*
G01*
X119743379Y-84129200D01*
G75*
G02*
X120012129Y-83860450I268750J0D01*
G01*
X120974629Y-83860450D01*
G75*
G02*
X121243379Y-84129200I0J-268750D01*
G01*
X121243379Y-84666700D01*
G75*
G02*
X120974629Y-84935450I-268750J0D01*
G01*
G37*
%TD*%
%TO.C,R15*%
G36*
G01*
X119587500Y-75731250D02*
X119587500Y-74768750D01*
G75*
G02*
X119856250Y-74500000I268750J0D01*
G01*
X120393750Y-74500000D01*
G75*
G02*
X120662500Y-74768750I0J-268750D01*
G01*
X120662500Y-75731250D01*
G75*
G02*
X120393750Y-76000000I-268750J0D01*
G01*
X119856250Y-76000000D01*
G75*
G02*
X119587500Y-75731250I0J268750D01*
G01*
G37*
G36*
G01*
X117712500Y-75731250D02*
X117712500Y-74768750D01*
G75*
G02*
X117981250Y-74500000I268750J0D01*
G01*
X118518750Y-74500000D01*
G75*
G02*
X118787500Y-74768750I0J-268750D01*
G01*
X118787500Y-75731250D01*
G75*
G02*
X118518750Y-76000000I-268750J0D01*
G01*
X117981250Y-76000000D01*
G75*
G02*
X117712500Y-75731250I0J268750D01*
G01*
G37*
%TD*%
D18*
%TO.C,J3*%
X108000000Y-102540000D03*
X108000000Y-100000000D03*
D19*
X102920000Y-94920000D03*
X102920000Y-105080000D03*
%TD*%
%TO.C,U4*%
G36*
G01*
X114758379Y-94497950D02*
X115108379Y-94497950D01*
G75*
G02*
X115283379Y-94672950I0J-175000D01*
G01*
X115283379Y-96372950D01*
G75*
G02*
X115108379Y-96547950I-175000J0D01*
G01*
X114758379Y-96547950D01*
G75*
G02*
X114583379Y-96372950I0J175000D01*
G01*
X114583379Y-94672950D01*
G75*
G02*
X114758379Y-94497950I175000J0D01*
G01*
G37*
G36*
G01*
X116028379Y-94497950D02*
X116378379Y-94497950D01*
G75*
G02*
X116553379Y-94672950I0J-175000D01*
G01*
X116553379Y-96372950D01*
G75*
G02*
X116378379Y-96547950I-175000J0D01*
G01*
X116028379Y-96547950D01*
G75*
G02*
X115853379Y-96372950I0J175000D01*
G01*
X115853379Y-94672950D01*
G75*
G02*
X116028379Y-94497950I175000J0D01*
G01*
G37*
G36*
G01*
X117298379Y-94497950D02*
X117648379Y-94497950D01*
G75*
G02*
X117823379Y-94672950I0J-175000D01*
G01*
X117823379Y-96372950D01*
G75*
G02*
X117648379Y-96547950I-175000J0D01*
G01*
X117298379Y-96547950D01*
G75*
G02*
X117123379Y-96372950I0J175000D01*
G01*
X117123379Y-94672950D01*
G75*
G02*
X117298379Y-94497950I175000J0D01*
G01*
G37*
G36*
G01*
X118568379Y-94497950D02*
X118918379Y-94497950D01*
G75*
G02*
X119093379Y-94672950I0J-175000D01*
G01*
X119093379Y-96372950D01*
G75*
G02*
X118918379Y-96547950I-175000J0D01*
G01*
X118568379Y-96547950D01*
G75*
G02*
X118393379Y-96372950I0J175000D01*
G01*
X118393379Y-94672950D01*
G75*
G02*
X118568379Y-94497950I175000J0D01*
G01*
G37*
G36*
G01*
X118568379Y-89547950D02*
X118918379Y-89547950D01*
G75*
G02*
X119093379Y-89722950I0J-175000D01*
G01*
X119093379Y-91422950D01*
G75*
G02*
X118918379Y-91597950I-175000J0D01*
G01*
X118568379Y-91597950D01*
G75*
G02*
X118393379Y-91422950I0J175000D01*
G01*
X118393379Y-89722950D01*
G75*
G02*
X118568379Y-89547950I175000J0D01*
G01*
G37*
G36*
G01*
X117298379Y-89547950D02*
X117648379Y-89547950D01*
G75*
G02*
X117823379Y-89722950I0J-175000D01*
G01*
X117823379Y-91422950D01*
G75*
G02*
X117648379Y-91597950I-175000J0D01*
G01*
X117298379Y-91597950D01*
G75*
G02*
X117123379Y-91422950I0J175000D01*
G01*
X117123379Y-89722950D01*
G75*
G02*
X117298379Y-89547950I175000J0D01*
G01*
G37*
G36*
G01*
X116028379Y-89547950D02*
X116378379Y-89547950D01*
G75*
G02*
X116553379Y-89722950I0J-175000D01*
G01*
X116553379Y-91422950D01*
G75*
G02*
X116378379Y-91597950I-175000J0D01*
G01*
X116028379Y-91597950D01*
G75*
G02*
X115853379Y-91422950I0J175000D01*
G01*
X115853379Y-89722950D01*
G75*
G02*
X116028379Y-89547950I175000J0D01*
G01*
G37*
G36*
G01*
X114758379Y-89547950D02*
X115108379Y-89547950D01*
G75*
G02*
X115283379Y-89722950I0J-175000D01*
G01*
X115283379Y-91422950D01*
G75*
G02*
X115108379Y-91597950I-175000J0D01*
G01*
X114758379Y-91597950D01*
G75*
G02*
X114583379Y-91422950I0J175000D01*
G01*
X114583379Y-89722950D01*
G75*
G02*
X114758379Y-89547950I175000J0D01*
G01*
G37*
%TD*%
D18*
%TO.C,J4*%
X182000000Y-97460000D03*
X182000000Y-100000000D03*
D19*
X187080000Y-105080000D03*
X187080000Y-94920000D03*
%TD*%
D20*
X97000000Y-137500000D03*
D21*
X116493379Y-77272950D03*
X119743379Y-77272950D03*
X122493379Y-77272950D03*
X125743379Y-77272950D03*
X130243379Y-77522950D03*
X130243379Y-81272950D03*
X130243379Y-84522950D03*
X130243379Y-87272950D03*
X130243379Y-90522950D03*
X130243379Y-93272950D03*
X130243379Y-96522950D03*
X130243379Y-99272950D03*
X130243379Y-102522950D03*
X129993379Y-106522950D03*
X125993379Y-106522950D03*
X122493379Y-106522950D03*
X119993379Y-106522950D03*
X116493379Y-106522950D03*
X111993379Y-106522950D03*
X111993379Y-103022950D03*
X111993379Y-99022950D03*
X111993379Y-96522950D03*
X111993379Y-93022950D03*
X111993379Y-90522950D03*
X111993379Y-87022950D03*
X111993379Y-84522950D03*
X111993379Y-81022950D03*
X111993379Y-77522950D03*
X119743379Y-80272950D03*
X121768389Y-80272950D03*
X116743379Y-89022950D03*
X123743379Y-87022950D03*
X125493379Y-89522950D03*
X119741640Y-91710722D03*
X118993379Y-99772950D03*
D20*
X97000000Y-62500000D03*
X98000000Y-62500000D03*
X99000000Y-62500000D03*
X100000000Y-62500000D03*
X101000000Y-62500000D03*
X102000000Y-62500000D03*
X103000000Y-62500000D03*
X104000000Y-62500000D03*
X105000000Y-62500000D03*
X106000000Y-62500000D03*
X107000000Y-62500000D03*
X108000000Y-62500000D03*
X109000000Y-62500000D03*
X110000000Y-62500000D03*
X111000000Y-62500000D03*
X112000000Y-62500000D03*
X113000000Y-62500000D03*
X114000000Y-62500000D03*
X115000000Y-62500000D03*
X116000000Y-62500000D03*
X117000000Y-62500000D03*
X118000000Y-62500000D03*
X119000000Y-62500000D03*
X120000000Y-62500000D03*
X121000000Y-62500000D03*
X122000000Y-62500000D03*
X123000000Y-62500000D03*
X124000000Y-62500000D03*
X125000000Y-62500000D03*
X126000000Y-62500000D03*
X127000000Y-62500000D03*
X128000000Y-62500000D03*
X129000000Y-62500000D03*
X130000000Y-62500000D03*
X131000000Y-62500000D03*
X132000000Y-62500000D03*
X133000000Y-62500000D03*
X134000000Y-62500000D03*
X135000000Y-62500000D03*
X136000000Y-62500000D03*
X137000000Y-62500000D03*
X138000000Y-62500000D03*
X139000000Y-62500000D03*
X140000000Y-62500000D03*
X141000000Y-62500000D03*
X142000000Y-62500000D03*
X143000000Y-62500000D03*
X144000000Y-62500000D03*
X145000000Y-62500000D03*
X146000000Y-62500000D03*
X147000000Y-62500000D03*
X148000000Y-62500000D03*
X149000000Y-62500000D03*
X150000000Y-62500000D03*
X151000000Y-62500000D03*
X152000000Y-62500000D03*
X153000000Y-62500000D03*
X154000000Y-62500000D03*
X155000000Y-62500000D03*
X156000000Y-62500000D03*
X157000000Y-62500000D03*
X158000000Y-62500000D03*
X159000000Y-62500000D03*
X160000000Y-62500000D03*
X161000000Y-62500000D03*
X162000000Y-62500000D03*
X163000000Y-62500000D03*
X164000000Y-62500000D03*
X165000000Y-62500000D03*
X166000000Y-62500000D03*
X167000000Y-62500000D03*
X168000000Y-62500000D03*
X169000000Y-62500000D03*
X170000000Y-62500000D03*
X171000000Y-62500000D03*
X172000000Y-62500000D03*
X173000000Y-62500000D03*
X174000000Y-62500000D03*
X175000000Y-62500000D03*
X176000000Y-62500000D03*
X177000000Y-62500000D03*
X178000000Y-62500000D03*
X179000000Y-62500000D03*
X180000000Y-62500000D03*
X181000000Y-62500000D03*
X182000000Y-62500000D03*
X183000000Y-62500000D03*
X184000000Y-62500000D03*
X185000000Y-62500000D03*
X186000000Y-62500000D03*
X187000000Y-62500000D03*
X188000000Y-62500000D03*
X189000000Y-62500000D03*
X190000000Y-62500000D03*
X191000000Y-62500000D03*
X192000000Y-62500000D03*
X193000000Y-62500000D03*
X98000000Y-137500000D03*
X99000000Y-137500000D03*
X100000000Y-137500000D03*
X101000000Y-137500000D03*
X102000000Y-137500000D03*
X103000000Y-137500000D03*
X104000000Y-137500000D03*
X105000000Y-137500000D03*
X106000000Y-137500000D03*
X107000000Y-137500000D03*
X108000000Y-137500000D03*
X109000000Y-137500000D03*
X110000000Y-137500000D03*
X111000000Y-137500000D03*
X112000000Y-137500000D03*
X113000000Y-137500000D03*
X114000000Y-137500000D03*
X115000000Y-137500000D03*
X116000000Y-137500000D03*
X117000000Y-137500000D03*
X118000000Y-137500000D03*
X119000000Y-137500000D03*
X120000000Y-137500000D03*
X121000000Y-137500000D03*
X122000000Y-137500000D03*
X123000000Y-137500000D03*
X124000000Y-137500000D03*
X125000000Y-137500000D03*
X126000000Y-137500000D03*
X127000000Y-137500000D03*
X128000000Y-137500000D03*
X129000000Y-137500000D03*
X130000000Y-137500000D03*
X131000000Y-137500000D03*
X132000000Y-137500000D03*
X133000000Y-137500000D03*
X134000000Y-137500000D03*
X135000000Y-137500000D03*
X136000000Y-137500000D03*
X137000000Y-137500000D03*
X138000000Y-137500000D03*
X139000000Y-137500000D03*
X140000000Y-137500000D03*
X141000000Y-137500000D03*
X142000000Y-137500000D03*
X143000000Y-137500000D03*
X144000000Y-137500000D03*
X145000000Y-137500000D03*
X146000000Y-137500000D03*
X147000000Y-137500000D03*
X148000000Y-137500000D03*
X149000000Y-137500000D03*
X150000000Y-137500000D03*
X151000000Y-137500000D03*
X152000000Y-137500000D03*
X153000000Y-137500000D03*
X154000000Y-137500000D03*
X155000000Y-137500000D03*
X156000000Y-137500000D03*
X157000000Y-137500000D03*
X158000000Y-137500000D03*
X159000000Y-137500000D03*
X160000000Y-137500000D03*
X161000000Y-137500000D03*
X162000000Y-137500000D03*
X163000000Y-137500000D03*
X164000000Y-137500000D03*
X165000000Y-137500000D03*
X166000000Y-137500000D03*
X167000000Y-137500000D03*
X168000000Y-137500000D03*
X169000000Y-137500000D03*
X170000000Y-137500000D03*
X171000000Y-137500000D03*
X172000000Y-137500000D03*
X173000000Y-137500000D03*
X174000000Y-137500000D03*
X175000000Y-137500000D03*
X176000000Y-137500000D03*
X177000000Y-137500000D03*
X178000000Y-137500000D03*
X179000000Y-137500000D03*
X180000000Y-137500000D03*
X181000000Y-137500000D03*
X182000000Y-137500000D03*
X183000000Y-137500000D03*
X184000000Y-137500000D03*
X185000000Y-137500000D03*
X186000000Y-137500000D03*
X187000000Y-137500000D03*
X188000000Y-137500000D03*
X189000000Y-137500000D03*
X190000000Y-137500000D03*
X191000000Y-137500000D03*
X192000000Y-137500000D03*
X193000000Y-137500000D03*
D21*
X128743379Y-94272950D03*
X116263379Y-86042950D03*
X124968380Y-86297949D03*
X128037309Y-104223901D03*
X124070731Y-78292752D03*
X119493379Y-78522950D03*
X127743379Y-90522950D03*
X122993379Y-99022950D03*
X122493379Y-92022950D03*
X121243379Y-95772950D03*
X120493379Y-85772950D03*
X117393369Y-91850636D03*
X113493379Y-84522950D03*
X114493379Y-81772950D03*
D22*
X155750000Y-72500000D03*
X105750000Y-72500000D03*
D21*
X124993379Y-79022950D03*
X122243379Y-87772950D03*
X113657462Y-91125640D03*
X114243379Y-94022950D03*
X119743379Y-88522950D03*
M02*
