%TF.GenerationSoftware,KiCad,Pcbnew,(5.1.6)-1*%
%TF.CreationDate,2020-08-21T15:32:42+02:00*%
%TF.ProjectId,mu_lna,6d755f6c-6e61-42e6-9b69-6361645f7063,rev?*%
%TF.SameCoordinates,Original*%
%TF.FileFunction,Paste,Bot*%
%TF.FilePolarity,Positive*%
%FSLAX46Y46*%
G04 Gerber Fmt 4.6, Leading zero omitted, Abs format (unit mm)*
G04 Created by KiCad (PCBNEW (5.1.6)-1) date 2020-08-21 15:32:42*
%MOMM*%
%LPD*%
G01*
G04 APERTURE LIST*
%ADD10R,1.000000X1.000000*%
%ADD11R,1.000000X3.980000*%
%ADD12R,1.000000X3.800000*%
%ADD13R,4.550000X1.000000*%
%ADD14R,3.800000X1.000000*%
G04 APERTURE END LIST*
%TO.C,C25*%
G36*
G01*
X124143379Y-99516700D02*
X124143379Y-100029200D01*
G75*
G02*
X123924629Y-100247950I-218750J0D01*
G01*
X123487129Y-100247950D01*
G75*
G02*
X123268379Y-100029200I0J218750D01*
G01*
X123268379Y-99516700D01*
G75*
G02*
X123487129Y-99297950I218750J0D01*
G01*
X123924629Y-99297950D01*
G75*
G02*
X124143379Y-99516700I0J-218750D01*
G01*
G37*
G36*
G01*
X125718379Y-99516700D02*
X125718379Y-100029200D01*
G75*
G02*
X125499629Y-100247950I-218750J0D01*
G01*
X125062129Y-100247950D01*
G75*
G02*
X124843379Y-100029200I0J218750D01*
G01*
X124843379Y-99516700D01*
G75*
G02*
X125062129Y-99297950I218750J0D01*
G01*
X125499629Y-99297950D01*
G75*
G02*
X125718379Y-99516700I0J-218750D01*
G01*
G37*
%TD*%
%TO.C,C24*%
G36*
G01*
X127643379Y-104766700D02*
X127643379Y-105279200D01*
G75*
G02*
X127424629Y-105497950I-218750J0D01*
G01*
X126987129Y-105497950D01*
G75*
G02*
X126768379Y-105279200I0J218750D01*
G01*
X126768379Y-104766700D01*
G75*
G02*
X126987129Y-104547950I218750J0D01*
G01*
X127424629Y-104547950D01*
G75*
G02*
X127643379Y-104766700I0J-218750D01*
G01*
G37*
G36*
G01*
X129218379Y-104766700D02*
X129218379Y-105279200D01*
G75*
G02*
X128999629Y-105497950I-218750J0D01*
G01*
X128562129Y-105497950D01*
G75*
G02*
X128343379Y-105279200I0J218750D01*
G01*
X128343379Y-104766700D01*
G75*
G02*
X128562129Y-104547950I218750J0D01*
G01*
X128999629Y-104547950D01*
G75*
G02*
X129218379Y-104766700I0J-218750D01*
G01*
G37*
%TD*%
%TO.C,C23*%
G36*
G01*
X122249629Y-93635450D02*
X121737129Y-93635450D01*
G75*
G02*
X121518379Y-93416700I0J218750D01*
G01*
X121518379Y-92979200D01*
G75*
G02*
X121737129Y-92760450I218750J0D01*
G01*
X122249629Y-92760450D01*
G75*
G02*
X122468379Y-92979200I0J-218750D01*
G01*
X122468379Y-93416700D01*
G75*
G02*
X122249629Y-93635450I-218750J0D01*
G01*
G37*
G36*
G01*
X122249629Y-95210450D02*
X121737129Y-95210450D01*
G75*
G02*
X121518379Y-94991700I0J218750D01*
G01*
X121518379Y-94554200D01*
G75*
G02*
X121737129Y-94335450I218750J0D01*
G01*
X122249629Y-94335450D01*
G75*
G02*
X122468379Y-94554200I0J-218750D01*
G01*
X122468379Y-94991700D01*
G75*
G02*
X122249629Y-95210450I-218750J0D01*
G01*
G37*
%TD*%
%TO.C,U2*%
G36*
G01*
X127430879Y-103372950D02*
X127430879Y-103172950D01*
G75*
G02*
X127530879Y-103072950I100000J0D01*
G01*
X128955879Y-103072950D01*
G75*
G02*
X129055879Y-103172950I0J-100000D01*
G01*
X129055879Y-103372950D01*
G75*
G02*
X128955879Y-103472950I-100000J0D01*
G01*
X127530879Y-103472950D01*
G75*
G02*
X127430879Y-103372950I0J100000D01*
G01*
G37*
G36*
G01*
X127430879Y-102722950D02*
X127430879Y-102522950D01*
G75*
G02*
X127530879Y-102422950I100000J0D01*
G01*
X128955879Y-102422950D01*
G75*
G02*
X129055879Y-102522950I0J-100000D01*
G01*
X129055879Y-102722950D01*
G75*
G02*
X128955879Y-102822950I-100000J0D01*
G01*
X127530879Y-102822950D01*
G75*
G02*
X127430879Y-102722950I0J100000D01*
G01*
G37*
G36*
G01*
X127430879Y-102072950D02*
X127430879Y-101872950D01*
G75*
G02*
X127530879Y-101772950I100000J0D01*
G01*
X128955879Y-101772950D01*
G75*
G02*
X129055879Y-101872950I0J-100000D01*
G01*
X129055879Y-102072950D01*
G75*
G02*
X128955879Y-102172950I-100000J0D01*
G01*
X127530879Y-102172950D01*
G75*
G02*
X127430879Y-102072950I0J100000D01*
G01*
G37*
G36*
G01*
X127430879Y-101422950D02*
X127430879Y-101222950D01*
G75*
G02*
X127530879Y-101122950I100000J0D01*
G01*
X128955879Y-101122950D01*
G75*
G02*
X129055879Y-101222950I0J-100000D01*
G01*
X129055879Y-101422950D01*
G75*
G02*
X128955879Y-101522950I-100000J0D01*
G01*
X127530879Y-101522950D01*
G75*
G02*
X127430879Y-101422950I0J100000D01*
G01*
G37*
G36*
G01*
X123205879Y-101422950D02*
X123205879Y-101222950D01*
G75*
G02*
X123305879Y-101122950I100000J0D01*
G01*
X124730879Y-101122950D01*
G75*
G02*
X124830879Y-101222950I0J-100000D01*
G01*
X124830879Y-101422950D01*
G75*
G02*
X124730879Y-101522950I-100000J0D01*
G01*
X123305879Y-101522950D01*
G75*
G02*
X123205879Y-101422950I0J100000D01*
G01*
G37*
G36*
G01*
X123205879Y-102072950D02*
X123205879Y-101872950D01*
G75*
G02*
X123305879Y-101772950I100000J0D01*
G01*
X124730879Y-101772950D01*
G75*
G02*
X124830879Y-101872950I0J-100000D01*
G01*
X124830879Y-102072950D01*
G75*
G02*
X124730879Y-102172950I-100000J0D01*
G01*
X123305879Y-102172950D01*
G75*
G02*
X123205879Y-102072950I0J100000D01*
G01*
G37*
G36*
G01*
X123205879Y-102722950D02*
X123205879Y-102522950D01*
G75*
G02*
X123305879Y-102422950I100000J0D01*
G01*
X124730879Y-102422950D01*
G75*
G02*
X124830879Y-102522950I0J-100000D01*
G01*
X124830879Y-102722950D01*
G75*
G02*
X124730879Y-102822950I-100000J0D01*
G01*
X123305879Y-102822950D01*
G75*
G02*
X123205879Y-102722950I0J100000D01*
G01*
G37*
G36*
G01*
X123205879Y-103372950D02*
X123205879Y-103172950D01*
G75*
G02*
X123305879Y-103072950I100000J0D01*
G01*
X124730879Y-103072950D01*
G75*
G02*
X124830879Y-103172950I0J-100000D01*
G01*
X124830879Y-103372950D01*
G75*
G02*
X124730879Y-103472950I-100000J0D01*
G01*
X123305879Y-103472950D01*
G75*
G02*
X123205879Y-103372950I0J100000D01*
G01*
G37*
%TD*%
%TO.C,C20*%
G36*
G01*
X175281621Y-95802050D02*
X175281621Y-93652050D01*
G75*
G02*
X175531621Y-93402050I250000J0D01*
G01*
X176281621Y-93402050D01*
G75*
G02*
X176531621Y-93652050I0J-250000D01*
G01*
X176531621Y-95802050D01*
G75*
G02*
X176281621Y-96052050I-250000J0D01*
G01*
X175531621Y-96052050D01*
G75*
G02*
X175281621Y-95802050I0J250000D01*
G01*
G37*
G36*
G01*
X172481621Y-95802050D02*
X172481621Y-93652050D01*
G75*
G02*
X172731621Y-93402050I250000J0D01*
G01*
X173481621Y-93402050D01*
G75*
G02*
X173731621Y-93652050I0J-250000D01*
G01*
X173731621Y-95802050D01*
G75*
G02*
X173481621Y-96052050I-250000J0D01*
G01*
X172731621Y-96052050D01*
G75*
G02*
X172481621Y-95802050I0J250000D01*
G01*
G37*
%TD*%
%TO.C,R18*%
G36*
G01*
X177743750Y-99100000D02*
X178256250Y-99100000D01*
G75*
G02*
X178475000Y-99318750I0J-218750D01*
G01*
X178475000Y-99756250D01*
G75*
G02*
X178256250Y-99975000I-218750J0D01*
G01*
X177743750Y-99975000D01*
G75*
G02*
X177525000Y-99756250I0J218750D01*
G01*
X177525000Y-99318750D01*
G75*
G02*
X177743750Y-99100000I218750J0D01*
G01*
G37*
G36*
G01*
X177743750Y-97525000D02*
X178256250Y-97525000D01*
G75*
G02*
X178475000Y-97743750I0J-218750D01*
G01*
X178475000Y-98181250D01*
G75*
G02*
X178256250Y-98400000I-218750J0D01*
G01*
X177743750Y-98400000D01*
G75*
G02*
X177525000Y-98181250I0J218750D01*
G01*
X177525000Y-97743750D01*
G75*
G02*
X177743750Y-97525000I218750J0D01*
G01*
G37*
%TD*%
%TO.C,R5*%
G36*
G01*
X124605879Y-104766700D02*
X124605879Y-105279200D01*
G75*
G02*
X124387129Y-105497950I-218750J0D01*
G01*
X123949629Y-105497950D01*
G75*
G02*
X123730879Y-105279200I0J218750D01*
G01*
X123730879Y-104766700D01*
G75*
G02*
X123949629Y-104547950I218750J0D01*
G01*
X124387129Y-104547950D01*
G75*
G02*
X124605879Y-104766700I0J-218750D01*
G01*
G37*
G36*
G01*
X126180879Y-104766700D02*
X126180879Y-105279200D01*
G75*
G02*
X125962129Y-105497950I-218750J0D01*
G01*
X125524629Y-105497950D01*
G75*
G02*
X125305879Y-105279200I0J218750D01*
G01*
X125305879Y-104766700D01*
G75*
G02*
X125524629Y-104547950I218750J0D01*
G01*
X125962129Y-104547950D01*
G75*
G02*
X126180879Y-104766700I0J-218750D01*
G01*
G37*
%TD*%
%TO.C,C22*%
G36*
G01*
X175281621Y-99302050D02*
X175281621Y-97152050D01*
G75*
G02*
X175531621Y-96902050I250000J0D01*
G01*
X176281621Y-96902050D01*
G75*
G02*
X176531621Y-97152050I0J-250000D01*
G01*
X176531621Y-99302050D01*
G75*
G02*
X176281621Y-99552050I-250000J0D01*
G01*
X175531621Y-99552050D01*
G75*
G02*
X175281621Y-99302050I0J250000D01*
G01*
G37*
G36*
G01*
X172481621Y-99302050D02*
X172481621Y-97152050D01*
G75*
G02*
X172731621Y-96902050I250000J0D01*
G01*
X173481621Y-96902050D01*
G75*
G02*
X173731621Y-97152050I0J-250000D01*
G01*
X173731621Y-99302050D01*
G75*
G02*
X173481621Y-99552050I-250000J0D01*
G01*
X172731621Y-99552050D01*
G75*
G02*
X172481621Y-99302050I0J250000D01*
G01*
G37*
%TD*%
%TO.C,C21*%
G36*
G01*
X175281621Y-102802050D02*
X175281621Y-100652050D01*
G75*
G02*
X175531621Y-100402050I250000J0D01*
G01*
X176281621Y-100402050D01*
G75*
G02*
X176531621Y-100652050I0J-250000D01*
G01*
X176531621Y-102802050D01*
G75*
G02*
X176281621Y-103052050I-250000J0D01*
G01*
X175531621Y-103052050D01*
G75*
G02*
X175281621Y-102802050I0J250000D01*
G01*
G37*
G36*
G01*
X172481621Y-102802050D02*
X172481621Y-100652050D01*
G75*
G02*
X172731621Y-100402050I250000J0D01*
G01*
X173481621Y-100402050D01*
G75*
G02*
X173731621Y-100652050I0J-250000D01*
G01*
X173731621Y-102802050D01*
G75*
G02*
X173481621Y-103052050I-250000J0D01*
G01*
X172731621Y-103052050D01*
G75*
G02*
X172481621Y-102802050I0J250000D01*
G01*
G37*
%TD*%
%TO.C,C18*%
G36*
G01*
X175281621Y-106302050D02*
X175281621Y-104152050D01*
G75*
G02*
X175531621Y-103902050I250000J0D01*
G01*
X176281621Y-103902050D01*
G75*
G02*
X176531621Y-104152050I0J-250000D01*
G01*
X176531621Y-106302050D01*
G75*
G02*
X176281621Y-106552050I-250000J0D01*
G01*
X175531621Y-106552050D01*
G75*
G02*
X175281621Y-106302050I0J250000D01*
G01*
G37*
G36*
G01*
X172481621Y-106302050D02*
X172481621Y-104152050D01*
G75*
G02*
X172731621Y-103902050I250000J0D01*
G01*
X173481621Y-103902050D01*
G75*
G02*
X173731621Y-104152050I0J-250000D01*
G01*
X173731621Y-106302050D01*
G75*
G02*
X173481621Y-106552050I-250000J0D01*
G01*
X172731621Y-106552050D01*
G75*
G02*
X172481621Y-106302050I0J250000D01*
G01*
G37*
%TD*%
%TO.C,C11*%
G36*
G01*
X127355879Y-99516700D02*
X127355879Y-100029200D01*
G75*
G02*
X127137129Y-100247950I-218750J0D01*
G01*
X126699629Y-100247950D01*
G75*
G02*
X126480879Y-100029200I0J218750D01*
G01*
X126480879Y-99516700D01*
G75*
G02*
X126699629Y-99297950I218750J0D01*
G01*
X127137129Y-99297950D01*
G75*
G02*
X127355879Y-99516700I0J-218750D01*
G01*
G37*
G36*
G01*
X128930879Y-99516700D02*
X128930879Y-100029200D01*
G75*
G02*
X128712129Y-100247950I-218750J0D01*
G01*
X128274629Y-100247950D01*
G75*
G02*
X128055879Y-100029200I0J218750D01*
G01*
X128055879Y-99516700D01*
G75*
G02*
X128274629Y-99297950I218750J0D01*
G01*
X128712129Y-99297950D01*
G75*
G02*
X128930879Y-99516700I0J-218750D01*
G01*
G37*
%TD*%
%TO.C,C8*%
G36*
G01*
X120499629Y-90635450D02*
X119987129Y-90635450D01*
G75*
G02*
X119768379Y-90416700I0J218750D01*
G01*
X119768379Y-89979200D01*
G75*
G02*
X119987129Y-89760450I218750J0D01*
G01*
X120499629Y-89760450D01*
G75*
G02*
X120718379Y-89979200I0J-218750D01*
G01*
X120718379Y-90416700D01*
G75*
G02*
X120499629Y-90635450I-218750J0D01*
G01*
G37*
G36*
G01*
X120499629Y-92210450D02*
X119987129Y-92210450D01*
G75*
G02*
X119768379Y-91991700I0J218750D01*
G01*
X119768379Y-91554200D01*
G75*
G02*
X119987129Y-91335450I218750J0D01*
G01*
X120499629Y-91335450D01*
G75*
G02*
X120718379Y-91554200I0J-218750D01*
G01*
X120718379Y-91991700D01*
G75*
G02*
X120499629Y-92210450I-218750J0D01*
G01*
G37*
%TD*%
%TO.C,C7*%
G36*
G01*
X129249629Y-79960450D02*
X128737129Y-79960450D01*
G75*
G02*
X128518379Y-79741700I0J218750D01*
G01*
X128518379Y-79304200D01*
G75*
G02*
X128737129Y-79085450I218750J0D01*
G01*
X129249629Y-79085450D01*
G75*
G02*
X129468379Y-79304200I0J-218750D01*
G01*
X129468379Y-79741700D01*
G75*
G02*
X129249629Y-79960450I-218750J0D01*
G01*
G37*
G36*
G01*
X129249629Y-81535450D02*
X128737129Y-81535450D01*
G75*
G02*
X128518379Y-81316700I0J218750D01*
G01*
X128518379Y-80879200D01*
G75*
G02*
X128737129Y-80660450I218750J0D01*
G01*
X129249629Y-80660450D01*
G75*
G02*
X129468379Y-80879200I0J-218750D01*
G01*
X129468379Y-81316700D01*
G75*
G02*
X129249629Y-81535450I-218750J0D01*
G01*
G37*
%TD*%
%TO.C,C6*%
G36*
G01*
X128999629Y-91385450D02*
X128487129Y-91385450D01*
G75*
G02*
X128268379Y-91166700I0J218750D01*
G01*
X128268379Y-90729200D01*
G75*
G02*
X128487129Y-90510450I218750J0D01*
G01*
X128999629Y-90510450D01*
G75*
G02*
X129218379Y-90729200I0J-218750D01*
G01*
X129218379Y-91166700D01*
G75*
G02*
X128999629Y-91385450I-218750J0D01*
G01*
G37*
G36*
G01*
X128999629Y-92960450D02*
X128487129Y-92960450D01*
G75*
G02*
X128268379Y-92741700I0J218750D01*
G01*
X128268379Y-92304200D01*
G75*
G02*
X128487129Y-92085450I218750J0D01*
G01*
X128999629Y-92085450D01*
G75*
G02*
X129218379Y-92304200I0J-218750D01*
G01*
X129218379Y-92741700D01*
G75*
G02*
X128999629Y-92960450I-218750J0D01*
G01*
G37*
%TD*%
%TO.C,C5*%
G36*
G01*
X120499629Y-79635450D02*
X119987129Y-79635450D01*
G75*
G02*
X119768379Y-79416700I0J218750D01*
G01*
X119768379Y-78979200D01*
G75*
G02*
X119987129Y-78760450I218750J0D01*
G01*
X120499629Y-78760450D01*
G75*
G02*
X120718379Y-78979200I0J-218750D01*
G01*
X120718379Y-79416700D01*
G75*
G02*
X120499629Y-79635450I-218750J0D01*
G01*
G37*
G36*
G01*
X120499629Y-81210450D02*
X119987129Y-81210450D01*
G75*
G02*
X119768379Y-80991700I0J218750D01*
G01*
X119768379Y-80554200D01*
G75*
G02*
X119987129Y-80335450I218750J0D01*
G01*
X120499629Y-80335450D01*
G75*
G02*
X120718379Y-80554200I0J-218750D01*
G01*
X120718379Y-80991700D01*
G75*
G02*
X120499629Y-81210450I-218750J0D01*
G01*
G37*
%TD*%
%TO.C,C4*%
G36*
G01*
X115987129Y-87910450D02*
X116499629Y-87910450D01*
G75*
G02*
X116718379Y-88129200I0J-218750D01*
G01*
X116718379Y-88566700D01*
G75*
G02*
X116499629Y-88785450I-218750J0D01*
G01*
X115987129Y-88785450D01*
G75*
G02*
X115768379Y-88566700I0J218750D01*
G01*
X115768379Y-88129200D01*
G75*
G02*
X115987129Y-87910450I218750J0D01*
G01*
G37*
G36*
G01*
X115987129Y-86335450D02*
X116499629Y-86335450D01*
G75*
G02*
X116718379Y-86554200I0J-218750D01*
G01*
X116718379Y-86991700D01*
G75*
G02*
X116499629Y-87210450I-218750J0D01*
G01*
X115987129Y-87210450D01*
G75*
G02*
X115768379Y-86991700I0J218750D01*
G01*
X115768379Y-86554200D01*
G75*
G02*
X115987129Y-86335450I218750J0D01*
G01*
G37*
%TD*%
%TO.C,C3*%
G36*
G01*
X113237129Y-97085450D02*
X113749629Y-97085450D01*
G75*
G02*
X113968379Y-97304200I0J-218750D01*
G01*
X113968379Y-97741700D01*
G75*
G02*
X113749629Y-97960450I-218750J0D01*
G01*
X113237129Y-97960450D01*
G75*
G02*
X113018379Y-97741700I0J218750D01*
G01*
X113018379Y-97304200D01*
G75*
G02*
X113237129Y-97085450I218750J0D01*
G01*
G37*
G36*
G01*
X113237129Y-95510450D02*
X113749629Y-95510450D01*
G75*
G02*
X113968379Y-95729200I0J-218750D01*
G01*
X113968379Y-96166700D01*
G75*
G02*
X113749629Y-96385450I-218750J0D01*
G01*
X113237129Y-96385450D01*
G75*
G02*
X113018379Y-96166700I0J218750D01*
G01*
X113018379Y-95729200D01*
G75*
G02*
X113237129Y-95510450I218750J0D01*
G01*
G37*
%TD*%
%TO.C,C2*%
G36*
G01*
X128487129Y-96660450D02*
X128999629Y-96660450D01*
G75*
G02*
X129218379Y-96879200I0J-218750D01*
G01*
X129218379Y-97316700D01*
G75*
G02*
X128999629Y-97535450I-218750J0D01*
G01*
X128487129Y-97535450D01*
G75*
G02*
X128268379Y-97316700I0J218750D01*
G01*
X128268379Y-96879200D01*
G75*
G02*
X128487129Y-96660450I218750J0D01*
G01*
G37*
G36*
G01*
X128487129Y-95085450D02*
X128999629Y-95085450D01*
G75*
G02*
X129218379Y-95304200I0J-218750D01*
G01*
X129218379Y-95741700D01*
G75*
G02*
X128999629Y-95960450I-218750J0D01*
G01*
X128487129Y-95960450D01*
G75*
G02*
X128268379Y-95741700I0J218750D01*
G01*
X128268379Y-95304200D01*
G75*
G02*
X128487129Y-95085450I218750J0D01*
G01*
G37*
%TD*%
%TO.C,C1*%
G36*
G01*
X124987129Y-88410450D02*
X125499629Y-88410450D01*
G75*
G02*
X125718379Y-88629200I0J-218750D01*
G01*
X125718379Y-89066700D01*
G75*
G02*
X125499629Y-89285450I-218750J0D01*
G01*
X124987129Y-89285450D01*
G75*
G02*
X124768379Y-89066700I0J218750D01*
G01*
X124768379Y-88629200D01*
G75*
G02*
X124987129Y-88410450I218750J0D01*
G01*
G37*
G36*
G01*
X124987129Y-86835450D02*
X125499629Y-86835450D01*
G75*
G02*
X125718379Y-87054200I0J-218750D01*
G01*
X125718379Y-87491700D01*
G75*
G02*
X125499629Y-87710450I-218750J0D01*
G01*
X124987129Y-87710450D01*
G75*
G02*
X124768379Y-87491700I0J218750D01*
G01*
X124768379Y-87054200D01*
G75*
G02*
X124987129Y-86835450I218750J0D01*
G01*
G37*
%TD*%
%TO.C,R12*%
G36*
G01*
X122305879Y-105029200D02*
X122305879Y-104516700D01*
G75*
G02*
X122524629Y-104297950I218750J0D01*
G01*
X122962129Y-104297950D01*
G75*
G02*
X123180879Y-104516700I0J-218750D01*
G01*
X123180879Y-105029200D01*
G75*
G02*
X122962129Y-105247950I-218750J0D01*
G01*
X122524629Y-105247950D01*
G75*
G02*
X122305879Y-105029200I0J218750D01*
G01*
G37*
G36*
G01*
X120730879Y-105029200D02*
X120730879Y-104516700D01*
G75*
G02*
X120949629Y-104297950I218750J0D01*
G01*
X121387129Y-104297950D01*
G75*
G02*
X121605879Y-104516700I0J-218750D01*
G01*
X121605879Y-105029200D01*
G75*
G02*
X121387129Y-105247950I-218750J0D01*
G01*
X120949629Y-105247950D01*
G75*
G02*
X120730879Y-105029200I0J218750D01*
G01*
G37*
%TD*%
%TO.C,R10*%
G36*
G01*
X121749629Y-100422950D02*
X121237129Y-100422950D01*
G75*
G02*
X121018379Y-100204200I0J218750D01*
G01*
X121018379Y-99766700D01*
G75*
G02*
X121237129Y-99547950I218750J0D01*
G01*
X121749629Y-99547950D01*
G75*
G02*
X121968379Y-99766700I0J-218750D01*
G01*
X121968379Y-100204200D01*
G75*
G02*
X121749629Y-100422950I-218750J0D01*
G01*
G37*
G36*
G01*
X121749629Y-101997950D02*
X121237129Y-101997950D01*
G75*
G02*
X121018379Y-101779200I0J218750D01*
G01*
X121018379Y-101341700D01*
G75*
G02*
X121237129Y-101122950I218750J0D01*
G01*
X121749629Y-101122950D01*
G75*
G02*
X121968379Y-101341700I0J-218750D01*
G01*
X121968379Y-101779200D01*
G75*
G02*
X121749629Y-101997950I-218750J0D01*
G01*
G37*
%TD*%
%TO.C,R9*%
G36*
G01*
X121749629Y-97172950D02*
X121237129Y-97172950D01*
G75*
G02*
X121018379Y-96954200I0J218750D01*
G01*
X121018379Y-96516700D01*
G75*
G02*
X121237129Y-96297950I218750J0D01*
G01*
X121749629Y-96297950D01*
G75*
G02*
X121968379Y-96516700I0J-218750D01*
G01*
X121968379Y-96954200D01*
G75*
G02*
X121749629Y-97172950I-218750J0D01*
G01*
G37*
G36*
G01*
X121749629Y-98747950D02*
X121237129Y-98747950D01*
G75*
G02*
X121018379Y-98529200I0J218750D01*
G01*
X121018379Y-98091700D01*
G75*
G02*
X121237129Y-97872950I218750J0D01*
G01*
X121749629Y-97872950D01*
G75*
G02*
X121968379Y-98091700I0J-218750D01*
G01*
X121968379Y-98529200D01*
G75*
G02*
X121749629Y-98747950I-218750J0D01*
G01*
G37*
%TD*%
%TO.C,R4*%
G36*
G01*
X118249629Y-99210450D02*
X117737129Y-99210450D01*
G75*
G02*
X117518379Y-98991700I0J218750D01*
G01*
X117518379Y-98554200D01*
G75*
G02*
X117737129Y-98335450I218750J0D01*
G01*
X118249629Y-98335450D01*
G75*
G02*
X118468379Y-98554200I0J-218750D01*
G01*
X118468379Y-98991700D01*
G75*
G02*
X118249629Y-99210450I-218750J0D01*
G01*
G37*
G36*
G01*
X118249629Y-100785450D02*
X117737129Y-100785450D01*
G75*
G02*
X117518379Y-100566700I0J218750D01*
G01*
X117518379Y-100129200D01*
G75*
G02*
X117737129Y-99910450I218750J0D01*
G01*
X118249629Y-99910450D01*
G75*
G02*
X118468379Y-100129200I0J-218750D01*
G01*
X118468379Y-100566700D01*
G75*
G02*
X118249629Y-100785450I-218750J0D01*
G01*
G37*
%TD*%
%TO.C,C19*%
G36*
G01*
X113749629Y-93385450D02*
X113237129Y-93385450D01*
G75*
G02*
X113018379Y-93166700I0J218750D01*
G01*
X113018379Y-92729200D01*
G75*
G02*
X113237129Y-92510450I218750J0D01*
G01*
X113749629Y-92510450D01*
G75*
G02*
X113968379Y-92729200I0J-218750D01*
G01*
X113968379Y-93166700D01*
G75*
G02*
X113749629Y-93385450I-218750J0D01*
G01*
G37*
G36*
G01*
X113749629Y-94960450D02*
X113237129Y-94960450D01*
G75*
G02*
X113018379Y-94741700I0J218750D01*
G01*
X113018379Y-94304200D01*
G75*
G02*
X113237129Y-94085450I218750J0D01*
G01*
X113749629Y-94085450D01*
G75*
G02*
X113968379Y-94304200I0J-218750D01*
G01*
X113968379Y-94741700D01*
G75*
G02*
X113749629Y-94960450I-218750J0D01*
G01*
G37*
%TD*%
%TO.C,C15*%
G36*
G01*
X119093379Y-105279200D02*
X119093379Y-104766700D01*
G75*
G02*
X119312129Y-104547950I218750J0D01*
G01*
X119749629Y-104547950D01*
G75*
G02*
X119968379Y-104766700I0J-218750D01*
G01*
X119968379Y-105279200D01*
G75*
G02*
X119749629Y-105497950I-218750J0D01*
G01*
X119312129Y-105497950D01*
G75*
G02*
X119093379Y-105279200I0J218750D01*
G01*
G37*
G36*
G01*
X117518379Y-105279200D02*
X117518379Y-104766700D01*
G75*
G02*
X117737129Y-104547950I218750J0D01*
G01*
X118174629Y-104547950D01*
G75*
G02*
X118393379Y-104766700I0J-218750D01*
G01*
X118393379Y-105279200D01*
G75*
G02*
X118174629Y-105497950I-218750J0D01*
G01*
X117737129Y-105497950D01*
G75*
G02*
X117518379Y-105279200I0J218750D01*
G01*
G37*
%TD*%
%TO.C,C13*%
G36*
G01*
X119999629Y-99172950D02*
X119487129Y-99172950D01*
G75*
G02*
X119268379Y-98954200I0J218750D01*
G01*
X119268379Y-98516700D01*
G75*
G02*
X119487129Y-98297950I218750J0D01*
G01*
X119999629Y-98297950D01*
G75*
G02*
X120218379Y-98516700I0J-218750D01*
G01*
X120218379Y-98954200D01*
G75*
G02*
X119999629Y-99172950I-218750J0D01*
G01*
G37*
G36*
G01*
X119999629Y-100747950D02*
X119487129Y-100747950D01*
G75*
G02*
X119268379Y-100529200I0J218750D01*
G01*
X119268379Y-100091700D01*
G75*
G02*
X119487129Y-99872950I218750J0D01*
G01*
X119999629Y-99872950D01*
G75*
G02*
X120218379Y-100091700I0J-218750D01*
G01*
X120218379Y-100529200D01*
G75*
G02*
X119999629Y-100747950I-218750J0D01*
G01*
G37*
%TD*%
%TO.C,C14*%
G36*
G01*
X121987129Y-86372950D02*
X122499629Y-86372950D01*
G75*
G02*
X122718379Y-86591700I0J-218750D01*
G01*
X122718379Y-87029200D01*
G75*
G02*
X122499629Y-87247950I-218750J0D01*
G01*
X121987129Y-87247950D01*
G75*
G02*
X121768379Y-87029200I0J218750D01*
G01*
X121768379Y-86591700D01*
G75*
G02*
X121987129Y-86372950I218750J0D01*
G01*
G37*
G36*
G01*
X121987129Y-84797950D02*
X122499629Y-84797950D01*
G75*
G02*
X122718379Y-85016700I0J-218750D01*
G01*
X122718379Y-85454200D01*
G75*
G02*
X122499629Y-85672950I-218750J0D01*
G01*
X121987129Y-85672950D01*
G75*
G02*
X121768379Y-85454200I0J218750D01*
G01*
X121768379Y-85016700D01*
G75*
G02*
X121987129Y-84797950I218750J0D01*
G01*
G37*
%TD*%
%TO.C,C10*%
G36*
G01*
X119487129Y-103085450D02*
X119999629Y-103085450D01*
G75*
G02*
X120218379Y-103304200I0J-218750D01*
G01*
X120218379Y-103741700D01*
G75*
G02*
X119999629Y-103960450I-218750J0D01*
G01*
X119487129Y-103960450D01*
G75*
G02*
X119268379Y-103741700I0J218750D01*
G01*
X119268379Y-103304200D01*
G75*
G02*
X119487129Y-103085450I218750J0D01*
G01*
G37*
G36*
G01*
X119487129Y-101510450D02*
X119999629Y-101510450D01*
G75*
G02*
X120218379Y-101729200I0J-218750D01*
G01*
X120218379Y-102166700D01*
G75*
G02*
X119999629Y-102385450I-218750J0D01*
G01*
X119487129Y-102385450D01*
G75*
G02*
X119268379Y-102166700I0J218750D01*
G01*
X119268379Y-101729200D01*
G75*
G02*
X119487129Y-101510450I218750J0D01*
G01*
G37*
%TD*%
%TO.C,C9*%
G36*
G01*
X113749629Y-82210450D02*
X113237129Y-82210450D01*
G75*
G02*
X113018379Y-81991700I0J218750D01*
G01*
X113018379Y-81554200D01*
G75*
G02*
X113237129Y-81335450I218750J0D01*
G01*
X113749629Y-81335450D01*
G75*
G02*
X113968379Y-81554200I0J-218750D01*
G01*
X113968379Y-81991700D01*
G75*
G02*
X113749629Y-82210450I-218750J0D01*
G01*
G37*
G36*
G01*
X113749629Y-83785450D02*
X113237129Y-83785450D01*
G75*
G02*
X113018379Y-83566700I0J218750D01*
G01*
X113018379Y-83129200D01*
G75*
G02*
X113237129Y-82910450I218750J0D01*
G01*
X113749629Y-82910450D01*
G75*
G02*
X113968379Y-83129200I0J-218750D01*
G01*
X113968379Y-83566700D01*
G75*
G02*
X113749629Y-83785450I-218750J0D01*
G01*
G37*
%TD*%
%TO.C,R11*%
G36*
G01*
X118249629Y-102422950D02*
X117737129Y-102422950D01*
G75*
G02*
X117518379Y-102204200I0J218750D01*
G01*
X117518379Y-101766700D01*
G75*
G02*
X117737129Y-101547950I218750J0D01*
G01*
X118249629Y-101547950D01*
G75*
G02*
X118468379Y-101766700I0J-218750D01*
G01*
X118468379Y-102204200D01*
G75*
G02*
X118249629Y-102422950I-218750J0D01*
G01*
G37*
G36*
G01*
X118249629Y-103997950D02*
X117737129Y-103997950D01*
G75*
G02*
X117518379Y-103779200I0J218750D01*
G01*
X117518379Y-103341700D01*
G75*
G02*
X117737129Y-103122950I218750J0D01*
G01*
X118249629Y-103122950D01*
G75*
G02*
X118468379Y-103341700I0J-218750D01*
G01*
X118468379Y-103779200D01*
G75*
G02*
X118249629Y-103997950I-218750J0D01*
G01*
G37*
%TD*%
%TO.C,R22*%
G36*
G01*
X123487129Y-88410450D02*
X123999629Y-88410450D01*
G75*
G02*
X124218379Y-88629200I0J-218750D01*
G01*
X124218379Y-89066700D01*
G75*
G02*
X123999629Y-89285450I-218750J0D01*
G01*
X123487129Y-89285450D01*
G75*
G02*
X123268379Y-89066700I0J218750D01*
G01*
X123268379Y-88629200D01*
G75*
G02*
X123487129Y-88410450I218750J0D01*
G01*
G37*
G36*
G01*
X123487129Y-86835450D02*
X123999629Y-86835450D01*
G75*
G02*
X124218379Y-87054200I0J-218750D01*
G01*
X124218379Y-87491700D01*
G75*
G02*
X123999629Y-87710450I-218750J0D01*
G01*
X123487129Y-87710450D01*
G75*
G02*
X123268379Y-87491700I0J218750D01*
G01*
X123268379Y-87054200D01*
G75*
G02*
X123487129Y-86835450I218750J0D01*
G01*
G37*
%TD*%
%TO.C,R21*%
G36*
G01*
X120499629Y-93635450D02*
X119987129Y-93635450D01*
G75*
G02*
X119768379Y-93416700I0J218750D01*
G01*
X119768379Y-92979200D01*
G75*
G02*
X119987129Y-92760450I218750J0D01*
G01*
X120499629Y-92760450D01*
G75*
G02*
X120718379Y-92979200I0J-218750D01*
G01*
X120718379Y-93416700D01*
G75*
G02*
X120499629Y-93635450I-218750J0D01*
G01*
G37*
G36*
G01*
X120499629Y-95210450D02*
X119987129Y-95210450D01*
G75*
G02*
X119768379Y-94991700I0J218750D01*
G01*
X119768379Y-94554200D01*
G75*
G02*
X119987129Y-94335450I218750J0D01*
G01*
X120499629Y-94335450D01*
G75*
G02*
X120718379Y-94554200I0J-218750D01*
G01*
X120718379Y-94991700D01*
G75*
G02*
X120499629Y-95210450I-218750J0D01*
G01*
G37*
%TD*%
%TO.C,R20*%
G36*
G01*
X121487129Y-90160450D02*
X121999629Y-90160450D01*
G75*
G02*
X122218379Y-90379200I0J-218750D01*
G01*
X122218379Y-90816700D01*
G75*
G02*
X121999629Y-91035450I-218750J0D01*
G01*
X121487129Y-91035450D01*
G75*
G02*
X121268379Y-90816700I0J218750D01*
G01*
X121268379Y-90379200D01*
G75*
G02*
X121487129Y-90160450I218750J0D01*
G01*
G37*
G36*
G01*
X121487129Y-88585450D02*
X121999629Y-88585450D01*
G75*
G02*
X122218379Y-88804200I0J-218750D01*
G01*
X122218379Y-89241700D01*
G75*
G02*
X121999629Y-89460450I-218750J0D01*
G01*
X121487129Y-89460450D01*
G75*
G02*
X121268379Y-89241700I0J218750D01*
G01*
X121268379Y-88804200D01*
G75*
G02*
X121487129Y-88585450I218750J0D01*
G01*
G37*
%TD*%
%TO.C,R14*%
G36*
G01*
X122499629Y-79635450D02*
X121987129Y-79635450D01*
G75*
G02*
X121768379Y-79416700I0J218750D01*
G01*
X121768379Y-78979200D01*
G75*
G02*
X121987129Y-78760450I218750J0D01*
G01*
X122499629Y-78760450D01*
G75*
G02*
X122718379Y-78979200I0J-218750D01*
G01*
X122718379Y-79416700D01*
G75*
G02*
X122499629Y-79635450I-218750J0D01*
G01*
G37*
G36*
G01*
X122499629Y-81210450D02*
X121987129Y-81210450D01*
G75*
G02*
X121768379Y-80991700I0J218750D01*
G01*
X121768379Y-80554200D01*
G75*
G02*
X121987129Y-80335450I218750J0D01*
G01*
X122499629Y-80335450D01*
G75*
G02*
X122718379Y-80554200I0J-218750D01*
G01*
X122718379Y-80991700D01*
G75*
G02*
X122499629Y-81210450I-218750J0D01*
G01*
G37*
%TD*%
%TO.C,R8*%
G36*
G01*
X122499629Y-82710450D02*
X121987129Y-82710450D01*
G75*
G02*
X121768379Y-82491700I0J218750D01*
G01*
X121768379Y-82054200D01*
G75*
G02*
X121987129Y-81835450I218750J0D01*
G01*
X122499629Y-81835450D01*
G75*
G02*
X122718379Y-82054200I0J-218750D01*
G01*
X122718379Y-82491700D01*
G75*
G02*
X122499629Y-82710450I-218750J0D01*
G01*
G37*
G36*
G01*
X122499629Y-84285450D02*
X121987129Y-84285450D01*
G75*
G02*
X121768379Y-84066700I0J218750D01*
G01*
X121768379Y-83629200D01*
G75*
G02*
X121987129Y-83410450I218750J0D01*
G01*
X122499629Y-83410450D01*
G75*
G02*
X122718379Y-83629200I0J-218750D01*
G01*
X122718379Y-84066700D01*
G75*
G02*
X122499629Y-84285450I-218750J0D01*
G01*
G37*
%TD*%
%TO.C,R6*%
G36*
G01*
X126999629Y-87710450D02*
X126487129Y-87710450D01*
G75*
G02*
X126268379Y-87491700I0J218750D01*
G01*
X126268379Y-87054200D01*
G75*
G02*
X126487129Y-86835450I218750J0D01*
G01*
X126999629Y-86835450D01*
G75*
G02*
X127218379Y-87054200I0J-218750D01*
G01*
X127218379Y-87491700D01*
G75*
G02*
X126999629Y-87710450I-218750J0D01*
G01*
G37*
G36*
G01*
X126999629Y-89285450D02*
X126487129Y-89285450D01*
G75*
G02*
X126268379Y-89066700I0J218750D01*
G01*
X126268379Y-88629200D01*
G75*
G02*
X126487129Y-88410450I218750J0D01*
G01*
X126999629Y-88410450D01*
G75*
G02*
X127218379Y-88629200I0J-218750D01*
G01*
X127218379Y-89066700D01*
G75*
G02*
X126999629Y-89285450I-218750J0D01*
G01*
G37*
%TD*%
%TO.C,R3*%
G36*
G01*
X113749629Y-79210450D02*
X113237129Y-79210450D01*
G75*
G02*
X113018379Y-78991700I0J218750D01*
G01*
X113018379Y-78554200D01*
G75*
G02*
X113237129Y-78335450I218750J0D01*
G01*
X113749629Y-78335450D01*
G75*
G02*
X113968379Y-78554200I0J-218750D01*
G01*
X113968379Y-78991700D01*
G75*
G02*
X113749629Y-79210450I-218750J0D01*
G01*
G37*
G36*
G01*
X113749629Y-80785450D02*
X113237129Y-80785450D01*
G75*
G02*
X113018379Y-80566700I0J218750D01*
G01*
X113018379Y-80129200D01*
G75*
G02*
X113237129Y-79910450I218750J0D01*
G01*
X113749629Y-79910450D01*
G75*
G02*
X113968379Y-80129200I0J-218750D01*
G01*
X113968379Y-80566700D01*
G75*
G02*
X113749629Y-80785450I-218750J0D01*
G01*
G37*
%TD*%
%TO.C,R2*%
G36*
G01*
X113749629Y-85960450D02*
X113237129Y-85960450D01*
G75*
G02*
X113018379Y-85741700I0J218750D01*
G01*
X113018379Y-85304200D01*
G75*
G02*
X113237129Y-85085450I218750J0D01*
G01*
X113749629Y-85085450D01*
G75*
G02*
X113968379Y-85304200I0J-218750D01*
G01*
X113968379Y-85741700D01*
G75*
G02*
X113749629Y-85960450I-218750J0D01*
G01*
G37*
G36*
G01*
X113749629Y-87535450D02*
X113237129Y-87535450D01*
G75*
G02*
X113018379Y-87316700I0J218750D01*
G01*
X113018379Y-86879200D01*
G75*
G02*
X113237129Y-86660450I218750J0D01*
G01*
X113749629Y-86660450D01*
G75*
G02*
X113968379Y-86879200I0J-218750D01*
G01*
X113968379Y-87316700D01*
G75*
G02*
X113749629Y-87535450I-218750J0D01*
G01*
G37*
%TD*%
%TO.C,R1*%
G36*
G01*
X117999629Y-87210450D02*
X117487129Y-87210450D01*
G75*
G02*
X117268379Y-86991700I0J218750D01*
G01*
X117268379Y-86554200D01*
G75*
G02*
X117487129Y-86335450I218750J0D01*
G01*
X117999629Y-86335450D01*
G75*
G02*
X118218379Y-86554200I0J-218750D01*
G01*
X118218379Y-86991700D01*
G75*
G02*
X117999629Y-87210450I-218750J0D01*
G01*
G37*
G36*
G01*
X117999629Y-88785450D02*
X117487129Y-88785450D01*
G75*
G02*
X117268379Y-88566700I0J218750D01*
G01*
X117268379Y-88129200D01*
G75*
G02*
X117487129Y-87910450I218750J0D01*
G01*
X117999629Y-87910450D01*
G75*
G02*
X118218379Y-88129200I0J-218750D01*
G01*
X118218379Y-88566700D01*
G75*
G02*
X117999629Y-88785450I-218750J0D01*
G01*
G37*
%TD*%
%TO.C,R19*%
G36*
G01*
X114487129Y-87835450D02*
X114999629Y-87835450D01*
G75*
G02*
X115218379Y-88054200I0J-218750D01*
G01*
X115218379Y-88491700D01*
G75*
G02*
X114999629Y-88710450I-218750J0D01*
G01*
X114487129Y-88710450D01*
G75*
G02*
X114268379Y-88491700I0J218750D01*
G01*
X114268379Y-88054200D01*
G75*
G02*
X114487129Y-87835450I218750J0D01*
G01*
G37*
G36*
G01*
X114487129Y-86260450D02*
X114999629Y-86260450D01*
G75*
G02*
X115218379Y-86479200I0J-218750D01*
G01*
X115218379Y-86916700D01*
G75*
G02*
X114999629Y-87135450I-218750J0D01*
G01*
X114487129Y-87135450D01*
G75*
G02*
X114268379Y-86916700I0J218750D01*
G01*
X114268379Y-86479200D01*
G75*
G02*
X114487129Y-86260450I218750J0D01*
G01*
G37*
%TD*%
%TO.C,R17*%
G36*
G01*
X113749629Y-90385450D02*
X113237129Y-90385450D01*
G75*
G02*
X113018379Y-90166700I0J218750D01*
G01*
X113018379Y-89729200D01*
G75*
G02*
X113237129Y-89510450I218750J0D01*
G01*
X113749629Y-89510450D01*
G75*
G02*
X113968379Y-89729200I0J-218750D01*
G01*
X113968379Y-90166700D01*
G75*
G02*
X113749629Y-90385450I-218750J0D01*
G01*
G37*
G36*
G01*
X113749629Y-91960450D02*
X113237129Y-91960450D01*
G75*
G02*
X113018379Y-91741700I0J218750D01*
G01*
X113018379Y-91304200D01*
G75*
G02*
X113237129Y-91085450I218750J0D01*
G01*
X113749629Y-91085450D01*
G75*
G02*
X113968379Y-91304200I0J-218750D01*
G01*
X113968379Y-91741700D01*
G75*
G02*
X113749629Y-91960450I-218750J0D01*
G01*
G37*
%TD*%
%TO.C,R16*%
G36*
G01*
X118987129Y-87872950D02*
X119499629Y-87872950D01*
G75*
G02*
X119718379Y-88091700I0J-218750D01*
G01*
X119718379Y-88529200D01*
G75*
G02*
X119499629Y-88747950I-218750J0D01*
G01*
X118987129Y-88747950D01*
G75*
G02*
X118768379Y-88529200I0J218750D01*
G01*
X118768379Y-88091700D01*
G75*
G02*
X118987129Y-87872950I218750J0D01*
G01*
G37*
G36*
G01*
X118987129Y-86297950D02*
X119499629Y-86297950D01*
G75*
G02*
X119718379Y-86516700I0J-218750D01*
G01*
X119718379Y-86954200D01*
G75*
G02*
X119499629Y-87172950I-218750J0D01*
G01*
X118987129Y-87172950D01*
G75*
G02*
X118768379Y-86954200I0J218750D01*
G01*
X118768379Y-86516700D01*
G75*
G02*
X118987129Y-86297950I218750J0D01*
G01*
G37*
%TD*%
%TO.C,U5*%
G36*
G01*
X123303379Y-95547950D02*
X123603379Y-95547950D01*
G75*
G02*
X123753379Y-95697950I0J-150000D01*
G01*
X123753379Y-97347950D01*
G75*
G02*
X123603379Y-97497950I-150000J0D01*
G01*
X123303379Y-97497950D01*
G75*
G02*
X123153379Y-97347950I0J150000D01*
G01*
X123153379Y-95697950D01*
G75*
G02*
X123303379Y-95547950I150000J0D01*
G01*
G37*
G36*
G01*
X124573379Y-95547950D02*
X124873379Y-95547950D01*
G75*
G02*
X125023379Y-95697950I0J-150000D01*
G01*
X125023379Y-97347950D01*
G75*
G02*
X124873379Y-97497950I-150000J0D01*
G01*
X124573379Y-97497950D01*
G75*
G02*
X124423379Y-97347950I0J150000D01*
G01*
X124423379Y-95697950D01*
G75*
G02*
X124573379Y-95547950I150000J0D01*
G01*
G37*
G36*
G01*
X125843379Y-95547950D02*
X126143379Y-95547950D01*
G75*
G02*
X126293379Y-95697950I0J-150000D01*
G01*
X126293379Y-97347950D01*
G75*
G02*
X126143379Y-97497950I-150000J0D01*
G01*
X125843379Y-97497950D01*
G75*
G02*
X125693379Y-97347950I0J150000D01*
G01*
X125693379Y-95697950D01*
G75*
G02*
X125843379Y-95547950I150000J0D01*
G01*
G37*
G36*
G01*
X127113379Y-95547950D02*
X127413379Y-95547950D01*
G75*
G02*
X127563379Y-95697950I0J-150000D01*
G01*
X127563379Y-97347950D01*
G75*
G02*
X127413379Y-97497950I-150000J0D01*
G01*
X127113379Y-97497950D01*
G75*
G02*
X126963379Y-97347950I0J150000D01*
G01*
X126963379Y-95697950D01*
G75*
G02*
X127113379Y-95547950I150000J0D01*
G01*
G37*
G36*
G01*
X127113379Y-90597950D02*
X127413379Y-90597950D01*
G75*
G02*
X127563379Y-90747950I0J-150000D01*
G01*
X127563379Y-92397950D01*
G75*
G02*
X127413379Y-92547950I-150000J0D01*
G01*
X127113379Y-92547950D01*
G75*
G02*
X126963379Y-92397950I0J150000D01*
G01*
X126963379Y-90747950D01*
G75*
G02*
X127113379Y-90597950I150000J0D01*
G01*
G37*
G36*
G01*
X125843379Y-90597950D02*
X126143379Y-90597950D01*
G75*
G02*
X126293379Y-90747950I0J-150000D01*
G01*
X126293379Y-92397950D01*
G75*
G02*
X126143379Y-92547950I-150000J0D01*
G01*
X125843379Y-92547950D01*
G75*
G02*
X125693379Y-92397950I0J150000D01*
G01*
X125693379Y-90747950D01*
G75*
G02*
X125843379Y-90597950I150000J0D01*
G01*
G37*
G36*
G01*
X124573379Y-90597950D02*
X124873379Y-90597950D01*
G75*
G02*
X125023379Y-90747950I0J-150000D01*
G01*
X125023379Y-92397950D01*
G75*
G02*
X124873379Y-92547950I-150000J0D01*
G01*
X124573379Y-92547950D01*
G75*
G02*
X124423379Y-92397950I0J150000D01*
G01*
X124423379Y-90747950D01*
G75*
G02*
X124573379Y-90597950I150000J0D01*
G01*
G37*
G36*
G01*
X123303379Y-90597950D02*
X123603379Y-90597950D01*
G75*
G02*
X123753379Y-90747950I0J-150000D01*
G01*
X123753379Y-92397950D01*
G75*
G02*
X123603379Y-92547950I-150000J0D01*
G01*
X123303379Y-92547950D01*
G75*
G02*
X123153379Y-92397950I0J150000D01*
G01*
X123153379Y-90747950D01*
G75*
G02*
X123303379Y-90597950I150000J0D01*
G01*
G37*
%TD*%
%TO.C,U3*%
G36*
G01*
X123533379Y-84297950D02*
X123833379Y-84297950D01*
G75*
G02*
X123983379Y-84447950I0J-150000D01*
G01*
X123983379Y-86097950D01*
G75*
G02*
X123833379Y-86247950I-150000J0D01*
G01*
X123533379Y-86247950D01*
G75*
G02*
X123383379Y-86097950I0J150000D01*
G01*
X123383379Y-84447950D01*
G75*
G02*
X123533379Y-84297950I150000J0D01*
G01*
G37*
G36*
G01*
X124803379Y-84297950D02*
X125103379Y-84297950D01*
G75*
G02*
X125253379Y-84447950I0J-150000D01*
G01*
X125253379Y-86097950D01*
G75*
G02*
X125103379Y-86247950I-150000J0D01*
G01*
X124803379Y-86247950D01*
G75*
G02*
X124653379Y-86097950I0J150000D01*
G01*
X124653379Y-84447950D01*
G75*
G02*
X124803379Y-84297950I150000J0D01*
G01*
G37*
G36*
G01*
X126073379Y-84297950D02*
X126373379Y-84297950D01*
G75*
G02*
X126523379Y-84447950I0J-150000D01*
G01*
X126523379Y-86097950D01*
G75*
G02*
X126373379Y-86247950I-150000J0D01*
G01*
X126073379Y-86247950D01*
G75*
G02*
X125923379Y-86097950I0J150000D01*
G01*
X125923379Y-84447950D01*
G75*
G02*
X126073379Y-84297950I150000J0D01*
G01*
G37*
G36*
G01*
X127343379Y-84297950D02*
X127643379Y-84297950D01*
G75*
G02*
X127793379Y-84447950I0J-150000D01*
G01*
X127793379Y-86097950D01*
G75*
G02*
X127643379Y-86247950I-150000J0D01*
G01*
X127343379Y-86247950D01*
G75*
G02*
X127193379Y-86097950I0J150000D01*
G01*
X127193379Y-84447950D01*
G75*
G02*
X127343379Y-84297950I150000J0D01*
G01*
G37*
G36*
G01*
X127343379Y-79347950D02*
X127643379Y-79347950D01*
G75*
G02*
X127793379Y-79497950I0J-150000D01*
G01*
X127793379Y-81147950D01*
G75*
G02*
X127643379Y-81297950I-150000J0D01*
G01*
X127343379Y-81297950D01*
G75*
G02*
X127193379Y-81147950I0J150000D01*
G01*
X127193379Y-79497950D01*
G75*
G02*
X127343379Y-79347950I150000J0D01*
G01*
G37*
G36*
G01*
X126073379Y-79347950D02*
X126373379Y-79347950D01*
G75*
G02*
X126523379Y-79497950I0J-150000D01*
G01*
X126523379Y-81147950D01*
G75*
G02*
X126373379Y-81297950I-150000J0D01*
G01*
X126073379Y-81297950D01*
G75*
G02*
X125923379Y-81147950I0J150000D01*
G01*
X125923379Y-79497950D01*
G75*
G02*
X126073379Y-79347950I150000J0D01*
G01*
G37*
G36*
G01*
X124803379Y-79347950D02*
X125103379Y-79347950D01*
G75*
G02*
X125253379Y-79497950I0J-150000D01*
G01*
X125253379Y-81147950D01*
G75*
G02*
X125103379Y-81297950I-150000J0D01*
G01*
X124803379Y-81297950D01*
G75*
G02*
X124653379Y-81147950I0J150000D01*
G01*
X124653379Y-79497950D01*
G75*
G02*
X124803379Y-79347950I150000J0D01*
G01*
G37*
G36*
G01*
X123533379Y-79347950D02*
X123833379Y-79347950D01*
G75*
G02*
X123983379Y-79497950I0J-150000D01*
G01*
X123983379Y-81147950D01*
G75*
G02*
X123833379Y-81297950I-150000J0D01*
G01*
X123533379Y-81297950D01*
G75*
G02*
X123383379Y-81147950I0J150000D01*
G01*
X123383379Y-79497950D01*
G75*
G02*
X123533379Y-79347950I150000J0D01*
G01*
G37*
%TD*%
%TO.C,U1*%
G36*
G01*
X114843379Y-83797950D02*
X115143379Y-83797950D01*
G75*
G02*
X115293379Y-83947950I0J-150000D01*
G01*
X115293379Y-85597950D01*
G75*
G02*
X115143379Y-85747950I-150000J0D01*
G01*
X114843379Y-85747950D01*
G75*
G02*
X114693379Y-85597950I0J150000D01*
G01*
X114693379Y-83947950D01*
G75*
G02*
X114843379Y-83797950I150000J0D01*
G01*
G37*
G36*
G01*
X116113379Y-83797950D02*
X116413379Y-83797950D01*
G75*
G02*
X116563379Y-83947950I0J-150000D01*
G01*
X116563379Y-85597950D01*
G75*
G02*
X116413379Y-85747950I-150000J0D01*
G01*
X116113379Y-85747950D01*
G75*
G02*
X115963379Y-85597950I0J150000D01*
G01*
X115963379Y-83947950D01*
G75*
G02*
X116113379Y-83797950I150000J0D01*
G01*
G37*
G36*
G01*
X117383379Y-83797950D02*
X117683379Y-83797950D01*
G75*
G02*
X117833379Y-83947950I0J-150000D01*
G01*
X117833379Y-85597950D01*
G75*
G02*
X117683379Y-85747950I-150000J0D01*
G01*
X117383379Y-85747950D01*
G75*
G02*
X117233379Y-85597950I0J150000D01*
G01*
X117233379Y-83947950D01*
G75*
G02*
X117383379Y-83797950I150000J0D01*
G01*
G37*
G36*
G01*
X118653379Y-83797950D02*
X118953379Y-83797950D01*
G75*
G02*
X119103379Y-83947950I0J-150000D01*
G01*
X119103379Y-85597950D01*
G75*
G02*
X118953379Y-85747950I-150000J0D01*
G01*
X118653379Y-85747950D01*
G75*
G02*
X118503379Y-85597950I0J150000D01*
G01*
X118503379Y-83947950D01*
G75*
G02*
X118653379Y-83797950I150000J0D01*
G01*
G37*
G36*
G01*
X118653379Y-78847950D02*
X118953379Y-78847950D01*
G75*
G02*
X119103379Y-78997950I0J-150000D01*
G01*
X119103379Y-80647950D01*
G75*
G02*
X118953379Y-80797950I-150000J0D01*
G01*
X118653379Y-80797950D01*
G75*
G02*
X118503379Y-80647950I0J150000D01*
G01*
X118503379Y-78997950D01*
G75*
G02*
X118653379Y-78847950I150000J0D01*
G01*
G37*
G36*
G01*
X117383379Y-78847950D02*
X117683379Y-78847950D01*
G75*
G02*
X117833379Y-78997950I0J-150000D01*
G01*
X117833379Y-80647950D01*
G75*
G02*
X117683379Y-80797950I-150000J0D01*
G01*
X117383379Y-80797950D01*
G75*
G02*
X117233379Y-80647950I0J150000D01*
G01*
X117233379Y-78997950D01*
G75*
G02*
X117383379Y-78847950I150000J0D01*
G01*
G37*
G36*
G01*
X116113379Y-78847950D02*
X116413379Y-78847950D01*
G75*
G02*
X116563379Y-78997950I0J-150000D01*
G01*
X116563379Y-80647950D01*
G75*
G02*
X116413379Y-80797950I-150000J0D01*
G01*
X116113379Y-80797950D01*
G75*
G02*
X115963379Y-80647950I0J150000D01*
G01*
X115963379Y-78997950D01*
G75*
G02*
X116113379Y-78847950I150000J0D01*
G01*
G37*
G36*
G01*
X114843379Y-78847950D02*
X115143379Y-78847950D01*
G75*
G02*
X115293379Y-78997950I0J-150000D01*
G01*
X115293379Y-80647950D01*
G75*
G02*
X115143379Y-80797950I-150000J0D01*
G01*
X114843379Y-80797950D01*
G75*
G02*
X114693379Y-80647950I0J150000D01*
G01*
X114693379Y-78997950D01*
G75*
G02*
X114843379Y-78847950I150000J0D01*
G01*
G37*
%TD*%
D10*
%TO.C,J5*%
X111993379Y-77352950D03*
X111993379Y-106512950D03*
X130293379Y-106512950D03*
X130293379Y-77352950D03*
D11*
X111993379Y-79842950D03*
X130293379Y-79842950D03*
D12*
X111993379Y-85932950D03*
X130293379Y-85932950D03*
X111993379Y-91932950D03*
X130293379Y-91932950D03*
X111993379Y-97932950D03*
X130293379Y-97932950D03*
D11*
X111993379Y-104022950D03*
X130293379Y-104022950D03*
D13*
X114768379Y-77352950D03*
X114768379Y-106512950D03*
D14*
X121143379Y-77352950D03*
X121143379Y-106512950D03*
D13*
X127518379Y-77352950D03*
X127518379Y-106512950D03*
%TD*%
%TO.C,R7*%
G36*
G01*
X120949629Y-83010450D02*
X120037129Y-83010450D01*
G75*
G02*
X119793379Y-82766700I0J243750D01*
G01*
X119793379Y-82279200D01*
G75*
G02*
X120037129Y-82035450I243750J0D01*
G01*
X120949629Y-82035450D01*
G75*
G02*
X121193379Y-82279200I0J-243750D01*
G01*
X121193379Y-82766700D01*
G75*
G02*
X120949629Y-83010450I-243750J0D01*
G01*
G37*
G36*
G01*
X120949629Y-84885450D02*
X120037129Y-84885450D01*
G75*
G02*
X119793379Y-84641700I0J243750D01*
G01*
X119793379Y-84154200D01*
G75*
G02*
X120037129Y-83910450I243750J0D01*
G01*
X120949629Y-83910450D01*
G75*
G02*
X121193379Y-84154200I0J-243750D01*
G01*
X121193379Y-84641700D01*
G75*
G02*
X120949629Y-84885450I-243750J0D01*
G01*
G37*
%TD*%
%TO.C,R15*%
G36*
G01*
X119637500Y-75706250D02*
X119637500Y-74793750D01*
G75*
G02*
X119881250Y-74550000I243750J0D01*
G01*
X120368750Y-74550000D01*
G75*
G02*
X120612500Y-74793750I0J-243750D01*
G01*
X120612500Y-75706250D01*
G75*
G02*
X120368750Y-75950000I-243750J0D01*
G01*
X119881250Y-75950000D01*
G75*
G02*
X119637500Y-75706250I0J243750D01*
G01*
G37*
G36*
G01*
X117762500Y-75706250D02*
X117762500Y-74793750D01*
G75*
G02*
X118006250Y-74550000I243750J0D01*
G01*
X118493750Y-74550000D01*
G75*
G02*
X118737500Y-74793750I0J-243750D01*
G01*
X118737500Y-75706250D01*
G75*
G02*
X118493750Y-75950000I-243750J0D01*
G01*
X118006250Y-75950000D01*
G75*
G02*
X117762500Y-75706250I0J243750D01*
G01*
G37*
%TD*%
%TO.C,U4*%
G36*
G01*
X114783379Y-94547950D02*
X115083379Y-94547950D01*
G75*
G02*
X115233379Y-94697950I0J-150000D01*
G01*
X115233379Y-96347950D01*
G75*
G02*
X115083379Y-96497950I-150000J0D01*
G01*
X114783379Y-96497950D01*
G75*
G02*
X114633379Y-96347950I0J150000D01*
G01*
X114633379Y-94697950D01*
G75*
G02*
X114783379Y-94547950I150000J0D01*
G01*
G37*
G36*
G01*
X116053379Y-94547950D02*
X116353379Y-94547950D01*
G75*
G02*
X116503379Y-94697950I0J-150000D01*
G01*
X116503379Y-96347950D01*
G75*
G02*
X116353379Y-96497950I-150000J0D01*
G01*
X116053379Y-96497950D01*
G75*
G02*
X115903379Y-96347950I0J150000D01*
G01*
X115903379Y-94697950D01*
G75*
G02*
X116053379Y-94547950I150000J0D01*
G01*
G37*
G36*
G01*
X117323379Y-94547950D02*
X117623379Y-94547950D01*
G75*
G02*
X117773379Y-94697950I0J-150000D01*
G01*
X117773379Y-96347950D01*
G75*
G02*
X117623379Y-96497950I-150000J0D01*
G01*
X117323379Y-96497950D01*
G75*
G02*
X117173379Y-96347950I0J150000D01*
G01*
X117173379Y-94697950D01*
G75*
G02*
X117323379Y-94547950I150000J0D01*
G01*
G37*
G36*
G01*
X118593379Y-94547950D02*
X118893379Y-94547950D01*
G75*
G02*
X119043379Y-94697950I0J-150000D01*
G01*
X119043379Y-96347950D01*
G75*
G02*
X118893379Y-96497950I-150000J0D01*
G01*
X118593379Y-96497950D01*
G75*
G02*
X118443379Y-96347950I0J150000D01*
G01*
X118443379Y-94697950D01*
G75*
G02*
X118593379Y-94547950I150000J0D01*
G01*
G37*
G36*
G01*
X118593379Y-89597950D02*
X118893379Y-89597950D01*
G75*
G02*
X119043379Y-89747950I0J-150000D01*
G01*
X119043379Y-91397950D01*
G75*
G02*
X118893379Y-91547950I-150000J0D01*
G01*
X118593379Y-91547950D01*
G75*
G02*
X118443379Y-91397950I0J150000D01*
G01*
X118443379Y-89747950D01*
G75*
G02*
X118593379Y-89597950I150000J0D01*
G01*
G37*
G36*
G01*
X117323379Y-89597950D02*
X117623379Y-89597950D01*
G75*
G02*
X117773379Y-89747950I0J-150000D01*
G01*
X117773379Y-91397950D01*
G75*
G02*
X117623379Y-91547950I-150000J0D01*
G01*
X117323379Y-91547950D01*
G75*
G02*
X117173379Y-91397950I0J150000D01*
G01*
X117173379Y-89747950D01*
G75*
G02*
X117323379Y-89597950I150000J0D01*
G01*
G37*
G36*
G01*
X116053379Y-89597950D02*
X116353379Y-89597950D01*
G75*
G02*
X116503379Y-89747950I0J-150000D01*
G01*
X116503379Y-91397950D01*
G75*
G02*
X116353379Y-91547950I-150000J0D01*
G01*
X116053379Y-91547950D01*
G75*
G02*
X115903379Y-91397950I0J150000D01*
G01*
X115903379Y-89747950D01*
G75*
G02*
X116053379Y-89597950I150000J0D01*
G01*
G37*
G36*
G01*
X114783379Y-89597950D02*
X115083379Y-89597950D01*
G75*
G02*
X115233379Y-89747950I0J-150000D01*
G01*
X115233379Y-91397950D01*
G75*
G02*
X115083379Y-91547950I-150000J0D01*
G01*
X114783379Y-91547950D01*
G75*
G02*
X114633379Y-91397950I0J150000D01*
G01*
X114633379Y-89747950D01*
G75*
G02*
X114783379Y-89597950I150000J0D01*
G01*
G37*
%TD*%
M02*
