%TF.GenerationSoftware,KiCad,Pcbnew,(5.1.6)-1*%
%TF.CreationDate,2020-08-21T15:32:43+02:00*%
%TF.ProjectId,mu_lna,6d755f6c-6e61-42e6-9b69-6361645f7063,rev?*%
%TF.SameCoordinates,Original*%
%TF.FileFunction,Soldermask,Top*%
%TF.FilePolarity,Negative*%
%FSLAX46Y46*%
G04 Gerber Fmt 4.6, Leading zero omitted, Abs format (unit mm)*
G04 Created by KiCad (PCBNEW (5.1.6)-1) date 2020-08-21 15:32:43*
%MOMM*%
%LPD*%
G01*
G04 APERTURE LIST*
%ADD10C,4.000000*%
%ADD11C,3.100000*%
%ADD12C,2.500000*%
%ADD13R,2.500000X2.500000*%
%ADD14O,2.600000X1.700000*%
%ADD15O,7.100000X3.600000*%
%ADD16C,1.100000*%
%ADD17C,0.900000*%
%ADD18C,2.600000*%
G04 APERTURE END LIST*
D10*
X195000000Y-138250000D02*
X95000000Y-138250000D01*
X95000000Y-61750000D02*
X195000000Y-61750000D01*
D11*
%TO.C,SW1*%
X192510000Y-75540000D03*
X192510000Y-70460000D03*
X179810000Y-75375000D03*
X179810000Y-70625000D03*
X176000000Y-75375000D03*
X176000000Y-70625000D03*
X172190000Y-75375000D03*
X172190000Y-70625000D03*
%TD*%
%TO.C,BT2*%
X147700000Y-131750000D03*
X157000000Y-131750000D03*
X160400000Y-131750000D03*
X169700000Y-131750000D03*
X152350000Y-128750000D03*
X165050000Y-128750000D03*
%TD*%
%TO.C,BT1*%
X120250000Y-131750000D03*
X129550000Y-131750000D03*
X132950000Y-131750000D03*
X142250000Y-131750000D03*
X124900000Y-128750000D03*
X137600000Y-128750000D03*
%TD*%
D12*
%TO.C,C12*%
X105750000Y-68750000D03*
D13*
X105750000Y-76250000D03*
%TD*%
D14*
%TO.C,J3*%
X108000000Y-102540000D03*
X108000000Y-100000000D03*
D15*
X102920000Y-94920000D03*
X102920000Y-105080000D03*
%TD*%
D14*
%TO.C,J4*%
X182000000Y-97460000D03*
X182000000Y-100000000D03*
D15*
X187080000Y-105080000D03*
X187080000Y-94920000D03*
%TD*%
D16*
X97000000Y-137500000D03*
D17*
X116493379Y-77272950D03*
X119743379Y-77272950D03*
X122493379Y-77272950D03*
X125743379Y-77272950D03*
X130243379Y-77522950D03*
X130243379Y-81272950D03*
X130243379Y-84522950D03*
X130243379Y-87272950D03*
X130243379Y-90522950D03*
X130243379Y-93272950D03*
X130243379Y-96522950D03*
X130243379Y-99272950D03*
X130243379Y-102522950D03*
X129993379Y-106522950D03*
X125993379Y-106522950D03*
X122493379Y-106522950D03*
X119993379Y-106522950D03*
X116493379Y-106522950D03*
X111993379Y-106522950D03*
X111993379Y-103022950D03*
X111993379Y-99022950D03*
X111993379Y-96522950D03*
X111993379Y-93022950D03*
X111993379Y-90522950D03*
X111993379Y-87022950D03*
X111993379Y-84522950D03*
X111993379Y-81022950D03*
X111993379Y-77522950D03*
X119743379Y-80272950D03*
X121768389Y-80272950D03*
X116743379Y-89022950D03*
X123743379Y-87022950D03*
X125493379Y-89522950D03*
X119741640Y-91710722D03*
X118993379Y-99772950D03*
D16*
X97000000Y-62500000D03*
X98000000Y-62500000D03*
X99000000Y-62500000D03*
X100000000Y-62500000D03*
X101000000Y-62500000D03*
X102000000Y-62500000D03*
X103000000Y-62500000D03*
X104000000Y-62500000D03*
X105000000Y-62500000D03*
X106000000Y-62500000D03*
X107000000Y-62500000D03*
X108000000Y-62500000D03*
X109000000Y-62500000D03*
X110000000Y-62500000D03*
X111000000Y-62500000D03*
X112000000Y-62500000D03*
X113000000Y-62500000D03*
X114000000Y-62500000D03*
X115000000Y-62500000D03*
X116000000Y-62500000D03*
X117000000Y-62500000D03*
X118000000Y-62500000D03*
X119000000Y-62500000D03*
X120000000Y-62500000D03*
X121000000Y-62500000D03*
X122000000Y-62500000D03*
X123000000Y-62500000D03*
X124000000Y-62500000D03*
X125000000Y-62500000D03*
X126000000Y-62500000D03*
X127000000Y-62500000D03*
X128000000Y-62500000D03*
X129000000Y-62500000D03*
X130000000Y-62500000D03*
X131000000Y-62500000D03*
X132000000Y-62500000D03*
X133000000Y-62500000D03*
X134000000Y-62500000D03*
X135000000Y-62500000D03*
X136000000Y-62500000D03*
X137000000Y-62500000D03*
X138000000Y-62500000D03*
X139000000Y-62500000D03*
X140000000Y-62500000D03*
X141000000Y-62500000D03*
X142000000Y-62500000D03*
X143000000Y-62500000D03*
X144000000Y-62500000D03*
X145000000Y-62500000D03*
X146000000Y-62500000D03*
X147000000Y-62500000D03*
X148000000Y-62500000D03*
X149000000Y-62500000D03*
X150000000Y-62500000D03*
X151000000Y-62500000D03*
X152000000Y-62500000D03*
X153000000Y-62500000D03*
X154000000Y-62500000D03*
X155000000Y-62500000D03*
X156000000Y-62500000D03*
X157000000Y-62500000D03*
X158000000Y-62500000D03*
X159000000Y-62500000D03*
X160000000Y-62500000D03*
X161000000Y-62500000D03*
X162000000Y-62500000D03*
X163000000Y-62500000D03*
X164000000Y-62500000D03*
X165000000Y-62500000D03*
X166000000Y-62500000D03*
X167000000Y-62500000D03*
X168000000Y-62500000D03*
X169000000Y-62500000D03*
X170000000Y-62500000D03*
X171000000Y-62500000D03*
X172000000Y-62500000D03*
X173000000Y-62500000D03*
X174000000Y-62500000D03*
X175000000Y-62500000D03*
X176000000Y-62500000D03*
X177000000Y-62500000D03*
X178000000Y-62500000D03*
X179000000Y-62500000D03*
X180000000Y-62500000D03*
X181000000Y-62500000D03*
X182000000Y-62500000D03*
X183000000Y-62500000D03*
X184000000Y-62500000D03*
X185000000Y-62500000D03*
X186000000Y-62500000D03*
X187000000Y-62500000D03*
X188000000Y-62500000D03*
X189000000Y-62500000D03*
X190000000Y-62500000D03*
X191000000Y-62500000D03*
X192000000Y-62500000D03*
X193000000Y-62500000D03*
X98000000Y-137500000D03*
X99000000Y-137500000D03*
X100000000Y-137500000D03*
X101000000Y-137500000D03*
X102000000Y-137500000D03*
X103000000Y-137500000D03*
X104000000Y-137500000D03*
X105000000Y-137500000D03*
X106000000Y-137500000D03*
X107000000Y-137500000D03*
X108000000Y-137500000D03*
X109000000Y-137500000D03*
X110000000Y-137500000D03*
X111000000Y-137500000D03*
X112000000Y-137500000D03*
X113000000Y-137500000D03*
X114000000Y-137500000D03*
X115000000Y-137500000D03*
X116000000Y-137500000D03*
X117000000Y-137500000D03*
X118000000Y-137500000D03*
X119000000Y-137500000D03*
X120000000Y-137500000D03*
X121000000Y-137500000D03*
X122000000Y-137500000D03*
X123000000Y-137500000D03*
X124000000Y-137500000D03*
X125000000Y-137500000D03*
X126000000Y-137500000D03*
X127000000Y-137500000D03*
X128000000Y-137500000D03*
X129000000Y-137500000D03*
X130000000Y-137500000D03*
X131000000Y-137500000D03*
X132000000Y-137500000D03*
X133000000Y-137500000D03*
X134000000Y-137500000D03*
X135000000Y-137500000D03*
X136000000Y-137500000D03*
X137000000Y-137500000D03*
X138000000Y-137500000D03*
X139000000Y-137500000D03*
X140000000Y-137500000D03*
X141000000Y-137500000D03*
X142000000Y-137500000D03*
X143000000Y-137500000D03*
X144000000Y-137500000D03*
X145000000Y-137500000D03*
X146000000Y-137500000D03*
X147000000Y-137500000D03*
X148000000Y-137500000D03*
X149000000Y-137500000D03*
X150000000Y-137500000D03*
X151000000Y-137500000D03*
X152000000Y-137500000D03*
X153000000Y-137500000D03*
X154000000Y-137500000D03*
X155000000Y-137500000D03*
X156000000Y-137500000D03*
X157000000Y-137500000D03*
X158000000Y-137500000D03*
X159000000Y-137500000D03*
X160000000Y-137500000D03*
X161000000Y-137500000D03*
X162000000Y-137500000D03*
X163000000Y-137500000D03*
X164000000Y-137500000D03*
X165000000Y-137500000D03*
X166000000Y-137500000D03*
X167000000Y-137500000D03*
X168000000Y-137500000D03*
X169000000Y-137500000D03*
X170000000Y-137500000D03*
X171000000Y-137500000D03*
X172000000Y-137500000D03*
X173000000Y-137500000D03*
X174000000Y-137500000D03*
X175000000Y-137500000D03*
X176000000Y-137500000D03*
X177000000Y-137500000D03*
X178000000Y-137500000D03*
X179000000Y-137500000D03*
X180000000Y-137500000D03*
X181000000Y-137500000D03*
X182000000Y-137500000D03*
X183000000Y-137500000D03*
X184000000Y-137500000D03*
X185000000Y-137500000D03*
X186000000Y-137500000D03*
X187000000Y-137500000D03*
X188000000Y-137500000D03*
X189000000Y-137500000D03*
X190000000Y-137500000D03*
X191000000Y-137500000D03*
X192000000Y-137500000D03*
X193000000Y-137500000D03*
D17*
X128743379Y-94272950D03*
X116263379Y-86042950D03*
X124968380Y-86297949D03*
X128037309Y-104223901D03*
X124070731Y-78292752D03*
X119493379Y-78522950D03*
X127743379Y-90522950D03*
X122993379Y-99022950D03*
X122493379Y-92022950D03*
X121243379Y-95772950D03*
X120493379Y-85772950D03*
X117393369Y-91850636D03*
X113493379Y-84522950D03*
X114493379Y-81772950D03*
D18*
X155750000Y-72500000D03*
X105750000Y-72500000D03*
D17*
X124993379Y-79022950D03*
X122243379Y-87772950D03*
X113657462Y-91125640D03*
X114243379Y-94022950D03*
X119743379Y-88522950D03*
M02*
