%TF.GenerationSoftware,KiCad,Pcbnew,(5.1.6)-1*%
%TF.CreationDate,2020-07-02T12:36:14+02:00*%
%TF.ProjectId,mu_lna,6d755f6c-6e61-42e6-9b69-6361645f7063,rev?*%
%TF.SameCoordinates,Original*%
%TF.FileFunction,Legend,Top*%
%TF.FilePolarity,Positive*%
%FSLAX46Y46*%
G04 Gerber Fmt 4.6, Leading zero omitted, Abs format (unit mm)*
G04 Created by KiCad (PCBNEW (5.1.6)-1) date 2020-07-02 12:36:14*
%MOMM*%
%LPD*%
G01*
G04 APERTURE LIST*
%ADD10C,0.010000*%
%ADD11C,0.200000*%
%ADD12C,0.100000*%
%ADD13C,0.120000*%
%ADD14C,0.150000*%
G04 APERTURE END LIST*
D10*
%TO.C,G\u002A\u002A\u002A*%
G36*
X147983200Y-77696160D02*
G01*
X148021212Y-77702067D01*
X148039012Y-77706419D01*
X148092396Y-77723821D01*
X148139915Y-77745946D01*
X148182122Y-77773051D01*
X148184308Y-77774698D01*
X148210168Y-77796733D01*
X148230973Y-77820379D01*
X148248967Y-77848313D01*
X148254443Y-77858493D01*
X148270979Y-77889140D01*
X148286363Y-77914279D01*
X148301983Y-77935443D01*
X148319232Y-77954164D01*
X148339499Y-77971974D01*
X148364175Y-77990405D01*
X148390088Y-78007991D01*
X148424328Y-78031717D01*
X148453563Y-78054329D01*
X148477387Y-78075428D01*
X148495395Y-78094614D01*
X148507183Y-78111490D01*
X148512346Y-78125655D01*
X148512554Y-78128635D01*
X148510816Y-78137411D01*
X148504125Y-78141755D01*
X148502056Y-78142332D01*
X148491479Y-78143158D01*
X148474795Y-78142236D01*
X148453465Y-78139762D01*
X148428951Y-78135933D01*
X148402715Y-78130948D01*
X148379692Y-78125838D01*
X148360315Y-78121280D01*
X148341482Y-78116943D01*
X148325893Y-78113447D01*
X148319123Y-78111988D01*
X148304417Y-78108815D01*
X148290350Y-78105622D01*
X148285908Y-78104561D01*
X148278780Y-78103023D01*
X148269881Y-78101571D01*
X148257870Y-78100043D01*
X148241401Y-78098276D01*
X148219133Y-78096108D01*
X148205960Y-78094874D01*
X148195453Y-78095053D01*
X148178948Y-78096705D01*
X148158064Y-78099563D01*
X148134422Y-78103358D01*
X148109642Y-78107825D01*
X148085345Y-78112694D01*
X148063150Y-78117698D01*
X148054254Y-78119930D01*
X148015805Y-78132573D01*
X147981455Y-78149115D01*
X147952120Y-78168948D01*
X147928716Y-78191465D01*
X147913581Y-78213332D01*
X147909167Y-78223268D01*
X147903198Y-78239204D01*
X147896170Y-78259596D01*
X147888578Y-78282902D01*
X147880918Y-78307579D01*
X147873685Y-78332086D01*
X147867375Y-78354879D01*
X147864386Y-78366493D01*
X147855105Y-78408982D01*
X147846647Y-78457999D01*
X147839188Y-78512280D01*
X147832902Y-78570563D01*
X147828327Y-78626354D01*
X147826888Y-78653022D01*
X147825859Y-78685253D01*
X147825219Y-78722097D01*
X147824947Y-78762603D01*
X147825023Y-78805821D01*
X147825425Y-78850802D01*
X147826133Y-78896595D01*
X147827125Y-78942250D01*
X147828381Y-78986817D01*
X147829880Y-79029346D01*
X147831601Y-79068887D01*
X147833523Y-79104489D01*
X147835626Y-79135204D01*
X147837887Y-79160080D01*
X147840288Y-79178167D01*
X147840485Y-79179293D01*
X147847068Y-79215074D01*
X147852958Y-79244589D01*
X147858607Y-79269302D01*
X147864467Y-79290676D01*
X147870991Y-79310178D01*
X147878630Y-79329270D01*
X147887837Y-79349418D01*
X147899065Y-79372085D01*
X147901502Y-79376873D01*
X147913781Y-79400122D01*
X147926910Y-79423261D01*
X147941476Y-79447171D01*
X147958068Y-79472733D01*
X147977272Y-79500829D01*
X147999677Y-79532339D01*
X148025871Y-79568147D01*
X148055894Y-79608403D01*
X148074185Y-79632980D01*
X148091518Y-79656688D01*
X148107157Y-79678488D01*
X148120366Y-79697340D01*
X148130407Y-79712204D01*
X148136543Y-79722040D01*
X148137046Y-79722952D01*
X148142749Y-79735363D01*
X148149652Y-79753117D01*
X148156951Y-79774003D01*
X148163841Y-79795809D01*
X148164944Y-79799550D01*
X148174921Y-79838343D01*
X148182104Y-79877350D01*
X148186729Y-79918533D01*
X148189035Y-79963856D01*
X148189383Y-80001862D01*
X148189158Y-80024217D01*
X148188552Y-80040832D01*
X148187266Y-80053782D01*
X148185001Y-80065141D01*
X148181457Y-80076985D01*
X148176565Y-80090762D01*
X148168914Y-80109727D01*
X148162390Y-80121201D01*
X148156596Y-80125355D01*
X148151134Y-80122362D01*
X148145608Y-80112396D01*
X148142897Y-80105416D01*
X148138550Y-80094511D01*
X148134905Y-80087419D01*
X148133385Y-80085877D01*
X148129098Y-80089162D01*
X148122324Y-80098051D01*
X148113943Y-80111090D01*
X148104831Y-80126829D01*
X148095865Y-80143815D01*
X148087924Y-80160597D01*
X148087145Y-80162379D01*
X148078131Y-80183121D01*
X148071482Y-80197898D01*
X148066480Y-80207931D01*
X148062410Y-80214437D01*
X148058554Y-80218637D01*
X148054198Y-80221749D01*
X148051222Y-80223498D01*
X148043188Y-80227627D01*
X148038658Y-80227308D01*
X148034463Y-80222156D01*
X148033968Y-80221403D01*
X148030695Y-80212163D01*
X148028086Y-80195776D01*
X148026241Y-80172887D01*
X148026103Y-80170285D01*
X148025034Y-80152687D01*
X148023810Y-80137959D01*
X148022598Y-80127869D01*
X148021756Y-80124336D01*
X148018179Y-80123641D01*
X148013200Y-80129011D01*
X148007659Y-80139022D01*
X148002395Y-80152252D01*
X147999471Y-80162093D01*
X147989935Y-80192529D01*
X147978604Y-80216158D01*
X147965050Y-80233867D01*
X147964934Y-80233985D01*
X147951716Y-80244826D01*
X147935458Y-80254586D01*
X147918849Y-80261913D01*
X147904579Y-80265455D01*
X147902024Y-80265593D01*
X147895980Y-80266761D01*
X147889498Y-80270948D01*
X147881349Y-80279244D01*
X147870304Y-80292736D01*
X147867825Y-80295916D01*
X147850354Y-80318210D01*
X147836611Y-80335084D01*
X147825703Y-80347423D01*
X147816740Y-80356111D01*
X147808830Y-80362033D01*
X147801081Y-80366074D01*
X147794729Y-80368437D01*
X147782939Y-80371776D01*
X147775722Y-80371397D01*
X147771538Y-80366114D01*
X147768847Y-80354743D01*
X147767766Y-80347693D01*
X147765138Y-80332740D01*
X147762118Y-80325233D01*
X147757820Y-80324815D01*
X147751355Y-80331133D01*
X147745489Y-80338792D01*
X147735950Y-80350525D01*
X147722941Y-80364889D01*
X147708825Y-80379310D01*
X147704522Y-80383457D01*
X147678911Y-80406324D01*
X147657317Y-80422564D01*
X147639669Y-80432207D01*
X147625898Y-80435287D01*
X147615931Y-80431835D01*
X147611328Y-80425846D01*
X147606643Y-80415467D01*
X147603970Y-80408262D01*
X147602153Y-80404901D01*
X147598992Y-80405196D01*
X147593318Y-80409870D01*
X147583959Y-80419648D01*
X147581854Y-80421939D01*
X147570928Y-80434268D01*
X147557214Y-80450322D01*
X147542759Y-80467683D01*
X147533672Y-80478851D01*
X147507391Y-80509566D01*
X147483295Y-80533453D01*
X147460769Y-80550981D01*
X147439195Y-80562619D01*
X147417958Y-80568833D01*
X147414497Y-80569363D01*
X147403610Y-80569971D01*
X147398054Y-80567648D01*
X147396602Y-80565183D01*
X147396586Y-80559521D01*
X147397983Y-80547524D01*
X147400591Y-80530505D01*
X147404210Y-80509775D01*
X147408636Y-80486648D01*
X147408724Y-80486212D01*
X147414593Y-80455806D01*
X147418398Y-80432852D01*
X147419918Y-80417209D01*
X147418931Y-80408733D01*
X147415213Y-80407283D01*
X147408542Y-80412714D01*
X147398696Y-80424885D01*
X147385453Y-80443653D01*
X147372497Y-80462969D01*
X147353923Y-80490464D01*
X147338321Y-80512219D01*
X147324789Y-80529281D01*
X147312429Y-80542700D01*
X147300341Y-80553525D01*
X147287623Y-80562805D01*
X147285802Y-80564001D01*
X147267043Y-80575715D01*
X147251483Y-80584084D01*
X147236142Y-80590545D01*
X147219108Y-80596213D01*
X147204203Y-80600330D01*
X147194951Y-80601197D01*
X147189725Y-80598412D01*
X147186897Y-80591567D01*
X147186150Y-80588016D01*
X147183582Y-80578999D01*
X147180574Y-80574465D01*
X147180073Y-80574339D01*
X147175325Y-80575511D01*
X147164524Y-80578744D01*
X147149031Y-80583615D01*
X147130201Y-80589700D01*
X147118652Y-80593498D01*
X147087135Y-80603665D01*
X147061834Y-80611161D01*
X147041696Y-80616194D01*
X147025671Y-80618972D01*
X147012709Y-80619702D01*
X147001757Y-80618592D01*
X146997137Y-80617530D01*
X146987156Y-80613983D01*
X146981343Y-80610255D01*
X146980738Y-80608982D01*
X146981921Y-80601664D01*
X146984990Y-80589446D01*
X146989222Y-80574795D01*
X146993898Y-80560178D01*
X146998295Y-80548062D01*
X146999157Y-80545968D01*
X147002537Y-80536249D01*
X147003394Y-80529805D01*
X147003015Y-80528882D01*
X146998630Y-80529228D01*
X146988510Y-80531965D01*
X146974195Y-80536629D01*
X146958442Y-80542299D01*
X146923466Y-80555227D01*
X146894913Y-80565315D01*
X146872002Y-80572751D01*
X146853951Y-80577721D01*
X146839979Y-80580412D01*
X146829303Y-80581012D01*
X146821142Y-80579708D01*
X146814723Y-80576692D01*
X146809330Y-80572338D01*
X146806365Y-80566724D01*
X146805122Y-80557569D01*
X146804892Y-80544941D01*
X146804908Y-80534414D01*
X146804213Y-80526988D01*
X146801696Y-80522319D01*
X146796245Y-80520064D01*
X146786748Y-80519877D01*
X146772095Y-80521416D01*
X146751173Y-80524335D01*
X146742369Y-80525590D01*
X146714277Y-80530041D01*
X146692305Y-80534992D01*
X146674770Y-80541326D01*
X146659986Y-80549928D01*
X146646268Y-80561682D01*
X146631931Y-80577472D01*
X146623259Y-80588087D01*
X146594205Y-80622175D01*
X146566793Y-80649424D01*
X146540255Y-80670430D01*
X146513820Y-80685790D01*
X146486720Y-80696098D01*
X146482189Y-80697339D01*
X146464079Y-80702389D01*
X146448615Y-80707759D01*
X146434644Y-80714235D01*
X146421011Y-80722608D01*
X146406562Y-80733666D01*
X146390144Y-80748196D01*
X146370602Y-80766987D01*
X146349815Y-80787763D01*
X146326095Y-80810245D01*
X146298677Y-80833878D01*
X146270003Y-80856687D01*
X146242513Y-80876698D01*
X146227772Y-80886434D01*
X146216880Y-80893602D01*
X146209051Y-80899351D01*
X146206280Y-80902045D01*
X146202630Y-80904922D01*
X146194110Y-80910275D01*
X146182769Y-80916941D01*
X146170654Y-80923757D01*
X146159813Y-80929562D01*
X146152294Y-80933194D01*
X146150251Y-80933846D01*
X146150358Y-80930691D01*
X146152975Y-80922684D01*
X146157222Y-80912018D01*
X146162218Y-80900884D01*
X146167084Y-80891472D01*
X146167688Y-80890445D01*
X146172634Y-80882685D01*
X146180649Y-80870622D01*
X146190324Y-80856363D01*
X146194598Y-80850149D01*
X146205517Y-80832769D01*
X146214804Y-80815048D01*
X146221736Y-80798680D01*
X146225592Y-80785364D01*
X146225713Y-80776970D01*
X146222154Y-80776942D01*
X146214189Y-80780784D01*
X146204964Y-80786699D01*
X146180391Y-80803844D01*
X146160691Y-80817271D01*
X146144429Y-80827880D01*
X146130172Y-80836568D01*
X146116487Y-80844234D01*
X146101938Y-80851778D01*
X146097895Y-80853801D01*
X146079967Y-80862486D01*
X146057585Y-80872975D01*
X146033487Y-80884004D01*
X146010407Y-80894307D01*
X146008325Y-80895221D01*
X145962560Y-80916427D01*
X145922857Y-80937432D01*
X145887547Y-80959162D01*
X145867413Y-80973196D01*
X145854592Y-80982110D01*
X145843704Y-80988883D01*
X145836603Y-80992387D01*
X145835466Y-80992633D01*
X145828492Y-80994052D01*
X145817850Y-80997383D01*
X145814292Y-80998672D01*
X145802123Y-81002739D01*
X145791508Y-81005480D01*
X145789595Y-81005809D01*
X145780938Y-81008243D01*
X145776968Y-81010638D01*
X145774407Y-81016040D01*
X145770563Y-81027749D01*
X145765782Y-81044428D01*
X145760413Y-81064740D01*
X145754803Y-81087350D01*
X145749299Y-81110919D01*
X145744250Y-81134113D01*
X145742062Y-81144862D01*
X145732077Y-81200065D01*
X145724953Y-81250268D01*
X145720701Y-81295108D01*
X145719330Y-81334221D01*
X145720852Y-81367244D01*
X145725276Y-81393814D01*
X145732614Y-81413567D01*
X145734291Y-81416445D01*
X145741563Y-81424779D01*
X145752963Y-81434493D01*
X145763511Y-81441846D01*
X145783000Y-81457052D01*
X145798200Y-81476467D01*
X145798956Y-81477688D01*
X145811688Y-81495112D01*
X145829959Y-81515425D01*
X145852580Y-81537539D01*
X145878362Y-81560364D01*
X145906117Y-81582813D01*
X145934657Y-81603796D01*
X145942474Y-81609157D01*
X145970154Y-81627516D01*
X146003387Y-81649037D01*
X146041023Y-81673014D01*
X146081914Y-81698740D01*
X146124910Y-81725508D01*
X146168863Y-81752612D01*
X146212623Y-81779345D01*
X146255042Y-81804999D01*
X146294970Y-81828869D01*
X146331258Y-81850246D01*
X146362758Y-81868425D01*
X146377000Y-81876455D01*
X146398021Y-81887673D01*
X146422515Y-81899970D01*
X146446715Y-81911483D01*
X146459062Y-81917037D01*
X146487099Y-81929640D01*
X146516046Y-81943282D01*
X146544646Y-81957315D01*
X146571644Y-81971092D01*
X146595781Y-81983966D01*
X146615801Y-81995291D01*
X146630448Y-82004420D01*
X146634748Y-82007483D01*
X146648386Y-82019594D01*
X146656366Y-82031462D01*
X146658729Y-82037813D01*
X146665604Y-82058246D01*
X146675193Y-82082895D01*
X146686403Y-82109149D01*
X146698139Y-82134398D01*
X146704497Y-82147052D01*
X146712691Y-82161872D01*
X146721228Y-82174820D01*
X146731327Y-82187303D01*
X146744212Y-82200726D01*
X146761102Y-82216494D01*
X146777332Y-82230879D01*
X146799167Y-82253506D01*
X146812956Y-82274676D01*
X146825236Y-82293025D01*
X146843837Y-82312813D01*
X146867628Y-82333116D01*
X146895479Y-82353013D01*
X146926260Y-82371580D01*
X146941429Y-82379590D01*
X146971825Y-82398906D01*
X146996604Y-82423081D01*
X147015242Y-82451418D01*
X147027209Y-82483219D01*
X147030041Y-82496943D01*
X147031118Y-82510378D01*
X147028521Y-82517929D01*
X147021440Y-82520049D01*
X147009063Y-82517194D01*
X146999995Y-82513785D01*
X146968380Y-82503671D01*
X146937460Y-82498789D01*
X146911793Y-82499218D01*
X146889725Y-82498794D01*
X146864088Y-82493225D01*
X146836555Y-82483166D01*
X146808800Y-82469266D01*
X146782496Y-82452179D01*
X146773860Y-82445498D01*
X146759292Y-82433806D01*
X146744443Y-82422106D01*
X146730625Y-82411405D01*
X146719149Y-82402710D01*
X146711329Y-82397029D01*
X146708525Y-82395323D01*
X146706387Y-82398527D01*
X146702679Y-82406427D01*
X146701864Y-82408344D01*
X146691554Y-82424855D01*
X146677405Y-82434691D01*
X146659814Y-82437599D01*
X146656400Y-82437375D01*
X146633900Y-82432049D01*
X146610256Y-82421130D01*
X146587448Y-82406034D01*
X146567458Y-82388177D01*
X146552266Y-82368973D01*
X146547061Y-82359247D01*
X146542952Y-82347836D01*
X146538241Y-82331545D01*
X146533712Y-82313187D01*
X146532035Y-82305446D01*
X146521850Y-82265056D01*
X146508909Y-82230792D01*
X146492417Y-82201217D01*
X146471580Y-82174893D01*
X146447081Y-82151624D01*
X146426343Y-82134925D01*
X146399603Y-82114731D01*
X146367592Y-82091517D01*
X146331040Y-82065758D01*
X146290679Y-82037928D01*
X146247239Y-82008502D01*
X146201451Y-81977954D01*
X146154046Y-81946760D01*
X146105754Y-81915394D01*
X146057306Y-81884330D01*
X146009433Y-81854043D01*
X145962866Y-81825007D01*
X145918335Y-81797698D01*
X145876571Y-81772590D01*
X145838304Y-81750157D01*
X145804266Y-81730874D01*
X145775188Y-81715216D01*
X145775167Y-81715205D01*
X145747996Y-81702326D01*
X145716884Y-81689574D01*
X145685581Y-81678463D01*
X145679428Y-81676510D01*
X145635355Y-81662372D01*
X145598319Y-81649394D01*
X145567685Y-81637243D01*
X145542816Y-81625587D01*
X145523080Y-81614095D01*
X145507839Y-81602434D01*
X145496460Y-81590273D01*
X145488306Y-81577280D01*
X145487866Y-81576386D01*
X145483426Y-81565990D01*
X145481203Y-81556312D01*
X145480839Y-81544492D01*
X145481897Y-81528601D01*
X145483800Y-81508973D01*
X145486597Y-81483346D01*
X145490071Y-81453460D01*
X145494006Y-81421054D01*
X145498186Y-81387864D01*
X145502393Y-81355631D01*
X145506412Y-81326092D01*
X145510027Y-81300985D01*
X145511178Y-81293424D01*
X145513948Y-81274906D01*
X145516068Y-81259421D01*
X145517345Y-81248468D01*
X145517589Y-81243550D01*
X145517539Y-81243437D01*
X145514908Y-81245895D01*
X145508734Y-81253643D01*
X145499864Y-81265500D01*
X145489142Y-81280287D01*
X145477412Y-81296824D01*
X145465520Y-81313933D01*
X145454309Y-81330433D01*
X145444625Y-81345146D01*
X145444007Y-81346108D01*
X145425977Y-81375993D01*
X145411908Y-81403852D01*
X145400287Y-81433024D01*
X145390193Y-81464800D01*
X145384300Y-81484429D01*
X145379435Y-81498323D01*
X145374690Y-81508316D01*
X145369157Y-81516246D01*
X145361928Y-81523947D01*
X145360039Y-81525776D01*
X145353367Y-81532881D01*
X145347479Y-81541045D01*
X145342125Y-81551089D01*
X145337052Y-81563834D01*
X145332009Y-81580100D01*
X145326745Y-81600709D01*
X145321007Y-81626481D01*
X145314546Y-81658237D01*
X145307108Y-81696797D01*
X145306241Y-81701378D01*
X145283762Y-81824095D01*
X145264109Y-81939554D01*
X145247278Y-82047780D01*
X145233266Y-82148801D01*
X145222070Y-82242642D01*
X145213686Y-82329330D01*
X145208111Y-82408893D01*
X145205342Y-82481356D01*
X145205018Y-82508646D01*
X145204945Y-82541889D01*
X145205238Y-82568450D01*
X145206270Y-82589464D01*
X145208416Y-82606065D01*
X145212048Y-82619386D01*
X145217542Y-82630563D01*
X145225269Y-82640728D01*
X145235605Y-82651016D01*
X145248923Y-82662561D01*
X145258334Y-82670425D01*
X145274771Y-82683698D01*
X145290747Y-82695836D01*
X145304471Y-82705525D01*
X145314151Y-82711448D01*
X145314396Y-82711572D01*
X145326859Y-82716151D01*
X145345681Y-82720872D01*
X145369424Y-82725400D01*
X145383202Y-82727562D01*
X145412820Y-82732017D01*
X145435813Y-82735796D01*
X145453312Y-82739156D01*
X145466452Y-82742351D01*
X145476366Y-82745637D01*
X145484186Y-82749269D01*
X145487122Y-82750961D01*
X145497278Y-82760380D01*
X145499940Y-82771780D01*
X145495105Y-82785236D01*
X145485612Y-82797782D01*
X145476418Y-82806810D01*
X145466429Y-82813799D01*
X145454692Y-82818878D01*
X145440249Y-82822175D01*
X145422145Y-82823818D01*
X145399425Y-82823937D01*
X145371134Y-82822658D01*
X145336316Y-82820110D01*
X145325831Y-82819235D01*
X145280449Y-82815352D01*
X145242140Y-82812011D01*
X145210186Y-82809132D01*
X145183870Y-82806632D01*
X145162474Y-82804433D01*
X145145281Y-82802452D01*
X145131572Y-82800609D01*
X145120630Y-82798823D01*
X145111738Y-82797014D01*
X145104177Y-82795101D01*
X145099702Y-82793784D01*
X145079934Y-82786450D01*
X145066082Y-82777653D01*
X145056255Y-82765555D01*
X145048563Y-82748318D01*
X145046431Y-82742001D01*
X145036559Y-82717829D01*
X145023852Y-82699411D01*
X145006912Y-82684819D01*
X145003174Y-82682367D01*
X144989322Y-82669698D01*
X144977484Y-82650492D01*
X144972279Y-82638902D01*
X144968853Y-82628083D01*
X144966746Y-82615666D01*
X144965500Y-82599284D01*
X144964953Y-82585973D01*
X144964781Y-82565078D01*
X144965513Y-82543718D01*
X144966999Y-82525158D01*
X144968041Y-82517588D01*
X144969851Y-82508632D01*
X144973341Y-82492924D01*
X144978313Y-82471302D01*
X144984569Y-82444602D01*
X144991912Y-82413658D01*
X145000145Y-82379307D01*
X145009070Y-82342385D01*
X145018488Y-82303729D01*
X145020938Y-82293723D01*
X145035484Y-82234162D01*
X145048298Y-82181076D01*
X145059591Y-82133373D01*
X145069578Y-82089958D01*
X145078471Y-82049737D01*
X145086482Y-82011617D01*
X145093825Y-81974505D01*
X145100712Y-81937305D01*
X145107355Y-81898926D01*
X145113968Y-81858272D01*
X145120763Y-81814250D01*
X145127952Y-81765767D01*
X145135750Y-81711729D01*
X145140184Y-81680586D01*
X145147423Y-81629147D01*
X145153533Y-81584721D01*
X145158594Y-81546597D01*
X145162687Y-81514068D01*
X145165891Y-81486425D01*
X145168287Y-81462958D01*
X145169955Y-81442958D01*
X145170976Y-81425717D01*
X145171431Y-81410525D01*
X145171472Y-81404621D01*
X145172896Y-81365914D01*
X145176934Y-81326761D01*
X145183252Y-81288984D01*
X145191515Y-81254406D01*
X145201388Y-81224851D01*
X145206698Y-81212783D01*
X145215686Y-81197386D01*
X145226822Y-81182402D01*
X145234969Y-81173707D01*
X145267539Y-81142693D01*
X145300716Y-81108730D01*
X145333641Y-81072859D01*
X145365453Y-81036124D01*
X145395294Y-80999566D01*
X145422303Y-80964227D01*
X145445622Y-80931150D01*
X145464390Y-80901377D01*
X145473877Y-80884023D01*
X145484224Y-80863508D01*
X145412843Y-80863502D01*
X145386425Y-80863393D01*
X145366569Y-80863004D01*
X145352023Y-80862234D01*
X145341535Y-80860983D01*
X145333853Y-80859150D01*
X145327785Y-80856663D01*
X145318789Y-80851000D01*
X145313785Y-80844328D01*
X145312978Y-80835755D01*
X145316576Y-80824391D01*
X145324784Y-80809344D01*
X145337811Y-80789721D01*
X145345960Y-80778242D01*
X145356133Y-80763811D01*
X145365058Y-80750616D01*
X145371352Y-80740724D01*
X145372953Y-80737910D01*
X145378346Y-80727588D01*
X145320526Y-80744665D01*
X145291883Y-80753274D01*
X145269630Y-80760360D01*
X145252593Y-80766367D01*
X145239597Y-80771738D01*
X145229470Y-80776917D01*
X145221303Y-80782158D01*
X145209636Y-80787610D01*
X145200716Y-80786539D01*
X145195376Y-80780000D01*
X145194453Y-80769048D01*
X145198781Y-80754737D01*
X145199083Y-80754093D01*
X145205172Y-80740015D01*
X145210016Y-80726479D01*
X145212991Y-80715507D01*
X145213475Y-80709120D01*
X145213144Y-80708488D01*
X145209191Y-80709932D01*
X145199658Y-80716149D01*
X145184925Y-80726854D01*
X145165370Y-80741762D01*
X145141372Y-80760589D01*
X145113309Y-80783049D01*
X145104673Y-80790032D01*
X145083253Y-80806781D01*
X145065995Y-80818676D01*
X145051557Y-80826416D01*
X145038597Y-80830696D01*
X145025773Y-80832213D01*
X145023332Y-80832246D01*
X145011004Y-80830755D01*
X145003234Y-80825527D01*
X145001714Y-80823561D01*
X144998304Y-80817323D01*
X144996442Y-80809639D01*
X144996152Y-80799175D01*
X144997459Y-80784598D01*
X145000388Y-80764574D01*
X145003136Y-80748231D01*
X145005847Y-80730673D01*
X145007513Y-80715933D01*
X145007980Y-80705711D01*
X145007313Y-80701839D01*
X145002927Y-80702482D01*
X144993537Y-80706906D01*
X144980527Y-80714389D01*
X144968047Y-80722354D01*
X144947621Y-80735117D01*
X144931907Y-80742913D01*
X144919889Y-80746088D01*
X144910547Y-80744987D01*
X144906882Y-80743150D01*
X144900481Y-80735082D01*
X144894642Y-80719555D01*
X144889468Y-80696913D01*
X144886006Y-80674850D01*
X144883332Y-80658105D01*
X144880310Y-80644172D01*
X144877394Y-80634958D01*
X144875886Y-80632490D01*
X144872172Y-80630762D01*
X144866422Y-80630770D01*
X144857707Y-80632811D01*
X144845099Y-80637184D01*
X144827669Y-80644187D01*
X144804488Y-80654120D01*
X144793089Y-80659116D01*
X144773542Y-80667629D01*
X144759766Y-80673263D01*
X144750419Y-80676377D01*
X144744158Y-80677329D01*
X144739642Y-80676479D01*
X144735863Y-80674406D01*
X144731144Y-80669181D01*
X144723528Y-80658265D01*
X144713781Y-80642867D01*
X144702671Y-80624198D01*
X144691576Y-80604575D01*
X144674811Y-80574305D01*
X144661153Y-80549996D01*
X144650025Y-80530716D01*
X144640851Y-80515532D01*
X144633053Y-80503512D01*
X144626056Y-80493723D01*
X144619282Y-80485235D01*
X144613991Y-80479150D01*
X144604781Y-80469450D01*
X144599184Y-80465316D01*
X144596122Y-80466067D01*
X144595432Y-80467401D01*
X144593953Y-80477770D01*
X144594624Y-80494800D01*
X144597315Y-80517675D01*
X144601899Y-80545578D01*
X144608246Y-80577696D01*
X144616228Y-80613211D01*
X144622506Y-80638816D01*
X144629019Y-80666372D01*
X144634448Y-80692960D01*
X144638636Y-80717431D01*
X144641425Y-80738636D01*
X144642657Y-80755425D01*
X144642173Y-80766650D01*
X144640632Y-80770685D01*
X144635826Y-80772174D01*
X144629487Y-80767160D01*
X144628748Y-80766323D01*
X144608526Y-80742122D01*
X144588429Y-80716106D01*
X144572370Y-80694063D01*
X144561721Y-80679672D01*
X144551781Y-80667136D01*
X144543999Y-80658244D01*
X144541108Y-80655510D01*
X144532170Y-80650623D01*
X144523173Y-80648826D01*
X144516677Y-80650310D01*
X144514985Y-80653586D01*
X144516263Y-80658538D01*
X144519852Y-80669749D01*
X144525382Y-80686136D01*
X144532485Y-80706618D01*
X144540791Y-80730110D01*
X144546628Y-80746394D01*
X144561219Y-80786923D01*
X144573334Y-80820737D01*
X144583164Y-80848467D01*
X144590900Y-80870744D01*
X144596732Y-80888199D01*
X144600850Y-80901464D01*
X144603444Y-80911170D01*
X144604706Y-80917948D01*
X144604825Y-80922429D01*
X144603991Y-80925245D01*
X144602396Y-80927026D01*
X144601323Y-80927756D01*
X144595397Y-80927590D01*
X144584788Y-80924031D01*
X144571330Y-80917997D01*
X144556856Y-80910408D01*
X144543202Y-80902185D01*
X144532200Y-80894245D01*
X144529215Y-80891607D01*
X144521199Y-80883368D01*
X144509554Y-80870659D01*
X144495654Y-80855012D01*
X144480872Y-80837961D01*
X144476001Y-80832246D01*
X144458213Y-80811683D01*
X144441974Y-80793667D01*
X144428033Y-80778977D01*
X144417143Y-80768391D01*
X144410052Y-80762687D01*
X144408135Y-80761908D01*
X144406258Y-80765290D01*
X144403313Y-80773831D01*
X144401889Y-80778681D01*
X144399902Y-80788110D01*
X144399298Y-80798702D01*
X144400129Y-80812422D01*
X144402445Y-80831238D01*
X144403452Y-80838274D01*
X144416444Y-80920546D01*
X144430584Y-80997693D01*
X144444946Y-81065409D01*
X144450095Y-81088781D01*
X144454626Y-81110924D01*
X144458216Y-81130129D01*
X144460541Y-81144687D01*
X144461251Y-81151378D01*
X144461572Y-81162642D01*
X144460369Y-81167991D01*
X144456702Y-81169306D01*
X144452507Y-81168881D01*
X144434362Y-81164263D01*
X144413923Y-81155939D01*
X144394679Y-81145460D01*
X144385594Y-81139128D01*
X144375049Y-81129121D01*
X144363086Y-81115103D01*
X144352086Y-81099896D01*
X144350862Y-81097995D01*
X144337389Y-81077424D01*
X144324832Y-81059526D01*
X144313941Y-81045273D01*
X144305464Y-81035640D01*
X144300153Y-81031602D01*
X144299710Y-81031539D01*
X144294254Y-81029338D01*
X144285647Y-81023851D01*
X144282824Y-81021769D01*
X144274237Y-81015653D01*
X144268356Y-81012250D01*
X144267454Y-81012000D01*
X144266514Y-81015669D01*
X144265729Y-81025724D01*
X144265169Y-81040735D01*
X144264904Y-81059272D01*
X144264892Y-81064336D01*
X144264738Y-81086280D01*
X144264195Y-81101562D01*
X144263142Y-81111330D01*
X144261460Y-81116732D01*
X144259182Y-81118863D01*
X144254324Y-81117061D01*
X144245909Y-81110559D01*
X144235285Y-81100743D01*
X144223800Y-81089000D01*
X144212799Y-81076715D01*
X144203631Y-81065276D01*
X144197642Y-81056068D01*
X144197110Y-81054985D01*
X144191898Y-81045313D01*
X144187847Y-81039354D01*
X144182670Y-81032382D01*
X144175774Y-81022418D01*
X144174036Y-81019816D01*
X144164099Y-81008817D01*
X144153181Y-81005216D01*
X144140324Y-81008871D01*
X144132483Y-81013641D01*
X144116284Y-81021946D01*
X144102167Y-81022813D01*
X144089810Y-81016243D01*
X144086986Y-81013470D01*
X144078725Y-81002365D01*
X144068935Y-80985850D01*
X144058593Y-80965916D01*
X144048679Y-80944555D01*
X144040171Y-80923758D01*
X144034206Y-80906071D01*
X144019655Y-80852932D01*
X144008186Y-80805160D01*
X143999562Y-80761047D01*
X143993545Y-80718885D01*
X143989899Y-80676964D01*
X143988387Y-80633578D01*
X143988770Y-80587018D01*
X143988960Y-80580200D01*
X143995814Y-80477109D01*
X144010069Y-80373288D01*
X144031471Y-80269590D01*
X144059765Y-80166866D01*
X144094699Y-80065966D01*
X144136018Y-79967743D01*
X144183469Y-79873048D01*
X144217177Y-79814293D01*
X144228130Y-79796707D01*
X144241375Y-79776294D01*
X144256163Y-79754126D01*
X144271742Y-79731275D01*
X144287360Y-79708813D01*
X144302268Y-79687813D01*
X144315714Y-79669345D01*
X144326947Y-79654484D01*
X144335216Y-79644299D01*
X144338990Y-79640400D01*
X144342338Y-79636692D01*
X144349384Y-79628326D01*
X144358931Y-79616734D01*
X144365131Y-79609112D01*
X144384793Y-79585967D01*
X144408776Y-79559520D01*
X144435408Y-79531487D01*
X144463019Y-79503582D01*
X144489936Y-79477521D01*
X144514488Y-79455018D01*
X144519991Y-79450210D01*
X144534809Y-79437374D01*
X144547438Y-79426361D01*
X144556725Y-79418182D01*
X144561520Y-79413845D01*
X144561877Y-79413486D01*
X144566383Y-79409589D01*
X144575970Y-79402064D01*
X144589376Y-79391846D01*
X144605339Y-79379875D01*
X144622598Y-79367086D01*
X144639889Y-79354418D01*
X144655953Y-79342808D01*
X144669526Y-79333194D01*
X144675478Y-79329092D01*
X144759814Y-79275507D01*
X144845542Y-79228146D01*
X144931570Y-79187588D01*
X144977478Y-79168829D01*
X145049961Y-79143231D01*
X145128359Y-79119952D01*
X145211025Y-79099341D01*
X145296311Y-79081752D01*
X145382569Y-79067534D01*
X145468150Y-79057038D01*
X145525123Y-79052205D01*
X145542442Y-79050896D01*
X145558095Y-79049497D01*
X145569479Y-79048247D01*
X145572015Y-79047882D01*
X145580980Y-79047078D01*
X145596651Y-79046381D01*
X145617921Y-79045793D01*
X145643679Y-79045318D01*
X145672819Y-79044961D01*
X145704232Y-79044724D01*
X145736809Y-79044611D01*
X145769442Y-79044625D01*
X145801022Y-79044771D01*
X145830442Y-79045052D01*
X145856593Y-79045470D01*
X145878366Y-79046031D01*
X145894653Y-79046737D01*
X145896354Y-79046843D01*
X146009568Y-79056979D01*
X146122959Y-79072502D01*
X146233287Y-79092965D01*
X146236593Y-79093667D01*
X146255099Y-79097599D01*
X146272584Y-79101290D01*
X146286429Y-79104189D01*
X146291390Y-79105214D01*
X146301473Y-79107615D01*
X146316890Y-79111688D01*
X146335489Y-79116849D01*
X146353913Y-79122160D01*
X146408278Y-79138519D01*
X146456492Y-79153925D01*
X146500067Y-79168956D01*
X146540516Y-79184186D01*
X146579354Y-79200193D01*
X146618092Y-79217553D01*
X146658245Y-79236841D01*
X146668428Y-79241905D01*
X146687323Y-79251600D01*
X146707650Y-79262439D01*
X146728210Y-79273735D01*
X146747805Y-79284801D01*
X146765234Y-79294951D01*
X146779299Y-79303498D01*
X146788801Y-79309755D01*
X146792518Y-79312974D01*
X146796969Y-79316044D01*
X146797356Y-79316062D01*
X146801418Y-79318096D01*
X146810448Y-79323546D01*
X146822949Y-79331433D01*
X146837426Y-79340779D01*
X146852382Y-79350604D01*
X146866323Y-79359931D01*
X146877753Y-79367781D01*
X146885175Y-79373175D01*
X146886954Y-79374683D01*
X146891114Y-79377883D01*
X146899461Y-79383715D01*
X146904538Y-79387144D01*
X146920269Y-79397841D01*
X146937821Y-79410078D01*
X146955060Y-79422338D01*
X146969850Y-79433103D01*
X146979230Y-79440203D01*
X146996135Y-79452951D01*
X147019407Y-79469641D01*
X147048781Y-79490085D01*
X147083988Y-79514094D01*
X147086246Y-79515621D01*
X147128119Y-79541738D01*
X147169414Y-79563278D01*
X147208733Y-79579567D01*
X147236329Y-79587994D01*
X147269289Y-79592302D01*
X147304629Y-79589411D01*
X147341845Y-79579384D01*
X147360268Y-79572037D01*
X147399185Y-79552601D01*
X147431774Y-79530869D01*
X147459021Y-79505762D01*
X147481915Y-79476203D01*
X147501441Y-79441115D01*
X147518586Y-79399422D01*
X147518707Y-79399084D01*
X147530792Y-79364030D01*
X147541006Y-79331094D01*
X147549495Y-79299206D01*
X147556401Y-79267296D01*
X147561871Y-79234294D01*
X147566049Y-79199132D01*
X147569080Y-79160739D01*
X147571108Y-79118046D01*
X147572278Y-79069983D01*
X147572734Y-79015481D01*
X147572754Y-78999539D01*
X147572679Y-78965467D01*
X147572466Y-78928619D01*
X147572128Y-78889796D01*
X147571682Y-78849799D01*
X147571143Y-78809430D01*
X147570525Y-78769492D01*
X147569844Y-78730786D01*
X147569115Y-78694114D01*
X147568354Y-78660277D01*
X147567575Y-78630078D01*
X147566793Y-78604318D01*
X147566025Y-78583799D01*
X147565285Y-78569323D01*
X147564587Y-78561691D01*
X147564448Y-78561032D01*
X147563998Y-78554567D01*
X147564187Y-78541829D01*
X147564913Y-78524323D01*
X147566076Y-78503556D01*
X147567573Y-78481035D01*
X147569303Y-78458266D01*
X147571166Y-78436754D01*
X147573060Y-78418008D01*
X147574882Y-78403532D01*
X147575169Y-78401662D01*
X147586111Y-78340926D01*
X147599694Y-78279248D01*
X147615624Y-78217360D01*
X147633606Y-78155995D01*
X147653347Y-78095888D01*
X147674552Y-78037770D01*
X147696926Y-77982376D01*
X147720175Y-77930438D01*
X147744005Y-77882690D01*
X147768121Y-77839864D01*
X147792229Y-77802695D01*
X147816035Y-77771915D01*
X147836523Y-77750675D01*
X147850805Y-77738001D01*
X147861844Y-77729107D01*
X147871980Y-77722305D01*
X147883551Y-77715905D01*
X147887323Y-77713976D01*
X147917303Y-77702062D01*
X147948913Y-77696140D01*
X147983200Y-77696160D01*
G37*
X147983200Y-77696160D02*
X148021212Y-77702067D01*
X148039012Y-77706419D01*
X148092396Y-77723821D01*
X148139915Y-77745946D01*
X148182122Y-77773051D01*
X148184308Y-77774698D01*
X148210168Y-77796733D01*
X148230973Y-77820379D01*
X148248967Y-77848313D01*
X148254443Y-77858493D01*
X148270979Y-77889140D01*
X148286363Y-77914279D01*
X148301983Y-77935443D01*
X148319232Y-77954164D01*
X148339499Y-77971974D01*
X148364175Y-77990405D01*
X148390088Y-78007991D01*
X148424328Y-78031717D01*
X148453563Y-78054329D01*
X148477387Y-78075428D01*
X148495395Y-78094614D01*
X148507183Y-78111490D01*
X148512346Y-78125655D01*
X148512554Y-78128635D01*
X148510816Y-78137411D01*
X148504125Y-78141755D01*
X148502056Y-78142332D01*
X148491479Y-78143158D01*
X148474795Y-78142236D01*
X148453465Y-78139762D01*
X148428951Y-78135933D01*
X148402715Y-78130948D01*
X148379692Y-78125838D01*
X148360315Y-78121280D01*
X148341482Y-78116943D01*
X148325893Y-78113447D01*
X148319123Y-78111988D01*
X148304417Y-78108815D01*
X148290350Y-78105622D01*
X148285908Y-78104561D01*
X148278780Y-78103023D01*
X148269881Y-78101571D01*
X148257870Y-78100043D01*
X148241401Y-78098276D01*
X148219133Y-78096108D01*
X148205960Y-78094874D01*
X148195453Y-78095053D01*
X148178948Y-78096705D01*
X148158064Y-78099563D01*
X148134422Y-78103358D01*
X148109642Y-78107825D01*
X148085345Y-78112694D01*
X148063150Y-78117698D01*
X148054254Y-78119930D01*
X148015805Y-78132573D01*
X147981455Y-78149115D01*
X147952120Y-78168948D01*
X147928716Y-78191465D01*
X147913581Y-78213332D01*
X147909167Y-78223268D01*
X147903198Y-78239204D01*
X147896170Y-78259596D01*
X147888578Y-78282902D01*
X147880918Y-78307579D01*
X147873685Y-78332086D01*
X147867375Y-78354879D01*
X147864386Y-78366493D01*
X147855105Y-78408982D01*
X147846647Y-78457999D01*
X147839188Y-78512280D01*
X147832902Y-78570563D01*
X147828327Y-78626354D01*
X147826888Y-78653022D01*
X147825859Y-78685253D01*
X147825219Y-78722097D01*
X147824947Y-78762603D01*
X147825023Y-78805821D01*
X147825425Y-78850802D01*
X147826133Y-78896595D01*
X147827125Y-78942250D01*
X147828381Y-78986817D01*
X147829880Y-79029346D01*
X147831601Y-79068887D01*
X147833523Y-79104489D01*
X147835626Y-79135204D01*
X147837887Y-79160080D01*
X147840288Y-79178167D01*
X147840485Y-79179293D01*
X147847068Y-79215074D01*
X147852958Y-79244589D01*
X147858607Y-79269302D01*
X147864467Y-79290676D01*
X147870991Y-79310178D01*
X147878630Y-79329270D01*
X147887837Y-79349418D01*
X147899065Y-79372085D01*
X147901502Y-79376873D01*
X147913781Y-79400122D01*
X147926910Y-79423261D01*
X147941476Y-79447171D01*
X147958068Y-79472733D01*
X147977272Y-79500829D01*
X147999677Y-79532339D01*
X148025871Y-79568147D01*
X148055894Y-79608403D01*
X148074185Y-79632980D01*
X148091518Y-79656688D01*
X148107157Y-79678488D01*
X148120366Y-79697340D01*
X148130407Y-79712204D01*
X148136543Y-79722040D01*
X148137046Y-79722952D01*
X148142749Y-79735363D01*
X148149652Y-79753117D01*
X148156951Y-79774003D01*
X148163841Y-79795809D01*
X148164944Y-79799550D01*
X148174921Y-79838343D01*
X148182104Y-79877350D01*
X148186729Y-79918533D01*
X148189035Y-79963856D01*
X148189383Y-80001862D01*
X148189158Y-80024217D01*
X148188552Y-80040832D01*
X148187266Y-80053782D01*
X148185001Y-80065141D01*
X148181457Y-80076985D01*
X148176565Y-80090762D01*
X148168914Y-80109727D01*
X148162390Y-80121201D01*
X148156596Y-80125355D01*
X148151134Y-80122362D01*
X148145608Y-80112396D01*
X148142897Y-80105416D01*
X148138550Y-80094511D01*
X148134905Y-80087419D01*
X148133385Y-80085877D01*
X148129098Y-80089162D01*
X148122324Y-80098051D01*
X148113943Y-80111090D01*
X148104831Y-80126829D01*
X148095865Y-80143815D01*
X148087924Y-80160597D01*
X148087145Y-80162379D01*
X148078131Y-80183121D01*
X148071482Y-80197898D01*
X148066480Y-80207931D01*
X148062410Y-80214437D01*
X148058554Y-80218637D01*
X148054198Y-80221749D01*
X148051222Y-80223498D01*
X148043188Y-80227627D01*
X148038658Y-80227308D01*
X148034463Y-80222156D01*
X148033968Y-80221403D01*
X148030695Y-80212163D01*
X148028086Y-80195776D01*
X148026241Y-80172887D01*
X148026103Y-80170285D01*
X148025034Y-80152687D01*
X148023810Y-80137959D01*
X148022598Y-80127869D01*
X148021756Y-80124336D01*
X148018179Y-80123641D01*
X148013200Y-80129011D01*
X148007659Y-80139022D01*
X148002395Y-80152252D01*
X147999471Y-80162093D01*
X147989935Y-80192529D01*
X147978604Y-80216158D01*
X147965050Y-80233867D01*
X147964934Y-80233985D01*
X147951716Y-80244826D01*
X147935458Y-80254586D01*
X147918849Y-80261913D01*
X147904579Y-80265455D01*
X147902024Y-80265593D01*
X147895980Y-80266761D01*
X147889498Y-80270948D01*
X147881349Y-80279244D01*
X147870304Y-80292736D01*
X147867825Y-80295916D01*
X147850354Y-80318210D01*
X147836611Y-80335084D01*
X147825703Y-80347423D01*
X147816740Y-80356111D01*
X147808830Y-80362033D01*
X147801081Y-80366074D01*
X147794729Y-80368437D01*
X147782939Y-80371776D01*
X147775722Y-80371397D01*
X147771538Y-80366114D01*
X147768847Y-80354743D01*
X147767766Y-80347693D01*
X147765138Y-80332740D01*
X147762118Y-80325233D01*
X147757820Y-80324815D01*
X147751355Y-80331133D01*
X147745489Y-80338792D01*
X147735950Y-80350525D01*
X147722941Y-80364889D01*
X147708825Y-80379310D01*
X147704522Y-80383457D01*
X147678911Y-80406324D01*
X147657317Y-80422564D01*
X147639669Y-80432207D01*
X147625898Y-80435287D01*
X147615931Y-80431835D01*
X147611328Y-80425846D01*
X147606643Y-80415467D01*
X147603970Y-80408262D01*
X147602153Y-80404901D01*
X147598992Y-80405196D01*
X147593318Y-80409870D01*
X147583959Y-80419648D01*
X147581854Y-80421939D01*
X147570928Y-80434268D01*
X147557214Y-80450322D01*
X147542759Y-80467683D01*
X147533672Y-80478851D01*
X147507391Y-80509566D01*
X147483295Y-80533453D01*
X147460769Y-80550981D01*
X147439195Y-80562619D01*
X147417958Y-80568833D01*
X147414497Y-80569363D01*
X147403610Y-80569971D01*
X147398054Y-80567648D01*
X147396602Y-80565183D01*
X147396586Y-80559521D01*
X147397983Y-80547524D01*
X147400591Y-80530505D01*
X147404210Y-80509775D01*
X147408636Y-80486648D01*
X147408724Y-80486212D01*
X147414593Y-80455806D01*
X147418398Y-80432852D01*
X147419918Y-80417209D01*
X147418931Y-80408733D01*
X147415213Y-80407283D01*
X147408542Y-80412714D01*
X147398696Y-80424885D01*
X147385453Y-80443653D01*
X147372497Y-80462969D01*
X147353923Y-80490464D01*
X147338321Y-80512219D01*
X147324789Y-80529281D01*
X147312429Y-80542700D01*
X147300341Y-80553525D01*
X147287623Y-80562805D01*
X147285802Y-80564001D01*
X147267043Y-80575715D01*
X147251483Y-80584084D01*
X147236142Y-80590545D01*
X147219108Y-80596213D01*
X147204203Y-80600330D01*
X147194951Y-80601197D01*
X147189725Y-80598412D01*
X147186897Y-80591567D01*
X147186150Y-80588016D01*
X147183582Y-80578999D01*
X147180574Y-80574465D01*
X147180073Y-80574339D01*
X147175325Y-80575511D01*
X147164524Y-80578744D01*
X147149031Y-80583615D01*
X147130201Y-80589700D01*
X147118652Y-80593498D01*
X147087135Y-80603665D01*
X147061834Y-80611161D01*
X147041696Y-80616194D01*
X147025671Y-80618972D01*
X147012709Y-80619702D01*
X147001757Y-80618592D01*
X146997137Y-80617530D01*
X146987156Y-80613983D01*
X146981343Y-80610255D01*
X146980738Y-80608982D01*
X146981921Y-80601664D01*
X146984990Y-80589446D01*
X146989222Y-80574795D01*
X146993898Y-80560178D01*
X146998295Y-80548062D01*
X146999157Y-80545968D01*
X147002537Y-80536249D01*
X147003394Y-80529805D01*
X147003015Y-80528882D01*
X146998630Y-80529228D01*
X146988510Y-80531965D01*
X146974195Y-80536629D01*
X146958442Y-80542299D01*
X146923466Y-80555227D01*
X146894913Y-80565315D01*
X146872002Y-80572751D01*
X146853951Y-80577721D01*
X146839979Y-80580412D01*
X146829303Y-80581012D01*
X146821142Y-80579708D01*
X146814723Y-80576692D01*
X146809330Y-80572338D01*
X146806365Y-80566724D01*
X146805122Y-80557569D01*
X146804892Y-80544941D01*
X146804908Y-80534414D01*
X146804213Y-80526988D01*
X146801696Y-80522319D01*
X146796245Y-80520064D01*
X146786748Y-80519877D01*
X146772095Y-80521416D01*
X146751173Y-80524335D01*
X146742369Y-80525590D01*
X146714277Y-80530041D01*
X146692305Y-80534992D01*
X146674770Y-80541326D01*
X146659986Y-80549928D01*
X146646268Y-80561682D01*
X146631931Y-80577472D01*
X146623259Y-80588087D01*
X146594205Y-80622175D01*
X146566793Y-80649424D01*
X146540255Y-80670430D01*
X146513820Y-80685790D01*
X146486720Y-80696098D01*
X146482189Y-80697339D01*
X146464079Y-80702389D01*
X146448615Y-80707759D01*
X146434644Y-80714235D01*
X146421011Y-80722608D01*
X146406562Y-80733666D01*
X146390144Y-80748196D01*
X146370602Y-80766987D01*
X146349815Y-80787763D01*
X146326095Y-80810245D01*
X146298677Y-80833878D01*
X146270003Y-80856687D01*
X146242513Y-80876698D01*
X146227772Y-80886434D01*
X146216880Y-80893602D01*
X146209051Y-80899351D01*
X146206280Y-80902045D01*
X146202630Y-80904922D01*
X146194110Y-80910275D01*
X146182769Y-80916941D01*
X146170654Y-80923757D01*
X146159813Y-80929562D01*
X146152294Y-80933194D01*
X146150251Y-80933846D01*
X146150358Y-80930691D01*
X146152975Y-80922684D01*
X146157222Y-80912018D01*
X146162218Y-80900884D01*
X146167084Y-80891472D01*
X146167688Y-80890445D01*
X146172634Y-80882685D01*
X146180649Y-80870622D01*
X146190324Y-80856363D01*
X146194598Y-80850149D01*
X146205517Y-80832769D01*
X146214804Y-80815048D01*
X146221736Y-80798680D01*
X146225592Y-80785364D01*
X146225713Y-80776970D01*
X146222154Y-80776942D01*
X146214189Y-80780784D01*
X146204964Y-80786699D01*
X146180391Y-80803844D01*
X146160691Y-80817271D01*
X146144429Y-80827880D01*
X146130172Y-80836568D01*
X146116487Y-80844234D01*
X146101938Y-80851778D01*
X146097895Y-80853801D01*
X146079967Y-80862486D01*
X146057585Y-80872975D01*
X146033487Y-80884004D01*
X146010407Y-80894307D01*
X146008325Y-80895221D01*
X145962560Y-80916427D01*
X145922857Y-80937432D01*
X145887547Y-80959162D01*
X145867413Y-80973196D01*
X145854592Y-80982110D01*
X145843704Y-80988883D01*
X145836603Y-80992387D01*
X145835466Y-80992633D01*
X145828492Y-80994052D01*
X145817850Y-80997383D01*
X145814292Y-80998672D01*
X145802123Y-81002739D01*
X145791508Y-81005480D01*
X145789595Y-81005809D01*
X145780938Y-81008243D01*
X145776968Y-81010638D01*
X145774407Y-81016040D01*
X145770563Y-81027749D01*
X145765782Y-81044428D01*
X145760413Y-81064740D01*
X145754803Y-81087350D01*
X145749299Y-81110919D01*
X145744250Y-81134113D01*
X145742062Y-81144862D01*
X145732077Y-81200065D01*
X145724953Y-81250268D01*
X145720701Y-81295108D01*
X145719330Y-81334221D01*
X145720852Y-81367244D01*
X145725276Y-81393814D01*
X145732614Y-81413567D01*
X145734291Y-81416445D01*
X145741563Y-81424779D01*
X145752963Y-81434493D01*
X145763511Y-81441846D01*
X145783000Y-81457052D01*
X145798200Y-81476467D01*
X145798956Y-81477688D01*
X145811688Y-81495112D01*
X145829959Y-81515425D01*
X145852580Y-81537539D01*
X145878362Y-81560364D01*
X145906117Y-81582813D01*
X145934657Y-81603796D01*
X145942474Y-81609157D01*
X145970154Y-81627516D01*
X146003387Y-81649037D01*
X146041023Y-81673014D01*
X146081914Y-81698740D01*
X146124910Y-81725508D01*
X146168863Y-81752612D01*
X146212623Y-81779345D01*
X146255042Y-81804999D01*
X146294970Y-81828869D01*
X146331258Y-81850246D01*
X146362758Y-81868425D01*
X146377000Y-81876455D01*
X146398021Y-81887673D01*
X146422515Y-81899970D01*
X146446715Y-81911483D01*
X146459062Y-81917037D01*
X146487099Y-81929640D01*
X146516046Y-81943282D01*
X146544646Y-81957315D01*
X146571644Y-81971092D01*
X146595781Y-81983966D01*
X146615801Y-81995291D01*
X146630448Y-82004420D01*
X146634748Y-82007483D01*
X146648386Y-82019594D01*
X146656366Y-82031462D01*
X146658729Y-82037813D01*
X146665604Y-82058246D01*
X146675193Y-82082895D01*
X146686403Y-82109149D01*
X146698139Y-82134398D01*
X146704497Y-82147052D01*
X146712691Y-82161872D01*
X146721228Y-82174820D01*
X146731327Y-82187303D01*
X146744212Y-82200726D01*
X146761102Y-82216494D01*
X146777332Y-82230879D01*
X146799167Y-82253506D01*
X146812956Y-82274676D01*
X146825236Y-82293025D01*
X146843837Y-82312813D01*
X146867628Y-82333116D01*
X146895479Y-82353013D01*
X146926260Y-82371580D01*
X146941429Y-82379590D01*
X146971825Y-82398906D01*
X146996604Y-82423081D01*
X147015242Y-82451418D01*
X147027209Y-82483219D01*
X147030041Y-82496943D01*
X147031118Y-82510378D01*
X147028521Y-82517929D01*
X147021440Y-82520049D01*
X147009063Y-82517194D01*
X146999995Y-82513785D01*
X146968380Y-82503671D01*
X146937460Y-82498789D01*
X146911793Y-82499218D01*
X146889725Y-82498794D01*
X146864088Y-82493225D01*
X146836555Y-82483166D01*
X146808800Y-82469266D01*
X146782496Y-82452179D01*
X146773860Y-82445498D01*
X146759292Y-82433806D01*
X146744443Y-82422106D01*
X146730625Y-82411405D01*
X146719149Y-82402710D01*
X146711329Y-82397029D01*
X146708525Y-82395323D01*
X146706387Y-82398527D01*
X146702679Y-82406427D01*
X146701864Y-82408344D01*
X146691554Y-82424855D01*
X146677405Y-82434691D01*
X146659814Y-82437599D01*
X146656400Y-82437375D01*
X146633900Y-82432049D01*
X146610256Y-82421130D01*
X146587448Y-82406034D01*
X146567458Y-82388177D01*
X146552266Y-82368973D01*
X146547061Y-82359247D01*
X146542952Y-82347836D01*
X146538241Y-82331545D01*
X146533712Y-82313187D01*
X146532035Y-82305446D01*
X146521850Y-82265056D01*
X146508909Y-82230792D01*
X146492417Y-82201217D01*
X146471580Y-82174893D01*
X146447081Y-82151624D01*
X146426343Y-82134925D01*
X146399603Y-82114731D01*
X146367592Y-82091517D01*
X146331040Y-82065758D01*
X146290679Y-82037928D01*
X146247239Y-82008502D01*
X146201451Y-81977954D01*
X146154046Y-81946760D01*
X146105754Y-81915394D01*
X146057306Y-81884330D01*
X146009433Y-81854043D01*
X145962866Y-81825007D01*
X145918335Y-81797698D01*
X145876571Y-81772590D01*
X145838304Y-81750157D01*
X145804266Y-81730874D01*
X145775188Y-81715216D01*
X145775167Y-81715205D01*
X145747996Y-81702326D01*
X145716884Y-81689574D01*
X145685581Y-81678463D01*
X145679428Y-81676510D01*
X145635355Y-81662372D01*
X145598319Y-81649394D01*
X145567685Y-81637243D01*
X145542816Y-81625587D01*
X145523080Y-81614095D01*
X145507839Y-81602434D01*
X145496460Y-81590273D01*
X145488306Y-81577280D01*
X145487866Y-81576386D01*
X145483426Y-81565990D01*
X145481203Y-81556312D01*
X145480839Y-81544492D01*
X145481897Y-81528601D01*
X145483800Y-81508973D01*
X145486597Y-81483346D01*
X145490071Y-81453460D01*
X145494006Y-81421054D01*
X145498186Y-81387864D01*
X145502393Y-81355631D01*
X145506412Y-81326092D01*
X145510027Y-81300985D01*
X145511178Y-81293424D01*
X145513948Y-81274906D01*
X145516068Y-81259421D01*
X145517345Y-81248468D01*
X145517589Y-81243550D01*
X145517539Y-81243437D01*
X145514908Y-81245895D01*
X145508734Y-81253643D01*
X145499864Y-81265500D01*
X145489142Y-81280287D01*
X145477412Y-81296824D01*
X145465520Y-81313933D01*
X145454309Y-81330433D01*
X145444625Y-81345146D01*
X145444007Y-81346108D01*
X145425977Y-81375993D01*
X145411908Y-81403852D01*
X145400287Y-81433024D01*
X145390193Y-81464800D01*
X145384300Y-81484429D01*
X145379435Y-81498323D01*
X145374690Y-81508316D01*
X145369157Y-81516246D01*
X145361928Y-81523947D01*
X145360039Y-81525776D01*
X145353367Y-81532881D01*
X145347479Y-81541045D01*
X145342125Y-81551089D01*
X145337052Y-81563834D01*
X145332009Y-81580100D01*
X145326745Y-81600709D01*
X145321007Y-81626481D01*
X145314546Y-81658237D01*
X145307108Y-81696797D01*
X145306241Y-81701378D01*
X145283762Y-81824095D01*
X145264109Y-81939554D01*
X145247278Y-82047780D01*
X145233266Y-82148801D01*
X145222070Y-82242642D01*
X145213686Y-82329330D01*
X145208111Y-82408893D01*
X145205342Y-82481356D01*
X145205018Y-82508646D01*
X145204945Y-82541889D01*
X145205238Y-82568450D01*
X145206270Y-82589464D01*
X145208416Y-82606065D01*
X145212048Y-82619386D01*
X145217542Y-82630563D01*
X145225269Y-82640728D01*
X145235605Y-82651016D01*
X145248923Y-82662561D01*
X145258334Y-82670425D01*
X145274771Y-82683698D01*
X145290747Y-82695836D01*
X145304471Y-82705525D01*
X145314151Y-82711448D01*
X145314396Y-82711572D01*
X145326859Y-82716151D01*
X145345681Y-82720872D01*
X145369424Y-82725400D01*
X145383202Y-82727562D01*
X145412820Y-82732017D01*
X145435813Y-82735796D01*
X145453312Y-82739156D01*
X145466452Y-82742351D01*
X145476366Y-82745637D01*
X145484186Y-82749269D01*
X145487122Y-82750961D01*
X145497278Y-82760380D01*
X145499940Y-82771780D01*
X145495105Y-82785236D01*
X145485612Y-82797782D01*
X145476418Y-82806810D01*
X145466429Y-82813799D01*
X145454692Y-82818878D01*
X145440249Y-82822175D01*
X145422145Y-82823818D01*
X145399425Y-82823937D01*
X145371134Y-82822658D01*
X145336316Y-82820110D01*
X145325831Y-82819235D01*
X145280449Y-82815352D01*
X145242140Y-82812011D01*
X145210186Y-82809132D01*
X145183870Y-82806632D01*
X145162474Y-82804433D01*
X145145281Y-82802452D01*
X145131572Y-82800609D01*
X145120630Y-82798823D01*
X145111738Y-82797014D01*
X145104177Y-82795101D01*
X145099702Y-82793784D01*
X145079934Y-82786450D01*
X145066082Y-82777653D01*
X145056255Y-82765555D01*
X145048563Y-82748318D01*
X145046431Y-82742001D01*
X145036559Y-82717829D01*
X145023852Y-82699411D01*
X145006912Y-82684819D01*
X145003174Y-82682367D01*
X144989322Y-82669698D01*
X144977484Y-82650492D01*
X144972279Y-82638902D01*
X144968853Y-82628083D01*
X144966746Y-82615666D01*
X144965500Y-82599284D01*
X144964953Y-82585973D01*
X144964781Y-82565078D01*
X144965513Y-82543718D01*
X144966999Y-82525158D01*
X144968041Y-82517588D01*
X144969851Y-82508632D01*
X144973341Y-82492924D01*
X144978313Y-82471302D01*
X144984569Y-82444602D01*
X144991912Y-82413658D01*
X145000145Y-82379307D01*
X145009070Y-82342385D01*
X145018488Y-82303729D01*
X145020938Y-82293723D01*
X145035484Y-82234162D01*
X145048298Y-82181076D01*
X145059591Y-82133373D01*
X145069578Y-82089958D01*
X145078471Y-82049737D01*
X145086482Y-82011617D01*
X145093825Y-81974505D01*
X145100712Y-81937305D01*
X145107355Y-81898926D01*
X145113968Y-81858272D01*
X145120763Y-81814250D01*
X145127952Y-81765767D01*
X145135750Y-81711729D01*
X145140184Y-81680586D01*
X145147423Y-81629147D01*
X145153533Y-81584721D01*
X145158594Y-81546597D01*
X145162687Y-81514068D01*
X145165891Y-81486425D01*
X145168287Y-81462958D01*
X145169955Y-81442958D01*
X145170976Y-81425717D01*
X145171431Y-81410525D01*
X145171472Y-81404621D01*
X145172896Y-81365914D01*
X145176934Y-81326761D01*
X145183252Y-81288984D01*
X145191515Y-81254406D01*
X145201388Y-81224851D01*
X145206698Y-81212783D01*
X145215686Y-81197386D01*
X145226822Y-81182402D01*
X145234969Y-81173707D01*
X145267539Y-81142693D01*
X145300716Y-81108730D01*
X145333641Y-81072859D01*
X145365453Y-81036124D01*
X145395294Y-80999566D01*
X145422303Y-80964227D01*
X145445622Y-80931150D01*
X145464390Y-80901377D01*
X145473877Y-80884023D01*
X145484224Y-80863508D01*
X145412843Y-80863502D01*
X145386425Y-80863393D01*
X145366569Y-80863004D01*
X145352023Y-80862234D01*
X145341535Y-80860983D01*
X145333853Y-80859150D01*
X145327785Y-80856663D01*
X145318789Y-80851000D01*
X145313785Y-80844328D01*
X145312978Y-80835755D01*
X145316576Y-80824391D01*
X145324784Y-80809344D01*
X145337811Y-80789721D01*
X145345960Y-80778242D01*
X145356133Y-80763811D01*
X145365058Y-80750616D01*
X145371352Y-80740724D01*
X145372953Y-80737910D01*
X145378346Y-80727588D01*
X145320526Y-80744665D01*
X145291883Y-80753274D01*
X145269630Y-80760360D01*
X145252593Y-80766367D01*
X145239597Y-80771738D01*
X145229470Y-80776917D01*
X145221303Y-80782158D01*
X145209636Y-80787610D01*
X145200716Y-80786539D01*
X145195376Y-80780000D01*
X145194453Y-80769048D01*
X145198781Y-80754737D01*
X145199083Y-80754093D01*
X145205172Y-80740015D01*
X145210016Y-80726479D01*
X145212991Y-80715507D01*
X145213475Y-80709120D01*
X145213144Y-80708488D01*
X145209191Y-80709932D01*
X145199658Y-80716149D01*
X145184925Y-80726854D01*
X145165370Y-80741762D01*
X145141372Y-80760589D01*
X145113309Y-80783049D01*
X145104673Y-80790032D01*
X145083253Y-80806781D01*
X145065995Y-80818676D01*
X145051557Y-80826416D01*
X145038597Y-80830696D01*
X145025773Y-80832213D01*
X145023332Y-80832246D01*
X145011004Y-80830755D01*
X145003234Y-80825527D01*
X145001714Y-80823561D01*
X144998304Y-80817323D01*
X144996442Y-80809639D01*
X144996152Y-80799175D01*
X144997459Y-80784598D01*
X145000388Y-80764574D01*
X145003136Y-80748231D01*
X145005847Y-80730673D01*
X145007513Y-80715933D01*
X145007980Y-80705711D01*
X145007313Y-80701839D01*
X145002927Y-80702482D01*
X144993537Y-80706906D01*
X144980527Y-80714389D01*
X144968047Y-80722354D01*
X144947621Y-80735117D01*
X144931907Y-80742913D01*
X144919889Y-80746088D01*
X144910547Y-80744987D01*
X144906882Y-80743150D01*
X144900481Y-80735082D01*
X144894642Y-80719555D01*
X144889468Y-80696913D01*
X144886006Y-80674850D01*
X144883332Y-80658105D01*
X144880310Y-80644172D01*
X144877394Y-80634958D01*
X144875886Y-80632490D01*
X144872172Y-80630762D01*
X144866422Y-80630770D01*
X144857707Y-80632811D01*
X144845099Y-80637184D01*
X144827669Y-80644187D01*
X144804488Y-80654120D01*
X144793089Y-80659116D01*
X144773542Y-80667629D01*
X144759766Y-80673263D01*
X144750419Y-80676377D01*
X144744158Y-80677329D01*
X144739642Y-80676479D01*
X144735863Y-80674406D01*
X144731144Y-80669181D01*
X144723528Y-80658265D01*
X144713781Y-80642867D01*
X144702671Y-80624198D01*
X144691576Y-80604575D01*
X144674811Y-80574305D01*
X144661153Y-80549996D01*
X144650025Y-80530716D01*
X144640851Y-80515532D01*
X144633053Y-80503512D01*
X144626056Y-80493723D01*
X144619282Y-80485235D01*
X144613991Y-80479150D01*
X144604781Y-80469450D01*
X144599184Y-80465316D01*
X144596122Y-80466067D01*
X144595432Y-80467401D01*
X144593953Y-80477770D01*
X144594624Y-80494800D01*
X144597315Y-80517675D01*
X144601899Y-80545578D01*
X144608246Y-80577696D01*
X144616228Y-80613211D01*
X144622506Y-80638816D01*
X144629019Y-80666372D01*
X144634448Y-80692960D01*
X144638636Y-80717431D01*
X144641425Y-80738636D01*
X144642657Y-80755425D01*
X144642173Y-80766650D01*
X144640632Y-80770685D01*
X144635826Y-80772174D01*
X144629487Y-80767160D01*
X144628748Y-80766323D01*
X144608526Y-80742122D01*
X144588429Y-80716106D01*
X144572370Y-80694063D01*
X144561721Y-80679672D01*
X144551781Y-80667136D01*
X144543999Y-80658244D01*
X144541108Y-80655510D01*
X144532170Y-80650623D01*
X144523173Y-80648826D01*
X144516677Y-80650310D01*
X144514985Y-80653586D01*
X144516263Y-80658538D01*
X144519852Y-80669749D01*
X144525382Y-80686136D01*
X144532485Y-80706618D01*
X144540791Y-80730110D01*
X144546628Y-80746394D01*
X144561219Y-80786923D01*
X144573334Y-80820737D01*
X144583164Y-80848467D01*
X144590900Y-80870744D01*
X144596732Y-80888199D01*
X144600850Y-80901464D01*
X144603444Y-80911170D01*
X144604706Y-80917948D01*
X144604825Y-80922429D01*
X144603991Y-80925245D01*
X144602396Y-80927026D01*
X144601323Y-80927756D01*
X144595397Y-80927590D01*
X144584788Y-80924031D01*
X144571330Y-80917997D01*
X144556856Y-80910408D01*
X144543202Y-80902185D01*
X144532200Y-80894245D01*
X144529215Y-80891607D01*
X144521199Y-80883368D01*
X144509554Y-80870659D01*
X144495654Y-80855012D01*
X144480872Y-80837961D01*
X144476001Y-80832246D01*
X144458213Y-80811683D01*
X144441974Y-80793667D01*
X144428033Y-80778977D01*
X144417143Y-80768391D01*
X144410052Y-80762687D01*
X144408135Y-80761908D01*
X144406258Y-80765290D01*
X144403313Y-80773831D01*
X144401889Y-80778681D01*
X144399902Y-80788110D01*
X144399298Y-80798702D01*
X144400129Y-80812422D01*
X144402445Y-80831238D01*
X144403452Y-80838274D01*
X144416444Y-80920546D01*
X144430584Y-80997693D01*
X144444946Y-81065409D01*
X144450095Y-81088781D01*
X144454626Y-81110924D01*
X144458216Y-81130129D01*
X144460541Y-81144687D01*
X144461251Y-81151378D01*
X144461572Y-81162642D01*
X144460369Y-81167991D01*
X144456702Y-81169306D01*
X144452507Y-81168881D01*
X144434362Y-81164263D01*
X144413923Y-81155939D01*
X144394679Y-81145460D01*
X144385594Y-81139128D01*
X144375049Y-81129121D01*
X144363086Y-81115103D01*
X144352086Y-81099896D01*
X144350862Y-81097995D01*
X144337389Y-81077424D01*
X144324832Y-81059526D01*
X144313941Y-81045273D01*
X144305464Y-81035640D01*
X144300153Y-81031602D01*
X144299710Y-81031539D01*
X144294254Y-81029338D01*
X144285647Y-81023851D01*
X144282824Y-81021769D01*
X144274237Y-81015653D01*
X144268356Y-81012250D01*
X144267454Y-81012000D01*
X144266514Y-81015669D01*
X144265729Y-81025724D01*
X144265169Y-81040735D01*
X144264904Y-81059272D01*
X144264892Y-81064336D01*
X144264738Y-81086280D01*
X144264195Y-81101562D01*
X144263142Y-81111330D01*
X144261460Y-81116732D01*
X144259182Y-81118863D01*
X144254324Y-81117061D01*
X144245909Y-81110559D01*
X144235285Y-81100743D01*
X144223800Y-81089000D01*
X144212799Y-81076715D01*
X144203631Y-81065276D01*
X144197642Y-81056068D01*
X144197110Y-81054985D01*
X144191898Y-81045313D01*
X144187847Y-81039354D01*
X144182670Y-81032382D01*
X144175774Y-81022418D01*
X144174036Y-81019816D01*
X144164099Y-81008817D01*
X144153181Y-81005216D01*
X144140324Y-81008871D01*
X144132483Y-81013641D01*
X144116284Y-81021946D01*
X144102167Y-81022813D01*
X144089810Y-81016243D01*
X144086986Y-81013470D01*
X144078725Y-81002365D01*
X144068935Y-80985850D01*
X144058593Y-80965916D01*
X144048679Y-80944555D01*
X144040171Y-80923758D01*
X144034206Y-80906071D01*
X144019655Y-80852932D01*
X144008186Y-80805160D01*
X143999562Y-80761047D01*
X143993545Y-80718885D01*
X143989899Y-80676964D01*
X143988387Y-80633578D01*
X143988770Y-80587018D01*
X143988960Y-80580200D01*
X143995814Y-80477109D01*
X144010069Y-80373288D01*
X144031471Y-80269590D01*
X144059765Y-80166866D01*
X144094699Y-80065966D01*
X144136018Y-79967743D01*
X144183469Y-79873048D01*
X144217177Y-79814293D01*
X144228130Y-79796707D01*
X144241375Y-79776294D01*
X144256163Y-79754126D01*
X144271742Y-79731275D01*
X144287360Y-79708813D01*
X144302268Y-79687813D01*
X144315714Y-79669345D01*
X144326947Y-79654484D01*
X144335216Y-79644299D01*
X144338990Y-79640400D01*
X144342338Y-79636692D01*
X144349384Y-79628326D01*
X144358931Y-79616734D01*
X144365131Y-79609112D01*
X144384793Y-79585967D01*
X144408776Y-79559520D01*
X144435408Y-79531487D01*
X144463019Y-79503582D01*
X144489936Y-79477521D01*
X144514488Y-79455018D01*
X144519991Y-79450210D01*
X144534809Y-79437374D01*
X144547438Y-79426361D01*
X144556725Y-79418182D01*
X144561520Y-79413845D01*
X144561877Y-79413486D01*
X144566383Y-79409589D01*
X144575970Y-79402064D01*
X144589376Y-79391846D01*
X144605339Y-79379875D01*
X144622598Y-79367086D01*
X144639889Y-79354418D01*
X144655953Y-79342808D01*
X144669526Y-79333194D01*
X144675478Y-79329092D01*
X144759814Y-79275507D01*
X144845542Y-79228146D01*
X144931570Y-79187588D01*
X144977478Y-79168829D01*
X145049961Y-79143231D01*
X145128359Y-79119952D01*
X145211025Y-79099341D01*
X145296311Y-79081752D01*
X145382569Y-79067534D01*
X145468150Y-79057038D01*
X145525123Y-79052205D01*
X145542442Y-79050896D01*
X145558095Y-79049497D01*
X145569479Y-79048247D01*
X145572015Y-79047882D01*
X145580980Y-79047078D01*
X145596651Y-79046381D01*
X145617921Y-79045793D01*
X145643679Y-79045318D01*
X145672819Y-79044961D01*
X145704232Y-79044724D01*
X145736809Y-79044611D01*
X145769442Y-79044625D01*
X145801022Y-79044771D01*
X145830442Y-79045052D01*
X145856593Y-79045470D01*
X145878366Y-79046031D01*
X145894653Y-79046737D01*
X145896354Y-79046843D01*
X146009568Y-79056979D01*
X146122959Y-79072502D01*
X146233287Y-79092965D01*
X146236593Y-79093667D01*
X146255099Y-79097599D01*
X146272584Y-79101290D01*
X146286429Y-79104189D01*
X146291390Y-79105214D01*
X146301473Y-79107615D01*
X146316890Y-79111688D01*
X146335489Y-79116849D01*
X146353913Y-79122160D01*
X146408278Y-79138519D01*
X146456492Y-79153925D01*
X146500067Y-79168956D01*
X146540516Y-79184186D01*
X146579354Y-79200193D01*
X146618092Y-79217553D01*
X146658245Y-79236841D01*
X146668428Y-79241905D01*
X146687323Y-79251600D01*
X146707650Y-79262439D01*
X146728210Y-79273735D01*
X146747805Y-79284801D01*
X146765234Y-79294951D01*
X146779299Y-79303498D01*
X146788801Y-79309755D01*
X146792518Y-79312974D01*
X146796969Y-79316044D01*
X146797356Y-79316062D01*
X146801418Y-79318096D01*
X146810448Y-79323546D01*
X146822949Y-79331433D01*
X146837426Y-79340779D01*
X146852382Y-79350604D01*
X146866323Y-79359931D01*
X146877753Y-79367781D01*
X146885175Y-79373175D01*
X146886954Y-79374683D01*
X146891114Y-79377883D01*
X146899461Y-79383715D01*
X146904538Y-79387144D01*
X146920269Y-79397841D01*
X146937821Y-79410078D01*
X146955060Y-79422338D01*
X146969850Y-79433103D01*
X146979230Y-79440203D01*
X146996135Y-79452951D01*
X147019407Y-79469641D01*
X147048781Y-79490085D01*
X147083988Y-79514094D01*
X147086246Y-79515621D01*
X147128119Y-79541738D01*
X147169414Y-79563278D01*
X147208733Y-79579567D01*
X147236329Y-79587994D01*
X147269289Y-79592302D01*
X147304629Y-79589411D01*
X147341845Y-79579384D01*
X147360268Y-79572037D01*
X147399185Y-79552601D01*
X147431774Y-79530869D01*
X147459021Y-79505762D01*
X147481915Y-79476203D01*
X147501441Y-79441115D01*
X147518586Y-79399422D01*
X147518707Y-79399084D01*
X147530792Y-79364030D01*
X147541006Y-79331094D01*
X147549495Y-79299206D01*
X147556401Y-79267296D01*
X147561871Y-79234294D01*
X147566049Y-79199132D01*
X147569080Y-79160739D01*
X147571108Y-79118046D01*
X147572278Y-79069983D01*
X147572734Y-79015481D01*
X147572754Y-78999539D01*
X147572679Y-78965467D01*
X147572466Y-78928619D01*
X147572128Y-78889796D01*
X147571682Y-78849799D01*
X147571143Y-78809430D01*
X147570525Y-78769492D01*
X147569844Y-78730786D01*
X147569115Y-78694114D01*
X147568354Y-78660277D01*
X147567575Y-78630078D01*
X147566793Y-78604318D01*
X147566025Y-78583799D01*
X147565285Y-78569323D01*
X147564587Y-78561691D01*
X147564448Y-78561032D01*
X147563998Y-78554567D01*
X147564187Y-78541829D01*
X147564913Y-78524323D01*
X147566076Y-78503556D01*
X147567573Y-78481035D01*
X147569303Y-78458266D01*
X147571166Y-78436754D01*
X147573060Y-78418008D01*
X147574882Y-78403532D01*
X147575169Y-78401662D01*
X147586111Y-78340926D01*
X147599694Y-78279248D01*
X147615624Y-78217360D01*
X147633606Y-78155995D01*
X147653347Y-78095888D01*
X147674552Y-78037770D01*
X147696926Y-77982376D01*
X147720175Y-77930438D01*
X147744005Y-77882690D01*
X147768121Y-77839864D01*
X147792229Y-77802695D01*
X147816035Y-77771915D01*
X147836523Y-77750675D01*
X147850805Y-77738001D01*
X147861844Y-77729107D01*
X147871980Y-77722305D01*
X147883551Y-77715905D01*
X147887323Y-77713976D01*
X147917303Y-77702062D01*
X147948913Y-77696140D01*
X147983200Y-77696160D01*
D11*
%TO.C,FL1*%
X112000000Y-85000000D02*
X112000000Y-85000000D01*
X112000000Y-84800000D02*
X112000000Y-84800000D01*
D12*
X111200000Y-92200000D02*
X111200000Y-91300000D01*
X112800000Y-91300000D02*
X112800000Y-92200000D01*
X111200000Y-87800000D02*
X111200000Y-88700000D01*
X112800000Y-87800000D02*
X112800000Y-88700000D01*
D11*
X112000000Y-84800000D02*
G75*
G02*
X112000000Y-85000000I0J-100000D01*
G01*
X112000000Y-85000000D02*
G75*
G02*
X112000000Y-84800000I0J100000D01*
G01*
D13*
%TO.C,C25*%
X172760000Y-93162779D02*
X172760000Y-92837221D01*
X171740000Y-93162779D02*
X171740000Y-92837221D01*
%TO.C,C24*%
X178010000Y-96662779D02*
X178010000Y-96337221D01*
X176990000Y-96662779D02*
X176990000Y-96337221D01*
%TO.C,C23*%
X166625279Y-89990000D02*
X166299721Y-89990000D01*
X166625279Y-91010000D02*
X166299721Y-91010000D01*
%TO.C,U2*%
X176385000Y-94637500D02*
X176385000Y-91712500D01*
X176385000Y-94637500D02*
X176385000Y-96137500D01*
X173165000Y-94637500D02*
X173165000Y-93137500D01*
X173165000Y-94637500D02*
X173165000Y-96137500D01*
%TO.C,C20*%
X193360000Y-98602064D02*
X193360000Y-97397936D01*
X190640000Y-98602064D02*
X190640000Y-97397936D01*
%TO.C,R18*%
X179740000Y-86124721D02*
X179740000Y-86450279D01*
X180760000Y-86124721D02*
X180760000Y-86450279D01*
%TO.C,R5*%
X178010000Y-93625279D02*
X178010000Y-93299721D01*
X176990000Y-93625279D02*
X176990000Y-93299721D01*
%TO.C,C22*%
X189860000Y-98602064D02*
X189860000Y-97397936D01*
X187140000Y-98602064D02*
X187140000Y-97397936D01*
%TO.C,C21*%
X186360000Y-98602064D02*
X186360000Y-97397936D01*
X183640000Y-98602064D02*
X183640000Y-97397936D01*
%TO.C,C18*%
X182860000Y-98602064D02*
X182860000Y-97397936D01*
X180140000Y-98602064D02*
X180140000Y-97397936D01*
%TO.C,C11*%
X172760000Y-96375279D02*
X172760000Y-96049721D01*
X171740000Y-96375279D02*
X171740000Y-96049721D01*
%TO.C,C8*%
X163625279Y-88240000D02*
X163299721Y-88240000D01*
X163625279Y-89260000D02*
X163299721Y-89260000D01*
%TO.C,C7*%
X152950279Y-96990000D02*
X152624721Y-96990000D01*
X152950279Y-98010000D02*
X152624721Y-98010000D01*
%TO.C,C6*%
X164375279Y-96740000D02*
X164049721Y-96740000D01*
X164375279Y-97760000D02*
X164049721Y-97760000D01*
%TO.C,C5*%
X152625279Y-88240000D02*
X152299721Y-88240000D01*
X152625279Y-89260000D02*
X152299721Y-89260000D01*
%TO.C,C4*%
X159874721Y-85260000D02*
X160200279Y-85260000D01*
X159874721Y-84240000D02*
X160200279Y-84240000D01*
%TO.C,C3*%
X169049721Y-82510000D02*
X169375279Y-82510000D01*
X169049721Y-81490000D02*
X169375279Y-81490000D01*
%TO.C,C2*%
X168624721Y-97760000D02*
X168950279Y-97760000D01*
X168624721Y-96740000D02*
X168950279Y-96740000D01*
%TO.C,C1*%
X160374721Y-94260000D02*
X160700279Y-94260000D01*
X160374721Y-93240000D02*
X160700279Y-93240000D01*
%TO.C,R12*%
X177760000Y-90299721D02*
X177760000Y-90625279D01*
X176740000Y-90299721D02*
X176740000Y-90625279D01*
%TO.C,R10*%
X173412779Y-90510000D02*
X173087221Y-90510000D01*
X173412779Y-89490000D02*
X173087221Y-89490000D01*
%TO.C,R9*%
X170162779Y-90510000D02*
X169837221Y-90510000D01*
X170162779Y-89490000D02*
X169837221Y-89490000D01*
%TO.C,R4*%
X172200279Y-87010000D02*
X171874721Y-87010000D01*
X172200279Y-85990000D02*
X171874721Y-85990000D01*
%TO.C,C19*%
X166375279Y-82510000D02*
X166049721Y-82510000D01*
X166375279Y-81490000D02*
X166049721Y-81490000D01*
%TO.C,C15*%
X178010000Y-87087221D02*
X178010000Y-87412779D01*
X176990000Y-87087221D02*
X176990000Y-87412779D01*
%TO.C,C13*%
X172162779Y-88760000D02*
X171837221Y-88760000D01*
X172162779Y-87740000D02*
X171837221Y-87740000D01*
%TO.C,C14*%
X158337221Y-90240000D02*
X158662779Y-90240000D01*
X158337221Y-91260000D02*
X158662779Y-91260000D01*
%TO.C,C10*%
X175049721Y-87740000D02*
X175375279Y-87740000D01*
X175049721Y-88760000D02*
X175375279Y-88760000D01*
%TO.C,C9*%
X155200279Y-82510000D02*
X154874721Y-82510000D01*
X155200279Y-81490000D02*
X154874721Y-81490000D01*
%TO.C,R11*%
X175412779Y-87010000D02*
X175087221Y-87010000D01*
X175412779Y-85990000D02*
X175087221Y-85990000D01*
%TO.C,R22*%
X160374721Y-91740000D02*
X160700279Y-91740000D01*
X160374721Y-92760000D02*
X160700279Y-92760000D01*
%TO.C,R21*%
X166625279Y-89260000D02*
X166299721Y-89260000D01*
X166625279Y-88240000D02*
X166299721Y-88240000D01*
%TO.C,R20*%
X162124721Y-89740000D02*
X162450279Y-89740000D01*
X162124721Y-90760000D02*
X162450279Y-90760000D01*
%TO.C,R14*%
X152625279Y-91260000D02*
X152299721Y-91260000D01*
X152625279Y-90240000D02*
X152299721Y-90240000D01*
%TO.C,R8*%
X155700279Y-91260000D02*
X155374721Y-91260000D01*
X155700279Y-90240000D02*
X155374721Y-90240000D01*
%TO.C,R6*%
X160700279Y-95760000D02*
X160374721Y-95760000D01*
X160700279Y-94740000D02*
X160374721Y-94740000D01*
%TO.C,R3*%
X152200279Y-82510000D02*
X151874721Y-82510000D01*
X152200279Y-81490000D02*
X151874721Y-81490000D01*
%TO.C,R2*%
X158950279Y-82510000D02*
X158624721Y-82510000D01*
X158950279Y-81490000D02*
X158624721Y-81490000D01*
%TO.C,R1*%
X160200279Y-86760000D02*
X159874721Y-86760000D01*
X160200279Y-85740000D02*
X159874721Y-85740000D01*
%TO.C,R19*%
X159799721Y-82740000D02*
X160125279Y-82740000D01*
X159799721Y-83760000D02*
X160125279Y-83760000D01*
%TO.C,R17*%
X163375279Y-82510000D02*
X163049721Y-82510000D01*
X163375279Y-81490000D02*
X163049721Y-81490000D01*
%TO.C,R16*%
X159837221Y-87240000D02*
X160162779Y-87240000D01*
X159837221Y-88260000D02*
X160162779Y-88260000D01*
%TO.C,U5*%
X166525000Y-96425000D02*
X168475000Y-96425000D01*
X166525000Y-96425000D02*
X164575000Y-96425000D01*
X166525000Y-91305000D02*
X168475000Y-91305000D01*
X166525000Y-91305000D02*
X163075000Y-91305000D01*
%TO.C,U3*%
X155275000Y-96655000D02*
X157225000Y-96655000D01*
X155275000Y-96655000D02*
X153325000Y-96655000D01*
X155275000Y-91535000D02*
X157225000Y-91535000D01*
X155275000Y-91535000D02*
X151825000Y-91535000D01*
%TO.C,U1*%
X154775000Y-87965000D02*
X156725000Y-87965000D01*
X154775000Y-87965000D02*
X152825000Y-87965000D01*
X154775000Y-82845000D02*
X156725000Y-82845000D01*
X154775000Y-82845000D02*
X151325000Y-82845000D01*
%TO.C,C16*%
X117280000Y-82400000D02*
X119080000Y-82400000D01*
X118180000Y-81500000D02*
X118180000Y-83300000D01*
X119380000Y-79880000D02*
X119380000Y-90120000D01*
X137620000Y-79880000D02*
X137620000Y-90120000D01*
X119380000Y-79880000D02*
X121180000Y-79880000D01*
X121180000Y-79880000D02*
X122080000Y-80780000D01*
X122080000Y-80780000D02*
X122980000Y-79880000D01*
X122980000Y-79880000D02*
X137620000Y-79880000D01*
X119380000Y-90120000D02*
X121180000Y-90120000D01*
X121180000Y-90120000D02*
X122080000Y-89220000D01*
X122080000Y-89220000D02*
X122980000Y-90120000D01*
X122980000Y-90120000D02*
X137620000Y-90120000D01*
X117440000Y-85000000D02*
X119380000Y-85000000D01*
X139560000Y-85000000D02*
X137620000Y-85000000D01*
%TO.C,R13*%
X144130000Y-97950000D02*
X148870000Y-97950000D01*
X148870000Y-97950000D02*
X148870000Y-85810000D01*
X148870000Y-85810000D02*
X144130000Y-85810000D01*
X144130000Y-85810000D02*
X144130000Y-97950000D01*
X146500000Y-98060000D02*
X146500000Y-97950000D01*
X146500000Y-85700000D02*
X146500000Y-85810000D01*
%TO.C,J5*%
X179240000Y-91850000D02*
X179240000Y-93450000D01*
X149580000Y-91850000D02*
X149580000Y-93450000D01*
X179240000Y-85850000D02*
X179240000Y-87450000D01*
X149580000Y-85850000D02*
X149580000Y-87450000D01*
X172610000Y-99050000D02*
X174210000Y-99050000D01*
X172610000Y-80250000D02*
X174210000Y-80250000D01*
X166610000Y-99050000D02*
X168210000Y-99050000D01*
X166610000Y-80250000D02*
X168210000Y-80250000D01*
X160610000Y-99050000D02*
X162210000Y-99050000D01*
X160610000Y-80250000D02*
X162210000Y-80250000D01*
X154610000Y-99050000D02*
X156210000Y-99050000D01*
X154610000Y-80250000D02*
X156210000Y-80250000D01*
%TO.C,R7*%
X156196078Y-89710000D02*
X155678922Y-89710000D01*
X156196078Y-88290000D02*
X155678922Y-88290000D01*
%TO.C,J2*%
X190370000Y-116330000D02*
X190370000Y-113670000D01*
X187770000Y-116330000D02*
X190370000Y-116330000D01*
X187770000Y-113670000D02*
X190370000Y-113670000D01*
X187770000Y-116330000D02*
X187770000Y-113670000D01*
X186500000Y-116330000D02*
X185170000Y-116330000D01*
X185170000Y-116330000D02*
X185170000Y-115000000D01*
%TO.C,J1*%
X185170000Y-111130000D02*
X185170000Y-113790000D01*
X187770000Y-111130000D02*
X185170000Y-111130000D01*
X187770000Y-113790000D02*
X185170000Y-113790000D01*
X187770000Y-111130000D02*
X187770000Y-113790000D01*
X189040000Y-111130000D02*
X190370000Y-111130000D01*
X190370000Y-111130000D02*
X190370000Y-112460000D01*
%TO.C,R15*%
X145790000Y-91821078D02*
X145790000Y-91303922D01*
X147210000Y-91821078D02*
X147210000Y-91303922D01*
%TO.C,J3*%
X95300000Y-95000000D02*
X95300000Y-80000000D01*
X95300000Y-80000000D02*
X110300000Y-80000000D01*
X110300000Y-80000000D02*
X110300000Y-95000000D01*
X110300000Y-95000000D02*
X95300000Y-95000000D01*
X95500000Y-87500000D02*
X96500000Y-88500000D01*
X95500000Y-87500000D02*
X96500000Y-86500000D01*
%TO.C,C17*%
X117280000Y-93400000D02*
X119080000Y-93400000D01*
X118180000Y-92500000D02*
X118180000Y-94300000D01*
X119380000Y-90880000D02*
X119380000Y-101120000D01*
X137620000Y-90880000D02*
X137620000Y-101120000D01*
X119380000Y-90880000D02*
X121180000Y-90880000D01*
X121180000Y-90880000D02*
X122080000Y-91780000D01*
X122080000Y-91780000D02*
X122980000Y-90880000D01*
X122980000Y-90880000D02*
X137620000Y-90880000D01*
X119380000Y-101120000D02*
X121180000Y-101120000D01*
X121180000Y-101120000D02*
X122080000Y-100220000D01*
X122080000Y-100220000D02*
X122980000Y-101120000D01*
X122980000Y-101120000D02*
X137620000Y-101120000D01*
X117440000Y-96000000D02*
X119380000Y-96000000D01*
X139560000Y-96000000D02*
X137620000Y-96000000D01*
%TO.C,U4*%
X165525000Y-82785000D02*
X162075000Y-82785000D01*
X165525000Y-82785000D02*
X167475000Y-82785000D01*
X165525000Y-87905000D02*
X163575000Y-87905000D01*
X165525000Y-87905000D02*
X167475000Y-87905000D01*
%TO.C,BT2*%
X183740000Y-120245000D02*
X140380000Y-120245000D01*
X140380000Y-120245000D02*
X140380000Y-101755000D01*
X183740000Y-101755000D02*
X183740000Y-120245000D01*
X140380000Y-101755000D02*
X183740000Y-101755000D01*
%TO.C,BT1*%
X139740000Y-120245000D02*
X96380000Y-120245000D01*
X96380000Y-120245000D02*
X96380000Y-101755000D01*
X139740000Y-101755000D02*
X139740000Y-120245000D01*
X96380000Y-101755000D02*
X139740000Y-101755000D01*
%TO.C,J4*%
X195200000Y-80000000D02*
X195200000Y-95000000D01*
X195200000Y-95000000D02*
X180200000Y-95000000D01*
X180200000Y-95000000D02*
X180200000Y-80000000D01*
X180200000Y-80000000D02*
X195200000Y-80000000D01*
X195000000Y-87500000D02*
X194000000Y-86500000D01*
X195000000Y-87500000D02*
X194000000Y-88500000D01*
%TO.C,BT2*%
D14*
X142619047Y-109071428D02*
X143380952Y-109071428D01*
X143000000Y-109452380D02*
X143000000Y-108690476D01*
X180619047Y-109071428D02*
X181380952Y-109071428D01*
%TO.C,BT1*%
X98619047Y-109071428D02*
X99380952Y-109071428D01*
X99000000Y-109452380D02*
X99000000Y-108690476D01*
X136619047Y-109071428D02*
X137380952Y-109071428D01*
%TD*%
M02*
