%TF.GenerationSoftware,KiCad,Pcbnew,(5.1.6)-1*%
%TF.CreationDate,2020-07-02T12:36:14+02:00*%
%TF.ProjectId,mu_lna,6d755f6c-6e61-42e6-9b69-6361645f7063,rev?*%
%TF.SameCoordinates,Original*%
%TF.FileFunction,Copper,L2,Bot*%
%TF.FilePolarity,Positive*%
%FSLAX46Y46*%
G04 Gerber Fmt 4.6, Leading zero omitted, Abs format (unit mm)*
G04 Created by KiCad (PCBNEW (5.1.6)-1) date 2020-07-02 12:36:14*
%MOMM*%
%LPD*%
G01*
G04 APERTURE LIST*
%TA.AperFunction,ComponentPad*%
%ADD10C,0.600000*%
%TD*%
%TA.AperFunction,ComponentPad*%
%ADD11O,2.400000X2.400000*%
%TD*%
%TA.AperFunction,ComponentPad*%
%ADD12R,2.400000X2.400000*%
%TD*%
%TA.AperFunction,ComponentPad*%
%ADD13C,2.400000*%
%TD*%
%TA.AperFunction,ComponentPad*%
%ADD14O,1.700000X1.700000*%
%TD*%
%TA.AperFunction,ComponentPad*%
%ADD15R,1.700000X1.700000*%
%TD*%
%TA.AperFunction,ComponentPad*%
%ADD16O,2.500000X1.600000*%
%TD*%
%TA.AperFunction,ComponentPad*%
%ADD17O,7.000000X3.500000*%
%TD*%
%TA.AperFunction,ComponentPad*%
%ADD18C,2.000000*%
%TD*%
%TA.AperFunction,ComponentPad*%
%ADD19R,2.000000X2.000000*%
%TD*%
%TA.AperFunction,ViaPad*%
%ADD20C,0.800000*%
%TD*%
%TA.AperFunction,ViaPad*%
%ADD21C,2.500000*%
%TD*%
%TA.AperFunction,Conductor*%
%ADD22C,0.250000*%
%TD*%
%TA.AperFunction,Conductor*%
%ADD23C,0.254000*%
%TD*%
G04 APERTURE END LIST*
D10*
%TO.P,FL1,5*%
%TO.N,GND*%
X110500000Y-90000000D03*
%TO.P,FL1,4*%
X113500000Y-90000000D03*
%TD*%
D11*
%TO.P,C16,2*%
%TO.N,Net-(C12-Pad2)*%
X141000000Y-85000000D03*
D12*
%TO.P,C16,1*%
%TO.N,Net-(C12-Pad1)*%
X116000000Y-85000000D03*
%TD*%
D11*
%TO.P,R13,2*%
%TO.N,Net-(C12-Pad2)*%
X146500000Y-84260000D03*
D13*
%TO.P,R13,1*%
%TO.N,GND*%
X146500000Y-99500000D03*
%TD*%
D14*
%TO.P,J2,2*%
%TO.N,Net-(BT2-Pad2)*%
X189040000Y-115000000D03*
D15*
%TO.P,J2,1*%
%TO.N,-12V*%
X186500000Y-115000000D03*
%TD*%
D14*
%TO.P,J1,2*%
%TO.N,+12V*%
X186500000Y-112460000D03*
D15*
%TO.P,J1,1*%
%TO.N,Net-(BT1-Pad1)*%
X189040000Y-112460000D03*
%TD*%
D16*
%TO.P,J3,2*%
%TO.N,GND*%
X108000000Y-90040000D03*
%TO.P,J3,1*%
%TO.N,Net-(FL1-Pad1)*%
X108000000Y-87500000D03*
D17*
%TO.P,J3,2*%
%TO.N,GND*%
X102920000Y-82420000D03*
X102920000Y-92580000D03*
%TD*%
D11*
%TO.P,C17,2*%
%TO.N,Net-(C12-Pad2)*%
X141000000Y-96000000D03*
D12*
%TO.P,C17,1*%
%TO.N,Net-(C12-Pad1)*%
X116000000Y-96000000D03*
%TD*%
D18*
%TO.P,BT2,2*%
%TO.N,Net-(BT2-Pad2)*%
X181100000Y-111000000D03*
D19*
%TO.P,BT2,1*%
%TO.N,GND*%
X143000000Y-111000000D03*
%TD*%
D18*
%TO.P,BT1,2*%
%TO.N,GND*%
X137100000Y-111000000D03*
D19*
%TO.P,BT1,1*%
%TO.N,Net-(BT1-Pad1)*%
X99000000Y-111000000D03*
%TD*%
D16*
%TO.P,J4,2*%
%TO.N,GND*%
X182500000Y-84960000D03*
%TO.P,J4,1*%
%TO.N,Net-(C18-Pad2)*%
X182500000Y-87500000D03*
D17*
%TO.P,J4,2*%
%TO.N,GND*%
X187580000Y-92580000D03*
X187580000Y-82420000D03*
%TD*%
D20*
%TO.N,GND*%
X149750000Y-85000000D03*
X149750000Y-88250000D03*
X149750000Y-91000000D03*
X149750000Y-94250000D03*
X150000000Y-98750000D03*
X153750000Y-98750000D03*
X157000000Y-98750000D03*
X159750000Y-98750000D03*
X163000000Y-98750000D03*
X165750000Y-98750000D03*
X169000000Y-98750000D03*
X171750000Y-98750000D03*
X175000000Y-98750000D03*
X179000000Y-98500000D03*
X179000000Y-94500000D03*
X179000000Y-91000000D03*
X179000000Y-88500000D03*
X179000000Y-85000000D03*
X179000000Y-80500000D03*
X175500000Y-80500000D03*
X171500000Y-80500000D03*
X169000000Y-80500000D03*
X165500000Y-80500000D03*
X163000000Y-80500000D03*
X159500000Y-80500000D03*
X157000000Y-80500000D03*
X153500000Y-80500000D03*
X150000000Y-80500000D03*
X96000000Y-75500000D03*
X98000000Y-75500000D03*
X100000000Y-75500000D03*
X102000000Y-75500000D03*
X104000000Y-75500000D03*
X106000000Y-75500000D03*
X108000000Y-75500000D03*
X110000000Y-75500000D03*
X112000000Y-75500000D03*
X114000000Y-75500000D03*
X116000000Y-75500000D03*
X118000000Y-75500000D03*
X120000000Y-75500000D03*
X122000000Y-75500000D03*
X124000000Y-75500000D03*
X126000000Y-75500000D03*
X128000000Y-75500000D03*
X130000000Y-75500000D03*
X132000000Y-75500000D03*
X134000000Y-75500000D03*
X136000000Y-75500000D03*
X138000000Y-75500000D03*
X140000000Y-75500000D03*
X142000000Y-75500000D03*
X146000000Y-75500000D03*
X152000000Y-75500000D03*
X158000000Y-75500000D03*
X164000000Y-75500000D03*
X170000000Y-75500000D03*
X176000000Y-75500000D03*
X184000000Y-75500000D03*
X186000000Y-75500000D03*
X188000000Y-75500000D03*
X190000000Y-75500000D03*
X192000000Y-75500000D03*
X194000000Y-75500000D03*
X96000000Y-124500000D03*
X98000000Y-124500000D03*
X100000000Y-124500000D03*
X102000000Y-124500000D03*
X104000000Y-124500000D03*
X106000000Y-124500000D03*
X108000000Y-124500000D03*
X110000000Y-124500000D03*
X112000000Y-124500000D03*
X114000000Y-124500000D03*
X116000000Y-124500000D03*
X118000000Y-124500000D03*
X120000000Y-124500000D03*
X122000000Y-124500000D03*
X124000000Y-124500000D03*
X126000000Y-124500000D03*
X128000000Y-124500000D03*
X130000000Y-124500000D03*
X132000000Y-124500000D03*
X134000000Y-124500000D03*
X136000000Y-124500000D03*
X138000000Y-124500000D03*
X140000000Y-124500000D03*
X142000000Y-124500000D03*
X144000000Y-124500000D03*
X146000000Y-124500000D03*
X148000000Y-124500000D03*
X150000000Y-124500000D03*
X152000000Y-124500000D03*
X154000000Y-124500000D03*
X156000000Y-124500000D03*
X158000000Y-124500000D03*
X160000000Y-124500000D03*
X162000000Y-124500000D03*
X164000000Y-124500000D03*
X166000000Y-124500000D03*
X168000000Y-124500000D03*
X170000000Y-124500000D03*
X172000000Y-124500000D03*
X174000000Y-124500000D03*
X176000000Y-124500000D03*
X178000000Y-124500000D03*
X180000000Y-124500000D03*
X182000000Y-124500000D03*
X184000000Y-124500000D03*
X186000000Y-124500000D03*
X188000000Y-124500000D03*
X190000000Y-124500000D03*
X192000000Y-124500000D03*
X194000000Y-124500000D03*
X96000000Y-77540000D03*
X96000000Y-79580000D03*
X96000000Y-81620000D03*
X96000000Y-83660000D03*
X96000000Y-85700000D03*
X96000000Y-87740000D03*
X96000000Y-89780000D03*
X96000000Y-91820000D03*
X96000000Y-93860000D03*
X96000000Y-95900000D03*
X96000000Y-97940000D03*
X96000000Y-99980000D03*
X96000000Y-102020000D03*
X96000000Y-104060000D03*
X96000000Y-106100000D03*
X96000000Y-108140000D03*
X96000000Y-110180000D03*
X96000000Y-112220000D03*
X96000000Y-114260000D03*
X96000000Y-116300000D03*
X96000000Y-118340000D03*
X96000000Y-120380000D03*
X96000000Y-122420000D03*
X194000000Y-77540000D03*
X194000000Y-79580000D03*
X194000000Y-81620000D03*
X194000000Y-83660000D03*
X194000000Y-85700000D03*
X194000000Y-87740000D03*
X194000000Y-89780000D03*
X194000000Y-91820000D03*
X194000000Y-93860000D03*
X194000000Y-95900000D03*
X194000000Y-97940000D03*
X194000000Y-99980000D03*
X194000000Y-102020000D03*
X194000000Y-104060000D03*
X194000000Y-106100000D03*
X194000000Y-108140000D03*
X194000000Y-110180000D03*
X194000000Y-112220000D03*
X194000000Y-114260000D03*
X194000000Y-116300000D03*
X194000000Y-118340000D03*
X194000000Y-120380000D03*
X194000000Y-122420000D03*
X144000000Y-75500000D03*
X148000000Y-75500000D03*
X150000000Y-75500000D03*
X154000000Y-75500000D03*
X156000000Y-75500000D03*
X160000000Y-75500000D03*
X162000000Y-75500000D03*
X166000000Y-75500000D03*
X168000000Y-75500000D03*
X172000000Y-75500000D03*
X174000000Y-75500000D03*
X178000000Y-75500000D03*
X180000000Y-75500000D03*
X182000000Y-75500000D03*
X152750000Y-88250000D03*
X152750000Y-90275010D03*
X161500000Y-85250000D03*
X159500000Y-92250000D03*
X162000000Y-94000000D03*
X164187772Y-88248261D03*
X172250000Y-87500000D03*
%TO.N,+12V*%
X166750000Y-97250000D03*
X158520000Y-84770000D03*
X173750000Y-99000000D03*
X176500000Y-96750000D03*
X158774999Y-93475001D03*
%TO.N,-12V*%
X150769802Y-92577352D03*
X151000000Y-88000000D03*
X163000000Y-96250000D03*
X171500000Y-91500000D03*
%TO.N,Net-(R1-Pad1)*%
X164500000Y-91000000D03*
X168250000Y-89750000D03*
%TO.N,Net-(R7-Pad1)*%
X158250000Y-89000000D03*
X164327686Y-85899990D03*
%TO.N,Net-(C9-Pad2)*%
X157000000Y-82000000D03*
X154250000Y-83000000D03*
D21*
%TO.N,Net-(C12-Pad2)*%
X116000000Y-88500000D03*
D20*
%TO.N,Net-(C14-Pad2)*%
X151500000Y-93500000D03*
X160250000Y-90750000D03*
%TO.N,Net-(C19-Pad1)*%
X163602690Y-82164083D03*
X166500000Y-82750000D03*
X161000000Y-88250000D03*
%TD*%
D22*
%TO.N,+12V*%
X166750000Y-97250000D02*
X162235840Y-97250000D01*
X162235840Y-97250000D02*
X158881331Y-93895491D01*
X157524999Y-85765001D02*
X158520000Y-84770000D01*
X160298003Y-89725001D02*
X157901999Y-89725001D01*
X160975001Y-90401999D02*
X160298003Y-89725001D01*
X160598001Y-91475001D02*
X160975001Y-91098001D01*
X159201997Y-91475001D02*
X160598001Y-91475001D01*
X158774999Y-91901999D02*
X159201997Y-91475001D01*
X157524999Y-89348001D02*
X157524999Y-85765001D01*
X157901999Y-89725001D02*
X157524999Y-89348001D01*
X160975001Y-91098001D02*
X160975001Y-90401999D01*
X158881331Y-93895491D02*
X158774999Y-93789159D01*
X175434315Y-96750000D02*
X176500000Y-96750000D01*
X173750000Y-99000000D02*
X173750000Y-98434315D01*
X173750000Y-98434315D02*
X175434315Y-96750000D01*
X158774999Y-93789159D02*
X158774999Y-93475001D01*
X158774999Y-93475001D02*
X158774999Y-91901999D01*
%TO.N,-12V*%
X150769802Y-92577352D02*
X150769802Y-88230198D01*
X150769802Y-88230198D02*
X151000000Y-88000000D01*
X166750000Y-96250000D02*
X163000000Y-96250000D01*
X171500000Y-91500000D02*
X166750000Y-96250000D01*
%TO.N,Net-(R1-Pad1)*%
X164500000Y-91000000D02*
X165750000Y-89750000D01*
X165750000Y-89750000D02*
X168250000Y-89750000D01*
%TO.N,Net-(R7-Pad1)*%
X158250000Y-89000000D02*
X162000000Y-89000000D01*
X162000000Y-89000000D02*
X164500000Y-86500000D01*
X164500000Y-86500000D02*
X164500000Y-86072304D01*
X164500000Y-86072304D02*
X164327686Y-85899990D01*
%TO.N,Net-(C9-Pad2)*%
X157000000Y-82000000D02*
X155250000Y-82000000D01*
X155250000Y-82000000D02*
X154250000Y-83000000D01*
%TO.N,Net-(C14-Pad2)*%
X151500000Y-93500000D02*
X154250000Y-90750000D01*
X154250000Y-90750000D02*
X160250000Y-90750000D01*
%TO.N,Net-(C19-Pad1)*%
X161250000Y-88250000D02*
X163602690Y-85897310D01*
X163602690Y-85897310D02*
X163602690Y-82164083D01*
X165914083Y-82164083D02*
X163602690Y-82164083D01*
X166500000Y-82750000D02*
X165914083Y-82164083D01*
%TD*%
D23*
%TO.N,GND*%
G36*
X194340000Y-124840000D02*
G01*
X95660000Y-124840000D01*
X95660000Y-114150000D01*
X185011928Y-114150000D01*
X185011928Y-115850000D01*
X185024188Y-115974482D01*
X185060498Y-116094180D01*
X185119463Y-116204494D01*
X185198815Y-116301185D01*
X185295506Y-116380537D01*
X185405820Y-116439502D01*
X185525518Y-116475812D01*
X185650000Y-116488072D01*
X187350000Y-116488072D01*
X187474482Y-116475812D01*
X187594180Y-116439502D01*
X187704494Y-116380537D01*
X187801185Y-116301185D01*
X187880537Y-116204494D01*
X187939502Y-116094180D01*
X187961513Y-116021620D01*
X188093368Y-116153475D01*
X188336589Y-116315990D01*
X188606842Y-116427932D01*
X188893740Y-116485000D01*
X189186260Y-116485000D01*
X189473158Y-116427932D01*
X189743411Y-116315990D01*
X189986632Y-116153475D01*
X190193475Y-115946632D01*
X190355990Y-115703411D01*
X190467932Y-115433158D01*
X190525000Y-115146260D01*
X190525000Y-114853740D01*
X190467932Y-114566842D01*
X190355990Y-114296589D01*
X190193475Y-114053368D01*
X190061620Y-113921513D01*
X190134180Y-113899502D01*
X190244494Y-113840537D01*
X190341185Y-113761185D01*
X190420537Y-113664494D01*
X190479502Y-113554180D01*
X190515812Y-113434482D01*
X190528072Y-113310000D01*
X190528072Y-111610000D01*
X190515812Y-111485518D01*
X190479502Y-111365820D01*
X190420537Y-111255506D01*
X190341185Y-111158815D01*
X190244494Y-111079463D01*
X190134180Y-111020498D01*
X190014482Y-110984188D01*
X189890000Y-110971928D01*
X188190000Y-110971928D01*
X188065518Y-110984188D01*
X187945820Y-111020498D01*
X187835506Y-111079463D01*
X187738815Y-111158815D01*
X187659463Y-111255506D01*
X187600498Y-111365820D01*
X187578487Y-111438380D01*
X187446632Y-111306525D01*
X187203411Y-111144010D01*
X186933158Y-111032068D01*
X186646260Y-110975000D01*
X186353740Y-110975000D01*
X186066842Y-111032068D01*
X185796589Y-111144010D01*
X185553368Y-111306525D01*
X185346525Y-111513368D01*
X185184010Y-111756589D01*
X185072068Y-112026842D01*
X185015000Y-112313740D01*
X185015000Y-112606260D01*
X185072068Y-112893158D01*
X185184010Y-113163411D01*
X185346525Y-113406632D01*
X185478380Y-113538487D01*
X185405820Y-113560498D01*
X185295506Y-113619463D01*
X185198815Y-113698815D01*
X185119463Y-113795506D01*
X185060498Y-113905820D01*
X185024188Y-114025518D01*
X185011928Y-114150000D01*
X95660000Y-114150000D01*
X95660000Y-110000000D01*
X97361928Y-110000000D01*
X97361928Y-112000000D01*
X97374188Y-112124482D01*
X97410498Y-112244180D01*
X97469463Y-112354494D01*
X97548815Y-112451185D01*
X97645506Y-112530537D01*
X97755820Y-112589502D01*
X97875518Y-112625812D01*
X98000000Y-112638072D01*
X100000000Y-112638072D01*
X100124482Y-112625812D01*
X100244180Y-112589502D01*
X100354494Y-112530537D01*
X100451185Y-112451185D01*
X100530537Y-112354494D01*
X100589502Y-112244180D01*
X100625812Y-112124482D01*
X100638072Y-112000000D01*
X100638072Y-110779872D01*
X103770000Y-110779872D01*
X103770000Y-111220128D01*
X103855890Y-111651925D01*
X104024369Y-112058669D01*
X104268962Y-112424729D01*
X104580271Y-112736038D01*
X104946331Y-112980631D01*
X105353075Y-113149110D01*
X105784872Y-113235000D01*
X106225128Y-113235000D01*
X106656925Y-113149110D01*
X107063669Y-112980631D01*
X107429729Y-112736038D01*
X107741038Y-112424729D01*
X107985631Y-112058669D01*
X108154110Y-111651925D01*
X108240000Y-111220128D01*
X108240000Y-110779872D01*
X127900000Y-110779872D01*
X127900000Y-111220128D01*
X127985890Y-111651925D01*
X128154369Y-112058669D01*
X128398962Y-112424729D01*
X128710271Y-112736038D01*
X129076331Y-112980631D01*
X129483075Y-113149110D01*
X129914872Y-113235000D01*
X130355128Y-113235000D01*
X130786925Y-113149110D01*
X131193669Y-112980631D01*
X131559729Y-112736038D01*
X131871038Y-112424729D01*
X132064352Y-112135413D01*
X136144192Y-112135413D01*
X136239956Y-112399814D01*
X136529571Y-112540704D01*
X136841108Y-112622384D01*
X137162595Y-112641718D01*
X137481675Y-112597961D01*
X137786088Y-112492795D01*
X137960044Y-112399814D01*
X138055808Y-112135413D01*
X137920395Y-112000000D01*
X141361928Y-112000000D01*
X141374188Y-112124482D01*
X141410498Y-112244180D01*
X141469463Y-112354494D01*
X141548815Y-112451185D01*
X141645506Y-112530537D01*
X141755820Y-112589502D01*
X141875518Y-112625812D01*
X142000000Y-112638072D01*
X142714250Y-112635000D01*
X142873000Y-112476250D01*
X142873000Y-111127000D01*
X143127000Y-111127000D01*
X143127000Y-112476250D01*
X143285750Y-112635000D01*
X144000000Y-112638072D01*
X144124482Y-112625812D01*
X144244180Y-112589502D01*
X144354494Y-112530537D01*
X144451185Y-112451185D01*
X144530537Y-112354494D01*
X144589502Y-112244180D01*
X144625812Y-112124482D01*
X144638072Y-112000000D01*
X144635000Y-111285750D01*
X144476250Y-111127000D01*
X143127000Y-111127000D01*
X142873000Y-111127000D01*
X141523750Y-111127000D01*
X141365000Y-111285750D01*
X141361928Y-112000000D01*
X137920395Y-112000000D01*
X137100000Y-111179605D01*
X136144192Y-112135413D01*
X132064352Y-112135413D01*
X132115631Y-112058669D01*
X132284110Y-111651925D01*
X132370000Y-111220128D01*
X132370000Y-111062595D01*
X135458282Y-111062595D01*
X135502039Y-111381675D01*
X135607205Y-111686088D01*
X135700186Y-111860044D01*
X135964587Y-111955808D01*
X136920395Y-111000000D01*
X137279605Y-111000000D01*
X138235413Y-111955808D01*
X138499814Y-111860044D01*
X138640704Y-111570429D01*
X138722384Y-111258892D01*
X138741718Y-110937405D01*
X138697961Y-110618325D01*
X138592795Y-110313912D01*
X138499814Y-110139956D01*
X138235413Y-110044192D01*
X137279605Y-111000000D01*
X136920395Y-111000000D01*
X135964587Y-110044192D01*
X135700186Y-110139956D01*
X135559296Y-110429571D01*
X135477616Y-110741108D01*
X135458282Y-111062595D01*
X132370000Y-111062595D01*
X132370000Y-110779872D01*
X132284110Y-110348075D01*
X132115631Y-109941331D01*
X132064353Y-109864587D01*
X136144192Y-109864587D01*
X137100000Y-110820395D01*
X137920395Y-110000000D01*
X141361928Y-110000000D01*
X141365000Y-110714250D01*
X141523750Y-110873000D01*
X142873000Y-110873000D01*
X142873000Y-109523750D01*
X143127000Y-109523750D01*
X143127000Y-110873000D01*
X144476250Y-110873000D01*
X144569378Y-110779872D01*
X147770000Y-110779872D01*
X147770000Y-111220128D01*
X147855890Y-111651925D01*
X148024369Y-112058669D01*
X148268962Y-112424729D01*
X148580271Y-112736038D01*
X148946331Y-112980631D01*
X149353075Y-113149110D01*
X149784872Y-113235000D01*
X150225128Y-113235000D01*
X150656925Y-113149110D01*
X151063669Y-112980631D01*
X151429729Y-112736038D01*
X151741038Y-112424729D01*
X151985631Y-112058669D01*
X152154110Y-111651925D01*
X152240000Y-111220128D01*
X152240000Y-110779872D01*
X171900000Y-110779872D01*
X171900000Y-111220128D01*
X171985890Y-111651925D01*
X172154369Y-112058669D01*
X172398962Y-112424729D01*
X172710271Y-112736038D01*
X173076331Y-112980631D01*
X173483075Y-113149110D01*
X173914872Y-113235000D01*
X174355128Y-113235000D01*
X174786925Y-113149110D01*
X175193669Y-112980631D01*
X175559729Y-112736038D01*
X175871038Y-112424729D01*
X176115631Y-112058669D01*
X176284110Y-111651925D01*
X176370000Y-111220128D01*
X176370000Y-110838967D01*
X179465000Y-110838967D01*
X179465000Y-111161033D01*
X179527832Y-111476912D01*
X179651082Y-111774463D01*
X179830013Y-112042252D01*
X180057748Y-112269987D01*
X180325537Y-112448918D01*
X180623088Y-112572168D01*
X180938967Y-112635000D01*
X181261033Y-112635000D01*
X181576912Y-112572168D01*
X181874463Y-112448918D01*
X182142252Y-112269987D01*
X182369987Y-112042252D01*
X182548918Y-111774463D01*
X182672168Y-111476912D01*
X182735000Y-111161033D01*
X182735000Y-110838967D01*
X182672168Y-110523088D01*
X182548918Y-110225537D01*
X182369987Y-109957748D01*
X182142252Y-109730013D01*
X181874463Y-109551082D01*
X181576912Y-109427832D01*
X181261033Y-109365000D01*
X180938967Y-109365000D01*
X180623088Y-109427832D01*
X180325537Y-109551082D01*
X180057748Y-109730013D01*
X179830013Y-109957748D01*
X179651082Y-110225537D01*
X179527832Y-110523088D01*
X179465000Y-110838967D01*
X176370000Y-110838967D01*
X176370000Y-110779872D01*
X176284110Y-110348075D01*
X176115631Y-109941331D01*
X175871038Y-109575271D01*
X175559729Y-109263962D01*
X175193669Y-109019369D01*
X174786925Y-108850890D01*
X174355128Y-108765000D01*
X173914872Y-108765000D01*
X173483075Y-108850890D01*
X173076331Y-109019369D01*
X172710271Y-109263962D01*
X172398962Y-109575271D01*
X172154369Y-109941331D01*
X171985890Y-110348075D01*
X171900000Y-110779872D01*
X152240000Y-110779872D01*
X152154110Y-110348075D01*
X151985631Y-109941331D01*
X151741038Y-109575271D01*
X151429729Y-109263962D01*
X151063669Y-109019369D01*
X150656925Y-108850890D01*
X150225128Y-108765000D01*
X149784872Y-108765000D01*
X149353075Y-108850890D01*
X148946331Y-109019369D01*
X148580271Y-109263962D01*
X148268962Y-109575271D01*
X148024369Y-109941331D01*
X147855890Y-110348075D01*
X147770000Y-110779872D01*
X144569378Y-110779872D01*
X144635000Y-110714250D01*
X144638072Y-110000000D01*
X144625812Y-109875518D01*
X144589502Y-109755820D01*
X144530537Y-109645506D01*
X144451185Y-109548815D01*
X144354494Y-109469463D01*
X144244180Y-109410498D01*
X144124482Y-109374188D01*
X144000000Y-109361928D01*
X143285750Y-109365000D01*
X143127000Y-109523750D01*
X142873000Y-109523750D01*
X142714250Y-109365000D01*
X142000000Y-109361928D01*
X141875518Y-109374188D01*
X141755820Y-109410498D01*
X141645506Y-109469463D01*
X141548815Y-109548815D01*
X141469463Y-109645506D01*
X141410498Y-109755820D01*
X141374188Y-109875518D01*
X141361928Y-110000000D01*
X137920395Y-110000000D01*
X138055808Y-109864587D01*
X137960044Y-109600186D01*
X137670429Y-109459296D01*
X137358892Y-109377616D01*
X137037405Y-109358282D01*
X136718325Y-109402039D01*
X136413912Y-109507205D01*
X136239956Y-109600186D01*
X136144192Y-109864587D01*
X132064353Y-109864587D01*
X131871038Y-109575271D01*
X131559729Y-109263962D01*
X131193669Y-109019369D01*
X130786925Y-108850890D01*
X130355128Y-108765000D01*
X129914872Y-108765000D01*
X129483075Y-108850890D01*
X129076331Y-109019369D01*
X128710271Y-109263962D01*
X128398962Y-109575271D01*
X128154369Y-109941331D01*
X127985890Y-110348075D01*
X127900000Y-110779872D01*
X108240000Y-110779872D01*
X108154110Y-110348075D01*
X107985631Y-109941331D01*
X107741038Y-109575271D01*
X107429729Y-109263962D01*
X107063669Y-109019369D01*
X106656925Y-108850890D01*
X106225128Y-108765000D01*
X105784872Y-108765000D01*
X105353075Y-108850890D01*
X104946331Y-109019369D01*
X104580271Y-109263962D01*
X104268962Y-109575271D01*
X104024369Y-109941331D01*
X103855890Y-110348075D01*
X103770000Y-110779872D01*
X100638072Y-110779872D01*
X100638072Y-110000000D01*
X100625812Y-109875518D01*
X100589502Y-109755820D01*
X100530537Y-109645506D01*
X100451185Y-109548815D01*
X100354494Y-109469463D01*
X100244180Y-109410498D01*
X100124482Y-109374188D01*
X100000000Y-109361928D01*
X98000000Y-109361928D01*
X97875518Y-109374188D01*
X97755820Y-109410498D01*
X97645506Y-109469463D01*
X97548815Y-109548815D01*
X97469463Y-109645506D01*
X97410498Y-109755820D01*
X97374188Y-109875518D01*
X97361928Y-110000000D01*
X95660000Y-110000000D01*
X95660000Y-102708967D01*
X97365000Y-102708967D01*
X97365000Y-103031033D01*
X97427832Y-103346912D01*
X97551082Y-103644463D01*
X97730013Y-103912252D01*
X97957748Y-104139987D01*
X98225537Y-104318918D01*
X98523088Y-104442168D01*
X98838967Y-104505000D01*
X99161033Y-104505000D01*
X99476912Y-104442168D01*
X99774463Y-104318918D01*
X100042252Y-104139987D01*
X100269987Y-103912252D01*
X100448918Y-103644463D01*
X100572168Y-103346912D01*
X100635000Y-103031033D01*
X100635000Y-102708967D01*
X141365000Y-102708967D01*
X141365000Y-103031033D01*
X141427832Y-103346912D01*
X141551082Y-103644463D01*
X141730013Y-103912252D01*
X141957748Y-104139987D01*
X142225537Y-104318918D01*
X142523088Y-104442168D01*
X142838967Y-104505000D01*
X143161033Y-104505000D01*
X143476912Y-104442168D01*
X143774463Y-104318918D01*
X144042252Y-104139987D01*
X144269987Y-103912252D01*
X144448918Y-103644463D01*
X144572168Y-103346912D01*
X144635000Y-103031033D01*
X144635000Y-102708967D01*
X144572168Y-102393088D01*
X144448918Y-102095537D01*
X144269987Y-101827748D01*
X144042252Y-101600013D01*
X143774463Y-101421082D01*
X143476912Y-101297832D01*
X143161033Y-101235000D01*
X142838967Y-101235000D01*
X142523088Y-101297832D01*
X142225537Y-101421082D01*
X141957748Y-101600013D01*
X141730013Y-101827748D01*
X141551082Y-102095537D01*
X141427832Y-102393088D01*
X141365000Y-102708967D01*
X100635000Y-102708967D01*
X100572168Y-102393088D01*
X100448918Y-102095537D01*
X100269987Y-101827748D01*
X100042252Y-101600013D01*
X99774463Y-101421082D01*
X99476912Y-101297832D01*
X99161033Y-101235000D01*
X98838967Y-101235000D01*
X98523088Y-101297832D01*
X98225537Y-101421082D01*
X97957748Y-101600013D01*
X97730013Y-101827748D01*
X97551082Y-102095537D01*
X97427832Y-102393088D01*
X97365000Y-102708967D01*
X95660000Y-102708967D01*
X95660000Y-100777980D01*
X145401626Y-100777980D01*
X145521514Y-101062836D01*
X145845210Y-101223699D01*
X146194069Y-101318322D01*
X146554684Y-101343067D01*
X146913198Y-101296985D01*
X147255833Y-101181846D01*
X147478486Y-101062836D01*
X147598374Y-100777980D01*
X146500000Y-99679605D01*
X145401626Y-100777980D01*
X95660000Y-100777980D01*
X95660000Y-99554684D01*
X144656933Y-99554684D01*
X144703015Y-99913198D01*
X144818154Y-100255833D01*
X144937164Y-100478486D01*
X145222020Y-100598374D01*
X146320395Y-99500000D01*
X146679605Y-99500000D01*
X147777980Y-100598374D01*
X148062836Y-100478486D01*
X148223699Y-100154790D01*
X148318322Y-99805931D01*
X148343067Y-99445316D01*
X148296985Y-99086802D01*
X148233561Y-98898061D01*
X172715000Y-98898061D01*
X172715000Y-99101939D01*
X172754774Y-99301898D01*
X172832795Y-99490256D01*
X172946063Y-99659774D01*
X173090226Y-99803937D01*
X173259744Y-99917205D01*
X173448102Y-99995226D01*
X173648061Y-100035000D01*
X173851939Y-100035000D01*
X174051898Y-99995226D01*
X174240256Y-99917205D01*
X174409774Y-99803937D01*
X174553937Y-99659774D01*
X174667205Y-99490256D01*
X174745226Y-99301898D01*
X174785000Y-99101939D01*
X174785000Y-98898061D01*
X174745226Y-98698102D01*
X174691271Y-98567845D01*
X175749117Y-97510000D01*
X175796289Y-97510000D01*
X175840226Y-97553937D01*
X176009744Y-97667205D01*
X176198102Y-97745226D01*
X176398061Y-97785000D01*
X176601939Y-97785000D01*
X176801898Y-97745226D01*
X176990256Y-97667205D01*
X177159774Y-97553937D01*
X177303937Y-97409774D01*
X177417205Y-97240256D01*
X177495226Y-97051898D01*
X177535000Y-96851939D01*
X177535000Y-96648061D01*
X177495226Y-96448102D01*
X177417205Y-96259744D01*
X177303937Y-96090226D01*
X177159774Y-95946063D01*
X176990256Y-95832795D01*
X176801898Y-95754774D01*
X176601939Y-95715000D01*
X176398061Y-95715000D01*
X176198102Y-95754774D01*
X176009744Y-95832795D01*
X175840226Y-95946063D01*
X175796289Y-95990000D01*
X175471637Y-95990000D01*
X175434314Y-95986324D01*
X175396991Y-95990000D01*
X175396982Y-95990000D01*
X175285329Y-96000997D01*
X175142068Y-96044454D01*
X175010038Y-96115026D01*
X174929976Y-96180732D01*
X174894314Y-96209999D01*
X174870516Y-96238997D01*
X173238998Y-97870516D01*
X173210000Y-97894314D01*
X173186202Y-97923312D01*
X173186201Y-97923313D01*
X173115026Y-98010039D01*
X173091562Y-98053937D01*
X173044454Y-98142068D01*
X173001013Y-98285276D01*
X172946063Y-98340226D01*
X172832795Y-98509744D01*
X172754774Y-98698102D01*
X172715000Y-98898061D01*
X148233561Y-98898061D01*
X148181846Y-98744167D01*
X148062836Y-98521514D01*
X147777980Y-98401626D01*
X146679605Y-99500000D01*
X146320395Y-99500000D01*
X145222020Y-98401626D01*
X144937164Y-98521514D01*
X144776301Y-98845210D01*
X144681678Y-99194069D01*
X144656933Y-99554684D01*
X95660000Y-99554684D01*
X95660000Y-98222020D01*
X145401626Y-98222020D01*
X146500000Y-99320395D01*
X147598374Y-98222020D01*
X147478486Y-97937164D01*
X147154790Y-97776301D01*
X146805931Y-97681678D01*
X146445316Y-97656933D01*
X146086802Y-97703015D01*
X145744167Y-97818154D01*
X145521514Y-97937164D01*
X145401626Y-98222020D01*
X95660000Y-98222020D01*
X95660000Y-93078003D01*
X98837573Y-93078003D01*
X98917947Y-93375368D01*
X99116388Y-93799439D01*
X99393748Y-94176648D01*
X99739369Y-94492498D01*
X100139968Y-94734852D01*
X100580150Y-94894396D01*
X101043000Y-94965000D01*
X102793000Y-94965000D01*
X102793000Y-92707000D01*
X103047000Y-92707000D01*
X103047000Y-94965000D01*
X104797000Y-94965000D01*
X105259850Y-94894396D01*
X105520288Y-94800000D01*
X114161928Y-94800000D01*
X114161928Y-97200000D01*
X114174188Y-97324482D01*
X114210498Y-97444180D01*
X114269463Y-97554494D01*
X114348815Y-97651185D01*
X114445506Y-97730537D01*
X114555820Y-97789502D01*
X114675518Y-97825812D01*
X114800000Y-97838072D01*
X117200000Y-97838072D01*
X117324482Y-97825812D01*
X117444180Y-97789502D01*
X117554494Y-97730537D01*
X117651185Y-97651185D01*
X117730537Y-97554494D01*
X117789502Y-97444180D01*
X117825812Y-97324482D01*
X117838072Y-97200000D01*
X117838072Y-95819268D01*
X139165000Y-95819268D01*
X139165000Y-96180732D01*
X139235518Y-96535250D01*
X139373844Y-96869199D01*
X139574662Y-97169744D01*
X139830256Y-97425338D01*
X140130801Y-97626156D01*
X140464750Y-97764482D01*
X140819268Y-97835000D01*
X141180732Y-97835000D01*
X141535250Y-97764482D01*
X141869199Y-97626156D01*
X142169744Y-97425338D01*
X142425338Y-97169744D01*
X142626156Y-96869199D01*
X142764482Y-96535250D01*
X142835000Y-96180732D01*
X142835000Y-95819268D01*
X142764482Y-95464750D01*
X142626156Y-95130801D01*
X142425338Y-94830256D01*
X142169744Y-94574662D01*
X141869199Y-94373844D01*
X141535250Y-94235518D01*
X141180732Y-94165000D01*
X140819268Y-94165000D01*
X140464750Y-94235518D01*
X140130801Y-94373844D01*
X139830256Y-94574662D01*
X139574662Y-94830256D01*
X139373844Y-95130801D01*
X139235518Y-95464750D01*
X139165000Y-95819268D01*
X117838072Y-95819268D01*
X117838072Y-94800000D01*
X117825812Y-94675518D01*
X117789502Y-94555820D01*
X117730537Y-94445506D01*
X117651185Y-94348815D01*
X117554494Y-94269463D01*
X117444180Y-94210498D01*
X117324482Y-94174188D01*
X117200000Y-94161928D01*
X114800000Y-94161928D01*
X114675518Y-94174188D01*
X114555820Y-94210498D01*
X114445506Y-94269463D01*
X114348815Y-94348815D01*
X114269463Y-94445506D01*
X114210498Y-94555820D01*
X114174188Y-94675518D01*
X114161928Y-94800000D01*
X105520288Y-94800000D01*
X105700032Y-94734852D01*
X106100631Y-94492498D01*
X106446252Y-94176648D01*
X106723612Y-93799439D01*
X106922053Y-93375368D01*
X107002427Y-93078003D01*
X106892625Y-92707000D01*
X103047000Y-92707000D01*
X102793000Y-92707000D01*
X98947375Y-92707000D01*
X98837573Y-93078003D01*
X95660000Y-93078003D01*
X95660000Y-92475413D01*
X149734802Y-92475413D01*
X149734802Y-92679291D01*
X149774576Y-92879250D01*
X149852597Y-93067608D01*
X149965865Y-93237126D01*
X150110028Y-93381289D01*
X150279546Y-93494557D01*
X150465000Y-93571375D01*
X150465000Y-93601939D01*
X150504774Y-93801898D01*
X150582795Y-93990256D01*
X150696063Y-94159774D01*
X150840226Y-94303937D01*
X151009744Y-94417205D01*
X151198102Y-94495226D01*
X151398061Y-94535000D01*
X151601939Y-94535000D01*
X151801898Y-94495226D01*
X151990256Y-94417205D01*
X152159774Y-94303937D01*
X152303937Y-94159774D01*
X152417205Y-93990256D01*
X152495226Y-93801898D01*
X152535000Y-93601939D01*
X152535000Y-93539801D01*
X154564802Y-91510000D01*
X158122772Y-91510000D01*
X158069453Y-91609753D01*
X158057552Y-91648987D01*
X158032076Y-91732975D01*
X158025997Y-91753014D01*
X158011323Y-91901999D01*
X158015000Y-91939331D01*
X158014999Y-92771290D01*
X157971062Y-92815227D01*
X157857794Y-92984745D01*
X157779773Y-93173103D01*
X157739999Y-93373062D01*
X157739999Y-93576940D01*
X157779773Y-93776899D01*
X157857794Y-93965257D01*
X157971062Y-94134775D01*
X158115225Y-94278938D01*
X158284743Y-94392206D01*
X158316328Y-94405289D01*
X158317532Y-94406493D01*
X161672041Y-97761003D01*
X161695839Y-97790001D01*
X161724837Y-97813799D01*
X161811563Y-97884974D01*
X161883290Y-97923313D01*
X161943593Y-97955546D01*
X162086854Y-97999003D01*
X162198507Y-98010000D01*
X162198516Y-98010000D01*
X162235839Y-98013676D01*
X162273162Y-98010000D01*
X166046289Y-98010000D01*
X166090226Y-98053937D01*
X166259744Y-98167205D01*
X166448102Y-98245226D01*
X166648061Y-98285000D01*
X166851939Y-98285000D01*
X167051898Y-98245226D01*
X167240256Y-98167205D01*
X167409774Y-98053937D01*
X167553937Y-97909774D01*
X167667205Y-97740256D01*
X167745226Y-97551898D01*
X167785000Y-97351939D01*
X167785000Y-97148061D01*
X167745226Y-96948102D01*
X167667205Y-96759744D01*
X167553937Y-96590226D01*
X167519256Y-96555545D01*
X170996799Y-93078003D01*
X183497573Y-93078003D01*
X183577947Y-93375368D01*
X183776388Y-93799439D01*
X184053748Y-94176648D01*
X184399369Y-94492498D01*
X184799968Y-94734852D01*
X185240150Y-94894396D01*
X185703000Y-94965000D01*
X187453000Y-94965000D01*
X187453000Y-92707000D01*
X187707000Y-92707000D01*
X187707000Y-94965000D01*
X189457000Y-94965000D01*
X189919850Y-94894396D01*
X190360032Y-94734852D01*
X190760631Y-94492498D01*
X191106252Y-94176648D01*
X191383612Y-93799439D01*
X191582053Y-93375368D01*
X191662427Y-93078003D01*
X191552625Y-92707000D01*
X187707000Y-92707000D01*
X187453000Y-92707000D01*
X183607375Y-92707000D01*
X183497573Y-93078003D01*
X170996799Y-93078003D01*
X171539803Y-92535000D01*
X171601939Y-92535000D01*
X171801898Y-92495226D01*
X171990256Y-92417205D01*
X172159774Y-92303937D01*
X172303937Y-92159774D01*
X172355905Y-92081997D01*
X183497573Y-92081997D01*
X183607375Y-92453000D01*
X187453000Y-92453000D01*
X187453000Y-90195000D01*
X187707000Y-90195000D01*
X187707000Y-92453000D01*
X191552625Y-92453000D01*
X191662427Y-92081997D01*
X191582053Y-91784632D01*
X191383612Y-91360561D01*
X191106252Y-90983352D01*
X190760631Y-90667502D01*
X190360032Y-90425148D01*
X189919850Y-90265604D01*
X189457000Y-90195000D01*
X187707000Y-90195000D01*
X187453000Y-90195000D01*
X185703000Y-90195000D01*
X185240150Y-90265604D01*
X184799968Y-90425148D01*
X184399369Y-90667502D01*
X184053748Y-90983352D01*
X183776388Y-91360561D01*
X183577947Y-91784632D01*
X183497573Y-92081997D01*
X172355905Y-92081997D01*
X172417205Y-91990256D01*
X172495226Y-91801898D01*
X172535000Y-91601939D01*
X172535000Y-91398061D01*
X172495226Y-91198102D01*
X172417205Y-91009744D01*
X172303937Y-90840226D01*
X172159774Y-90696063D01*
X171990256Y-90582795D01*
X171801898Y-90504774D01*
X171601939Y-90465000D01*
X171398061Y-90465000D01*
X171198102Y-90504774D01*
X171009744Y-90582795D01*
X170840226Y-90696063D01*
X170696063Y-90840226D01*
X170582795Y-91009744D01*
X170504774Y-91198102D01*
X170465000Y-91398061D01*
X170465000Y-91460197D01*
X166435199Y-95490000D01*
X163703711Y-95490000D01*
X163659774Y-95446063D01*
X163490256Y-95332795D01*
X163301898Y-95254774D01*
X163101939Y-95215000D01*
X162898061Y-95215000D01*
X162698102Y-95254774D01*
X162509744Y-95332795D01*
X162340226Y-95446063D01*
X162196063Y-95590226D01*
X162082795Y-95759744D01*
X162005937Y-95945295D01*
X159781393Y-93720752D01*
X159809999Y-93576940D01*
X159809999Y-93373062D01*
X159770225Y-93173103D01*
X159692204Y-92984745D01*
X159578936Y-92815227D01*
X159534999Y-92771290D01*
X159534999Y-92235001D01*
X160560679Y-92235001D01*
X160598001Y-92238677D01*
X160635323Y-92235001D01*
X160635334Y-92235001D01*
X160746987Y-92224004D01*
X160890248Y-92180547D01*
X161022277Y-92109975D01*
X161138002Y-92015002D01*
X161161805Y-91985998D01*
X161485999Y-91661804D01*
X161515002Y-91638002D01*
X161609975Y-91522277D01*
X161680547Y-91390248D01*
X161724004Y-91246987D01*
X161735001Y-91135334D01*
X161735001Y-91135333D01*
X161738678Y-91098001D01*
X161735001Y-91060668D01*
X161735001Y-90898061D01*
X163465000Y-90898061D01*
X163465000Y-91101939D01*
X163504774Y-91301898D01*
X163582795Y-91490256D01*
X163696063Y-91659774D01*
X163840226Y-91803937D01*
X164009744Y-91917205D01*
X164198102Y-91995226D01*
X164398061Y-92035000D01*
X164601939Y-92035000D01*
X164801898Y-91995226D01*
X164990256Y-91917205D01*
X165159774Y-91803937D01*
X165303937Y-91659774D01*
X165417205Y-91490256D01*
X165495226Y-91301898D01*
X165535000Y-91101939D01*
X165535000Y-91039801D01*
X166064802Y-90510000D01*
X167546289Y-90510000D01*
X167590226Y-90553937D01*
X167759744Y-90667205D01*
X167948102Y-90745226D01*
X168148061Y-90785000D01*
X168351939Y-90785000D01*
X168551898Y-90745226D01*
X168740256Y-90667205D01*
X168909774Y-90553937D01*
X169053937Y-90409774D01*
X169167205Y-90240256D01*
X169245226Y-90051898D01*
X169285000Y-89851939D01*
X169285000Y-89648061D01*
X169245226Y-89448102D01*
X169167205Y-89259744D01*
X169053937Y-89090226D01*
X168909774Y-88946063D01*
X168740256Y-88832795D01*
X168551898Y-88754774D01*
X168351939Y-88715000D01*
X168148061Y-88715000D01*
X167948102Y-88754774D01*
X167759744Y-88832795D01*
X167590226Y-88946063D01*
X167546289Y-88990000D01*
X165787323Y-88990000D01*
X165750000Y-88986324D01*
X165712677Y-88990000D01*
X165712667Y-88990000D01*
X165601014Y-89000997D01*
X165457753Y-89044454D01*
X165325723Y-89115026D01*
X165256012Y-89172237D01*
X165209999Y-89209999D01*
X165186201Y-89238997D01*
X164460199Y-89965000D01*
X164398061Y-89965000D01*
X164198102Y-90004774D01*
X164009744Y-90082795D01*
X163840226Y-90196063D01*
X163696063Y-90340226D01*
X163582795Y-90509744D01*
X163504774Y-90698102D01*
X163465000Y-90898061D01*
X161735001Y-90898061D01*
X161735001Y-90439324D01*
X161738677Y-90401999D01*
X161735001Y-90364674D01*
X161735001Y-90364666D01*
X161724004Y-90253013D01*
X161680547Y-90109752D01*
X161609975Y-89977723D01*
X161515002Y-89861998D01*
X161486003Y-89838200D01*
X161407804Y-89760000D01*
X161962678Y-89760000D01*
X162000000Y-89763676D01*
X162037322Y-89760000D01*
X162037333Y-89760000D01*
X162148986Y-89749003D01*
X162292247Y-89705546D01*
X162424276Y-89634974D01*
X162540001Y-89540001D01*
X162563804Y-89510997D01*
X164574801Y-87500000D01*
X180608057Y-87500000D01*
X180635764Y-87781309D01*
X180717818Y-88051808D01*
X180851068Y-88301101D01*
X181030392Y-88519608D01*
X181248899Y-88698932D01*
X181498192Y-88832182D01*
X181768691Y-88914236D01*
X181979508Y-88935000D01*
X183020492Y-88935000D01*
X183231309Y-88914236D01*
X183501808Y-88832182D01*
X183751101Y-88698932D01*
X183969608Y-88519608D01*
X184148932Y-88301101D01*
X184282182Y-88051808D01*
X184364236Y-87781309D01*
X184391943Y-87500000D01*
X184364236Y-87218691D01*
X184282182Y-86948192D01*
X184148932Y-86698899D01*
X183969608Y-86480392D01*
X183751101Y-86301068D01*
X183623259Y-86232735D01*
X183852839Y-86082601D01*
X184054500Y-85884895D01*
X184213715Y-85651646D01*
X184324367Y-85391818D01*
X184341904Y-85309039D01*
X184219915Y-85087000D01*
X182627000Y-85087000D01*
X182627000Y-85107000D01*
X182373000Y-85107000D01*
X182373000Y-85087000D01*
X180780085Y-85087000D01*
X180658096Y-85309039D01*
X180675633Y-85391818D01*
X180786285Y-85651646D01*
X180945500Y-85884895D01*
X181147161Y-86082601D01*
X181376741Y-86232735D01*
X181248899Y-86301068D01*
X181030392Y-86480392D01*
X180851068Y-86698899D01*
X180717818Y-86948192D01*
X180635764Y-87218691D01*
X180608057Y-87500000D01*
X164574801Y-87500000D01*
X165011004Y-87063798D01*
X165040001Y-87040001D01*
X165115347Y-86948192D01*
X165134974Y-86924277D01*
X165205546Y-86792247D01*
X165224265Y-86730537D01*
X165249003Y-86648986D01*
X165260000Y-86537333D01*
X165260000Y-86537323D01*
X165263676Y-86500000D01*
X165260000Y-86462677D01*
X165260000Y-86353770D01*
X165322912Y-86201888D01*
X165362686Y-86001929D01*
X165362686Y-85798051D01*
X165322912Y-85598092D01*
X165244891Y-85409734D01*
X165131623Y-85240216D01*
X164987460Y-85096053D01*
X164817942Y-84982785D01*
X164629584Y-84904764D01*
X164429625Y-84864990D01*
X164362690Y-84864990D01*
X164362690Y-84610961D01*
X180658096Y-84610961D01*
X180780085Y-84833000D01*
X182373000Y-84833000D01*
X182373000Y-83525000D01*
X182627000Y-83525000D01*
X182627000Y-84833000D01*
X184219915Y-84833000D01*
X184341904Y-84610961D01*
X184324367Y-84528182D01*
X184213715Y-84268354D01*
X184054500Y-84035105D01*
X183852839Y-83837399D01*
X183616483Y-83682834D01*
X183354514Y-83577350D01*
X183077000Y-83525000D01*
X182627000Y-83525000D01*
X182373000Y-83525000D01*
X181923000Y-83525000D01*
X181645486Y-83577350D01*
X181383517Y-83682834D01*
X181147161Y-83837399D01*
X180945500Y-84035105D01*
X180786285Y-84268354D01*
X180675633Y-84528182D01*
X180658096Y-84610961D01*
X164362690Y-84610961D01*
X164362690Y-82924083D01*
X165479350Y-82924083D01*
X165504774Y-83051898D01*
X165582795Y-83240256D01*
X165696063Y-83409774D01*
X165840226Y-83553937D01*
X166009744Y-83667205D01*
X166198102Y-83745226D01*
X166398061Y-83785000D01*
X166601939Y-83785000D01*
X166801898Y-83745226D01*
X166990256Y-83667205D01*
X167159774Y-83553937D01*
X167303937Y-83409774D01*
X167417205Y-83240256D01*
X167495226Y-83051898D01*
X167521859Y-82918003D01*
X183497573Y-82918003D01*
X183577947Y-83215368D01*
X183776388Y-83639439D01*
X184053748Y-84016648D01*
X184399369Y-84332498D01*
X184799968Y-84574852D01*
X185240150Y-84734396D01*
X185703000Y-84805000D01*
X187453000Y-84805000D01*
X187453000Y-82547000D01*
X187707000Y-82547000D01*
X187707000Y-84805000D01*
X189457000Y-84805000D01*
X189919850Y-84734396D01*
X190360032Y-84574852D01*
X190760631Y-84332498D01*
X191106252Y-84016648D01*
X191383612Y-83639439D01*
X191582053Y-83215368D01*
X191662427Y-82918003D01*
X191552625Y-82547000D01*
X187707000Y-82547000D01*
X187453000Y-82547000D01*
X183607375Y-82547000D01*
X183497573Y-82918003D01*
X167521859Y-82918003D01*
X167535000Y-82851939D01*
X167535000Y-82648061D01*
X167495226Y-82448102D01*
X167417205Y-82259744D01*
X167303937Y-82090226D01*
X167159774Y-81946063D01*
X167123757Y-81921997D01*
X183497573Y-81921997D01*
X183607375Y-82293000D01*
X187453000Y-82293000D01*
X187453000Y-80035000D01*
X187707000Y-80035000D01*
X187707000Y-82293000D01*
X191552625Y-82293000D01*
X191662427Y-81921997D01*
X191582053Y-81624632D01*
X191383612Y-81200561D01*
X191106252Y-80823352D01*
X190760631Y-80507502D01*
X190360032Y-80265148D01*
X189919850Y-80105604D01*
X189457000Y-80035000D01*
X187707000Y-80035000D01*
X187453000Y-80035000D01*
X185703000Y-80035000D01*
X185240150Y-80105604D01*
X184799968Y-80265148D01*
X184399369Y-80507502D01*
X184053748Y-80823352D01*
X183776388Y-81200561D01*
X183577947Y-81624632D01*
X183497573Y-81921997D01*
X167123757Y-81921997D01*
X166990256Y-81832795D01*
X166801898Y-81754774D01*
X166601939Y-81715000D01*
X166539801Y-81715000D01*
X166477886Y-81653085D01*
X166454084Y-81624082D01*
X166338359Y-81529109D01*
X166206330Y-81458537D01*
X166063069Y-81415080D01*
X165951416Y-81404083D01*
X165951405Y-81404083D01*
X165914083Y-81400407D01*
X165876761Y-81404083D01*
X164306401Y-81404083D01*
X164262464Y-81360146D01*
X164092946Y-81246878D01*
X163904588Y-81168857D01*
X163704629Y-81129083D01*
X163500751Y-81129083D01*
X163300792Y-81168857D01*
X163112434Y-81246878D01*
X162942916Y-81360146D01*
X162798753Y-81504309D01*
X162685485Y-81673827D01*
X162607464Y-81862185D01*
X162567690Y-82062144D01*
X162567690Y-82266022D01*
X162607464Y-82465981D01*
X162685485Y-82654339D01*
X162798753Y-82823857D01*
X162842691Y-82867795D01*
X162842690Y-85582508D01*
X161192237Y-87232961D01*
X161101939Y-87215000D01*
X160898061Y-87215000D01*
X160698102Y-87254774D01*
X160509744Y-87332795D01*
X160340226Y-87446063D01*
X160196063Y-87590226D01*
X160082795Y-87759744D01*
X160004774Y-87948102D01*
X159965000Y-88148061D01*
X159965000Y-88240000D01*
X158953711Y-88240000D01*
X158909774Y-88196063D01*
X158740256Y-88082795D01*
X158551898Y-88004774D01*
X158351939Y-87965000D01*
X158284999Y-87965000D01*
X158284999Y-86079802D01*
X158559801Y-85805000D01*
X158621939Y-85805000D01*
X158821898Y-85765226D01*
X159010256Y-85687205D01*
X159179774Y-85573937D01*
X159323937Y-85429774D01*
X159437205Y-85260256D01*
X159515226Y-85071898D01*
X159555000Y-84871939D01*
X159555000Y-84668061D01*
X159515226Y-84468102D01*
X159437205Y-84279744D01*
X159323937Y-84110226D01*
X159179774Y-83966063D01*
X159010256Y-83852795D01*
X158821898Y-83774774D01*
X158621939Y-83735000D01*
X158418061Y-83735000D01*
X158218102Y-83774774D01*
X158029744Y-83852795D01*
X157860226Y-83966063D01*
X157716063Y-84110226D01*
X157602795Y-84279744D01*
X157524774Y-84468102D01*
X157485000Y-84668061D01*
X157485000Y-84730199D01*
X157013997Y-85201202D01*
X156984999Y-85225000D01*
X156961201Y-85253998D01*
X156961200Y-85253999D01*
X156890025Y-85340725D01*
X156819453Y-85472755D01*
X156775997Y-85616016D01*
X156761323Y-85765001D01*
X156765000Y-85802333D01*
X156764999Y-89310678D01*
X156761323Y-89348001D01*
X156764999Y-89385323D01*
X156764999Y-89385333D01*
X156775996Y-89496986D01*
X156818869Y-89638322D01*
X156819453Y-89640247D01*
X156890025Y-89772277D01*
X156916008Y-89803937D01*
X156984998Y-89888002D01*
X157014002Y-89911805D01*
X157092197Y-89990000D01*
X154287322Y-89990000D01*
X154249999Y-89986324D01*
X154212676Y-89990000D01*
X154212667Y-89990000D01*
X154101014Y-90000997D01*
X153957753Y-90044454D01*
X153825724Y-90115026D01*
X153709999Y-90209999D01*
X153686201Y-90238997D01*
X151731262Y-92193937D01*
X151687007Y-92087096D01*
X151573739Y-91917578D01*
X151529802Y-91873641D01*
X151529802Y-88890781D01*
X151659774Y-88803937D01*
X151803937Y-88659774D01*
X151917205Y-88490256D01*
X151995226Y-88301898D01*
X152035000Y-88101939D01*
X152035000Y-87898061D01*
X151995226Y-87698102D01*
X151917205Y-87509744D01*
X151803937Y-87340226D01*
X151659774Y-87196063D01*
X151490256Y-87082795D01*
X151301898Y-87004774D01*
X151101939Y-86965000D01*
X150898061Y-86965000D01*
X150698102Y-87004774D01*
X150509744Y-87082795D01*
X150340226Y-87196063D01*
X150196063Y-87340226D01*
X150082795Y-87509744D01*
X150004774Y-87698102D01*
X149965000Y-87898061D01*
X149965000Y-88101939D01*
X150004774Y-88301898D01*
X150009803Y-88314039D01*
X150009802Y-91873641D01*
X149965865Y-91917578D01*
X149852597Y-92087096D01*
X149774576Y-92275454D01*
X149734802Y-92475413D01*
X95660000Y-92475413D01*
X95660000Y-92081997D01*
X98837573Y-92081997D01*
X98947375Y-92453000D01*
X102793000Y-92453000D01*
X102793000Y-90195000D01*
X103047000Y-90195000D01*
X103047000Y-92453000D01*
X106892625Y-92453000D01*
X107002427Y-92081997D01*
X106922053Y-91784632D01*
X106723612Y-91360561D01*
X106446252Y-90983352D01*
X106100631Y-90667502D01*
X105700032Y-90425148D01*
X105600408Y-90389039D01*
X106158096Y-90389039D01*
X106175633Y-90471818D01*
X106286285Y-90731646D01*
X106445500Y-90964895D01*
X106647161Y-91162601D01*
X106883517Y-91317166D01*
X107145486Y-91422650D01*
X107423000Y-91475000D01*
X107873000Y-91475000D01*
X107873000Y-90167000D01*
X106280085Y-90167000D01*
X106158096Y-90389039D01*
X105600408Y-90389039D01*
X105259850Y-90265604D01*
X104797000Y-90195000D01*
X103047000Y-90195000D01*
X102793000Y-90195000D01*
X101043000Y-90195000D01*
X100580150Y-90265604D01*
X100139968Y-90425148D01*
X99739369Y-90667502D01*
X99393748Y-90983352D01*
X99116388Y-91360561D01*
X98917947Y-91784632D01*
X98837573Y-92081997D01*
X95660000Y-92081997D01*
X95660000Y-87500000D01*
X106108057Y-87500000D01*
X106135764Y-87781309D01*
X106217818Y-88051808D01*
X106351068Y-88301101D01*
X106530392Y-88519608D01*
X106748899Y-88698932D01*
X106876741Y-88767265D01*
X106647161Y-88917399D01*
X106445500Y-89115105D01*
X106286285Y-89348354D01*
X106175633Y-89608182D01*
X106158096Y-89690961D01*
X106280085Y-89913000D01*
X107873000Y-89913000D01*
X107873000Y-89893000D01*
X108127000Y-89893000D01*
X108127000Y-89913000D01*
X108147000Y-89913000D01*
X108147000Y-90167000D01*
X108127000Y-90167000D01*
X108127000Y-91475000D01*
X108577000Y-91475000D01*
X108854514Y-91422650D01*
X109116483Y-91317166D01*
X109352839Y-91162601D01*
X109554500Y-90964895D01*
X109713715Y-90731646D01*
X109755068Y-90634541D01*
X110045064Y-90634541D01*
X110055575Y-90827763D01*
X110225603Y-90898562D01*
X110406176Y-90934828D01*
X110590355Y-90935171D01*
X110771061Y-90899574D01*
X110941351Y-90829408D01*
X110944425Y-90827763D01*
X110954936Y-90634541D01*
X113045064Y-90634541D01*
X113055575Y-90827763D01*
X113225603Y-90898562D01*
X113406176Y-90934828D01*
X113590355Y-90935171D01*
X113771061Y-90899574D01*
X113941351Y-90829408D01*
X113944425Y-90827763D01*
X113954936Y-90634541D01*
X113500000Y-90179605D01*
X113045064Y-90634541D01*
X110954936Y-90634541D01*
X110500000Y-90179605D01*
X110045064Y-90634541D01*
X109755068Y-90634541D01*
X109824367Y-90471818D01*
X109828371Y-90452918D01*
X109865459Y-90454936D01*
X110320395Y-90000000D01*
X110679605Y-90000000D01*
X111134541Y-90454936D01*
X111327763Y-90444425D01*
X111398562Y-90274397D01*
X111434828Y-90093824D01*
X111434834Y-90090355D01*
X112564829Y-90090355D01*
X112600426Y-90271061D01*
X112670592Y-90441351D01*
X112672237Y-90444425D01*
X112865459Y-90454936D01*
X113320395Y-90000000D01*
X113679605Y-90000000D01*
X114134541Y-90454936D01*
X114327763Y-90444425D01*
X114398562Y-90274397D01*
X114434828Y-90093824D01*
X114435171Y-89909645D01*
X114399574Y-89728939D01*
X114329408Y-89558649D01*
X114327763Y-89555575D01*
X114134541Y-89545064D01*
X113679605Y-90000000D01*
X113320395Y-90000000D01*
X112865459Y-89545064D01*
X112672237Y-89555575D01*
X112601438Y-89725603D01*
X112565172Y-89906176D01*
X112564829Y-90090355D01*
X111434834Y-90090355D01*
X111435171Y-89909645D01*
X111399574Y-89728939D01*
X111329408Y-89558649D01*
X111327763Y-89555575D01*
X111134541Y-89545064D01*
X110679605Y-90000000D01*
X110320395Y-90000000D01*
X109865459Y-89545064D01*
X109799026Y-89548678D01*
X109721000Y-89365459D01*
X110045064Y-89365459D01*
X110500000Y-89820395D01*
X110954936Y-89365459D01*
X113045064Y-89365459D01*
X113500000Y-89820395D01*
X113954936Y-89365459D01*
X113944425Y-89172237D01*
X113774397Y-89101438D01*
X113593824Y-89065172D01*
X113409645Y-89064829D01*
X113228939Y-89100426D01*
X113058649Y-89170592D01*
X113055575Y-89172237D01*
X113045064Y-89365459D01*
X110954936Y-89365459D01*
X110944425Y-89172237D01*
X110774397Y-89101438D01*
X110593824Y-89065172D01*
X110409645Y-89064829D01*
X110228939Y-89100426D01*
X110058649Y-89170592D01*
X110055575Y-89172237D01*
X110045064Y-89365459D01*
X109721000Y-89365459D01*
X109713715Y-89348354D01*
X109554500Y-89115105D01*
X109352839Y-88917399D01*
X109123259Y-88767265D01*
X109251101Y-88698932D01*
X109469608Y-88519608D01*
X109638063Y-88314344D01*
X114115000Y-88314344D01*
X114115000Y-88685656D01*
X114187439Y-89049834D01*
X114329534Y-89392882D01*
X114535825Y-89701618D01*
X114798382Y-89964175D01*
X115107118Y-90170466D01*
X115450166Y-90312561D01*
X115814344Y-90385000D01*
X116185656Y-90385000D01*
X116549834Y-90312561D01*
X116892882Y-90170466D01*
X117201618Y-89964175D01*
X117464175Y-89701618D01*
X117670466Y-89392882D01*
X117812561Y-89049834D01*
X117885000Y-88685656D01*
X117885000Y-88314344D01*
X117812561Y-87950166D01*
X117670466Y-87607118D01*
X117464175Y-87298382D01*
X117201618Y-87035825D01*
X116905660Y-86838072D01*
X117200000Y-86838072D01*
X117324482Y-86825812D01*
X117444180Y-86789502D01*
X117554494Y-86730537D01*
X117651185Y-86651185D01*
X117730537Y-86554494D01*
X117789502Y-86444180D01*
X117825812Y-86324482D01*
X117838072Y-86200000D01*
X117838072Y-84819268D01*
X139165000Y-84819268D01*
X139165000Y-85180732D01*
X139235518Y-85535250D01*
X139373844Y-85869199D01*
X139574662Y-86169744D01*
X139830256Y-86425338D01*
X140130801Y-86626156D01*
X140464750Y-86764482D01*
X140819268Y-86835000D01*
X141180732Y-86835000D01*
X141535250Y-86764482D01*
X141869199Y-86626156D01*
X142169744Y-86425338D01*
X142425338Y-86169744D01*
X142626156Y-85869199D01*
X142764482Y-85535250D01*
X142835000Y-85180732D01*
X142835000Y-84819268D01*
X142764482Y-84464750D01*
X142626156Y-84130801D01*
X142591723Y-84079268D01*
X144665000Y-84079268D01*
X144665000Y-84440732D01*
X144735518Y-84795250D01*
X144873844Y-85129199D01*
X145074662Y-85429744D01*
X145330256Y-85685338D01*
X145630801Y-85886156D01*
X145964750Y-86024482D01*
X146319268Y-86095000D01*
X146680732Y-86095000D01*
X147035250Y-86024482D01*
X147369199Y-85886156D01*
X147669744Y-85685338D01*
X147925338Y-85429744D01*
X148126156Y-85129199D01*
X148264482Y-84795250D01*
X148335000Y-84440732D01*
X148335000Y-84079268D01*
X148264482Y-83724750D01*
X148126156Y-83390801D01*
X147925338Y-83090256D01*
X147733143Y-82898061D01*
X153215000Y-82898061D01*
X153215000Y-83101939D01*
X153254774Y-83301898D01*
X153332795Y-83490256D01*
X153446063Y-83659774D01*
X153590226Y-83803937D01*
X153759744Y-83917205D01*
X153948102Y-83995226D01*
X154148061Y-84035000D01*
X154351939Y-84035000D01*
X154551898Y-83995226D01*
X154740256Y-83917205D01*
X154909774Y-83803937D01*
X155053937Y-83659774D01*
X155167205Y-83490256D01*
X155245226Y-83301898D01*
X155285000Y-83101939D01*
X155285000Y-83039801D01*
X155564802Y-82760000D01*
X156296289Y-82760000D01*
X156340226Y-82803937D01*
X156509744Y-82917205D01*
X156698102Y-82995226D01*
X156898061Y-83035000D01*
X157101939Y-83035000D01*
X157301898Y-82995226D01*
X157490256Y-82917205D01*
X157659774Y-82803937D01*
X157803937Y-82659774D01*
X157917205Y-82490256D01*
X157995226Y-82301898D01*
X158035000Y-82101939D01*
X158035000Y-81898061D01*
X157995226Y-81698102D01*
X157917205Y-81509744D01*
X157803937Y-81340226D01*
X157659774Y-81196063D01*
X157490256Y-81082795D01*
X157301898Y-81004774D01*
X157101939Y-80965000D01*
X156898061Y-80965000D01*
X156698102Y-81004774D01*
X156509744Y-81082795D01*
X156340226Y-81196063D01*
X156296289Y-81240000D01*
X155287333Y-81240000D01*
X155250000Y-81236323D01*
X155212667Y-81240000D01*
X155101014Y-81250997D01*
X154957753Y-81294454D01*
X154825724Y-81365026D01*
X154709999Y-81459999D01*
X154686201Y-81488997D01*
X154210199Y-81965000D01*
X154148061Y-81965000D01*
X153948102Y-82004774D01*
X153759744Y-82082795D01*
X153590226Y-82196063D01*
X153446063Y-82340226D01*
X153332795Y-82509744D01*
X153254774Y-82698102D01*
X153215000Y-82898061D01*
X147733143Y-82898061D01*
X147669744Y-82834662D01*
X147369199Y-82633844D01*
X147035250Y-82495518D01*
X146680732Y-82425000D01*
X146319268Y-82425000D01*
X145964750Y-82495518D01*
X145630801Y-82633844D01*
X145330256Y-82834662D01*
X145074662Y-83090256D01*
X144873844Y-83390801D01*
X144735518Y-83724750D01*
X144665000Y-84079268D01*
X142591723Y-84079268D01*
X142425338Y-83830256D01*
X142169744Y-83574662D01*
X141869199Y-83373844D01*
X141535250Y-83235518D01*
X141180732Y-83165000D01*
X140819268Y-83165000D01*
X140464750Y-83235518D01*
X140130801Y-83373844D01*
X139830256Y-83574662D01*
X139574662Y-83830256D01*
X139373844Y-84130801D01*
X139235518Y-84464750D01*
X139165000Y-84819268D01*
X117838072Y-84819268D01*
X117838072Y-83800000D01*
X117825812Y-83675518D01*
X117789502Y-83555820D01*
X117730537Y-83445506D01*
X117651185Y-83348815D01*
X117554494Y-83269463D01*
X117444180Y-83210498D01*
X117324482Y-83174188D01*
X117200000Y-83161928D01*
X114800000Y-83161928D01*
X114675518Y-83174188D01*
X114555820Y-83210498D01*
X114445506Y-83269463D01*
X114348815Y-83348815D01*
X114269463Y-83445506D01*
X114210498Y-83555820D01*
X114174188Y-83675518D01*
X114161928Y-83800000D01*
X114161928Y-86200000D01*
X114174188Y-86324482D01*
X114210498Y-86444180D01*
X114269463Y-86554494D01*
X114348815Y-86651185D01*
X114445506Y-86730537D01*
X114555820Y-86789502D01*
X114675518Y-86825812D01*
X114800000Y-86838072D01*
X115094340Y-86838072D01*
X114798382Y-87035825D01*
X114535825Y-87298382D01*
X114329534Y-87607118D01*
X114187439Y-87950166D01*
X114115000Y-88314344D01*
X109638063Y-88314344D01*
X109648932Y-88301101D01*
X109782182Y-88051808D01*
X109864236Y-87781309D01*
X109891943Y-87500000D01*
X109864236Y-87218691D01*
X109782182Y-86948192D01*
X109648932Y-86698899D01*
X109469608Y-86480392D01*
X109251101Y-86301068D01*
X109001808Y-86167818D01*
X108731309Y-86085764D01*
X108520492Y-86065000D01*
X107479508Y-86065000D01*
X107268691Y-86085764D01*
X106998192Y-86167818D01*
X106748899Y-86301068D01*
X106530392Y-86480392D01*
X106351068Y-86698899D01*
X106217818Y-86948192D01*
X106135764Y-87218691D01*
X106108057Y-87500000D01*
X95660000Y-87500000D01*
X95660000Y-82918003D01*
X98837573Y-82918003D01*
X98917947Y-83215368D01*
X99116388Y-83639439D01*
X99393748Y-84016648D01*
X99739369Y-84332498D01*
X100139968Y-84574852D01*
X100580150Y-84734396D01*
X101043000Y-84805000D01*
X102793000Y-84805000D01*
X102793000Y-82547000D01*
X103047000Y-82547000D01*
X103047000Y-84805000D01*
X104797000Y-84805000D01*
X105259850Y-84734396D01*
X105700032Y-84574852D01*
X106100631Y-84332498D01*
X106446252Y-84016648D01*
X106723612Y-83639439D01*
X106922053Y-83215368D01*
X107002427Y-82918003D01*
X106892625Y-82547000D01*
X103047000Y-82547000D01*
X102793000Y-82547000D01*
X98947375Y-82547000D01*
X98837573Y-82918003D01*
X95660000Y-82918003D01*
X95660000Y-81921997D01*
X98837573Y-81921997D01*
X98947375Y-82293000D01*
X102793000Y-82293000D01*
X102793000Y-80035000D01*
X103047000Y-80035000D01*
X103047000Y-82293000D01*
X106892625Y-82293000D01*
X107002427Y-81921997D01*
X106922053Y-81624632D01*
X106723612Y-81200561D01*
X106446252Y-80823352D01*
X106100631Y-80507502D01*
X105700032Y-80265148D01*
X105259850Y-80105604D01*
X104797000Y-80035000D01*
X103047000Y-80035000D01*
X102793000Y-80035000D01*
X101043000Y-80035000D01*
X100580150Y-80105604D01*
X100139968Y-80265148D01*
X99739369Y-80507502D01*
X99393748Y-80823352D01*
X99116388Y-81200561D01*
X98917947Y-81624632D01*
X98837573Y-81921997D01*
X95660000Y-81921997D01*
X95660000Y-75160000D01*
X194340001Y-75160000D01*
X194340000Y-124840000D01*
G37*
X194340000Y-124840000D02*
X95660000Y-124840000D01*
X95660000Y-114150000D01*
X185011928Y-114150000D01*
X185011928Y-115850000D01*
X185024188Y-115974482D01*
X185060498Y-116094180D01*
X185119463Y-116204494D01*
X185198815Y-116301185D01*
X185295506Y-116380537D01*
X185405820Y-116439502D01*
X185525518Y-116475812D01*
X185650000Y-116488072D01*
X187350000Y-116488072D01*
X187474482Y-116475812D01*
X187594180Y-116439502D01*
X187704494Y-116380537D01*
X187801185Y-116301185D01*
X187880537Y-116204494D01*
X187939502Y-116094180D01*
X187961513Y-116021620D01*
X188093368Y-116153475D01*
X188336589Y-116315990D01*
X188606842Y-116427932D01*
X188893740Y-116485000D01*
X189186260Y-116485000D01*
X189473158Y-116427932D01*
X189743411Y-116315990D01*
X189986632Y-116153475D01*
X190193475Y-115946632D01*
X190355990Y-115703411D01*
X190467932Y-115433158D01*
X190525000Y-115146260D01*
X190525000Y-114853740D01*
X190467932Y-114566842D01*
X190355990Y-114296589D01*
X190193475Y-114053368D01*
X190061620Y-113921513D01*
X190134180Y-113899502D01*
X190244494Y-113840537D01*
X190341185Y-113761185D01*
X190420537Y-113664494D01*
X190479502Y-113554180D01*
X190515812Y-113434482D01*
X190528072Y-113310000D01*
X190528072Y-111610000D01*
X190515812Y-111485518D01*
X190479502Y-111365820D01*
X190420537Y-111255506D01*
X190341185Y-111158815D01*
X190244494Y-111079463D01*
X190134180Y-111020498D01*
X190014482Y-110984188D01*
X189890000Y-110971928D01*
X188190000Y-110971928D01*
X188065518Y-110984188D01*
X187945820Y-111020498D01*
X187835506Y-111079463D01*
X187738815Y-111158815D01*
X187659463Y-111255506D01*
X187600498Y-111365820D01*
X187578487Y-111438380D01*
X187446632Y-111306525D01*
X187203411Y-111144010D01*
X186933158Y-111032068D01*
X186646260Y-110975000D01*
X186353740Y-110975000D01*
X186066842Y-111032068D01*
X185796589Y-111144010D01*
X185553368Y-111306525D01*
X185346525Y-111513368D01*
X185184010Y-111756589D01*
X185072068Y-112026842D01*
X185015000Y-112313740D01*
X185015000Y-112606260D01*
X185072068Y-112893158D01*
X185184010Y-113163411D01*
X185346525Y-113406632D01*
X185478380Y-113538487D01*
X185405820Y-113560498D01*
X185295506Y-113619463D01*
X185198815Y-113698815D01*
X185119463Y-113795506D01*
X185060498Y-113905820D01*
X185024188Y-114025518D01*
X185011928Y-114150000D01*
X95660000Y-114150000D01*
X95660000Y-110000000D01*
X97361928Y-110000000D01*
X97361928Y-112000000D01*
X97374188Y-112124482D01*
X97410498Y-112244180D01*
X97469463Y-112354494D01*
X97548815Y-112451185D01*
X97645506Y-112530537D01*
X97755820Y-112589502D01*
X97875518Y-112625812D01*
X98000000Y-112638072D01*
X100000000Y-112638072D01*
X100124482Y-112625812D01*
X100244180Y-112589502D01*
X100354494Y-112530537D01*
X100451185Y-112451185D01*
X100530537Y-112354494D01*
X100589502Y-112244180D01*
X100625812Y-112124482D01*
X100638072Y-112000000D01*
X100638072Y-110779872D01*
X103770000Y-110779872D01*
X103770000Y-111220128D01*
X103855890Y-111651925D01*
X104024369Y-112058669D01*
X104268962Y-112424729D01*
X104580271Y-112736038D01*
X104946331Y-112980631D01*
X105353075Y-113149110D01*
X105784872Y-113235000D01*
X106225128Y-113235000D01*
X106656925Y-113149110D01*
X107063669Y-112980631D01*
X107429729Y-112736038D01*
X107741038Y-112424729D01*
X107985631Y-112058669D01*
X108154110Y-111651925D01*
X108240000Y-111220128D01*
X108240000Y-110779872D01*
X127900000Y-110779872D01*
X127900000Y-111220128D01*
X127985890Y-111651925D01*
X128154369Y-112058669D01*
X128398962Y-112424729D01*
X128710271Y-112736038D01*
X129076331Y-112980631D01*
X129483075Y-113149110D01*
X129914872Y-113235000D01*
X130355128Y-113235000D01*
X130786925Y-113149110D01*
X131193669Y-112980631D01*
X131559729Y-112736038D01*
X131871038Y-112424729D01*
X132064352Y-112135413D01*
X136144192Y-112135413D01*
X136239956Y-112399814D01*
X136529571Y-112540704D01*
X136841108Y-112622384D01*
X137162595Y-112641718D01*
X137481675Y-112597961D01*
X137786088Y-112492795D01*
X137960044Y-112399814D01*
X138055808Y-112135413D01*
X137920395Y-112000000D01*
X141361928Y-112000000D01*
X141374188Y-112124482D01*
X141410498Y-112244180D01*
X141469463Y-112354494D01*
X141548815Y-112451185D01*
X141645506Y-112530537D01*
X141755820Y-112589502D01*
X141875518Y-112625812D01*
X142000000Y-112638072D01*
X142714250Y-112635000D01*
X142873000Y-112476250D01*
X142873000Y-111127000D01*
X143127000Y-111127000D01*
X143127000Y-112476250D01*
X143285750Y-112635000D01*
X144000000Y-112638072D01*
X144124482Y-112625812D01*
X144244180Y-112589502D01*
X144354494Y-112530537D01*
X144451185Y-112451185D01*
X144530537Y-112354494D01*
X144589502Y-112244180D01*
X144625812Y-112124482D01*
X144638072Y-112000000D01*
X144635000Y-111285750D01*
X144476250Y-111127000D01*
X143127000Y-111127000D01*
X142873000Y-111127000D01*
X141523750Y-111127000D01*
X141365000Y-111285750D01*
X141361928Y-112000000D01*
X137920395Y-112000000D01*
X137100000Y-111179605D01*
X136144192Y-112135413D01*
X132064352Y-112135413D01*
X132115631Y-112058669D01*
X132284110Y-111651925D01*
X132370000Y-111220128D01*
X132370000Y-111062595D01*
X135458282Y-111062595D01*
X135502039Y-111381675D01*
X135607205Y-111686088D01*
X135700186Y-111860044D01*
X135964587Y-111955808D01*
X136920395Y-111000000D01*
X137279605Y-111000000D01*
X138235413Y-111955808D01*
X138499814Y-111860044D01*
X138640704Y-111570429D01*
X138722384Y-111258892D01*
X138741718Y-110937405D01*
X138697961Y-110618325D01*
X138592795Y-110313912D01*
X138499814Y-110139956D01*
X138235413Y-110044192D01*
X137279605Y-111000000D01*
X136920395Y-111000000D01*
X135964587Y-110044192D01*
X135700186Y-110139956D01*
X135559296Y-110429571D01*
X135477616Y-110741108D01*
X135458282Y-111062595D01*
X132370000Y-111062595D01*
X132370000Y-110779872D01*
X132284110Y-110348075D01*
X132115631Y-109941331D01*
X132064353Y-109864587D01*
X136144192Y-109864587D01*
X137100000Y-110820395D01*
X137920395Y-110000000D01*
X141361928Y-110000000D01*
X141365000Y-110714250D01*
X141523750Y-110873000D01*
X142873000Y-110873000D01*
X142873000Y-109523750D01*
X143127000Y-109523750D01*
X143127000Y-110873000D01*
X144476250Y-110873000D01*
X144569378Y-110779872D01*
X147770000Y-110779872D01*
X147770000Y-111220128D01*
X147855890Y-111651925D01*
X148024369Y-112058669D01*
X148268962Y-112424729D01*
X148580271Y-112736038D01*
X148946331Y-112980631D01*
X149353075Y-113149110D01*
X149784872Y-113235000D01*
X150225128Y-113235000D01*
X150656925Y-113149110D01*
X151063669Y-112980631D01*
X151429729Y-112736038D01*
X151741038Y-112424729D01*
X151985631Y-112058669D01*
X152154110Y-111651925D01*
X152240000Y-111220128D01*
X152240000Y-110779872D01*
X171900000Y-110779872D01*
X171900000Y-111220128D01*
X171985890Y-111651925D01*
X172154369Y-112058669D01*
X172398962Y-112424729D01*
X172710271Y-112736038D01*
X173076331Y-112980631D01*
X173483075Y-113149110D01*
X173914872Y-113235000D01*
X174355128Y-113235000D01*
X174786925Y-113149110D01*
X175193669Y-112980631D01*
X175559729Y-112736038D01*
X175871038Y-112424729D01*
X176115631Y-112058669D01*
X176284110Y-111651925D01*
X176370000Y-111220128D01*
X176370000Y-110838967D01*
X179465000Y-110838967D01*
X179465000Y-111161033D01*
X179527832Y-111476912D01*
X179651082Y-111774463D01*
X179830013Y-112042252D01*
X180057748Y-112269987D01*
X180325537Y-112448918D01*
X180623088Y-112572168D01*
X180938967Y-112635000D01*
X181261033Y-112635000D01*
X181576912Y-112572168D01*
X181874463Y-112448918D01*
X182142252Y-112269987D01*
X182369987Y-112042252D01*
X182548918Y-111774463D01*
X182672168Y-111476912D01*
X182735000Y-111161033D01*
X182735000Y-110838967D01*
X182672168Y-110523088D01*
X182548918Y-110225537D01*
X182369987Y-109957748D01*
X182142252Y-109730013D01*
X181874463Y-109551082D01*
X181576912Y-109427832D01*
X181261033Y-109365000D01*
X180938967Y-109365000D01*
X180623088Y-109427832D01*
X180325537Y-109551082D01*
X180057748Y-109730013D01*
X179830013Y-109957748D01*
X179651082Y-110225537D01*
X179527832Y-110523088D01*
X179465000Y-110838967D01*
X176370000Y-110838967D01*
X176370000Y-110779872D01*
X176284110Y-110348075D01*
X176115631Y-109941331D01*
X175871038Y-109575271D01*
X175559729Y-109263962D01*
X175193669Y-109019369D01*
X174786925Y-108850890D01*
X174355128Y-108765000D01*
X173914872Y-108765000D01*
X173483075Y-108850890D01*
X173076331Y-109019369D01*
X172710271Y-109263962D01*
X172398962Y-109575271D01*
X172154369Y-109941331D01*
X171985890Y-110348075D01*
X171900000Y-110779872D01*
X152240000Y-110779872D01*
X152154110Y-110348075D01*
X151985631Y-109941331D01*
X151741038Y-109575271D01*
X151429729Y-109263962D01*
X151063669Y-109019369D01*
X150656925Y-108850890D01*
X150225128Y-108765000D01*
X149784872Y-108765000D01*
X149353075Y-108850890D01*
X148946331Y-109019369D01*
X148580271Y-109263962D01*
X148268962Y-109575271D01*
X148024369Y-109941331D01*
X147855890Y-110348075D01*
X147770000Y-110779872D01*
X144569378Y-110779872D01*
X144635000Y-110714250D01*
X144638072Y-110000000D01*
X144625812Y-109875518D01*
X144589502Y-109755820D01*
X144530537Y-109645506D01*
X144451185Y-109548815D01*
X144354494Y-109469463D01*
X144244180Y-109410498D01*
X144124482Y-109374188D01*
X144000000Y-109361928D01*
X143285750Y-109365000D01*
X143127000Y-109523750D01*
X142873000Y-109523750D01*
X142714250Y-109365000D01*
X142000000Y-109361928D01*
X141875518Y-109374188D01*
X141755820Y-109410498D01*
X141645506Y-109469463D01*
X141548815Y-109548815D01*
X141469463Y-109645506D01*
X141410498Y-109755820D01*
X141374188Y-109875518D01*
X141361928Y-110000000D01*
X137920395Y-110000000D01*
X138055808Y-109864587D01*
X137960044Y-109600186D01*
X137670429Y-109459296D01*
X137358892Y-109377616D01*
X137037405Y-109358282D01*
X136718325Y-109402039D01*
X136413912Y-109507205D01*
X136239956Y-109600186D01*
X136144192Y-109864587D01*
X132064353Y-109864587D01*
X131871038Y-109575271D01*
X131559729Y-109263962D01*
X131193669Y-109019369D01*
X130786925Y-108850890D01*
X130355128Y-108765000D01*
X129914872Y-108765000D01*
X129483075Y-108850890D01*
X129076331Y-109019369D01*
X128710271Y-109263962D01*
X128398962Y-109575271D01*
X128154369Y-109941331D01*
X127985890Y-110348075D01*
X127900000Y-110779872D01*
X108240000Y-110779872D01*
X108154110Y-110348075D01*
X107985631Y-109941331D01*
X107741038Y-109575271D01*
X107429729Y-109263962D01*
X107063669Y-109019369D01*
X106656925Y-108850890D01*
X106225128Y-108765000D01*
X105784872Y-108765000D01*
X105353075Y-108850890D01*
X104946331Y-109019369D01*
X104580271Y-109263962D01*
X104268962Y-109575271D01*
X104024369Y-109941331D01*
X103855890Y-110348075D01*
X103770000Y-110779872D01*
X100638072Y-110779872D01*
X100638072Y-110000000D01*
X100625812Y-109875518D01*
X100589502Y-109755820D01*
X100530537Y-109645506D01*
X100451185Y-109548815D01*
X100354494Y-109469463D01*
X100244180Y-109410498D01*
X100124482Y-109374188D01*
X100000000Y-109361928D01*
X98000000Y-109361928D01*
X97875518Y-109374188D01*
X97755820Y-109410498D01*
X97645506Y-109469463D01*
X97548815Y-109548815D01*
X97469463Y-109645506D01*
X97410498Y-109755820D01*
X97374188Y-109875518D01*
X97361928Y-110000000D01*
X95660000Y-110000000D01*
X95660000Y-102708967D01*
X97365000Y-102708967D01*
X97365000Y-103031033D01*
X97427832Y-103346912D01*
X97551082Y-103644463D01*
X97730013Y-103912252D01*
X97957748Y-104139987D01*
X98225537Y-104318918D01*
X98523088Y-104442168D01*
X98838967Y-104505000D01*
X99161033Y-104505000D01*
X99476912Y-104442168D01*
X99774463Y-104318918D01*
X100042252Y-104139987D01*
X100269987Y-103912252D01*
X100448918Y-103644463D01*
X100572168Y-103346912D01*
X100635000Y-103031033D01*
X100635000Y-102708967D01*
X141365000Y-102708967D01*
X141365000Y-103031033D01*
X141427832Y-103346912D01*
X141551082Y-103644463D01*
X141730013Y-103912252D01*
X141957748Y-104139987D01*
X142225537Y-104318918D01*
X142523088Y-104442168D01*
X142838967Y-104505000D01*
X143161033Y-104505000D01*
X143476912Y-104442168D01*
X143774463Y-104318918D01*
X144042252Y-104139987D01*
X144269987Y-103912252D01*
X144448918Y-103644463D01*
X144572168Y-103346912D01*
X144635000Y-103031033D01*
X144635000Y-102708967D01*
X144572168Y-102393088D01*
X144448918Y-102095537D01*
X144269987Y-101827748D01*
X144042252Y-101600013D01*
X143774463Y-101421082D01*
X143476912Y-101297832D01*
X143161033Y-101235000D01*
X142838967Y-101235000D01*
X142523088Y-101297832D01*
X142225537Y-101421082D01*
X141957748Y-101600013D01*
X141730013Y-101827748D01*
X141551082Y-102095537D01*
X141427832Y-102393088D01*
X141365000Y-102708967D01*
X100635000Y-102708967D01*
X100572168Y-102393088D01*
X100448918Y-102095537D01*
X100269987Y-101827748D01*
X100042252Y-101600013D01*
X99774463Y-101421082D01*
X99476912Y-101297832D01*
X99161033Y-101235000D01*
X98838967Y-101235000D01*
X98523088Y-101297832D01*
X98225537Y-101421082D01*
X97957748Y-101600013D01*
X97730013Y-101827748D01*
X97551082Y-102095537D01*
X97427832Y-102393088D01*
X97365000Y-102708967D01*
X95660000Y-102708967D01*
X95660000Y-100777980D01*
X145401626Y-100777980D01*
X145521514Y-101062836D01*
X145845210Y-101223699D01*
X146194069Y-101318322D01*
X146554684Y-101343067D01*
X146913198Y-101296985D01*
X147255833Y-101181846D01*
X147478486Y-101062836D01*
X147598374Y-100777980D01*
X146500000Y-99679605D01*
X145401626Y-100777980D01*
X95660000Y-100777980D01*
X95660000Y-99554684D01*
X144656933Y-99554684D01*
X144703015Y-99913198D01*
X144818154Y-100255833D01*
X144937164Y-100478486D01*
X145222020Y-100598374D01*
X146320395Y-99500000D01*
X146679605Y-99500000D01*
X147777980Y-100598374D01*
X148062836Y-100478486D01*
X148223699Y-100154790D01*
X148318322Y-99805931D01*
X148343067Y-99445316D01*
X148296985Y-99086802D01*
X148233561Y-98898061D01*
X172715000Y-98898061D01*
X172715000Y-99101939D01*
X172754774Y-99301898D01*
X172832795Y-99490256D01*
X172946063Y-99659774D01*
X173090226Y-99803937D01*
X173259744Y-99917205D01*
X173448102Y-99995226D01*
X173648061Y-100035000D01*
X173851939Y-100035000D01*
X174051898Y-99995226D01*
X174240256Y-99917205D01*
X174409774Y-99803937D01*
X174553937Y-99659774D01*
X174667205Y-99490256D01*
X174745226Y-99301898D01*
X174785000Y-99101939D01*
X174785000Y-98898061D01*
X174745226Y-98698102D01*
X174691271Y-98567845D01*
X175749117Y-97510000D01*
X175796289Y-97510000D01*
X175840226Y-97553937D01*
X176009744Y-97667205D01*
X176198102Y-97745226D01*
X176398061Y-97785000D01*
X176601939Y-97785000D01*
X176801898Y-97745226D01*
X176990256Y-97667205D01*
X177159774Y-97553937D01*
X177303937Y-97409774D01*
X177417205Y-97240256D01*
X177495226Y-97051898D01*
X177535000Y-96851939D01*
X177535000Y-96648061D01*
X177495226Y-96448102D01*
X177417205Y-96259744D01*
X177303937Y-96090226D01*
X177159774Y-95946063D01*
X176990256Y-95832795D01*
X176801898Y-95754774D01*
X176601939Y-95715000D01*
X176398061Y-95715000D01*
X176198102Y-95754774D01*
X176009744Y-95832795D01*
X175840226Y-95946063D01*
X175796289Y-95990000D01*
X175471637Y-95990000D01*
X175434314Y-95986324D01*
X175396991Y-95990000D01*
X175396982Y-95990000D01*
X175285329Y-96000997D01*
X175142068Y-96044454D01*
X175010038Y-96115026D01*
X174929976Y-96180732D01*
X174894314Y-96209999D01*
X174870516Y-96238997D01*
X173238998Y-97870516D01*
X173210000Y-97894314D01*
X173186202Y-97923312D01*
X173186201Y-97923313D01*
X173115026Y-98010039D01*
X173091562Y-98053937D01*
X173044454Y-98142068D01*
X173001013Y-98285276D01*
X172946063Y-98340226D01*
X172832795Y-98509744D01*
X172754774Y-98698102D01*
X172715000Y-98898061D01*
X148233561Y-98898061D01*
X148181846Y-98744167D01*
X148062836Y-98521514D01*
X147777980Y-98401626D01*
X146679605Y-99500000D01*
X146320395Y-99500000D01*
X145222020Y-98401626D01*
X144937164Y-98521514D01*
X144776301Y-98845210D01*
X144681678Y-99194069D01*
X144656933Y-99554684D01*
X95660000Y-99554684D01*
X95660000Y-98222020D01*
X145401626Y-98222020D01*
X146500000Y-99320395D01*
X147598374Y-98222020D01*
X147478486Y-97937164D01*
X147154790Y-97776301D01*
X146805931Y-97681678D01*
X146445316Y-97656933D01*
X146086802Y-97703015D01*
X145744167Y-97818154D01*
X145521514Y-97937164D01*
X145401626Y-98222020D01*
X95660000Y-98222020D01*
X95660000Y-93078003D01*
X98837573Y-93078003D01*
X98917947Y-93375368D01*
X99116388Y-93799439D01*
X99393748Y-94176648D01*
X99739369Y-94492498D01*
X100139968Y-94734852D01*
X100580150Y-94894396D01*
X101043000Y-94965000D01*
X102793000Y-94965000D01*
X102793000Y-92707000D01*
X103047000Y-92707000D01*
X103047000Y-94965000D01*
X104797000Y-94965000D01*
X105259850Y-94894396D01*
X105520288Y-94800000D01*
X114161928Y-94800000D01*
X114161928Y-97200000D01*
X114174188Y-97324482D01*
X114210498Y-97444180D01*
X114269463Y-97554494D01*
X114348815Y-97651185D01*
X114445506Y-97730537D01*
X114555820Y-97789502D01*
X114675518Y-97825812D01*
X114800000Y-97838072D01*
X117200000Y-97838072D01*
X117324482Y-97825812D01*
X117444180Y-97789502D01*
X117554494Y-97730537D01*
X117651185Y-97651185D01*
X117730537Y-97554494D01*
X117789502Y-97444180D01*
X117825812Y-97324482D01*
X117838072Y-97200000D01*
X117838072Y-95819268D01*
X139165000Y-95819268D01*
X139165000Y-96180732D01*
X139235518Y-96535250D01*
X139373844Y-96869199D01*
X139574662Y-97169744D01*
X139830256Y-97425338D01*
X140130801Y-97626156D01*
X140464750Y-97764482D01*
X140819268Y-97835000D01*
X141180732Y-97835000D01*
X141535250Y-97764482D01*
X141869199Y-97626156D01*
X142169744Y-97425338D01*
X142425338Y-97169744D01*
X142626156Y-96869199D01*
X142764482Y-96535250D01*
X142835000Y-96180732D01*
X142835000Y-95819268D01*
X142764482Y-95464750D01*
X142626156Y-95130801D01*
X142425338Y-94830256D01*
X142169744Y-94574662D01*
X141869199Y-94373844D01*
X141535250Y-94235518D01*
X141180732Y-94165000D01*
X140819268Y-94165000D01*
X140464750Y-94235518D01*
X140130801Y-94373844D01*
X139830256Y-94574662D01*
X139574662Y-94830256D01*
X139373844Y-95130801D01*
X139235518Y-95464750D01*
X139165000Y-95819268D01*
X117838072Y-95819268D01*
X117838072Y-94800000D01*
X117825812Y-94675518D01*
X117789502Y-94555820D01*
X117730537Y-94445506D01*
X117651185Y-94348815D01*
X117554494Y-94269463D01*
X117444180Y-94210498D01*
X117324482Y-94174188D01*
X117200000Y-94161928D01*
X114800000Y-94161928D01*
X114675518Y-94174188D01*
X114555820Y-94210498D01*
X114445506Y-94269463D01*
X114348815Y-94348815D01*
X114269463Y-94445506D01*
X114210498Y-94555820D01*
X114174188Y-94675518D01*
X114161928Y-94800000D01*
X105520288Y-94800000D01*
X105700032Y-94734852D01*
X106100631Y-94492498D01*
X106446252Y-94176648D01*
X106723612Y-93799439D01*
X106922053Y-93375368D01*
X107002427Y-93078003D01*
X106892625Y-92707000D01*
X103047000Y-92707000D01*
X102793000Y-92707000D01*
X98947375Y-92707000D01*
X98837573Y-93078003D01*
X95660000Y-93078003D01*
X95660000Y-92475413D01*
X149734802Y-92475413D01*
X149734802Y-92679291D01*
X149774576Y-92879250D01*
X149852597Y-93067608D01*
X149965865Y-93237126D01*
X150110028Y-93381289D01*
X150279546Y-93494557D01*
X150465000Y-93571375D01*
X150465000Y-93601939D01*
X150504774Y-93801898D01*
X150582795Y-93990256D01*
X150696063Y-94159774D01*
X150840226Y-94303937D01*
X151009744Y-94417205D01*
X151198102Y-94495226D01*
X151398061Y-94535000D01*
X151601939Y-94535000D01*
X151801898Y-94495226D01*
X151990256Y-94417205D01*
X152159774Y-94303937D01*
X152303937Y-94159774D01*
X152417205Y-93990256D01*
X152495226Y-93801898D01*
X152535000Y-93601939D01*
X152535000Y-93539801D01*
X154564802Y-91510000D01*
X158122772Y-91510000D01*
X158069453Y-91609753D01*
X158057552Y-91648987D01*
X158032076Y-91732975D01*
X158025997Y-91753014D01*
X158011323Y-91901999D01*
X158015000Y-91939331D01*
X158014999Y-92771290D01*
X157971062Y-92815227D01*
X157857794Y-92984745D01*
X157779773Y-93173103D01*
X157739999Y-93373062D01*
X157739999Y-93576940D01*
X157779773Y-93776899D01*
X157857794Y-93965257D01*
X157971062Y-94134775D01*
X158115225Y-94278938D01*
X158284743Y-94392206D01*
X158316328Y-94405289D01*
X158317532Y-94406493D01*
X161672041Y-97761003D01*
X161695839Y-97790001D01*
X161724837Y-97813799D01*
X161811563Y-97884974D01*
X161883290Y-97923313D01*
X161943593Y-97955546D01*
X162086854Y-97999003D01*
X162198507Y-98010000D01*
X162198516Y-98010000D01*
X162235839Y-98013676D01*
X162273162Y-98010000D01*
X166046289Y-98010000D01*
X166090226Y-98053937D01*
X166259744Y-98167205D01*
X166448102Y-98245226D01*
X166648061Y-98285000D01*
X166851939Y-98285000D01*
X167051898Y-98245226D01*
X167240256Y-98167205D01*
X167409774Y-98053937D01*
X167553937Y-97909774D01*
X167667205Y-97740256D01*
X167745226Y-97551898D01*
X167785000Y-97351939D01*
X167785000Y-97148061D01*
X167745226Y-96948102D01*
X167667205Y-96759744D01*
X167553937Y-96590226D01*
X167519256Y-96555545D01*
X170996799Y-93078003D01*
X183497573Y-93078003D01*
X183577947Y-93375368D01*
X183776388Y-93799439D01*
X184053748Y-94176648D01*
X184399369Y-94492498D01*
X184799968Y-94734852D01*
X185240150Y-94894396D01*
X185703000Y-94965000D01*
X187453000Y-94965000D01*
X187453000Y-92707000D01*
X187707000Y-92707000D01*
X187707000Y-94965000D01*
X189457000Y-94965000D01*
X189919850Y-94894396D01*
X190360032Y-94734852D01*
X190760631Y-94492498D01*
X191106252Y-94176648D01*
X191383612Y-93799439D01*
X191582053Y-93375368D01*
X191662427Y-93078003D01*
X191552625Y-92707000D01*
X187707000Y-92707000D01*
X187453000Y-92707000D01*
X183607375Y-92707000D01*
X183497573Y-93078003D01*
X170996799Y-93078003D01*
X171539803Y-92535000D01*
X171601939Y-92535000D01*
X171801898Y-92495226D01*
X171990256Y-92417205D01*
X172159774Y-92303937D01*
X172303937Y-92159774D01*
X172355905Y-92081997D01*
X183497573Y-92081997D01*
X183607375Y-92453000D01*
X187453000Y-92453000D01*
X187453000Y-90195000D01*
X187707000Y-90195000D01*
X187707000Y-92453000D01*
X191552625Y-92453000D01*
X191662427Y-92081997D01*
X191582053Y-91784632D01*
X191383612Y-91360561D01*
X191106252Y-90983352D01*
X190760631Y-90667502D01*
X190360032Y-90425148D01*
X189919850Y-90265604D01*
X189457000Y-90195000D01*
X187707000Y-90195000D01*
X187453000Y-90195000D01*
X185703000Y-90195000D01*
X185240150Y-90265604D01*
X184799968Y-90425148D01*
X184399369Y-90667502D01*
X184053748Y-90983352D01*
X183776388Y-91360561D01*
X183577947Y-91784632D01*
X183497573Y-92081997D01*
X172355905Y-92081997D01*
X172417205Y-91990256D01*
X172495226Y-91801898D01*
X172535000Y-91601939D01*
X172535000Y-91398061D01*
X172495226Y-91198102D01*
X172417205Y-91009744D01*
X172303937Y-90840226D01*
X172159774Y-90696063D01*
X171990256Y-90582795D01*
X171801898Y-90504774D01*
X171601939Y-90465000D01*
X171398061Y-90465000D01*
X171198102Y-90504774D01*
X171009744Y-90582795D01*
X170840226Y-90696063D01*
X170696063Y-90840226D01*
X170582795Y-91009744D01*
X170504774Y-91198102D01*
X170465000Y-91398061D01*
X170465000Y-91460197D01*
X166435199Y-95490000D01*
X163703711Y-95490000D01*
X163659774Y-95446063D01*
X163490256Y-95332795D01*
X163301898Y-95254774D01*
X163101939Y-95215000D01*
X162898061Y-95215000D01*
X162698102Y-95254774D01*
X162509744Y-95332795D01*
X162340226Y-95446063D01*
X162196063Y-95590226D01*
X162082795Y-95759744D01*
X162005937Y-95945295D01*
X159781393Y-93720752D01*
X159809999Y-93576940D01*
X159809999Y-93373062D01*
X159770225Y-93173103D01*
X159692204Y-92984745D01*
X159578936Y-92815227D01*
X159534999Y-92771290D01*
X159534999Y-92235001D01*
X160560679Y-92235001D01*
X160598001Y-92238677D01*
X160635323Y-92235001D01*
X160635334Y-92235001D01*
X160746987Y-92224004D01*
X160890248Y-92180547D01*
X161022277Y-92109975D01*
X161138002Y-92015002D01*
X161161805Y-91985998D01*
X161485999Y-91661804D01*
X161515002Y-91638002D01*
X161609975Y-91522277D01*
X161680547Y-91390248D01*
X161724004Y-91246987D01*
X161735001Y-91135334D01*
X161735001Y-91135333D01*
X161738678Y-91098001D01*
X161735001Y-91060668D01*
X161735001Y-90898061D01*
X163465000Y-90898061D01*
X163465000Y-91101939D01*
X163504774Y-91301898D01*
X163582795Y-91490256D01*
X163696063Y-91659774D01*
X163840226Y-91803937D01*
X164009744Y-91917205D01*
X164198102Y-91995226D01*
X164398061Y-92035000D01*
X164601939Y-92035000D01*
X164801898Y-91995226D01*
X164990256Y-91917205D01*
X165159774Y-91803937D01*
X165303937Y-91659774D01*
X165417205Y-91490256D01*
X165495226Y-91301898D01*
X165535000Y-91101939D01*
X165535000Y-91039801D01*
X166064802Y-90510000D01*
X167546289Y-90510000D01*
X167590226Y-90553937D01*
X167759744Y-90667205D01*
X167948102Y-90745226D01*
X168148061Y-90785000D01*
X168351939Y-90785000D01*
X168551898Y-90745226D01*
X168740256Y-90667205D01*
X168909774Y-90553937D01*
X169053937Y-90409774D01*
X169167205Y-90240256D01*
X169245226Y-90051898D01*
X169285000Y-89851939D01*
X169285000Y-89648061D01*
X169245226Y-89448102D01*
X169167205Y-89259744D01*
X169053937Y-89090226D01*
X168909774Y-88946063D01*
X168740256Y-88832795D01*
X168551898Y-88754774D01*
X168351939Y-88715000D01*
X168148061Y-88715000D01*
X167948102Y-88754774D01*
X167759744Y-88832795D01*
X167590226Y-88946063D01*
X167546289Y-88990000D01*
X165787323Y-88990000D01*
X165750000Y-88986324D01*
X165712677Y-88990000D01*
X165712667Y-88990000D01*
X165601014Y-89000997D01*
X165457753Y-89044454D01*
X165325723Y-89115026D01*
X165256012Y-89172237D01*
X165209999Y-89209999D01*
X165186201Y-89238997D01*
X164460199Y-89965000D01*
X164398061Y-89965000D01*
X164198102Y-90004774D01*
X164009744Y-90082795D01*
X163840226Y-90196063D01*
X163696063Y-90340226D01*
X163582795Y-90509744D01*
X163504774Y-90698102D01*
X163465000Y-90898061D01*
X161735001Y-90898061D01*
X161735001Y-90439324D01*
X161738677Y-90401999D01*
X161735001Y-90364674D01*
X161735001Y-90364666D01*
X161724004Y-90253013D01*
X161680547Y-90109752D01*
X161609975Y-89977723D01*
X161515002Y-89861998D01*
X161486003Y-89838200D01*
X161407804Y-89760000D01*
X161962678Y-89760000D01*
X162000000Y-89763676D01*
X162037322Y-89760000D01*
X162037333Y-89760000D01*
X162148986Y-89749003D01*
X162292247Y-89705546D01*
X162424276Y-89634974D01*
X162540001Y-89540001D01*
X162563804Y-89510997D01*
X164574801Y-87500000D01*
X180608057Y-87500000D01*
X180635764Y-87781309D01*
X180717818Y-88051808D01*
X180851068Y-88301101D01*
X181030392Y-88519608D01*
X181248899Y-88698932D01*
X181498192Y-88832182D01*
X181768691Y-88914236D01*
X181979508Y-88935000D01*
X183020492Y-88935000D01*
X183231309Y-88914236D01*
X183501808Y-88832182D01*
X183751101Y-88698932D01*
X183969608Y-88519608D01*
X184148932Y-88301101D01*
X184282182Y-88051808D01*
X184364236Y-87781309D01*
X184391943Y-87500000D01*
X184364236Y-87218691D01*
X184282182Y-86948192D01*
X184148932Y-86698899D01*
X183969608Y-86480392D01*
X183751101Y-86301068D01*
X183623259Y-86232735D01*
X183852839Y-86082601D01*
X184054500Y-85884895D01*
X184213715Y-85651646D01*
X184324367Y-85391818D01*
X184341904Y-85309039D01*
X184219915Y-85087000D01*
X182627000Y-85087000D01*
X182627000Y-85107000D01*
X182373000Y-85107000D01*
X182373000Y-85087000D01*
X180780085Y-85087000D01*
X180658096Y-85309039D01*
X180675633Y-85391818D01*
X180786285Y-85651646D01*
X180945500Y-85884895D01*
X181147161Y-86082601D01*
X181376741Y-86232735D01*
X181248899Y-86301068D01*
X181030392Y-86480392D01*
X180851068Y-86698899D01*
X180717818Y-86948192D01*
X180635764Y-87218691D01*
X180608057Y-87500000D01*
X164574801Y-87500000D01*
X165011004Y-87063798D01*
X165040001Y-87040001D01*
X165115347Y-86948192D01*
X165134974Y-86924277D01*
X165205546Y-86792247D01*
X165224265Y-86730537D01*
X165249003Y-86648986D01*
X165260000Y-86537333D01*
X165260000Y-86537323D01*
X165263676Y-86500000D01*
X165260000Y-86462677D01*
X165260000Y-86353770D01*
X165322912Y-86201888D01*
X165362686Y-86001929D01*
X165362686Y-85798051D01*
X165322912Y-85598092D01*
X165244891Y-85409734D01*
X165131623Y-85240216D01*
X164987460Y-85096053D01*
X164817942Y-84982785D01*
X164629584Y-84904764D01*
X164429625Y-84864990D01*
X164362690Y-84864990D01*
X164362690Y-84610961D01*
X180658096Y-84610961D01*
X180780085Y-84833000D01*
X182373000Y-84833000D01*
X182373000Y-83525000D01*
X182627000Y-83525000D01*
X182627000Y-84833000D01*
X184219915Y-84833000D01*
X184341904Y-84610961D01*
X184324367Y-84528182D01*
X184213715Y-84268354D01*
X184054500Y-84035105D01*
X183852839Y-83837399D01*
X183616483Y-83682834D01*
X183354514Y-83577350D01*
X183077000Y-83525000D01*
X182627000Y-83525000D01*
X182373000Y-83525000D01*
X181923000Y-83525000D01*
X181645486Y-83577350D01*
X181383517Y-83682834D01*
X181147161Y-83837399D01*
X180945500Y-84035105D01*
X180786285Y-84268354D01*
X180675633Y-84528182D01*
X180658096Y-84610961D01*
X164362690Y-84610961D01*
X164362690Y-82924083D01*
X165479350Y-82924083D01*
X165504774Y-83051898D01*
X165582795Y-83240256D01*
X165696063Y-83409774D01*
X165840226Y-83553937D01*
X166009744Y-83667205D01*
X166198102Y-83745226D01*
X166398061Y-83785000D01*
X166601939Y-83785000D01*
X166801898Y-83745226D01*
X166990256Y-83667205D01*
X167159774Y-83553937D01*
X167303937Y-83409774D01*
X167417205Y-83240256D01*
X167495226Y-83051898D01*
X167521859Y-82918003D01*
X183497573Y-82918003D01*
X183577947Y-83215368D01*
X183776388Y-83639439D01*
X184053748Y-84016648D01*
X184399369Y-84332498D01*
X184799968Y-84574852D01*
X185240150Y-84734396D01*
X185703000Y-84805000D01*
X187453000Y-84805000D01*
X187453000Y-82547000D01*
X187707000Y-82547000D01*
X187707000Y-84805000D01*
X189457000Y-84805000D01*
X189919850Y-84734396D01*
X190360032Y-84574852D01*
X190760631Y-84332498D01*
X191106252Y-84016648D01*
X191383612Y-83639439D01*
X191582053Y-83215368D01*
X191662427Y-82918003D01*
X191552625Y-82547000D01*
X187707000Y-82547000D01*
X187453000Y-82547000D01*
X183607375Y-82547000D01*
X183497573Y-82918003D01*
X167521859Y-82918003D01*
X167535000Y-82851939D01*
X167535000Y-82648061D01*
X167495226Y-82448102D01*
X167417205Y-82259744D01*
X167303937Y-82090226D01*
X167159774Y-81946063D01*
X167123757Y-81921997D01*
X183497573Y-81921997D01*
X183607375Y-82293000D01*
X187453000Y-82293000D01*
X187453000Y-80035000D01*
X187707000Y-80035000D01*
X187707000Y-82293000D01*
X191552625Y-82293000D01*
X191662427Y-81921997D01*
X191582053Y-81624632D01*
X191383612Y-81200561D01*
X191106252Y-80823352D01*
X190760631Y-80507502D01*
X190360032Y-80265148D01*
X189919850Y-80105604D01*
X189457000Y-80035000D01*
X187707000Y-80035000D01*
X187453000Y-80035000D01*
X185703000Y-80035000D01*
X185240150Y-80105604D01*
X184799968Y-80265148D01*
X184399369Y-80507502D01*
X184053748Y-80823352D01*
X183776388Y-81200561D01*
X183577947Y-81624632D01*
X183497573Y-81921997D01*
X167123757Y-81921997D01*
X166990256Y-81832795D01*
X166801898Y-81754774D01*
X166601939Y-81715000D01*
X166539801Y-81715000D01*
X166477886Y-81653085D01*
X166454084Y-81624082D01*
X166338359Y-81529109D01*
X166206330Y-81458537D01*
X166063069Y-81415080D01*
X165951416Y-81404083D01*
X165951405Y-81404083D01*
X165914083Y-81400407D01*
X165876761Y-81404083D01*
X164306401Y-81404083D01*
X164262464Y-81360146D01*
X164092946Y-81246878D01*
X163904588Y-81168857D01*
X163704629Y-81129083D01*
X163500751Y-81129083D01*
X163300792Y-81168857D01*
X163112434Y-81246878D01*
X162942916Y-81360146D01*
X162798753Y-81504309D01*
X162685485Y-81673827D01*
X162607464Y-81862185D01*
X162567690Y-82062144D01*
X162567690Y-82266022D01*
X162607464Y-82465981D01*
X162685485Y-82654339D01*
X162798753Y-82823857D01*
X162842691Y-82867795D01*
X162842690Y-85582508D01*
X161192237Y-87232961D01*
X161101939Y-87215000D01*
X160898061Y-87215000D01*
X160698102Y-87254774D01*
X160509744Y-87332795D01*
X160340226Y-87446063D01*
X160196063Y-87590226D01*
X160082795Y-87759744D01*
X160004774Y-87948102D01*
X159965000Y-88148061D01*
X159965000Y-88240000D01*
X158953711Y-88240000D01*
X158909774Y-88196063D01*
X158740256Y-88082795D01*
X158551898Y-88004774D01*
X158351939Y-87965000D01*
X158284999Y-87965000D01*
X158284999Y-86079802D01*
X158559801Y-85805000D01*
X158621939Y-85805000D01*
X158821898Y-85765226D01*
X159010256Y-85687205D01*
X159179774Y-85573937D01*
X159323937Y-85429774D01*
X159437205Y-85260256D01*
X159515226Y-85071898D01*
X159555000Y-84871939D01*
X159555000Y-84668061D01*
X159515226Y-84468102D01*
X159437205Y-84279744D01*
X159323937Y-84110226D01*
X159179774Y-83966063D01*
X159010256Y-83852795D01*
X158821898Y-83774774D01*
X158621939Y-83735000D01*
X158418061Y-83735000D01*
X158218102Y-83774774D01*
X158029744Y-83852795D01*
X157860226Y-83966063D01*
X157716063Y-84110226D01*
X157602795Y-84279744D01*
X157524774Y-84468102D01*
X157485000Y-84668061D01*
X157485000Y-84730199D01*
X157013997Y-85201202D01*
X156984999Y-85225000D01*
X156961201Y-85253998D01*
X156961200Y-85253999D01*
X156890025Y-85340725D01*
X156819453Y-85472755D01*
X156775997Y-85616016D01*
X156761323Y-85765001D01*
X156765000Y-85802333D01*
X156764999Y-89310678D01*
X156761323Y-89348001D01*
X156764999Y-89385323D01*
X156764999Y-89385333D01*
X156775996Y-89496986D01*
X156818869Y-89638322D01*
X156819453Y-89640247D01*
X156890025Y-89772277D01*
X156916008Y-89803937D01*
X156984998Y-89888002D01*
X157014002Y-89911805D01*
X157092197Y-89990000D01*
X154287322Y-89990000D01*
X154249999Y-89986324D01*
X154212676Y-89990000D01*
X154212667Y-89990000D01*
X154101014Y-90000997D01*
X153957753Y-90044454D01*
X153825724Y-90115026D01*
X153709999Y-90209999D01*
X153686201Y-90238997D01*
X151731262Y-92193937D01*
X151687007Y-92087096D01*
X151573739Y-91917578D01*
X151529802Y-91873641D01*
X151529802Y-88890781D01*
X151659774Y-88803937D01*
X151803937Y-88659774D01*
X151917205Y-88490256D01*
X151995226Y-88301898D01*
X152035000Y-88101939D01*
X152035000Y-87898061D01*
X151995226Y-87698102D01*
X151917205Y-87509744D01*
X151803937Y-87340226D01*
X151659774Y-87196063D01*
X151490256Y-87082795D01*
X151301898Y-87004774D01*
X151101939Y-86965000D01*
X150898061Y-86965000D01*
X150698102Y-87004774D01*
X150509744Y-87082795D01*
X150340226Y-87196063D01*
X150196063Y-87340226D01*
X150082795Y-87509744D01*
X150004774Y-87698102D01*
X149965000Y-87898061D01*
X149965000Y-88101939D01*
X150004774Y-88301898D01*
X150009803Y-88314039D01*
X150009802Y-91873641D01*
X149965865Y-91917578D01*
X149852597Y-92087096D01*
X149774576Y-92275454D01*
X149734802Y-92475413D01*
X95660000Y-92475413D01*
X95660000Y-92081997D01*
X98837573Y-92081997D01*
X98947375Y-92453000D01*
X102793000Y-92453000D01*
X102793000Y-90195000D01*
X103047000Y-90195000D01*
X103047000Y-92453000D01*
X106892625Y-92453000D01*
X107002427Y-92081997D01*
X106922053Y-91784632D01*
X106723612Y-91360561D01*
X106446252Y-90983352D01*
X106100631Y-90667502D01*
X105700032Y-90425148D01*
X105600408Y-90389039D01*
X106158096Y-90389039D01*
X106175633Y-90471818D01*
X106286285Y-90731646D01*
X106445500Y-90964895D01*
X106647161Y-91162601D01*
X106883517Y-91317166D01*
X107145486Y-91422650D01*
X107423000Y-91475000D01*
X107873000Y-91475000D01*
X107873000Y-90167000D01*
X106280085Y-90167000D01*
X106158096Y-90389039D01*
X105600408Y-90389039D01*
X105259850Y-90265604D01*
X104797000Y-90195000D01*
X103047000Y-90195000D01*
X102793000Y-90195000D01*
X101043000Y-90195000D01*
X100580150Y-90265604D01*
X100139968Y-90425148D01*
X99739369Y-90667502D01*
X99393748Y-90983352D01*
X99116388Y-91360561D01*
X98917947Y-91784632D01*
X98837573Y-92081997D01*
X95660000Y-92081997D01*
X95660000Y-87500000D01*
X106108057Y-87500000D01*
X106135764Y-87781309D01*
X106217818Y-88051808D01*
X106351068Y-88301101D01*
X106530392Y-88519608D01*
X106748899Y-88698932D01*
X106876741Y-88767265D01*
X106647161Y-88917399D01*
X106445500Y-89115105D01*
X106286285Y-89348354D01*
X106175633Y-89608182D01*
X106158096Y-89690961D01*
X106280085Y-89913000D01*
X107873000Y-89913000D01*
X107873000Y-89893000D01*
X108127000Y-89893000D01*
X108127000Y-89913000D01*
X108147000Y-89913000D01*
X108147000Y-90167000D01*
X108127000Y-90167000D01*
X108127000Y-91475000D01*
X108577000Y-91475000D01*
X108854514Y-91422650D01*
X109116483Y-91317166D01*
X109352839Y-91162601D01*
X109554500Y-90964895D01*
X109713715Y-90731646D01*
X109755068Y-90634541D01*
X110045064Y-90634541D01*
X110055575Y-90827763D01*
X110225603Y-90898562D01*
X110406176Y-90934828D01*
X110590355Y-90935171D01*
X110771061Y-90899574D01*
X110941351Y-90829408D01*
X110944425Y-90827763D01*
X110954936Y-90634541D01*
X113045064Y-90634541D01*
X113055575Y-90827763D01*
X113225603Y-90898562D01*
X113406176Y-90934828D01*
X113590355Y-90935171D01*
X113771061Y-90899574D01*
X113941351Y-90829408D01*
X113944425Y-90827763D01*
X113954936Y-90634541D01*
X113500000Y-90179605D01*
X113045064Y-90634541D01*
X110954936Y-90634541D01*
X110500000Y-90179605D01*
X110045064Y-90634541D01*
X109755068Y-90634541D01*
X109824367Y-90471818D01*
X109828371Y-90452918D01*
X109865459Y-90454936D01*
X110320395Y-90000000D01*
X110679605Y-90000000D01*
X111134541Y-90454936D01*
X111327763Y-90444425D01*
X111398562Y-90274397D01*
X111434828Y-90093824D01*
X111434834Y-90090355D01*
X112564829Y-90090355D01*
X112600426Y-90271061D01*
X112670592Y-90441351D01*
X112672237Y-90444425D01*
X112865459Y-90454936D01*
X113320395Y-90000000D01*
X113679605Y-90000000D01*
X114134541Y-90454936D01*
X114327763Y-90444425D01*
X114398562Y-90274397D01*
X114434828Y-90093824D01*
X114435171Y-89909645D01*
X114399574Y-89728939D01*
X114329408Y-89558649D01*
X114327763Y-89555575D01*
X114134541Y-89545064D01*
X113679605Y-90000000D01*
X113320395Y-90000000D01*
X112865459Y-89545064D01*
X112672237Y-89555575D01*
X112601438Y-89725603D01*
X112565172Y-89906176D01*
X112564829Y-90090355D01*
X111434834Y-90090355D01*
X111435171Y-89909645D01*
X111399574Y-89728939D01*
X111329408Y-89558649D01*
X111327763Y-89555575D01*
X111134541Y-89545064D01*
X110679605Y-90000000D01*
X110320395Y-90000000D01*
X109865459Y-89545064D01*
X109799026Y-89548678D01*
X109721000Y-89365459D01*
X110045064Y-89365459D01*
X110500000Y-89820395D01*
X110954936Y-89365459D01*
X113045064Y-89365459D01*
X113500000Y-89820395D01*
X113954936Y-89365459D01*
X113944425Y-89172237D01*
X113774397Y-89101438D01*
X113593824Y-89065172D01*
X113409645Y-89064829D01*
X113228939Y-89100426D01*
X113058649Y-89170592D01*
X113055575Y-89172237D01*
X113045064Y-89365459D01*
X110954936Y-89365459D01*
X110944425Y-89172237D01*
X110774397Y-89101438D01*
X110593824Y-89065172D01*
X110409645Y-89064829D01*
X110228939Y-89100426D01*
X110058649Y-89170592D01*
X110055575Y-89172237D01*
X110045064Y-89365459D01*
X109721000Y-89365459D01*
X109713715Y-89348354D01*
X109554500Y-89115105D01*
X109352839Y-88917399D01*
X109123259Y-88767265D01*
X109251101Y-88698932D01*
X109469608Y-88519608D01*
X109638063Y-88314344D01*
X114115000Y-88314344D01*
X114115000Y-88685656D01*
X114187439Y-89049834D01*
X114329534Y-89392882D01*
X114535825Y-89701618D01*
X114798382Y-89964175D01*
X115107118Y-90170466D01*
X115450166Y-90312561D01*
X115814344Y-90385000D01*
X116185656Y-90385000D01*
X116549834Y-90312561D01*
X116892882Y-90170466D01*
X117201618Y-89964175D01*
X117464175Y-89701618D01*
X117670466Y-89392882D01*
X117812561Y-89049834D01*
X117885000Y-88685656D01*
X117885000Y-88314344D01*
X117812561Y-87950166D01*
X117670466Y-87607118D01*
X117464175Y-87298382D01*
X117201618Y-87035825D01*
X116905660Y-86838072D01*
X117200000Y-86838072D01*
X117324482Y-86825812D01*
X117444180Y-86789502D01*
X117554494Y-86730537D01*
X117651185Y-86651185D01*
X117730537Y-86554494D01*
X117789502Y-86444180D01*
X117825812Y-86324482D01*
X117838072Y-86200000D01*
X117838072Y-84819268D01*
X139165000Y-84819268D01*
X139165000Y-85180732D01*
X139235518Y-85535250D01*
X139373844Y-85869199D01*
X139574662Y-86169744D01*
X139830256Y-86425338D01*
X140130801Y-86626156D01*
X140464750Y-86764482D01*
X140819268Y-86835000D01*
X141180732Y-86835000D01*
X141535250Y-86764482D01*
X141869199Y-86626156D01*
X142169744Y-86425338D01*
X142425338Y-86169744D01*
X142626156Y-85869199D01*
X142764482Y-85535250D01*
X142835000Y-85180732D01*
X142835000Y-84819268D01*
X142764482Y-84464750D01*
X142626156Y-84130801D01*
X142591723Y-84079268D01*
X144665000Y-84079268D01*
X144665000Y-84440732D01*
X144735518Y-84795250D01*
X144873844Y-85129199D01*
X145074662Y-85429744D01*
X145330256Y-85685338D01*
X145630801Y-85886156D01*
X145964750Y-86024482D01*
X146319268Y-86095000D01*
X146680732Y-86095000D01*
X147035250Y-86024482D01*
X147369199Y-85886156D01*
X147669744Y-85685338D01*
X147925338Y-85429744D01*
X148126156Y-85129199D01*
X148264482Y-84795250D01*
X148335000Y-84440732D01*
X148335000Y-84079268D01*
X148264482Y-83724750D01*
X148126156Y-83390801D01*
X147925338Y-83090256D01*
X147733143Y-82898061D01*
X153215000Y-82898061D01*
X153215000Y-83101939D01*
X153254774Y-83301898D01*
X153332795Y-83490256D01*
X153446063Y-83659774D01*
X153590226Y-83803937D01*
X153759744Y-83917205D01*
X153948102Y-83995226D01*
X154148061Y-84035000D01*
X154351939Y-84035000D01*
X154551898Y-83995226D01*
X154740256Y-83917205D01*
X154909774Y-83803937D01*
X155053937Y-83659774D01*
X155167205Y-83490256D01*
X155245226Y-83301898D01*
X155285000Y-83101939D01*
X155285000Y-83039801D01*
X155564802Y-82760000D01*
X156296289Y-82760000D01*
X156340226Y-82803937D01*
X156509744Y-82917205D01*
X156698102Y-82995226D01*
X156898061Y-83035000D01*
X157101939Y-83035000D01*
X157301898Y-82995226D01*
X157490256Y-82917205D01*
X157659774Y-82803937D01*
X157803937Y-82659774D01*
X157917205Y-82490256D01*
X157995226Y-82301898D01*
X158035000Y-82101939D01*
X158035000Y-81898061D01*
X157995226Y-81698102D01*
X157917205Y-81509744D01*
X157803937Y-81340226D01*
X157659774Y-81196063D01*
X157490256Y-81082795D01*
X157301898Y-81004774D01*
X157101939Y-80965000D01*
X156898061Y-80965000D01*
X156698102Y-81004774D01*
X156509744Y-81082795D01*
X156340226Y-81196063D01*
X156296289Y-81240000D01*
X155287333Y-81240000D01*
X155250000Y-81236323D01*
X155212667Y-81240000D01*
X155101014Y-81250997D01*
X154957753Y-81294454D01*
X154825724Y-81365026D01*
X154709999Y-81459999D01*
X154686201Y-81488997D01*
X154210199Y-81965000D01*
X154148061Y-81965000D01*
X153948102Y-82004774D01*
X153759744Y-82082795D01*
X153590226Y-82196063D01*
X153446063Y-82340226D01*
X153332795Y-82509744D01*
X153254774Y-82698102D01*
X153215000Y-82898061D01*
X147733143Y-82898061D01*
X147669744Y-82834662D01*
X147369199Y-82633844D01*
X147035250Y-82495518D01*
X146680732Y-82425000D01*
X146319268Y-82425000D01*
X145964750Y-82495518D01*
X145630801Y-82633844D01*
X145330256Y-82834662D01*
X145074662Y-83090256D01*
X144873844Y-83390801D01*
X144735518Y-83724750D01*
X144665000Y-84079268D01*
X142591723Y-84079268D01*
X142425338Y-83830256D01*
X142169744Y-83574662D01*
X141869199Y-83373844D01*
X141535250Y-83235518D01*
X141180732Y-83165000D01*
X140819268Y-83165000D01*
X140464750Y-83235518D01*
X140130801Y-83373844D01*
X139830256Y-83574662D01*
X139574662Y-83830256D01*
X139373844Y-84130801D01*
X139235518Y-84464750D01*
X139165000Y-84819268D01*
X117838072Y-84819268D01*
X117838072Y-83800000D01*
X117825812Y-83675518D01*
X117789502Y-83555820D01*
X117730537Y-83445506D01*
X117651185Y-83348815D01*
X117554494Y-83269463D01*
X117444180Y-83210498D01*
X117324482Y-83174188D01*
X117200000Y-83161928D01*
X114800000Y-83161928D01*
X114675518Y-83174188D01*
X114555820Y-83210498D01*
X114445506Y-83269463D01*
X114348815Y-83348815D01*
X114269463Y-83445506D01*
X114210498Y-83555820D01*
X114174188Y-83675518D01*
X114161928Y-83800000D01*
X114161928Y-86200000D01*
X114174188Y-86324482D01*
X114210498Y-86444180D01*
X114269463Y-86554494D01*
X114348815Y-86651185D01*
X114445506Y-86730537D01*
X114555820Y-86789502D01*
X114675518Y-86825812D01*
X114800000Y-86838072D01*
X115094340Y-86838072D01*
X114798382Y-87035825D01*
X114535825Y-87298382D01*
X114329534Y-87607118D01*
X114187439Y-87950166D01*
X114115000Y-88314344D01*
X109638063Y-88314344D01*
X109648932Y-88301101D01*
X109782182Y-88051808D01*
X109864236Y-87781309D01*
X109891943Y-87500000D01*
X109864236Y-87218691D01*
X109782182Y-86948192D01*
X109648932Y-86698899D01*
X109469608Y-86480392D01*
X109251101Y-86301068D01*
X109001808Y-86167818D01*
X108731309Y-86085764D01*
X108520492Y-86065000D01*
X107479508Y-86065000D01*
X107268691Y-86085764D01*
X106998192Y-86167818D01*
X106748899Y-86301068D01*
X106530392Y-86480392D01*
X106351068Y-86698899D01*
X106217818Y-86948192D01*
X106135764Y-87218691D01*
X106108057Y-87500000D01*
X95660000Y-87500000D01*
X95660000Y-82918003D01*
X98837573Y-82918003D01*
X98917947Y-83215368D01*
X99116388Y-83639439D01*
X99393748Y-84016648D01*
X99739369Y-84332498D01*
X100139968Y-84574852D01*
X100580150Y-84734396D01*
X101043000Y-84805000D01*
X102793000Y-84805000D01*
X102793000Y-82547000D01*
X103047000Y-82547000D01*
X103047000Y-84805000D01*
X104797000Y-84805000D01*
X105259850Y-84734396D01*
X105700032Y-84574852D01*
X106100631Y-84332498D01*
X106446252Y-84016648D01*
X106723612Y-83639439D01*
X106922053Y-83215368D01*
X107002427Y-82918003D01*
X106892625Y-82547000D01*
X103047000Y-82547000D01*
X102793000Y-82547000D01*
X98947375Y-82547000D01*
X98837573Y-82918003D01*
X95660000Y-82918003D01*
X95660000Y-81921997D01*
X98837573Y-81921997D01*
X98947375Y-82293000D01*
X102793000Y-82293000D01*
X102793000Y-80035000D01*
X103047000Y-80035000D01*
X103047000Y-82293000D01*
X106892625Y-82293000D01*
X107002427Y-81921997D01*
X106922053Y-81624632D01*
X106723612Y-81200561D01*
X106446252Y-80823352D01*
X106100631Y-80507502D01*
X105700032Y-80265148D01*
X105259850Y-80105604D01*
X104797000Y-80035000D01*
X103047000Y-80035000D01*
X102793000Y-80035000D01*
X101043000Y-80035000D01*
X100580150Y-80105604D01*
X100139968Y-80265148D01*
X99739369Y-80507502D01*
X99393748Y-80823352D01*
X99116388Y-81200561D01*
X98917947Y-81624632D01*
X98837573Y-81921997D01*
X95660000Y-81921997D01*
X95660000Y-75160000D01*
X194340001Y-75160000D01*
X194340000Y-124840000D01*
%TD*%
M02*
